<svg width="23" height="23" viewBox="0 0 23 23" fill="none" xmlns="http://www.w3.org/2000/svg">
<path d="M7.09539 1.36346L7.0638 0.644561L7.06369 0.644566L7.09539 1.36346ZM15.6451 1.36751L15.611 2.0863L15.6134 2.08641L15.6451 1.36751ZM18.1602 1.84928L18.4198 1.17813L18.4196 1.17804L18.1602 1.84928ZM19.9949 3.04359L19.4862 3.55253L19.488 3.55431L19.9949 3.04359ZM21.1816 4.88567L20.5068 5.13584L20.511 5.14657L21.1816 4.88567ZM21.6636 7.39979L22.3825 7.36818L22.3825 7.36806L21.6636 7.39979ZM21.6636 15.9421L22.3825 15.9739L22.3825 15.9738L21.6636 15.9421ZM21.1816 18.4563L21.8527 18.716L21.8528 18.7158L21.1816 18.4563ZM19.9868 20.2903L20.4956 20.7992L20.4956 20.7992L19.9868 20.2903ZM18.1521 21.4846L17.8926 20.8134L17.8914 20.8139L18.1521 21.4846ZM15.637 21.9663L15.6686 22.6852L15.6687 22.6852L15.637 21.9663ZM12.6444 22.0258H11.9248C11.9248 22.2169 12.0009 22.4002 12.1362 22.5352C12.2715 22.6702 12.455 22.7459 12.6462 22.7454L12.6444 22.0258ZM12.6444 14.8404V14.1208C12.247 14.1208 11.9248 14.443 11.9248 14.8404H12.6444ZM15.4492 14.8404V15.56C15.7965 15.56 16.0942 15.312 16.157 14.9704L15.4492 14.8404ZM16.0311 11.6731L16.7388 11.8031C16.7774 11.593 16.7207 11.3767 16.584 11.2125C16.4473 11.0484 16.2447 10.9535 16.0311 10.9535V11.6731ZM12.6444 11.6731H11.9248C11.9248 12.0705 12.247 12.3927 12.6444 12.3927V11.6731ZM16.1991 8.27406L16.1239 8.98972C16.3267 9.01102 16.529 8.94527 16.6806 8.80881C16.8321 8.67235 16.9187 8.478 16.9187 8.27406H16.1991ZM16.1991 5.40318H16.9187C16.9187 5.07979 16.7029 4.79611 16.3913 4.70973L16.1991 5.40318ZM8.88323 11.6731V12.3927C9.28065 12.3927 9.60283 12.0705 9.60283 11.6731H8.88323ZM6.7453 11.6731V10.9535C6.34788 10.9535 6.02571 11.2757 6.02571 11.6731H6.7453ZM6.7453 14.8404H6.02571C6.02571 15.2378 6.34788 15.56 6.7453 15.56V14.8404ZM8.88323 14.8404H9.60283C9.60283 14.443 9.28065 14.1208 8.88323 14.1208V14.8404ZM8.88323 22.0188L8.8753 22.7384C9.06752 22.7405 9.25258 22.6656 9.38925 22.5305C9.52592 22.3953 9.60283 22.2111 9.60283 22.0188H8.88323ZM7.09134 21.9663L7.05964 22.6852L7.05975 22.6852L7.09134 21.9663ZM4.57623 21.4846L4.31666 22.1557L4.3169 22.1558L4.57623 21.4846ZM2.74154 20.2903L3.25027 19.7813L3.24848 19.7795L2.74154 20.2903ZM1.54271 18.4522L0.872081 18.7131L0.872454 18.7141L1.54271 18.4522ZM1.06075 15.9381L0.341852 15.9697L0.341857 15.9698L1.06075 15.9381ZM1.06075 7.39169L0.341857 7.35997L0.341846 7.3602L1.06075 7.39169ZM1.54271 4.87757L0.872974 4.61435L0.871542 4.61806L1.54271 4.87757ZM2.74154 3.04359L3.24849 3.55432L3.25205 3.55074L2.74154 3.04359ZM4.58028 1.84523L4.31956 1.17453L4.3186 1.17491L4.58028 1.84523ZM11.3682 0.58314C8.54968 0.58314 8.18511 0.595292 7.0638 0.644561L7.12698 2.08236C8.21702 2.03447 8.55717 2.02233 11.3682 2.02233V0.58314ZM15.6792 0.648724C14.5524 0.595281 14.1866 0.58314 11.3682 0.58314V2.02233C14.1795 2.02233 14.5184 2.03448 15.611 2.0863L15.6792 0.648724ZM18.4196 1.17804C17.6803 0.892413 16.8493 0.700322 15.6768 0.648615L15.6134 2.08641C16.6442 2.13186 17.3199 2.29604 17.9009 2.52052L18.4196 1.17804ZM20.5037 2.53466C19.8535 1.88476 19.188 1.47523 18.4198 1.17813L17.9007 2.52043C18.4933 2.74965 18.9861 3.05265 19.4862 3.55252L20.5037 2.53466ZM21.8563 4.63552C21.5668 3.85469 21.1592 3.18538 20.5019 2.53288L19.488 3.55431C19.989 4.05159 20.2861 4.54015 20.5069 5.13581L21.8563 4.63552ZM22.3825 7.36806C22.3308 6.19675 22.1388 5.36131 21.8522 4.62476L20.511 5.14657C20.7347 5.72174 20.8992 6.40044 20.9447 7.43152L22.3825 7.36806ZM22.4439 11.671C22.4439 8.85351 22.4318 8.48906 22.3825 7.36818L20.9447 7.4314C20.9926 8.52101 21.0047 8.861 21.0047 11.671H22.4439ZM22.3825 15.9738C22.4318 14.8529 22.4439 14.4884 22.4439 11.671H21.0047C21.0047 14.4809 20.9926 14.8209 20.9447 15.9105L22.3825 15.9738ZM21.8528 18.7158C22.1386 17.9767 22.3307 17.146 22.3825 15.9739L20.9447 15.9104C20.8992 16.9407 20.735 17.616 20.5104 18.1968L21.8528 18.7158ZM20.4956 20.7992C21.1457 20.1493 21.5555 19.484 21.8527 18.716L20.5105 18.1965C20.2813 18.7889 19.9782 19.2815 19.4781 19.7813L20.4956 20.7992ZM18.4117 22.1557C19.1799 21.8586 19.8454 21.4491 20.4956 20.7992L19.4781 19.7813C18.978 20.2812 18.4852 20.5842 17.8926 20.8134L18.4117 22.1557ZM15.6687 22.6852C16.8404 22.6336 17.6761 22.4417 18.4129 22.1553L17.8914 20.8139C17.3159 21.0376 16.6369 21.2019 15.6053 21.2474L15.6687 22.6852ZM12.6462 22.7454C14.3378 22.7412 14.7475 22.7257 15.6686 22.6852L15.6054 21.2474C14.7063 21.2869 14.3166 21.3021 12.6426 21.3062L12.6462 22.7454ZM13.364 22.0258V14.8404H11.9248V22.0258H13.364ZM12.6444 15.56H15.4492V14.1208H12.6444V15.56ZM16.157 14.9704L16.7388 11.8031L15.3233 11.5431L14.7415 14.7104L16.157 14.9704ZM16.0311 10.9535H12.6444V12.3927H16.0311V10.9535ZM13.364 11.6731V10.5529H11.9248V11.6731H13.364ZM13.364 10.5529C13.364 9.78337 13.52 9.44663 13.6897 9.27991C13.8626 9.11 14.2133 8.9551 15.0013 8.9551V7.51591C14.0893 7.51591 13.2616 7.68292 12.681 8.25333C12.0973 8.82693 11.9248 9.6489 11.9248 10.5529H13.364ZM15.0013 8.9551C15.5279 8.9551 15.92 8.9683 16.1239 8.98972L16.2742 7.55841C15.9887 7.52841 15.5306 7.51591 15.0013 7.51591V8.9551ZM16.9187 8.27406V5.40318H15.4795V8.27406H16.9187ZM16.3913 4.70973C15.8464 4.55872 14.6443 4.42614 13.945 4.42614V5.86533C14.5596 5.86533 15.6244 5.99062 16.0069 6.09663L16.3913 4.70973ZM13.945 4.42614C12.1124 4.42614 10.6222 4.85803 9.60083 5.90065C8.58251 6.94019 8.16364 8.45136 8.16364 10.3083H9.60283C9.60283 8.63778 9.98251 7.56765 10.6289 6.90776C11.2723 6.25097 12.313 5.86533 13.945 5.86533V4.42614ZM8.16364 10.3083V11.6731H9.60283V10.3083H8.16364ZM8.88323 10.9535H6.7453V12.3927H8.88323V10.9535ZM6.02571 11.6731V14.8404H7.4649V11.6731H6.02571ZM6.7453 15.56H8.88323V14.1208H6.7453V15.56ZM8.16364 14.8404V22.0188H9.60283V14.8404H8.16364ZM7.05975 22.6852C7.70495 22.7136 8.10166 22.7299 8.8753 22.7384L8.89116 21.2993C8.13992 21.291 7.76078 21.2755 7.12293 21.2474L7.05975 22.6852ZM4.3169 22.1558C5.0562 22.4414 5.88715 22.6335 7.05964 22.6852L7.12304 21.2474C6.09228 21.202 5.41659 21.0378 4.83557 20.8133L4.3169 22.1558ZM2.23281 20.7992C2.88297 21.4491 3.54849 21.8586 4.31666 22.1557L4.8358 20.8134C4.24314 20.5842 3.75034 20.2812 3.25027 19.7813L2.23281 20.7992ZM0.872454 18.7141C1.17254 19.4822 1.57732 20.1485 2.2346 20.801L3.24848 19.7795C2.74743 19.2822 2.4475 18.7907 2.21297 18.1904L0.872454 18.7141ZM0.341857 15.9698C0.393552 17.1411 0.585535 17.9766 0.872082 18.7131L2.21334 18.1913C1.98958 17.6161 1.82515 16.9374 1.77965 15.9064L0.341857 15.9698ZM0.280405 11.6669C0.280405 14.4844 0.292563 14.8488 0.341852 15.9697L1.77965 15.9065C1.73174 14.8169 1.71959 14.4769 1.71959 11.6669H0.280405ZM0.341846 7.3602C0.292564 8.48504 0.280405 8.84942 0.280405 11.6669H1.71959C1.71959 8.85699 1.73174 8.51693 1.77966 7.42319L0.341846 7.3602ZM0.871542 4.61806C0.585771 5.35714 0.393588 6.18785 0.341857 7.35997L1.77965 7.42342C1.82512 6.39315 1.98934 5.71781 2.21388 5.13708L0.871542 4.61806ZM2.2346 2.53288C1.57751 3.18512 1.17296 3.85107 0.872984 4.61436L2.21244 5.14078C2.44707 4.54377 2.74724 4.05185 3.24848 3.55431L2.2346 2.53288ZM4.3186 1.17491C3.55029 1.47484 2.8837 1.87944 2.23103 2.53645L3.25205 3.55074C3.74961 3.04988 4.24134 2.75003 4.84196 2.51556L4.3186 1.17491ZM7.06369 0.644566C5.892 0.696238 5.05632 0.888129 4.31956 1.17453L4.84101 2.51593C5.41648 2.29223 6.09553 2.12785 7.12709 2.08236L7.06369 0.644566Z" fill="#4C4C4C"/>
</svg>
