<svg xmlns="http://www.w3.org/2000/svg" width="126" height="24" fill="none"><path fill="url(#a)" d="M10.7 7.4c6-2.8 12.2-3.6 17-2.6a3 3 0 0 1-1.4-1.2 4.5 4.5 0 0 0-4.6-2.3c-.8 0-1.6-.1-2-.5a4.5 4.5 0 0 0-5.2 0c-.6.4-1.4.6-2.2.5-2-.2-3.6.7-4.5 2.3a3 3 0 0 1-1.7 1.3c-1.6.6-2.8 2-3 3.8-.1 1-.6 1.6-1 2-1 1-1.5 2.3-1.5 3.5 2.6-2.6 6-5 10.1-6.8Z"/><path fill="url(#b)" d="M16 11A30.5 30.5 0 0 1 31 8a4.5 4.5 0 0 0-3-3 3.6 3.6 0 0 1-.2-.2c-4.8-1-11-.2-17 2.6-4 1.8-7.5 4.2-10 6.9A5 5 0 0 0 4.8 19c2.6-3.2 6.5-6 11.2-8.2Z"/><path fill="#018D43" d="M32 10.7c-.4-.4-1-1-1-2a4.5 4.5 0 0 0-.1-.6c-4.4-.4-9.6.5-14.8 2.8-4.7 2.1-8.6 5-11.2 8.2H12.6c.7 0 1.2.6 1.2 1.3v.3c0 1-1 1.2-1 1.2L7 23c-.2 0-.4.2-.4.4v.7h20.9v-.7c0-.2-.2-.3-.4-.4l-5.7-1s-1.1-.1-1.1-1.2v-.3c0-.7.5-1.3 1.2-1.3h7a5 5 0 0 0 5-4.9c0-1.2-.5-2.5-1.5-3.5Z"/><path fill="#000" fill-opacity=".9" d="M59.6 18.8H46.7V8.3h7.6c.2 1.7.7 4 1.6 6a11 11 0 0 1-2.8 2.9v.1l.3.7s0 .1.2 0c1.1-.6 2-1.5 3-2.5.5 1 1.2 2 2 2.7 0 .1.2 0 .2 0l.5-.6v-.1c-.8-1-1.4-2-2-3a20.4 20.4 0 0 0 1.6-2.7v-.2l-1.1-.5-.2.1-.8 1.7c-.5-1.7-.8-3.3-1-4.6h2.8s.4 0 .4-.5l-.4-2.2h1v13.2ZM46.8 5.6H54V7h-7.3V5.6Zm9 0H57l.3 1.5h-1.5a19.6 19.6 0 0 1 0-1.5Zm5-1.1H45.6a1 1 0 0 0-1 .9V19c0 .6.4 1 1 1h15.2a1 1 0 0 0 1-1V5.5a1 1 0 0 0-1-1Zm-7 11v-.7c0-.2-.2-.1-.2-.1-2.1.6-4.7.8-5.9.8a.2.2 0 0 0-.1.2V17l.1.2c1.4-.1 4.2-.7 6-1.5v-.1m-4-5.3h2v2.6h-2v-2.6Zm-1.2 3.5h4.3a1 1 0 0 0 1-.9v-2.7a1 1 0 0 0-1-.9h-4.3a1 1 0 0 0-1 1v2.6c0 .5.5 1 1 1m64.3-.8c-.1-1.1-.5-2-1.1-3-.1-.2-.2-.3 0-.6l1.3-4.2v-.1l-1-.5h-3a1 1 0 0 0-1 1V19c0 .6.5 1 1 1h.4l.2-.2v-14l.1-.1h1c.4 0 .4 0 .4.3l-.8 4c1.2 2.3 1.5 3.8 1 4.6l-.3.3h-.4a.2.2 0 0 0-.2.1v1a.2.2 0 0 0 0 .1h1.3l.7-.6c.5-.7.5-1.6.4-2.4m10 4.2.3-.8v-1.1l-.1-.2h-1.4s-.2 0-.2.2l-.1 1.1a3 3 0 0 1-2 2.3v1s0 .2.1.2c1.2-.4 2-1 2.7-1.7l1.8 1.6c.1.1.3.1.4 0l.7-.6v-.2l-2.2-1.8m-6.5 0 .3-.8.1-1.1s0-.2-.2-.2h-1.3s-.2 0-.2.2l-.2 1.1a3 3 0 0 1-1.9 2.3l-.1.2v.8s0 .2.2.2c1.1-.4 2-1 2.6-1.7l1.8 1.6h.5l.6-.6v-.2l-2.2-1.8m-1.1-6.3h1.5v2.3h-1.5V11Zm2.3 3.3a1 1 0 0 0 .9-1V11a1 1 0 0 0-1-1h-3a1 1 0 0 0-1 1v2.4c0 .5.4.9 1 .9h3ZM121 11h1.5v2.3h-1.5V11Zm-.9 3.3h3.2a1 1 0 0 0 .9-1V11a1 1 0 0 0-1-1h-3a1 1 0 0 0-1 1v2.4c0 .5.4.9 1 .9M116 7.9a12.7 12.7 0 0 0 2.7-2.4 12.6 12.6 0 0 0 2.8 2.4H116Zm9 .6c-2.8-1.2-4.3-3-5.2-4.2l-.5-.2h-1.2s-.3 0-.4.2c-.9 1.2-2.4 3-5.3 4.2-.2 0-.2.3-.2.3l.2.7s0 .2.3.1c1.1-.4 2-.9 2.8-1.4V9l.2.2h6a.2.2 0 0 0 .2-.2v-.7c.8.5 1.7 1 2.8 1.4.3.1.4-.1.4-.1l.2-.7s0-.2-.2-.3m-33 2c1-.2 2.3-.6 3.7-1.2 1.4.6 2.8 1 3.8 1.2h-7.6Zm1.1-3.7h5.2L95.9 8l-2.6-1.2m10.6 12h-6.2v-1.5h3.8a.2.2 0 0 0 .2-.2v-.8a.2.2 0 0 0-.2-.2h-3.8v-1.5h4.7a.2.2 0 0 0 .1-.2v-.8a.2.2 0 0 0-.1-.2h-4.7v-1.7h5.5a.2.2 0 0 0 .1-.2v-.8a.2.2 0 0 0-.1-.2h-1.8v-.4l-.1-.3c-1.1-.2-2.5-.7-3.7-1.1l2.5-1.2v-.7h2.5a.2.2 0 0 0 .2-.2v-.8a.2.2 0 0 0-.2-.2h-5.8v-1a.2.2 0 0 0-.2-.3H95a.2.2 0 0 0-.2.2v1.1H89a.2.2 0 0 0-.2.2v.8l.2.2h2.7v.7a36.9 36.9 0 0 0 2.5 1.2c-1.2.4-2.5.8-3.7 1-.1.1-.2.2-.1.3v.5h-1a1 1 0 0 0-1 1v2.7c0 1.2 0 1.7-.2 2.5a11 11 0 0 1-1.1 2.8v.1l.9.4.1-.1c.7-1.2 2-3.2 2-5.3V12c0-.1 0-.2.2-.2h5.5v1.7H93v-.9s.1-.1 0-.1h-1.3s-.1 0-.1.1c-.1 1.4-.2 1.7-1 2.6v1s0 .2.1.1a4 4 0 0 0 1.9-1.6h3.2v1.5H92a.2.2 0 0 0-.1.2v.8l.1.2h3.8v1.5h-6.2l-.2.3v.7l.2.2h14.3a.2.2 0 0 0 .2-.2V19a.2.2 0 0 0-.2-.2m-22.2-.7c-1.6-.7-3.4-1.4-5-1.7h-.2l-.3.7s0 .2 0 .2l4.5 2.1h.4l.7-1a.2.2 0 0 0-.1-.3m-9-1.1-.1-.7s0-.2-.2-.1c-1.7.9-3.4 1.3-5.3 1.8v.3c0 .3.3.9.4 1.1a.2.2 0 0 0 .3.1 30 30 0 0 0 4.9-2.3V17ZM83 14c-1-.5-2.3-1.3-3.2-2.1H83l.2-.2v-1a.2.2 0 0 0-.2-.1H72.1l1-1.5H81A.2.2 0 0 0 81 9V8a.2.2 0 0 0-.1 0h-7l.8-1.6h7.6a.2.2 0 0 0 .2-.1v-1a.2.2 0 0 0-.2-.2h-7l.1-.4c.1-.2 0-.3-.1-.4L73.8 4c-.3 0-.4.3-.4.3l-.1.4-.2.4h-6.3a.2.2 0 0 0-.1.2v1l.1.1h5.8L71.9 8h-3.7a.2.2 0 0 0-.1.2v1h3.1L70 10.8h-4a.2.2 0 0 0-.1.1v1s0 .2.2.2H69c-.8.8-1.8 1.6-2.9 2.1-.2 0-.1.3-.1.3l.2.5s0 .2.3.1a9.8 9.8 0 0 0 2-.9l3.4 1.3h.2l.5-1.1s0-.2-.1-.2c-.6-.3-1.9-.6-2.9-.9L71 12h6.8l1.3 1.2-2.8.7-.1.2.3 1.2a14.3 14.3 0 0 0 3.7-1.4c.8.5 1.6.9 2.3 1.1.3.1.4 0 .4 0l.2-.6s0-.2-.2-.3m-8.3-1.3h-1a.2.2 0 0 0-.2.2v5.1c0 .5 0 .7-.8.7H72v.9c0 .2 0 .3.2.3h.8c1.9 0 2.4-.3 2.4-1.9v-4.3a1 1 0 0 0-.9-1Z"/><defs><linearGradient id="a" x1="21.2" x2="5.6" y1="-1" y2="18.3" gradientUnits="userSpaceOnUse"><stop stop-color="#6FB72D"/><stop offset=".4" stop-color="#43A635"/><stop offset=".8" stop-color="#13943F"/><stop offset="1" stop-color="#018D43"/></linearGradient><linearGradient id="b" x1="26.1" x2="7.5" y1="-1.6" y2="21.4" gradientUnits="userSpaceOnUse"><stop stop-color="#45AD35"/><stop offset=".2" stop-color="#2DA239"/><stop offset=".5" stop-color="#15963E"/><stop offset=".8" stop-color="#068F41"/><stop offset="1" stop-color="#018D43"/></linearGradient></defs><script/></svg>