<svg xmlns="http://www.w3.org/2000/svg" viewBox="0 0 432 64"><path d="M167.6 14.7c1.4 0 2.7.3 3.6.8l-1.1 3.6c-.7-.4-1.5-.5-2.4-.5-1 0-1.9.3-2.5 1a4 4 0 0 0-1 2.8v2.8h5.8v3.7h-5.8V47h-4V29H156v-3.8h4.1V22c0-2.2.7-4 2.1-5.3 1.4-1.3 3.2-2 5.4-2ZM171 36c0-3.3 1-6 3.1-8.2 2.1-2.2 4.8-3.3 8-3.3 3.3 0 6 1 8.1 3.3 2.2 2.2 3.2 5 3.2 8.3 0 3.4-1 6.2-3.2 8.3a10.7 10.7 0 0 1-8 3.3c-3.3 0-6-1-8.1-3.3-2.1-2.2-3.2-5-3.2-8.3Zm4 0a8 8 0 0 0 2 5.8c1.5 1.5 3.2 2.2 5.2 2.2s3.7-.7 5-2.2a8 8 0 0 0 2.1-5.7c0-2.4-.7-4.2-2-5.7a6.7 6.7 0 0 0-5.1-2.2c-2 0-3.7.7-5.1 2.2a8 8 0 0 0-2 5.7ZM200.4 47h-4V25.2h3.9v3.5h.1a6 6 0 0 1 2.6-3 7.1 7.1 0 0 1 3.8-1.2c1.3 0 2.2.2 3 .6l-1.2 4c-.5-.3-1.3-.4-2.4-.4-1.5 0-2.9.7-4 2a6.3 6.3 0 0 0-1.8 4.3v12ZM223 47V15h9.8a16 16 0 0 1 11.8 4.5c3 3 4.4 6.8 4.4 11.6 0 4.7-1.5 8.6-4.4 11.5a16 16 0 0 1-11.8 4.4h-9.7Zm4.2-28v24.1h5.6c3.7 0 6.7-1 8.8-3.2 2.2-2.1 3.2-5 3.2-8.8 0-3.8-1-6.7-3.2-8.9-2.1-2.1-5-3.2-8.8-3.2h-5.6ZM262.3 47.7c-3.2 0-5.8-1-7.9-3.3-2-2.2-3.1-5-3.1-8.3 0-3.4 1-6.1 3-8.3a10 10 0 0 1 7.8-3.3c3.1 0 5.8 1 7.7 3.1 2 2.1 2.9 5 2.9 8.8v.5h-17.2a7 7 0 0 0 2.1 5.1c1.4 1.3 3 2 5 2 2.5 0 4.6-1.3 6-4l3.7 1.9a10.9 10.9 0 0 1-10 5.8Zm-6.5-14.2h12.5a5.4 5.4 0 0 0-1.8-3.8 6.5 6.5 0 0 0-4.5-1.5 6 6 0 0 0-4 1.4 6.8 6.8 0 0 0-2.2 3.9ZM285.4 47h-4.1l-8.8-21.8h4.4l6.4 17h.1l6.5-17h4.4l-9 21.8ZM305.1 47.7c-3.2 0-5.9-1-8-3.3-2-2.2-3-5-3-8.3 0-3.4 1-6.1 3-8.3a10 10 0 0 1 7.7-3.3c3.2 0 5.9 1 7.8 3.1 1.9 2.1 2.8 5 2.8 8.8v.5h-17.2c0 2.1.8 3.8 2.2 5.1 1.3 1.3 3 2 4.9 2 2.6 0 4.6-1.3 6.1-4l3.7 1.9a10.9 10.9 0 0 1-10 5.8Zm-6.6-14.2h12.6a5.4 5.4 0 0 0-1.9-3.8 6.5 6.5 0 0 0-4.5-1.5 6 6 0 0 0-4 1.4 6.8 6.8 0 0 0-2.2 3.9ZM322.5 15v32h-4.1V15h4ZM325.4 36c0-3.3 1-6 3.2-8.2 2.1-2.2 4.8-3.3 8-3.3 3.3 0 6 1 8.1 3.3 2.2 2.2 3.2 5 3.2 8.3 0 3.4-1 6.2-3.2 8.3a10.7 10.7 0 0 1-8 3.3c-3.3 0-6-1-8.1-3.3-2.1-2.2-3.2-5-3.2-8.3Zm4.1 0a8 8 0 0 0 2 5.8c1.5 1.5 3.2 2.2 5.2 2.2s3.7-.7 5-2.2a8 8 0 0 0 2.1-5.7c0-2.4-.7-4.2-2-5.7a6.7 6.7 0 0 0-5.1-2.2c-2 0-3.7.7-5.1 2.2a8 8 0 0 0-2 5.7ZM362.3 47.7c-1.6 0-3-.3-4.4-1a7.7 7.7 0 0 1-3-2.7h-.2l.2 3v9.7h-4.1V25.2h3.9v3h.2c.7-1.1 1.7-2 3-2.7 1.3-.7 2.8-1 4.4-1 2.9 0 5.3 1 7.3 3.3s3.1 5 3.1 8.3c0 3.2-1 6-3 8.2a9.4 9.4 0 0 1-7.4 3.4Zm-.7-3.7c2 0 3.6-.8 5-2.2a8 8 0 0 0 2-5.7 8 8 0 0 0-2-5.7 6.4 6.4 0 0 0-5-2.2c-2 0-3.6.7-5 2.2a8.3 8.3 0 0 0-2 5.7c0 2.3.7 4.2 2 5.7 1.4 1.5 3 2.2 5 2.2ZM385.6 47.7c-3.3 0-5.9-1-8-3.3-2-2.2-3.1-5-3.1-8.3 0-3.4 1-6.1 3-8.3a10 10 0 0 1 7.8-3.3c3.1 0 5.8 1 7.7 3.1 2 2.1 3 5 3 8.8l-.1.5h-17.2a7 7 0 0 0 2.1 5.1c1.4 1.3 3 2 5 2 2.6 0 4.6-1.3 6.1-4l3.7 1.9a10.8 10.8 0 0 1-10 5.8ZM379 33.5h12.5a5.4 5.4 0 0 0-1.8-3.8 6.5 6.5 0 0 0-4.5-1.5 6 6 0 0 0-4 1.4 6.8 6.8 0 0 0-2.2 3.9ZM403 47h-4.1V25.2h3.9v3.5h.2a6 6 0 0 1 2.5-3 7.1 7.1 0 0 1 3.8-1.2c1.3 0 2.2.2 3 .6l-1.2 4c-.5-.3-1.3-.4-2.4-.4-1.5 0-2.9.7-4 2A6.3 6.3 0 0 0 403 35v12ZM430.7 41a6 6 0 0 1-2.5 4.8 9.9 9.9 0 0 1-6.3 2 10 10 0 0 1-5.8-1.8 9.4 9.4 0 0 1-3.5-4.5l3.6-1.6a6.7 6.7 0 0 0 2.4 3c1 .8 2.1 1.2 3.3 1.2a6 6 0 0 0 3.3-.9c.9-.5 1.3-1.2 1.3-2 0-1.4-1-2.4-3.2-3l-3.7-1c-4.3-1-6.4-3.1-6.4-6.1 0-2 .8-3.6 2.4-4.8 1.6-1.2 3.7-1.9 6.2-1.9 2 0 3.7.5 5.3 1.4 1.5 1 2.6 2.2 3.3 3.7l-3.7 1.6c-.4-1-1-1.7-2-2.2-1-.5-2-.8-3.2-.8-1 0-2 .3-2.8.8-.9.6-1.3 1.2-1.3 2 0 1.2 1.2 2.1 3.5 2.7l3.3.8c4.4 1 6.5 3.3 6.5 6.6Z" class="cls-5" style="fill:#5f6368"/><path d="M19.9 47.7c-10 0-18.3-8-18.3-18s8.3-18 18.3-18c5.5 0 9.4 2 12.3 4.9L28.8 20A13 13 0 0 0 7 29.7a13 13 0 0 0 12.9 13 12 12 0 0 0 9-3.5c1.5-1.4 2.4-3.5 2.8-6.2h-12v-5h16.8l.2 3.1c0 3.7-1 8.3-4.2 11.6-3.2 3.3-7.3 5-12.6 5Z" class="cls-3" style="fill:#4285f4"/><path d="M61.8 36.1c0 6.7-5.3 11.6-11.7 11.6-6.4 0-11.6-4.9-11.6-11.6 0-6.7 5.2-11.6 11.6-11.6 6.4 0 11.7 4.9 11.7 11.6Zm-5.1 0c0-4.2-3-7-6.6-7-3.5 0-6.5 2.8-6.5 7s3 7 6.5 7 6.6-2.9 6.6-7Z" class="cls-2" style="fill:#ea4335"/><path d="M87.1 36.1c0 6.7-5.2 11.6-11.6 11.6-6.4 0-11.7-4.9-11.7-11.6 0-6.7 5.3-11.6 11.7-11.6C81.9 24.5 87 29.4 87 36Zm-5 0c0-4.2-3.1-7-6.6-7-3.5 0-6.6 2.8-6.6 7s3 7 6.6 7c3.5 0 6.5-2.9 6.5-7Z" class="cls-1" style="fill:#fbbc04"/><path d="M111.4 25.2V46c0 8.5-5 12-11 12A11 11 0 0 1 90 51.4l4.5-1.8a6.4 6.4 0 0 0 5.8 4c3.9 0 6.2-2.3 6.2-6.7V45h-.1a8 8 0 0 1-6.2 2.6c-5.8 0-11-5-11-11.6 0-6.5 5.2-11.6 11-11.6a8 8 0 0 1 6.2 2.6h.1v-2h4.9Zm-4.5 11c0-4.2-2.7-7.1-6.2-7.1s-6.5 3-6.5 7c0 4.1 3 7 6.5 7s6.2-2.9 6.2-7Z" class="cls-3" style="fill:#4285f4"/><path d="M120.2 12.8V47H115V12.8h5.2Z" class="cls-4" style="fill:#34a853"/><path d="m140 40 4 2.6a11.6 11.6 0 0 1-9.8 5.1c-6.6 0-11.5-5-11.5-11.6 0-7 5-11.6 11-11.6s9 4.8 9.9 7.4l.5 1.3-15.5 6.4a6 6 0 0 0 5.6 3.5c2.6 0 4.4-1.2 5.7-3.2Zm-12.2-4.2 10.3-4.4c-.5-1.4-2.2-2.4-4.3-2.4a6.4 6.4 0 0 0-6 6.8Z" class="cls-2" style="fill:#ea4335"/><script/></svg>