<?xml version="1.0" encoding="UTF-8"?>
<!-- Generator: Adobe Illustrator 16.0.0, SVG Export Plug-In . SVG Version: 6.00 Build 0)  -->
<!DOCTYPE svg PUBLIC "-//W3C//DTD SVG 1.1//EN" "http://www.w3.org/Graphics/SVG/1.1/DTD/svg11.dtd">
<svg version="1.1" id="圖層_1" xmlns="http://www.w3.org/2000/svg" xmlns:xlink="http://www.w3.org/1999/xlink" x="0px" y="0px" width="184.25px" height="45px" viewBox="0 0 184.25 45" enable-background="new 0 0 184.25 45" xml:space="preserve">
<g>
	<path fill="#2A95B0" d="M37.339,34.918c-0.13,0-0.263-0.026-0.391-0.081l-16.835-7.229c-0.504-0.216-0.736-0.799-0.52-1.302   c0.215-0.504,0.797-0.737,1.302-0.521l16.835,7.229c0.504,0.216,0.736,0.799,0.52,1.303C38.09,34.693,37.724,34.918,37.339,34.918z   "/>
	<linearGradient id="SVGID_1_" gradientUnits="userSpaceOnUse" x1="22.6357" y1="37.2275" x2="44.6152" y2="8.1491">
		<stop offset="0.1364" style="stop-color:#2A95B0"/>
		<stop offset="1" style="stop-color:#BCDBE4"/>
	</linearGradient>
	<path fill="url(#SVGID_1_)" d="M49.793,27.413c0.715,0.624,1.485,1.191,2.309,1.691c1.109,0.673,1.899,1.555,2.5,2.711   c1.502,2.887,1.289,5.79,0.081,8.047c-1.207,2.26-4.418,4.969-8.79,4.173c-4.373-0.797-6.162-4.527-6.587-6.544   c-0.437-2.075,0.275-4.017,1.084-5.899c1.798-4.189,2.147-9.324-0.114-13.422c-1.476-2.672-3.586-5.281-6.918-4.006   c-1.613,0.616-3.222,1.302-4.622,2.326c-0.862,0.63-1.668,1.379-2.367,2.188c-1.497,1.735-2.162,3.795-3.126,5.83   c-0.51,1.076-1.155,2.231-1.961,3.117c-0.627,0.689-1.359,1.297-2.189,1.726c-1.957,1.01-3.979,1.507-6.187,1.303   c-2.44-0.221-5.148-1.637-6.751-3.455c-1.801-2.044-2.685-4.794-2.358-7.5c0.544-4.487,3.433-8.438,8.037-9.276   c1.28-0.232,2.833-0.37,4.126-0.165c1.771,0.279,3.42,0.982,5.239,1.008c1.519,0.021,3.083-0.272,4.519-0.769   c0.564-0.196,1.13-0.432,1.65-0.731c1.513-0.869,3.441-1.767,5.271-4.355c1.056-1.495,2.435-2.884,4.267-3.336   c1.505-0.371,3.236-0.103,4.545,0.735c0.733,0.47,1.458,1.197,1.913,1.944c0.727,1.192,0.975,2.559,0.771,3.934   c-0.269,1.812-0.871,3.418-0.716,5.28c0.129,1.56,0.428,3.1,0.861,4.603C45.263,21.989,47.143,25.098,49.793,27.413z"/>
	<path fill="#324853" d="M12.319,28.661c-5.599,0-10.154-4.555-10.154-10.154c0-5.599,4.555-10.153,10.154-10.153   c5.598,0,10.153,4.555,10.153,10.153C22.472,24.106,17.917,28.661,12.319,28.661z M12.319,9.346c-5.052,0-9.162,4.11-9.162,9.162   c0,5.052,4.11,9.162,9.162,9.162c5.051,0,9.162-4.109,9.162-9.162C21.481,13.456,17.371,9.346,12.319,9.346z"/>
	<path fill="#324853" d="M45.015,42.219c-4.72,0-8.56-3.84-8.56-8.559c0-4.72,3.84-8.56,8.56-8.56c4.719,0,8.558,3.84,8.558,8.56   C53.573,38.379,49.734,42.219,45.015,42.219z M45.015,26.093c-4.173,0-7.567,3.395-7.567,7.567c0,4.171,3.395,7.566,7.567,7.566   c4.172,0,7.566-3.396,7.566-7.566C52.581,29.487,49.187,26.093,45.015,26.093z"/>
	<path fill="#324853" d="M36.066,12.801c-3.303,0-5.989-2.687-5.989-5.989c0-3.302,2.687-5.989,5.989-5.989   c3.302,0,5.989,2.687,5.989,5.989C42.055,10.115,39.368,12.801,36.066,12.801z M36.066,1.815c-2.756,0-4.998,2.242-4.998,4.997   c0,2.756,2.242,4.998,4.998,4.998c2.755,0,4.997-2.242,4.997-4.998C41.063,4.057,38.821,1.815,36.066,1.815z"/>
	<path fill="#324853" d="M22.421,13.776c-0.18,0-0.354-0.098-0.442-0.27c-0.125-0.244-0.029-0.542,0.215-0.667l6.912-3.544   c0.243-0.127,0.542-0.029,0.667,0.214c0.125,0.244,0.029,0.543-0.215,0.667l-6.911,3.544   C22.574,13.758,22.497,13.776,22.421,13.776z"/>
	<path fill="#324853" d="M42.416,24.852c-0.215,0-0.413-0.14-0.476-0.356l-3.249-11.164c-0.077-0.264,0.074-0.539,0.336-0.615   c0.265-0.077,0.539,0.075,0.615,0.337l3.249,11.165c0.077,0.263-0.074,0.538-0.337,0.614   C42.508,24.846,42.462,24.852,42.416,24.852z"/>
</g>
<g>
	<path fill="#324853" stroke="#324853" stroke-width="0.3" stroke-miterlimit="10" d="M100.082,27.263h-9.607l1.982-1.755   c0.055-0.048,0.061-0.133,0.012-0.187l-0.354-0.4c-0.022-0.027-0.056-0.043-0.092-0.045c-0.034-0.003-0.07,0.01-0.096,0.033   l-2.66,2.354h-5.221c-0.075,0-0.134,0.06-0.134,0.134v0.534c0,0.074,0.059,0.133,0.134,0.133h4.315l-3.127,2.768   c-0.19,0.117-0.316,0.318-0.334,0.541c-0.031,0.38,0.254,0.676,0.708,0.722c0.082-0.001,1.224-0.003,3.393-0.003   c3.257,0,7.847,0.002,9.036,0.003h0.245l0.142,0.509c0.018,0.059,0.071,0.099,0.13,0.099c0.011,0,0.023-0.002,0.036-0.006   l0.514-0.143c0.035-0.011,0.063-0.034,0.081-0.063c0.017-0.031,0.021-0.068,0.013-0.103l-0.483-1.725   c-0.021-0.073-0.095-0.114-0.166-0.094l-0.514,0.144c-0.035,0.011-0.064,0.032-0.081,0.063c-0.018,0.031-0.021,0.066-0.012,0.102   l0.116,0.415l-8.149-0.002c-2.095,0-3.43,0-3.986,0.002l3.646-3.229h10.514c0.073,0,0.134-0.059,0.134-0.133v-0.534   C100.216,27.322,100.155,27.263,100.082,27.263z"/>
	<path fill="#324853" stroke="#324853" stroke-width="0.3" stroke-miterlimit="10" d="M98.039,33.493H86.243   c-0.381,0-0.689,0.29-0.689,0.645v8.836c0,0.074,0.061,0.133,0.133,0.133h0.534c0.074,0,0.134-0.059,0.134-0.133v-3.272h11.572   v1.703l-0.019,0.95h-3.511c-0.073,0-0.133,0.06-0.133,0.136v0.532c0,0.074,0.06,0.135,0.133,0.135h3.642   c0.38,0,0.689-0.291,0.689-0.646v-8.374C98.729,33.783,98.419,33.493,98.039,33.493z M97.927,36.262H86.354v-1.158l0.019-0.81   h10.432l1.122-0.019V36.262z M97.927,37.063v1.837H86.354v-1.837H97.927z"/>
</g>
<g>
	<path fill="#324853" stroke="#324853" stroke-width="0.3" stroke-miterlimit="10" d="M113.999,15.333h-5.991   c-0.394,0-0.714,0.292-0.714,0.651v4.451c0,0.358,0.32,0.649,0.714,0.649h5.991c0.395,0,0.715-0.291,0.715-0.649v-4.451   C114.714,15.626,114.394,15.333,113.999,15.333z M108.085,16.136h5.827v3.249l0.01,0.898h-5.827v-3.318L108.085,16.136z"/>
	<path fill="#324853" stroke="#324853" stroke-width="0.3" stroke-miterlimit="10" d="M107.082,14.488h6.726   c0.424,0,0.757-0.283,0.757-0.646V9.466c0-0.362-0.333-0.647-0.757-0.647h-6.78c-0.424,0-0.756,0.284-0.756,0.646v4.377   c0,0.031,0.005,0.062,0.011,0.091v4.543c0.001,0.045,0.021,1.132-0.574,1.748c-0.274,0.286-0.655,0.43-1.129,0.43   c-0.075,0-0.135,0.06-0.135,0.133v0.534c0,0.074,0.06,0.133,0.135,0.133c0.7,0,1.276-0.228,1.709-0.677   c0.849-0.882,0.794-2.308,0.794-2.315V14.488z M113.764,11.349h-6.682V9.621l6.682,0.001V11.349z M113.777,13.687l-6.695-0.002   V12.15h6.682v0.66L113.777,13.687z"/>
	<path fill="#324853" stroke="#324853" stroke-width="0.3" stroke-miterlimit="10" d="M113.417,7.614   c0.073,0,0.134-0.06,0.134-0.133V6.946c0-0.074-0.061-0.133-0.134-0.133h-5.788c-0.074,0-0.133,0.059-0.133,0.133V7.48   c0,0.074,0.059,0.133,0.133,0.133H113.417z"/>
	<path fill="#324853" stroke="#324853" stroke-width="0.3" stroke-miterlimit="10" d="M111.716,3.529   c-0.396-0.411-0.82-0.607-1.272-0.584c-0.598,0.032-1.016,0.46-1.117,0.591v0l-4.596,5.017c-0.05,0.055-0.046,0.139,0.009,0.189   l0.394,0.361c0.024,0.023,0.058,0.035,0.091,0.035c0.002,0,0.004,0,0.005,0c0.035-0.001,0.069-0.017,0.093-0.043l4.615-5.041   c0.003-0.003,0.24-0.294,0.561-0.309c0.21,0,0.429,0.119,0.68,0.376c0.896,0.709,3.419,3.218,3.444,3.244   c0.024,0.025,0.059,0.04,0.093,0.04c0.036,0,0.071-0.014,0.096-0.04l0.378-0.378c0.023-0.025,0.038-0.06,0.038-0.095   c0-0.036-0.015-0.07-0.041-0.095C114.922,6.534,112.577,4.207,111.716,3.529z"/>
	<path fill="#324853" stroke="#324853" stroke-width="0.3" stroke-miterlimit="10" d="M117.669,16.641v-9.12   c0-0.073-0.058-0.134-0.133-0.134h-0.534c-0.073,0-0.134,0.061-0.134,0.134v9.12c0,0.074,0.061,0.134,0.134,0.134h0.534   C117.611,16.774,117.669,16.714,117.669,16.641z"/>
	<path fill="#324853" stroke="#324853" stroke-width="0.3" stroke-miterlimit="10" d="M121.392,3.967h-0.534   c-0.075,0-0.134,0.06-0.134,0.133v15.69c-0.002,0.034-0.024,0.345-0.437,0.493l-0.391-0.001c-1.069,0-2.585,0.015-2.631,0.015   c-0.035,0-0.068,0.016-0.094,0.04c-0.024,0.026-0.039,0.059-0.039,0.096l0.006,0.533c0,0.037,0.015,0.07,0.042,0.096   c0.024,0.023,0.056,0.038,0.091,0.038c0.003,0,0.003,0,0.003,0c0.031-0.001,1.52-0.016,2.584-0.016l0.528,0.003   c0.013-0.007,0.027-0.003,0.04-0.007l0.039-0.011c1.034-0.311,1.059-1.224,1.059-1.265V4.1   C121.524,4.026,121.464,3.967,121.392,3.967z"/>
</g>
<g>
	<path fill="#324853" stroke="#324853" stroke-width="0.3" stroke-miterlimit="10" d="M155.129,15.334h-5.991   c-0.395,0-0.715,0.292-0.715,0.651v4.45c0,0.358,0.32,0.65,0.715,0.65h5.991c0.394,0,0.714-0.292,0.714-0.65v-4.45   C155.843,15.626,155.522,15.334,155.129,15.334z M149.215,16.136h5.827v3.249l0.01,0.899h-5.828v-3.319L149.215,16.136z"/>
	<path fill="#324853" stroke="#324853" stroke-width="0.3" stroke-miterlimit="10" d="M148.213,14.488h6.725   c0.425,0,0.757-0.284,0.757-0.646V9.466c0-0.362-0.332-0.646-0.757-0.646h-6.781c-0.424,0-0.757,0.283-0.757,0.646v4.377   c0,0.031,0.007,0.062,0.013,0.091v4.543c0,0.045,0.021,1.131-0.574,1.748c-0.274,0.285-0.654,0.429-1.129,0.429   c-0.075,0-0.135,0.06-0.135,0.133v0.534c0,0.074,0.06,0.133,0.135,0.133c0.701,0,1.276-0.227,1.709-0.677   c0.849-0.882,0.795-2.307,0.795-2.315V14.488z M154.892,11.349h-6.679V9.621l6.679,0.002V11.349z M154.906,13.687l-6.693-0.002   V12.15h6.679v0.661L154.906,13.687z"/>
	<path fill="#324853" stroke="#324853" stroke-width="0.3" stroke-miterlimit="10" d="M154.547,7.615   c0.072,0,0.133-0.061,0.133-0.134V6.946c0-0.073-0.061-0.132-0.133-0.132h-5.787c-0.075,0-0.133,0.059-0.133,0.132v0.535   c0,0.073,0.058,0.134,0.133,0.134H154.547z"/>
	<path fill="#324853" stroke="#324853" stroke-width="0.3" stroke-miterlimit="10" d="M152.844,3.529   c-0.396-0.411-0.823-0.609-1.272-0.584c-0.595,0.032-1.013,0.461-1.115,0.592v0l-4.596,5.017c-0.05,0.055-0.045,0.139,0.009,0.188   l0.393,0.362c0.025,0.022,0.059,0.035,0.092,0.035c0,0,0.002,0,0.004,0c0.036-0.001,0.071-0.017,0.094-0.043l4.614-5.041   c0.005-0.003,0.241-0.294,0.562-0.309c0.21,0,0.429,0.119,0.678,0.376c0.898,0.709,3.421,3.219,3.446,3.245   c0.024,0.025,0.058,0.039,0.094,0.039c0.035,0,0.07-0.014,0.096-0.039l0.376-0.379c0.025-0.025,0.037-0.06,0.037-0.095   c0-0.036-0.012-0.07-0.039-0.096C156.05,6.534,153.707,4.207,152.844,3.529z"/>
	<path fill="#324853" stroke="#324853" stroke-width="0.3" stroke-miterlimit="10" d="M158.8,16.641v-9.12   c0-0.074-0.061-0.134-0.134-0.134h-0.534c-0.073,0-0.133,0.06-0.133,0.134v9.12c0,0.073,0.06,0.134,0.133,0.134h0.534   C158.739,16.775,158.8,16.714,158.8,16.641z"/>
	<path fill="#324853" stroke="#324853" stroke-width="0.3" stroke-miterlimit="10" d="M162.521,3.967h-0.534   c-0.073,0-0.133,0.06-0.133,0.133v15.69c-0.003,0.035-0.027,0.345-0.438,0.494l-0.393-0.002c-1.083,0-2.629,0.015-2.629,0.015   c-0.035,0-0.07,0.016-0.093,0.041c-0.027,0.025-0.04,0.059-0.04,0.095l0.007,0.533c0,0.037,0.014,0.071,0.039,0.096   c0.025,0.024,0.061,0.038,0.094,0.038h0.002c0.031-0.001,1.518-0.016,2.585-0.016l0.528,0.003c0.006,0,0.024-0.003,0.037-0.006   l0.039-0.011c1.036-0.312,1.061-1.225,1.061-1.265V4.101C162.654,4.027,162.595,3.967,162.521,3.967z"/>
</g>
<g>
	<path fill="#324853" stroke="#324853" stroke-width="0.3" stroke-miterlimit="10" d="M125.188,10.766h8.354   c0.075,0,0.135-0.061,0.135-0.134v-0.534c0-0.075-0.06-0.135-0.135-0.135h-2.082l0.872-3.717h0.985c0.075,0,0.135-0.06,0.135-0.133   V5.579c0-0.074-0.06-0.133-0.135-0.133h-3.489V3.563c0-0.074-0.059-0.133-0.133-0.133h-0.535c-0.072,0-0.133,0.06-0.133,0.133   v1.882h-3.614c-0.075,0-0.133,0.06-0.133,0.133v0.535c0,0.074,0.058,0.133,0.133,0.133h1.046l0.871,3.717h-2.142   c-0.075,0-0.133,0.06-0.133,0.135v0.534C125.056,10.706,125.113,10.766,125.188,10.766z M128.154,9.964l-0.872-3.717h4.226   l-0.871,3.717H128.154z"/>
	<path fill="#324853" stroke="#324853" stroke-width="0.3" stroke-miterlimit="10" d="M142.336,9.964h-6.866   c0-3.019,0.004-3.784,0.008-3.878c0.002-0.059,0.017-0.101,0.191-0.124l5.689-1.449c0.033-0.009,0.064-0.031,0.081-0.062   c0.02-0.031,0.025-0.066,0.015-0.102l-0.131-0.517c-0.008-0.034-0.031-0.064-0.063-0.082c-0.029-0.019-0.066-0.023-0.1-0.014   l-5.616,1.438c-0.287,0.018-0.839,0.225-0.867,0.875c-0.009,0.157-0.011,1.569-0.011,4.315v0.707v1.555   c0.002,0.725,0.002,1.45,0,2.176l-0.002,1.596c0.002,1.264-0.075,2.279-1.034,2.858c-0.28,0.171-0.663,0.301-1.052,0.358   c-0.035,0.005-0.066,0.024-0.087,0.053c-0.021,0.028-0.031,0.064-0.025,0.099l0.077,0.528c0.01,0.067,0.066,0.115,0.133,0.115   c0.006,0,0.013,0,0.019-0.002c0.491-0.072,0.981-0.241,1.352-0.464c1.421-0.859,1.421-2.411,1.421-3.543v-1.595   c0.002-0.726,0.002-1.452,0.002-2.178v-1.554v-0.305h3.801v9.991c0,0.074,0.059,0.133,0.134,0.133h0.534   c0.072,0,0.133-0.06,0.133-0.133v-9.991h2.265c0.075,0,0.136-0.061,0.136-0.134v-0.534C142.472,10.024,142.411,9.964,142.336,9.964   z"/>
	<path fill="#324853" stroke="#324853" stroke-width="0.3" stroke-miterlimit="10" d="M132.931,17.715   c0.027-0.022,0.046-0.053,0.05-0.09c0.004-0.035-0.006-0.069-0.029-0.097l-2.771-3.513h3.362c0.075,0,0.135-0.06,0.135-0.133   v-0.535c0-0.074-0.06-0.133-0.135-0.133h-3.714v-1.659c0-0.074-0.059-0.133-0.133-0.133h-0.535c-0.072,0-0.133,0.06-0.133,0.133   v1.659h-3.839c-0.075,0-0.133,0.06-0.133,0.133v0.535c0,0.074,0.058,0.133,0.133,0.133h3.544l-4.074,5.001   c-0.021,0.027-0.031,0.062-0.027,0.097c0.003,0.036,0.02,0.068,0.048,0.09l0.414,0.337c0.025,0.021,0.055,0.03,0.083,0.03   c0.04,0,0.077-0.017,0.104-0.049l3.747-4.602v5.913c0,0.074,0.061,0.135,0.133,0.135h0.535c0.074,0,0.133-0.061,0.133-0.135v-5.969   l2.495,3.159c0.027,0.033,0.064,0.051,0.104,0.051c0.028,0,0.06-0.009,0.083-0.028L132.931,17.715z"/>
</g>
<g>
	<path fill="#324853" stroke="#324853" stroke-width="0.3" stroke-miterlimit="10" d="M183.053,15.31h-7.973v-1.758h6.103   c0.073,0,0.134-0.06,0.134-0.133v-0.535c0-0.074-0.061-0.133-0.134-0.133h-6.103v-1.826h7.08c0.075,0,0.136-0.06,0.136-0.133   v-0.534c0-0.074-0.061-0.133-0.136-0.133h-4.513l1.106-2.449h4.12c0.074,0,0.133-0.059,0.133-0.134V7.007   c0-0.074-0.059-0.134-0.133-0.134h-5.983V3.456c0-0.074-0.058-0.134-0.133-0.134h-0.534c-0.073,0-0.134,0.06-0.134,0.134v3.418   h-2.961V3.456c0-0.074-0.061-0.134-0.133-0.134h-0.534c-0.075,0-0.134,0.06-0.134,0.134v3.418h-5.843   c-0.075,0-0.136,0.06-0.136,0.134v0.534c0,0.075,0.061,0.134,0.136,0.134h3.959l1.106,2.449h-4.354   c-0.072,0-0.133,0.059-0.133,0.133v0.534c0,0.074,0.061,0.133,0.133,0.133h7.083v1.826h-6.104c-0.073,0-0.133,0.059-0.133,0.133   v0.535c0,0.074,0.06,0.133,0.133,0.133h6.104v1.758h-7.973c-0.075,0-0.134,0.061-0.134,0.134v0.535   c0,0.074,0.059,0.133,0.134,0.133h5.275l-3.976,4.245c-0.051,0.052-0.048,0.137,0.006,0.188l0.389,0.365   c0.025,0.024,0.059,0.037,0.092,0.037c0.002,0,0.004,0,0.004,0c0.035-0.001,0.068-0.017,0.094-0.043l4.489-4.792h1.6v4.83   c0,0.074,0.058,0.134,0.133,0.134h0.534c0.073,0,0.134-0.061,0.134-0.134v-4.83h1.832l4.489,4.792   c0.024,0.026,0.059,0.042,0.094,0.043c0.002,0,0.002,0,0.004,0c0.033,0,0.066-0.013,0.092-0.037l0.389-0.365   c0.054-0.051,0.056-0.136,0.008-0.188l-3.978-4.245h5.043c0.072,0,0.133-0.059,0.133-0.133v-0.535   C183.186,15.371,183.125,15.31,183.053,15.31z M176.767,10.124h-4.336l-1.106-2.449h6.55L176.767,10.124z"/>
	<path fill="#324853" stroke="#324853" stroke-width="0.3" stroke-miterlimit="10" d="M169.8,6.633   c0.019,0.03,0.048,0.051,0.083,0.059c0.011,0.002,0.019,0.003,0.029,0.003c0.025,0,0.05-0.007,0.07-0.021l0.454-0.286   c0.063-0.039,0.081-0.121,0.041-0.183l-1.578-2.504c-0.019-0.03-0.05-0.051-0.083-0.059c-0.035-0.008-0.071-0.002-0.102,0.017   l-0.452,0.285c-0.062,0.04-0.081,0.122-0.041,0.184L169.8,6.633z"/>
	<path fill="#324853" stroke="#324853" stroke-width="0.3" stroke-miterlimit="10" d="M179.544,6.675   c0.021,0.013,0.048,0.021,0.071,0.021c0.01,0,0.021-0.001,0.031-0.003c0.033-0.008,0.064-0.029,0.083-0.059l1.578-2.503   c0.04-0.062,0.021-0.145-0.041-0.184l-0.454-0.285c-0.028-0.019-0.066-0.025-0.1-0.017c-0.035,0.008-0.064,0.029-0.083,0.059   l-1.578,2.504c-0.04,0.062-0.021,0.145,0.041,0.183L179.544,6.675z"/>
</g>
<g>
	<path fill="#324853" stroke="#324853" stroke-width="0.3" stroke-miterlimit="10" d="M71.722,38.442   c0.073,0,0.134-0.06,0.134-0.133v-0.535c0-0.073-0.061-0.133-0.134-0.133h-4.019v-1.425l2.903-2.48l0.189-0.195   c0.04-0.046,0.08-0.094,0.118-0.142c0.037-0.046,0.04-0.11,0.007-0.158l-0.192-0.279c-0.027-0.041-0.076-0.059-0.125-0.056   l-2.966-0.005c0.509-0.572,0.952-1.131,1.336-1.66h2.749c0.073,0,0.134-0.06,0.134-0.133v-0.535c0-0.073-0.061-0.133-0.134-0.133   h-2.197c1.393-2.14,1.784-3.68,1.812-3.8c0.019-0.071-0.026-0.144-0.098-0.161l-0.519-0.126c-0.074-0.016-0.144,0.026-0.161,0.099   c-0.004,0.013-0.081,0.309-0.282,0.809c-0.013-0.003-0.023-0.015-0.038-0.015h-2.888v-2.048c0-0.074-0.06-0.133-0.133-0.133h-0.534   c-0.074,0-0.133,0.059-0.133,0.133v2.048h-2.888c-0.073,0-0.132,0.06-0.132,0.135v0.533c0,0.073,0.059,0.134,0.132,0.134h2.888   v2.393h-3.855c-0.074,0-0.134,0.06-0.134,0.133v0.535c0,0.073,0.061,0.133,0.134,0.133h5.253c-0.409,0.532-0.878,1.09-1.416,1.659   l-3.192-0.005c-0.074,0-0.133,0.062-0.133,0.134v0.553c0,0.073,0.06,0.133,0.133,0.133h2.386c-0.98,0.941-2.146,1.906-3.537,2.845   c-0.03,0.02-0.049,0.05-0.057,0.085c-0.006,0.033,0,0.069,0.021,0.1l0.298,0.443c0.025,0.038,0.067,0.06,0.11,0.06   c0.027,0,0.052-0.009,0.075-0.024c1.728-1.163,3.119-2.358,4.242-3.508h0.615l2.07-0.052l-2.27,1.98l-0.211,0.158   c-0.034,0.023-0.055,0.064-0.055,0.106v1.733h-4.334c-0.074,0-0.134,0.06-0.134,0.133v0.535c0,0.073,0.061,0.133,0.134,0.133h4.334   v3.619h-1.941c-0.074,0-0.134,0.061-0.134,0.134v0.485c0,0.073,0.06,0.135,0.134,0.135h2.172c0.253,0,0.443-0.302,0.443-0.7v-3.673   H71.722z M68.533,30.44h-1.182v-2.393h2.582C69.621,28.701,69.17,29.521,68.533,30.44z"/>
	<path fill="#324853" stroke="#324853" stroke-width="0.3" stroke-miterlimit="10" d="M80.25,28.771h-6.182   c0-0.087-0.001-0.177-0.002-0.262v-0.047c-0.002-0.222-0.003-0.438-0.002-0.647l0.004-0.397c0.006-0.579,0.013-1.177-0.009-1.766   c-0.002-0.073-0.061-0.121-0.138-0.13l-0.534,0.02c-0.074,0.005-0.131,0.065-0.129,0.14c0.021,0.575,0.015,1.161,0.009,1.729   l-0.005,0.396c-0.001,0.215,0,0.436,0.002,0.664v0.045c0.019,1.791,0.04,3.819-1.728,4.741c-0.065,0.033-0.091,0.116-0.056,0.181   l0.246,0.474c0.017,0.03,0.045,0.055,0.078,0.065c0.014,0.004,0.027,0.007,0.041,0.007c0.021,0,0.042-0.006,0.062-0.016   c0.769-0.401,1.262-0.956,1.584-1.586c0.313,1.19,0.961,3.429,1.815,5.229c-2.214,3.101-4.681,4.637-4.706,4.652   c-0.062,0.038-0.082,0.121-0.044,0.185l0.278,0.456c0.025,0.041,0.069,0.063,0.114,0.063c0.023,0,0.047-0.007,0.07-0.021   c0.104-0.063,2.454-1.516,4.699-4.535c0.236,0.419,0.482,0.796,0.74,1.103c1.75,2.077,3.162,3.34,3.221,3.391   c0.025,0.022,0.056,0.035,0.089,0.035c0.002,0,0.005,0,0.008-0.001c0.035-0.001,0.069-0.019,0.091-0.044l0.355-0.401   c0.023-0.027,0.036-0.062,0.033-0.097s-0.019-0.068-0.046-0.093c-0.014-0.011-1.412-1.255-3.14-3.307   c-0.292-0.348-0.573-0.804-0.838-1.317c1.944-2.921,2.526-6.893,2.664-8.109h1.354c0.074,0,0.133-0.06,0.133-0.133v-0.535   C80.383,28.83,80.324,28.771,80.25,28.771z M74.064,29.571h4.024c-0.143,1.186-0.677,4.61-2.26,7.254   c-1.047-2.395-1.754-5.415-1.764-5.456c-0.017-0.072-0.088-0.116-0.161-0.101l-0.023,0.006   C74.003,30.718,74.05,30.14,74.064,29.571z"/>
</g>
<g>
	<path fill="#324853" stroke="#324853" stroke-width="0.3" stroke-miterlimit="10" d="M119.462,28.709h-6.168v-3.604   c0-0.074-0.061-0.133-0.133-0.133h-0.535c-0.074,0-0.134,0.059-0.134,0.133v3.604h-6.215c-0.413,0-0.748,0.359-0.748,0.801v7.137   c0,0.442,0.335,0.802,0.748,0.802h6.215v5.48c0,0.074,0.06,0.133,0.134,0.133h0.535c0.072,0,0.133-0.059,0.133-0.133v-5.48h6.168   c0.413,0,0.748-0.359,0.748-0.802v-7.136C120.21,29.068,119.875,28.709,119.462,28.709z M112.492,36.646h-6.162l0.004-7.136h6.158   V36.646z M113.294,29.511h6.116l-0.005,7.136h-6.111V29.511z"/>
</g>
<g>
	<path fill="#324853" stroke="#324853" stroke-width="0.3" stroke-miterlimit="10" d="M139.144,39.071h-0.534   c-0.072,0-0.133,0.06-0.133,0.133v1.305l0.019,0.87h-8.474l-0.36,0.017V30.084c0-0.075-0.06-0.134-0.135-0.134h-0.532   c-0.075,0-0.136,0.059-0.136,0.134v11.451c0,0.355,0.292,0.646,0.647,0.646h9.127c0.355,0,0.645-0.291,0.645-0.646v-2.331   C139.277,39.131,139.219,39.071,139.144,39.071z"/>
	<path fill="#324853" stroke="#324853" stroke-width="0.3" stroke-miterlimit="10" d="M136.707,29.172   c0.017,0.008,0.035,0.011,0.054,0.011c0.017,0,0.033-0.002,0.048-0.009c0.033-0.014,0.061-0.039,0.073-0.071l0.214-0.491   c0.029-0.066-0.004-0.146-0.07-0.176l-5.941-2.573c-0.033-0.015-0.07-0.015-0.102-0.001c-0.033,0.013-0.061,0.039-0.075,0.071   l-0.212,0.49c-0.029,0.067,0.002,0.146,0.068,0.176L136.707,29.172z"/>
	<path fill="#324853" stroke="#324853" stroke-width="0.3" stroke-miterlimit="10" d="M126.781,32.079c-0.002,0-0.002,0-0.004,0   l-0.532,0.006c-0.075,0.003-0.133,0.063-0.133,0.137c0,0.027,0.004,2.79-1.82,6.457c-0.031,0.066-0.004,0.146,0.063,0.179   l0.479,0.237c0.019,0.01,0.039,0.014,0.059,0.014c0.015,0,0.028-0.003,0.043-0.006c0.033-0.013,0.061-0.036,0.077-0.067   c1.92-3.862,1.903-6.705,1.903-6.824C126.912,32.138,126.854,32.079,126.781,32.079z"/>
	<path fill="#324853" stroke="#324853" stroke-width="0.3" stroke-miterlimit="10" d="M139.826,31.394   c-0.046-0.057-0.131-0.064-0.188-0.017l-0.411,0.339c-0.027,0.024-0.044,0.057-0.048,0.091c-0.005,0.036,0.008,0.072,0.031,0.099   c0.022,0.028,2.403,2.941,3.069,6.906c0.006,0.035,0.024,0.065,0.054,0.086c0.022,0.017,0.05,0.026,0.077,0.026   c0.008,0,0.017-0.001,0.022-0.002l0.526-0.089c0.072-0.012,0.123-0.081,0.11-0.154C142.369,34.496,139.93,31.519,139.826,31.394z"/>
</g>
<g>
	<path fill="#324853" stroke="#324853" stroke-width="0.3" stroke-miterlimit="10" d="M80.942,20.178l-6.847-0.002v-9.459h5.428   c0.083,0,0.149-0.067,0.149-0.149V9.971c0-0.083-0.066-0.15-0.149-0.15h-5.428V3.415c0-0.083-0.066-0.15-0.149-0.15h-0.597   c-0.082,0-0.15,0.067-0.15,0.15v16.97c0,0.38,0.331,0.688,0.738,0.688h7.005c0.082,0,0.149-0.065,0.149-0.148v-0.597   C81.091,20.246,81.023,20.178,80.942,20.178z"/>
	<path fill="#324853" stroke="#324853" stroke-width="0.3" stroke-miterlimit="10" d="M68.958,3.265h-0.597   c-0.083,0-0.151,0.067-0.151,0.15v7.079h-5.427c-0.083,0-0.15,0.066-0.15,0.148v0.598c0,0.083,0.067,0.149,0.15,0.149h5.427v8.215   l-5.459,0.637c-0.039,0.005-0.075,0.026-0.099,0.056c-0.025,0.032-0.036,0.072-0.031,0.111L62.69,21   c0.009,0.075,0.074,0.131,0.148,0.131c0.005,0,0.012,0,0.017,0l5.355-0.627v0.122c0,0.083,0.068,0.149,0.151,0.149h0.597   c0.083,0,0.149-0.066,0.149-0.149V3.415C69.107,3.333,69.041,3.265,68.958,3.265z"/>
</g>
<g>
	<path fill="#324853" stroke="#324853" stroke-width="0.3" stroke-miterlimit="10" d="M91.726,11.258h-6.759V4.346h6.719   c0.077,0,0.143-0.063,0.143-0.141V3.641c0-0.079-0.065-0.142-0.143-0.142h-6.743c-0.453,0-0.821,0.366-0.821,0.815v6.976   c0,0.45,0.368,0.815,0.821,0.815h6.783c0.078,0,0.144-0.064,0.144-0.141v-0.565C91.869,11.321,91.804,11.258,91.726,11.258z"/>
	<path fill="#324853" stroke="#324853" stroke-width="0.3" stroke-miterlimit="10" d="M100.378,6.283l-1.271-0.006V3.576   c0-0.233-0.19-0.424-0.423-0.424h-4.478c-0.112,0-0.22,0.045-0.299,0.125c-0.079,0.079-0.125,0.188-0.125,0.301   c0.002,0.246,0.01,0.492,0.019,0.739c0.011,0.277,0.019,0.555,0.018,0.833c-0.007,0.728-0.194,1.165-0.575,1.337   c-0.072,0.032-0.103,0.115-0.072,0.187l0.234,0.516c0.023,0.052,0.075,0.083,0.127,0.083c0.021,0,0.041-0.005,0.059-0.014   c0.705-0.316,1.065-1.024,1.075-2.103c0.001-0.29-0.01-0.58-0.019-0.869C94.646,4.191,94.641,4.095,94.637,4h3.625v2.418   c0,0.393,0.337,0.713,0.752,0.713h1.363c0.079,0,0.143-0.064,0.143-0.141V6.424C100.52,6.347,100.456,6.283,100.378,6.283z"/>
	<path fill="#324853" stroke="#324853" stroke-width="0.3" stroke-miterlimit="10" d="M91.549,7.715H89.08   c0.005-0.112,0.005-0.224,0.005-0.331c0-0.359-0.008-0.718-0.014-1.076h2.02c0.077,0,0.141-0.063,0.141-0.141V5.602   c0-0.078-0.063-0.141-0.141-0.141h-4.176c0.007-0.204,0.006-0.406,0.003-0.593V4.71c0-0.078-0.064-0.14-0.141-0.14   c-0.001,0-0.001,0-0.001,0l-0.565,0.003c-0.038,0-0.074,0.015-0.101,0.042c-0.024,0.027-0.041,0.063-0.039,0.101l0.001,0.161   c0.006,0.534,0.014,1.198-0.309,1.52c-0.131,0.131-0.287,0.23-0.366,0.258c-0.037,0.011-0.066,0.038-0.082,0.071   c-0.017,0.034-0.02,0.073-0.007,0.107l0.181,0.535c0.013,0.036,0.038,0.065,0.071,0.082c0.02,0.01,0.041,0.014,0.062,0.014   c0.017,0,0.031-0.002,0.048-0.007c0.324-0.112,0.613-0.38,0.694-0.461c0.199-0.2,0.327-0.437,0.41-0.688h1.453   c0.007,0.36,0.011,0.723,0.009,1.096c0,0.103,0,0.208-0.002,0.311h-2.922c-0.078,0-0.142,0.064-0.142,0.142v0.565   c0,0.078,0.063,0.142,0.142,0.142h2.777c-0.011,0.023-0.016,0.05-0.027,0.073c-0.271,0.55-0.844,1.074-1.529,1.403   c-0.306,0.146-0.657,0.254-1.018,0.312c-0.076,0.013-0.129,0.085-0.116,0.162l0.088,0.559c0.012,0.069,0.072,0.118,0.139,0.118   c0.009,0,0.017,0,0.023-0.001c0.439-0.07,0.872-0.202,1.251-0.384c0.863-0.413,1.564-1.066,1.922-1.792   c0.073-0.146,0.123-0.296,0.158-0.448h2.568c0.078,0,0.142-0.063,0.142-0.142V7.856C91.69,7.779,91.627,7.715,91.549,7.715z"/>
	<path fill="#324853" stroke="#324853" stroke-width="0.3" stroke-miterlimit="10" d="M91.823,10.508l-2.228-1.892   c-0.028-0.024-0.065-0.035-0.103-0.033c-0.037,0.003-0.07,0.021-0.097,0.049l-0.364,0.431c-0.052,0.059-0.046,0.148,0.015,0.199   l2.228,1.891c0.025,0.021,0.058,0.033,0.094,0.033c0.003,0,0.007,0,0.01,0c0.038-0.003,0.072-0.021,0.096-0.049l0.366-0.431   C91.89,10.647,91.884,10.559,91.823,10.508z"/>
	<path fill="#324853" stroke="#324853" stroke-width="0.3" stroke-miterlimit="10" d="M100.681,11.364   c-0.026-0.026-0.062-0.042-0.101-0.042c-1.048-0.015-2.001-0.348-2.81-0.788c1.819-1.173,2.368-2.523,2.399-2.612   c0.052-0.13,0.033-0.277-0.045-0.391c-0.079-0.115-0.211-0.183-0.35-0.183h-6.359c-0.077,0-0.14,0.063-0.14,0.142v0.564   c0,0.078,0.063,0.141,0.14,0.141h5.631c-0.339,0.484-0.983,1.201-2.09,1.835C95.772,9.2,95.052,8.272,95.04,8.256   c-0.05-0.061-0.137-0.074-0.199-0.027L94.392,8.57c-0.031,0.023-0.049,0.056-0.056,0.093c-0.005,0.038,0.006,0.075,0.028,0.105   c0.05,0.067,0.68,0.878,1.733,1.692c-0.793,0.343-1.762,0.634-2.947,0.802c-0.038,0.005-0.072,0.025-0.092,0.055   c-0.025,0.03-0.034,0.068-0.029,0.104l0.08,0.559c0.01,0.071,0.069,0.122,0.14,0.122c0.005,0,0.013,0,0.021-0.002   c1.51-0.214,2.695-0.614,3.638-1.082c0.996,0.619,2.24,1.129,3.662,1.15h0.002c0.076,0,0.14-0.062,0.141-0.139l0.008-0.565   C100.722,11.428,100.707,11.392,100.681,11.364z"/>
	<g>
		<path fill="#324853" stroke="#324853" stroke-width="0.3" stroke-miterlimit="10" d="M100.512,12.866H84.48    c-0.078,0-0.142,0.063-0.142,0.142v0.565c0,0.078,0.063,0.142,0.142,0.142h5.79c-0.001,0.272-0.013,0.577-0.034,0.875H85.66    c-0.412,0-0.75,0.321-0.75,0.716v5.224c0,0.395,0.338,0.716,0.75,0.716h13.671c0.413,0,0.751-0.321,0.751-0.716v-5.223    c0-0.395-0.338-0.717-0.751-0.717h-4.86v-0.875h6.041c0.077,0,0.142-0.064,0.142-0.142v-0.565    C100.653,12.93,100.589,12.866,100.512,12.866z M90.037,15.701c-0.24,0.569-1.467,1.705-3.185,1.639    c-0.075,0.005-0.143,0.057-0.146,0.136l-0.024,0.564c-0.002,0.077,0.058,0.143,0.137,0.146c0.059,0.002,0.118,0.004,0.178,0.004    c1.982,0,3.45-1.289,3.821-2.158c0.069-0.166,0.123-0.372,0.165-0.595h2.641v1.743c0,0.42,0.368,0.763,0.821,0.763h4.342    c0.078,0,0.14-0.063,0.14-0.142v-0.565c0-0.078-0.062-0.142-0.14-0.142l-4.316-0.001v-1.657h3.462l1.301,0.009l0.001,4.952H86.358    l-0.6-0.008v-3.926l0.037-1.026h4.322C90.093,15.536,90.068,15.629,90.037,15.701z M91.085,14.589    c0.024-0.328,0.031-0.637,0.033-0.875h2.506v0.875H91.085z"/>
		<path fill="#324853" stroke="#324853" stroke-width="0.3" stroke-miterlimit="10" d="M88.499,19.445h7.994    c0.077,0,0.14-0.063,0.14-0.142v-0.565c0-0.078-0.063-0.142-0.14-0.142h-7.994c-0.078,0-0.141,0.064-0.141,0.142v0.565    C88.358,19.382,88.421,19.445,88.499,19.445z"/>
	</g>
</g>
</svg>