<svg width="114" height="39" viewBox="0 0 114 39" fill="none" xmlns="http://www.w3.org/2000/svg">
<mask id="path-1-outside-1_148_2315" maskUnits="userSpaceOnUse" x="-0.125977" y="0.908203" width="114" height="38" fill="black">
<rect fill="white" x="-0.125977" y="0.908203" width="114" height="38"/>
<path d="M1.87402 5.70155H5.34143V9.16896H1.87402V5.70155ZM1.87402 9.16896H5.34143V12.6364H1.87402V9.16896ZM5.34143 9.16896H8.80883V12.6364H5.34143V9.16896ZM5.34143 5.70155H8.80883V9.16896H5.34143V5.70155ZM5.34143 2.23415H8.80883V5.70155H5.34143V2.23415ZM8.80883 2.23415H12.2762V5.70155H8.80883V2.23415ZM12.2762 2.23415H15.7436V5.70155H12.2762V2.23415ZM15.7436 2.23415H19.211V5.70155H15.7436V2.23415ZM19.211 2.23415H22.6785V5.70155H19.211V2.23415ZM19.211 5.70155H22.6785V9.16896H19.211V5.70155ZM15.7436 5.70155H19.211V9.16896H15.7436V5.70155ZM12.2762 5.70155H15.7436V9.16896H12.2762V5.70155ZM8.80883 5.70155H12.2762V9.16896H8.80883V5.70155ZM19.211 9.16896H22.6785V12.6364H19.211V9.16896ZM22.6785 9.16896H26.1459V12.6364H22.6785V9.16896ZM22.6785 5.70155H26.1459V9.16896H22.6785V5.70155ZM22.6785 12.6364H26.1459V16.1038H22.6785V12.6364ZM19.211 12.6364H22.6785V16.1038H19.211V12.6364ZM15.7436 12.6364H19.211V16.1038H15.7436V12.6364ZM15.7436 16.1038H19.211V19.5712H15.7436V16.1038ZM19.211 16.1038H22.6785V19.5712H19.211V16.1038ZM12.2762 16.1038H15.7436V19.5712H12.2762V16.1038ZM12.2762 19.5712H15.7436V23.0386H12.2762V19.5712ZM15.7436 19.5712H19.211V23.0386H15.7436V19.5712ZM8.80883 19.5712H12.2762V23.0386H8.80883V19.5712ZM8.80883 23.0386H12.2762V26.506H8.80883V23.0386ZM12.2762 23.0386H15.7436V26.506H12.2762V23.0386ZM5.34143 23.0386H8.80883V26.506H5.34143V23.0386ZM5.34143 26.506H8.80883V29.9734H5.34143V26.506ZM8.80883 26.506H12.2762V29.9734H8.80883V26.506ZM1.87402 26.506H5.34143V29.9734H1.87402V26.506ZM1.87402 29.9734H5.34143V33.4408H1.87402V29.9734ZM1.87402 33.4408H5.34143V36.9082H1.87402V33.4408ZM5.34143 33.4408H8.80883V36.9082H5.34143V33.4408ZM5.34143 29.9734H8.80883V33.4408H5.34143V29.9734ZM8.80883 29.9734H12.2762V33.4408H8.80883V29.9734ZM12.2762 29.9734H15.7436V33.4408H12.2762V29.9734ZM12.2762 33.4408H15.7436V36.9082H12.2762V33.4408ZM15.7436 33.4408H19.211V36.9082H15.7436V33.4408ZM19.211 33.4408H22.6785V36.9082H19.211V33.4408ZM22.6785 33.4408H26.1459V36.9082H22.6785V33.4408ZM22.6785 29.9734H26.1459V33.4408H22.6785V29.9734ZM19.211 29.9734H22.6785V33.4408H19.211V29.9734ZM15.7436 29.9734H19.211V33.4408H15.7436V29.9734ZM8.80883 33.4408H12.2762V36.9082H8.80883V33.4408ZM39.7934 2.23415H43.2608V5.70155H39.7934V2.23415ZM36.3259 2.23415H39.7934V5.70155H36.3259V2.23415ZM36.3259 5.70155H39.7934V9.16896H36.3259V5.70155ZM39.7934 5.70155H43.2608V9.16896H39.7934V5.70155ZM43.2608 5.70155H46.7282V9.16896H43.2608V5.70155ZM43.2608 2.23415H46.7282V5.70155H43.2608V2.23415ZM46.7282 2.23415H50.1956V5.70155H46.7282V2.23415ZM50.1956 5.70155H53.663V9.16896H50.1956V5.70155ZM46.7282 5.70155H50.1956V9.16896H46.7282V5.70155ZM50.1956 9.16896H53.663V12.6364H50.1956V9.16896ZM50.1956 29.9734H53.663V33.4408H50.1956V29.9734ZM50.1956 26.506H53.663V29.9734H50.1956V26.506ZM50.1956 23.0386H53.663V26.506H50.1956V23.0386ZM50.1956 19.5712H53.663V23.0386H50.1956V19.5712ZM50.1956 16.1038H53.663V19.5712H50.1956V16.1038ZM50.1956 12.6364H53.663V16.1038H50.1956V12.6364ZM46.7282 29.9734H50.1956V33.4408H46.7282V29.9734ZM46.7282 33.4408H50.1956V36.9082H46.7282V33.4408ZM43.2608 33.4408H46.7282V36.9082H43.2608V33.4408ZM43.2608 29.9734H46.7282V33.4408H43.2608V29.9734ZM39.7934 33.4408H43.2608V36.9082H39.7934V33.4408ZM36.3259 33.4408H39.7934V36.9082H36.3259V33.4408ZM36.3259 29.9734H39.7934V33.4408H36.3259V29.9734ZM39.7934 29.9734H43.2608V33.4408H39.7934V29.9734ZM36.3259 26.506H39.7934V29.9734H36.3259V26.506ZM32.8585 29.9734H36.3259V33.4408H32.8585V29.9734ZM32.8585 26.506H36.3259V29.9734H32.8585V26.506ZM32.8585 23.0386H36.3259V26.506H32.8585V23.0386ZM32.8585 19.5712H36.3259V23.0386H32.8585V19.5712ZM32.8585 16.1038H36.3259V19.5712H32.8585V16.1038ZM32.8585 12.6364H36.3259V16.1038H32.8585V12.6364ZM32.8585 9.16896H36.3259V12.6364H32.8585V9.16896ZM36.3259 9.16896H39.7934V12.6364H36.3259V9.16896ZM32.8585 5.70155H36.3259V9.16896H32.8585V5.70155ZM36.3259 12.6364H39.7934V16.1038H36.3259V12.6364ZM36.3259 16.1038H39.7934V19.5712H36.3259V16.1038ZM36.3259 19.5712H39.7934V23.0386H36.3259V19.5712ZM36.3259 23.0386H39.7934V26.506H36.3259V23.0386ZM46.7282 9.16896H50.1956V12.6364H46.7282V9.16896ZM46.7282 12.6364H50.1956V16.1038H46.7282V12.6364ZM46.7282 16.1038H50.1956V19.5712H46.7282V16.1038ZM46.7282 19.5712H50.1956V23.0386H46.7282V19.5712ZM46.7282 23.0386H50.1956V26.506H46.7282V23.0386ZM46.7282 26.506H50.1956V29.9734H46.7282V26.506ZM60.3666 5.70155H63.834V9.16896H60.3666V5.70155ZM60.3666 9.16896H63.834V12.6364H60.3666V9.16896ZM63.834 9.16896H67.3014V12.6364H63.834V9.16896ZM63.834 5.70155H67.3014V9.16896H63.834V5.70155ZM63.834 2.23415H67.3014V5.70155H63.834V2.23415ZM67.3014 2.23415H70.7688V5.70155H67.3014V2.23415ZM70.7688 2.23415H74.2362V5.70155H70.7688V2.23415ZM74.2362 2.23415H77.7036V5.70155H74.2362V2.23415ZM77.7036 2.23415H81.1711V5.70155H77.7036V2.23415ZM77.7036 5.70155H81.1711V9.16896H77.7036V5.70155ZM74.2362 5.70155H77.7036V9.16896H74.2362V5.70155ZM70.7688 5.70155H74.2362V9.16896H70.7688V5.70155ZM67.3014 5.70155H70.7688V9.16896H67.3014V5.70155ZM77.7036 9.16896H81.1711V12.6364H77.7036V9.16896ZM81.1711 9.16896H84.6385V12.6364H81.1711V9.16896ZM81.1711 5.70155H84.6385V9.16896H81.1711V5.70155ZM81.1711 12.6364H84.6385V16.1038H81.1711V12.6364ZM77.7036 12.6364H81.1711V16.1038H77.7036V12.6364ZM74.2362 12.6364H77.7036V16.1038H74.2362V12.6364ZM74.2362 16.1038H77.7036V19.5712H74.2362V16.1038ZM77.7036 16.1038H81.1711V19.5712H77.7036V16.1038ZM70.7688 16.1038H74.2362V19.5712H70.7688V16.1038ZM70.7688 19.5712H74.2362V23.0386H70.7688V19.5712ZM74.2362 19.5712H77.7036V23.0386H74.2362V19.5712ZM67.3014 19.5712H70.7688V23.0386H67.3014V19.5712ZM67.3014 23.0386H70.7688V26.506H67.3014V23.0386ZM70.7688 23.0386H74.2362V26.506H70.7688V23.0386ZM63.834 23.0386H67.3014V26.506H63.834V23.0386ZM63.834 26.506H67.3014V29.9734H63.834V26.506ZM67.3014 26.506H70.7688V29.9734H67.3014V26.506ZM60.3666 26.506H63.834V29.9734H60.3666V26.506ZM60.3666 29.9734H63.834V33.4408H60.3666V29.9734ZM60.3666 33.4408H63.834V36.9082H60.3666V33.4408ZM63.834 33.4408H67.3014V36.9082H63.834V33.4408ZM63.834 29.9734H67.3014V33.4408H63.834V29.9734ZM67.3014 29.9734H70.7688V33.4408H67.3014V29.9734ZM70.7688 29.9734H74.2362V33.4408H70.7688V29.9734ZM70.7688 33.4408H74.2362V36.9082H70.7688V33.4408ZM74.2362 33.4408H77.7036V36.9082H74.2362V33.4408ZM77.7036 33.4408H81.1711V36.9082H77.7036V33.4408ZM81.1711 33.4408H84.6385V36.9082H81.1711V33.4408ZM81.1711 29.9734H84.6385V33.4408H81.1711V29.9734ZM77.7036 29.9734H81.1711V33.4408H77.7036V29.9734ZM74.2362 29.9734H77.7036V33.4408H74.2362V29.9734ZM67.3014 33.4408H70.7688V36.9082H67.3014V33.4408ZM108.688 2.23415H112.156V5.70155H108.688V2.23415ZM105.221 2.23415H108.688V5.70155H105.221V2.23415ZM105.221 5.70155H108.688V9.16896H105.221V5.70155ZM101.753 5.70155H105.221V9.16896H101.753V5.70155ZM98.286 5.70155H101.753V9.16896H98.286V5.70155ZM98.286 2.23415H101.753V5.70155H98.286V2.23415ZM94.8185 2.23415H98.286V5.70155H94.8185V2.23415ZM91.3511 2.23415H94.8185V5.70155H91.3511V2.23415ZM101.753 2.23415H105.221V5.70155H101.753V2.23415ZM108.688 5.70155H112.156V9.16896H108.688V5.70155ZM94.8185 5.70155H98.286V9.16896H94.8185V5.70155ZM91.3511 5.70155H94.8185V9.16896H91.3511V5.70155ZM91.3511 9.16896H94.8185V12.6364H91.3511V9.16896ZM91.3511 12.6364H94.8185V16.1038H91.3511V12.6364ZM94.8185 12.6364H98.286V16.1038H94.8185V12.6364ZM94.8185 9.16896H98.286V12.6364H94.8185V9.16896ZM94.8185 16.1038H98.286V19.5712H94.8185V16.1038ZM91.3511 16.1038H94.8185V19.5712H91.3511V16.1038ZM94.8185 19.5712H98.286V23.0386H94.8185V19.5712ZM98.286 19.5712H101.753V23.0386H98.286V19.5712ZM101.753 19.5712H105.221V23.0386H101.753V19.5712ZM105.221 19.5712H108.688V23.0386H105.221V19.5712ZM105.221 16.1038H108.688V19.5712H105.221V16.1038ZM101.753 16.1038H105.221V19.5712H101.753V16.1038ZM98.286 16.1038H101.753V19.5712H98.286V16.1038ZM108.688 19.5712H112.156V23.0386H108.688V19.5712ZM108.688 23.0386H112.156V26.506H108.688V23.0386ZM108.688 26.506H112.156V29.9734H108.688V26.506ZM108.688 29.9734H112.156V33.4408H108.688V29.9734ZM105.221 26.506H108.688V29.9734H105.221V26.506ZM105.221 23.0386H108.688V26.506H105.221V23.0386ZM105.221 29.9734H108.688V33.4408H105.221V29.9734ZM105.221 33.4408H108.688V36.9082H105.221V33.4408ZM101.753 33.4408H105.221V36.9082H101.753V33.4408ZM98.286 33.4408H101.753V36.9082H98.286V33.4408ZM98.286 29.9734H101.753V33.4408H98.286V29.9734ZM94.8185 29.9734H98.286V33.4408H94.8185V29.9734ZM94.8185 33.4408H98.286V36.9082H94.8185V33.4408ZM101.753 29.9734H105.221V33.4408H101.753V29.9734ZM91.3511 29.9734H94.8185V33.4408H91.3511V29.9734ZM91.3511 26.506H94.8185V29.9734H91.3511V26.506ZM94.8185 26.506H98.286V29.9734H94.8185V26.506Z"/>
</mask>
<path d="M1.87402 5.70156V4.40706H0.579525V5.70156H1.87402ZM5.34143 5.70156H6.63593V4.40706H5.34143V5.70156ZM5.34143 9.16896V10.4635H6.63593V9.16896H5.34143ZM1.87402 9.16896H0.579525V10.4635H1.87402V9.16896ZM1.87402 9.16896V7.87446H0.579525V9.16896H1.87402ZM5.34143 9.16896H6.63593V7.87446H5.34143V9.16896ZM5.34143 12.6364V13.9309H6.63593V12.6364H5.34143ZM1.87402 12.6364H0.579525V13.9309H1.87402V12.6364ZM5.34143 9.16896V7.87446H4.04693V9.16896H5.34143ZM8.80883 9.16896H10.1033V7.87446H8.80883V9.16896ZM8.80883 12.6364V13.9309H10.1033V12.6364H8.80883ZM5.34143 12.6364H4.04693V13.9309H5.34143V12.6364ZM5.34143 5.70156V4.40706H4.04693V5.70156H5.34143ZM8.80883 5.70156H10.1033V4.40706H8.80883V5.70156ZM8.80883 9.16896V10.4635H10.1033V9.16896H8.80883ZM5.34143 9.16896H4.04693V10.4635H5.34143V9.16896ZM5.34143 2.23415V0.939653H4.04693V2.23415H5.34143ZM8.80883 2.23415H10.1033V0.939653H8.80883V2.23415ZM8.80883 5.70156V6.99605H10.1033V5.70156H8.80883ZM5.34143 5.70156H4.04693V6.99605H5.34143V5.70156ZM8.80883 2.23415V0.939653H7.51434V2.23415H8.80883ZM12.2762 2.23415H13.5707V0.939653H12.2762V2.23415ZM12.2762 5.70156V6.99605H13.5707V5.70156H12.2762ZM8.80883 5.70156H7.51434V6.99605H8.80883V5.70156ZM12.2762 2.23415V0.939653H10.9817V2.23415H12.2762ZM15.7436 2.23415H17.0381V0.939653H15.7436V2.23415ZM15.7436 5.70156V6.99605H17.0381V5.70156H15.7436ZM12.2762 5.70156H10.9817V6.99605H12.2762V5.70156ZM15.7436 2.23415V0.939653H14.4491V2.23415H15.7436ZM19.2111 2.23415H20.5055V0.939653H19.2111V2.23415ZM19.2111 5.70156V6.99605H20.5055V5.70156H19.2111ZM15.7436 5.70156H14.4491V6.99605H15.7436V5.70156ZM19.2111 2.23415V0.939653H17.9166V2.23415H19.2111ZM22.6785 2.23415H23.973V0.939653H22.6785V2.23415ZM22.6785 5.70156V6.99605H23.973V5.70156H22.6785ZM19.2111 5.70156H17.9166V6.99605H19.2111V5.70156ZM19.2111 5.70156V4.40706H17.9166V5.70156H19.2111ZM22.6785 5.70156H23.973V4.40706H22.6785V5.70156ZM22.6785 9.16896V10.4635H23.973V9.16896H22.6785ZM19.2111 9.16896H17.9166V10.4635H19.2111V9.16896ZM15.7436 5.70156V4.40706H14.4491V5.70156H15.7436ZM19.2111 5.70156H20.5055V4.40706H19.2111V5.70156ZM19.2111 9.16896V10.4635H20.5055V9.16896H19.2111ZM15.7436 9.16896H14.4491V10.4635H15.7436V9.16896ZM12.2762 5.70156V4.40706H10.9817V5.70156H12.2762ZM15.7436 5.70156H17.0381V4.40706H15.7436V5.70156ZM15.7436 9.16896V10.4635H17.0381V9.16896H15.7436ZM12.2762 9.16896H10.9817V10.4635H12.2762V9.16896ZM8.80883 5.70156V4.40706H7.51434V5.70156H8.80883ZM12.2762 5.70156H13.5707V4.40706H12.2762V5.70156ZM12.2762 9.16896V10.4635H13.5707V9.16896H12.2762ZM8.80883 9.16896H7.51434V10.4635H8.80883V9.16896ZM19.2111 9.16896V7.87446H17.9166V9.16896H19.2111ZM22.6785 9.16896H23.973V7.87446H22.6785V9.16896ZM22.6785 12.6364V13.9309H23.973V12.6364H22.6785ZM19.2111 12.6364H17.9166V13.9309H19.2111V12.6364ZM22.6785 9.16896V7.87446H21.384V9.16896H22.6785ZM26.1459 9.16896H27.4404V7.87446H26.1459V9.16896ZM26.1459 12.6364V13.9309H27.4404V12.6364H26.1459ZM22.6785 12.6364H21.384V13.9309H22.6785V12.6364ZM22.6785 5.70156V4.40706H21.384V5.70156H22.6785ZM26.1459 5.70156H27.4404V4.40706H26.1459V5.70156ZM26.1459 9.16896V10.4635H27.4404V9.16896H26.1459ZM22.6785 9.16896H21.384V10.4635H22.6785V9.16896ZM22.6785 12.6364V11.3419H21.384V12.6364H22.6785ZM26.1459 12.6364H27.4404V11.3419H26.1459V12.6364ZM26.1459 16.1038V17.3983H27.4404V16.1038H26.1459ZM22.6785 16.1038H21.384V17.3983H22.6785V16.1038ZM19.2111 12.6364V11.3419H17.9166V12.6364H19.2111ZM22.6785 12.6364H23.973V11.3419H22.6785V12.6364ZM22.6785 16.1038V17.3983H23.973V16.1038H22.6785ZM19.2111 16.1038H17.9166V17.3983H19.2111V16.1038ZM15.7436 12.6364V11.3419H14.4491V12.6364H15.7436ZM19.2111 12.6364H20.5055V11.3419H19.2111V12.6364ZM19.2111 16.1038V17.3983H20.5055V16.1038H19.2111ZM15.7436 16.1038H14.4491V17.3983H15.7436V16.1038ZM15.7436 16.1038V14.8093H14.4491V16.1038H15.7436ZM19.2111 16.1038H20.5055V14.8093H19.2111V16.1038ZM19.2111 19.5712V20.8657H20.5055V19.5712H19.2111ZM15.7436 19.5712H14.4491V20.8657H15.7436V19.5712ZM19.2111 16.1038V14.8093H17.9166V16.1038H19.2111ZM22.6785 16.1038H23.973V14.8093H22.6785V16.1038ZM22.6785 19.5712V20.8657H23.973V19.5712H22.6785ZM19.2111 19.5712H17.9166V20.8657H19.2111V19.5712ZM12.2762 16.1038V14.8093H10.9817V16.1038H12.2762ZM15.7436 16.1038H17.0381V14.8093H15.7436V16.1038ZM15.7436 19.5712V20.8657H17.0381V19.5712H15.7436ZM12.2762 19.5712H10.9817V20.8657H12.2762V19.5712ZM12.2762 19.5712V18.2767H10.9817V19.5712H12.2762ZM15.7436 19.5712H17.0381V18.2767H15.7436V19.5712ZM15.7436 23.0386V24.3331H17.0381V23.0386H15.7436ZM12.2762 23.0386H10.9817V24.3331H12.2762V23.0386ZM15.7436 19.5712V18.2767H14.4491V19.5712H15.7436ZM19.2111 19.5712H20.5055V18.2767H19.2111V19.5712ZM19.2111 23.0386V24.3331H20.5055V23.0386H19.2111ZM15.7436 23.0386H14.4491V24.3331H15.7436V23.0386ZM8.80883 19.5712V18.2767H7.51434V19.5712H8.80883ZM12.2762 19.5712H13.5707V18.2767H12.2762V19.5712ZM12.2762 23.0386V24.3331H13.5707V23.0386H12.2762ZM8.80883 23.0386H7.51434V24.3331H8.80883V23.0386ZM8.80883 23.0386V21.7441H7.51434V23.0386H8.80883ZM12.2762 23.0386H13.5707V21.7441H12.2762V23.0386ZM12.2762 26.506V27.8005H13.5707V26.506H12.2762ZM8.80883 26.506H7.51434V27.8005H8.80883V26.506ZM12.2762 23.0386V21.7441H10.9817V23.0386H12.2762ZM15.7436 23.0386H17.0381V21.7441H15.7436V23.0386ZM15.7436 26.506V27.8005H17.0381V26.506H15.7436ZM12.2762 26.506H10.9817V27.8005H12.2762V26.506ZM5.34143 23.0386V21.7441H4.04693V23.0386H5.34143ZM8.80883 23.0386H10.1033V21.7441H8.80883V23.0386ZM8.80883 26.506V27.8005H10.1033V26.506H8.80883ZM5.34143 26.506H4.04693V27.8005H5.34143V26.506ZM5.34143 26.506V25.2115H4.04693V26.506H5.34143ZM8.80883 26.506H10.1033V25.2115H8.80883V26.506ZM8.80883 29.9734V31.2679H10.1033V29.9734H8.80883ZM5.34143 29.9734H4.04693V31.2679H5.34143V29.9734ZM8.80883 26.506V25.2115H7.51434V26.506H8.80883ZM12.2762 26.506H13.5707V25.2115H12.2762V26.506ZM12.2762 29.9734V31.2679H13.5707V29.9734H12.2762ZM8.80883 29.9734H7.51434V31.2679H8.80883V29.9734ZM1.87402 26.506V25.2115H0.579525V26.506H1.87402ZM5.34143 26.506H6.63593V25.2115H5.34143V26.506ZM5.34143 29.9734V31.2679H6.63593V29.9734H5.34143ZM1.87402 29.9734H0.579525V31.2679H1.87402V29.9734ZM1.87402 29.9734V28.6789H0.579525V29.9734H1.87402ZM5.34143 29.9734H6.63593V28.6789H5.34143V29.9734ZM5.34143 33.4408V34.7353H6.63593V33.4408H5.34143ZM1.87402 33.4408H0.579525V34.7353H1.87402V33.4408ZM1.87402 33.4408V32.1463H0.579525V33.4408H1.87402ZM5.34143 33.4408H6.63593V32.1463H5.34143V33.4408ZM5.34143 36.9082V38.2027H6.63593V36.9082H5.34143ZM1.87402 36.9082H0.579525V38.2027H1.87402V36.9082ZM5.34143 33.4408V32.1463H4.04693V33.4408H5.34143ZM8.80883 33.4408H10.1033V32.1463H8.80883V33.4408ZM8.80883 36.9082V38.2027H10.1033V36.9082H8.80883ZM5.34143 36.9082H4.04693V38.2027H5.34143V36.9082ZM5.34143 29.9734V28.6789H4.04693V29.9734H5.34143ZM8.80883 29.9734H10.1033V28.6789H8.80883V29.9734ZM8.80883 33.4408V34.7353H10.1033V33.4408H8.80883ZM5.34143 33.4408H4.04693V34.7353H5.34143V33.4408ZM8.80883 29.9734V28.6789H7.51434V29.9734H8.80883ZM12.2762 29.9734H13.5707V28.6789H12.2762V29.9734ZM12.2762 33.4408V34.7353H13.5707V33.4408H12.2762ZM8.80883 33.4408H7.51434V34.7353H8.80883V33.4408ZM12.2762 29.9734V28.6789H10.9817V29.9734H12.2762ZM15.7436 29.9734H17.0381V28.6789H15.7436V29.9734ZM15.7436 33.4408V34.7353H17.0381V33.4408H15.7436ZM12.2762 33.4408H10.9817V34.7353H12.2762V33.4408ZM12.2762 33.4408V32.1463H10.9817V33.4408H12.2762ZM15.7436 33.4408H17.0381V32.1463H15.7436V33.4408ZM15.7436 36.9082V38.2027H17.0381V36.9082H15.7436ZM12.2762 36.9082H10.9817V38.2027H12.2762V36.9082ZM15.7436 33.4408V32.1463H14.4491V33.4408H15.7436ZM19.2111 33.4408H20.5055V32.1463H19.2111V33.4408ZM19.2111 36.9082V38.2027H20.5055V36.9082H19.2111ZM15.7436 36.9082H14.4491V38.2027H15.7436V36.9082ZM19.2111 33.4408V32.1463H17.9166V33.4408H19.2111ZM22.6785 33.4408H23.973V32.1463H22.6785V33.4408ZM22.6785 36.9082V38.2027H23.973V36.9082H22.6785ZM19.2111 36.9082H17.9166V38.2027H19.2111V36.9082ZM22.6785 33.4408V32.1463H21.384V33.4408H22.6785ZM26.1459 33.4408H27.4404V32.1463H26.1459V33.4408ZM26.1459 36.9082V38.2027H27.4404V36.9082H26.1459ZM22.6785 36.9082H21.384V38.2027H22.6785V36.9082ZM22.6785 29.9734V28.6789H21.384V29.9734H22.6785ZM26.1459 29.9734H27.4404V28.6789H26.1459V29.9734ZM26.1459 33.4408V34.7353H27.4404V33.4408H26.1459ZM22.6785 33.4408H21.384V34.7353H22.6785V33.4408ZM19.2111 29.9734V28.6789H17.9166V29.9734H19.2111ZM22.6785 29.9734H23.973V28.6789H22.6785V29.9734ZM22.6785 33.4408V34.7353H23.973V33.4408H22.6785ZM19.2111 33.4408H17.9166V34.7353H19.2111V33.4408ZM15.7436 29.9734V28.6789H14.4491V29.9734H15.7436ZM19.2111 29.9734H20.5055V28.6789H19.2111V29.9734ZM19.2111 33.4408V34.7353H20.5055V33.4408H19.2111ZM15.7436 33.4408H14.4491V34.7353H15.7436V33.4408ZM8.80883 33.4408V32.1463H7.51434V33.4408H8.80883ZM12.2762 33.4408H13.5707V32.1463H12.2762V33.4408ZM12.2762 36.9082V38.2027H13.5707V36.9082H12.2762ZM8.80883 36.9082H7.51434V38.2027H8.80883V36.9082ZM1.87402 6.99605H5.34143V4.40706H1.87402V6.99605ZM4.04693 5.70156V9.16896H6.63593V5.70156H4.04693ZM5.34143 7.87446H1.87402V10.4635H5.34143V7.87446ZM3.16852 9.16896V5.70156H0.579525V9.16896H3.16852ZM1.87402 10.4635H5.34143V7.87446H1.87402V10.4635ZM4.04693 9.16896V12.6364H6.63593V9.16896H4.04693ZM5.34143 11.3419H1.87402V13.9309H5.34143V11.3419ZM3.16852 12.6364V9.16896H0.579525V12.6364H3.16852ZM5.34143 10.4635H8.80883V7.87446H5.34143V10.4635ZM7.51434 9.16896V12.6364H10.1033V9.16896H7.51434ZM8.80883 11.3419H5.34143V13.9309H8.80883V11.3419ZM6.63593 12.6364V9.16896H4.04693V12.6364H6.63593ZM5.34143 6.99605H8.80883V4.40706H5.34143V6.99605ZM7.51434 5.70156V9.16896H10.1033V5.70156H7.51434ZM8.80883 7.87446H5.34143V10.4635H8.80883V7.87446ZM6.63593 9.16896V5.70156H4.04693V9.16896H6.63593ZM5.34143 3.52865H8.80883V0.939653H5.34143V3.52865ZM7.51434 2.23415V5.70156H10.1033V2.23415H7.51434ZM8.80883 4.40706H5.34143V6.99605H8.80883V4.40706ZM6.63593 5.70156V2.23415H4.04693V5.70156H6.63593ZM8.80883 3.52865H12.2762V0.939653H8.80883V3.52865ZM10.9817 2.23415V5.70156H13.5707V2.23415H10.9817ZM12.2762 4.40706H8.80883V6.99605H12.2762V4.40706ZM10.1033 5.70156V2.23415H7.51434V5.70156H10.1033ZM12.2762 3.52865H15.7436V0.939653H12.2762V3.52865ZM14.4491 2.23415V5.70156H17.0381V2.23415H14.4491ZM15.7436 4.40706H12.2762V6.99605H15.7436V4.40706ZM13.5707 5.70156V2.23415H10.9817V5.70156H13.5707ZM15.7436 3.52865H19.2111V0.939653H15.7436V3.52865ZM17.9166 2.23415V5.70156H20.5055V2.23415H17.9166ZM19.2111 4.40706H15.7436V6.99605H19.2111V4.40706ZM17.0381 5.70156V2.23415H14.4491V5.70156H17.0381ZM19.2111 3.52865H22.6785V0.939653H19.2111V3.52865ZM21.384 2.23415V5.70156H23.973V2.23415H21.384ZM22.6785 4.40706H19.2111V6.99605H22.6785V4.40706ZM20.5055 5.70156V2.23415H17.9166V5.70156H20.5055ZM19.2111 6.99605H22.6785V4.40706H19.2111V6.99605ZM21.384 5.70156V9.16896H23.973V5.70156H21.384ZM22.6785 7.87446H19.2111V10.4635H22.6785V7.87446ZM20.5055 9.16896V5.70156H17.9166V9.16896H20.5055ZM15.7436 6.99605H19.2111V4.40706H15.7436V6.99605ZM17.9166 5.70156V9.16896H20.5055V5.70156H17.9166ZM19.2111 7.87446H15.7436V10.4635H19.2111V7.87446ZM17.0381 9.16896V5.70156H14.4491V9.16896H17.0381ZM12.2762 6.99605H15.7436V4.40706H12.2762V6.99605ZM14.4491 5.70156V9.16896H17.0381V5.70156H14.4491ZM15.7436 7.87446H12.2762V10.4635H15.7436V7.87446ZM13.5707 9.16896V5.70156H10.9817V9.16896H13.5707ZM8.80883 6.99605H12.2762V4.40706H8.80883V6.99605ZM10.9817 5.70156V9.16896H13.5707V5.70156H10.9817ZM12.2762 7.87446H8.80883V10.4635H12.2762V7.87446ZM10.1033 9.16896V5.70156H7.51434V9.16896H10.1033ZM19.2111 10.4635H22.6785V7.87446H19.2111V10.4635ZM21.384 9.16896V12.6364H23.973V9.16896H21.384ZM22.6785 11.3419H19.2111V13.9309H22.6785V11.3419ZM20.5055 12.6364V9.16896H17.9166V12.6364H20.5055ZM22.6785 10.4635H26.1459V7.87446H22.6785V10.4635ZM24.8514 9.16896V12.6364H27.4404V9.16896H24.8514ZM26.1459 11.3419H22.6785V13.9309H26.1459V11.3419ZM23.973 12.6364V9.16896H21.384V12.6364H23.973ZM22.6785 6.99605H26.1459V4.40706H22.6785V6.99605ZM24.8514 5.70156V9.16896H27.4404V5.70156H24.8514ZM26.1459 7.87446H22.6785V10.4635H26.1459V7.87446ZM23.973 9.16896V5.70156H21.384V9.16896H23.973ZM22.6785 13.9309H26.1459V11.3419H22.6785V13.9309ZM24.8514 12.6364V16.1038H27.4404V12.6364H24.8514ZM26.1459 14.8093H22.6785V17.3983H26.1459V14.8093ZM23.973 16.1038V12.6364H21.384V16.1038H23.973ZM19.2111 13.9309H22.6785V11.3419H19.2111V13.9309ZM21.384 12.6364V16.1038H23.973V12.6364H21.384ZM22.6785 14.8093H19.2111V17.3983H22.6785V14.8093ZM20.5055 16.1038V12.6364H17.9166V16.1038H20.5055ZM15.7436 13.9309H19.2111V11.3419H15.7436V13.9309ZM17.9166 12.6364V16.1038H20.5055V12.6364H17.9166ZM19.2111 14.8093H15.7436V17.3983H19.2111V14.8093ZM17.0381 16.1038V12.6364H14.4491V16.1038H17.0381ZM15.7436 17.3983H19.2111V14.8093H15.7436V17.3983ZM17.9166 16.1038V19.5712H20.5055V16.1038H17.9166ZM19.2111 18.2767H15.7436V20.8657H19.2111V18.2767ZM17.0381 19.5712V16.1038H14.4491V19.5712H17.0381ZM19.2111 17.3983H22.6785V14.8093H19.2111V17.3983ZM21.384 16.1038V19.5712H23.973V16.1038H21.384ZM22.6785 18.2767H19.2111V20.8657H22.6785V18.2767ZM20.5055 19.5712V16.1038H17.9166V19.5712H20.5055ZM12.2762 17.3983H15.7436V14.8093H12.2762V17.3983ZM14.4491 16.1038V19.5712H17.0381V16.1038H14.4491ZM15.7436 18.2767H12.2762V20.8657H15.7436V18.2767ZM13.5707 19.5712V16.1038H10.9817V19.5712H13.5707ZM12.2762 20.8657H15.7436V18.2767H12.2762V20.8657ZM14.4491 19.5712V23.0386H17.0381V19.5712H14.4491ZM15.7436 21.7441H12.2762V24.3331H15.7436V21.7441ZM13.5707 23.0386V19.5712H10.9817V23.0386H13.5707ZM15.7436 20.8657H19.2111V18.2767H15.7436V20.8657ZM17.9166 19.5712V23.0386H20.5055V19.5712H17.9166ZM19.2111 21.7441H15.7436V24.3331H19.2111V21.7441ZM17.0381 23.0386V19.5712H14.4491V23.0386H17.0381ZM8.80883 20.8657H12.2762V18.2767H8.80883V20.8657ZM10.9817 19.5712V23.0386H13.5707V19.5712H10.9817ZM12.2762 21.7441H8.80883V24.3331H12.2762V21.7441ZM10.1033 23.0386V19.5712H7.51434V23.0386H10.1033ZM8.80883 24.3331H12.2762V21.7441H8.80883V24.3331ZM10.9817 23.0386V26.506H13.5707V23.0386H10.9817ZM12.2762 25.2115H8.80883V27.8005H12.2762V25.2115ZM10.1033 26.506V23.0386H7.51434V26.506H10.1033ZM12.2762 24.3331H15.7436V21.7441H12.2762V24.3331ZM14.4491 23.0386V26.506H17.0381V23.0386H14.4491ZM15.7436 25.2115H12.2762V27.8005H15.7436V25.2115ZM13.5707 26.506V23.0386H10.9817V26.506H13.5707ZM5.34143 24.3331H8.80883V21.7441H5.34143V24.3331ZM7.51434 23.0386V26.506H10.1033V23.0386H7.51434ZM8.80883 25.2115H5.34143V27.8005H8.80883V25.2115ZM6.63593 26.506V23.0386H4.04693V26.506H6.63593ZM5.34143 27.8005H8.80883V25.2115H5.34143V27.8005ZM7.51434 26.506V29.9734H10.1033V26.506H7.51434ZM8.80883 28.6789H5.34143V31.2679H8.80883V28.6789ZM6.63593 29.9734V26.506H4.04693V29.9734H6.63593ZM8.80883 27.8005H12.2762V25.2115H8.80883V27.8005ZM10.9817 26.506V29.9734H13.5707V26.506H10.9817ZM12.2762 28.6789H8.80883V31.2679H12.2762V28.6789ZM10.1033 29.9734V26.506H7.51434V29.9734H10.1033ZM1.87402 27.8005H5.34143V25.2115H1.87402V27.8005ZM4.04693 26.506V29.9734H6.63593V26.506H4.04693ZM5.34143 28.6789H1.87402V31.2679H5.34143V28.6789ZM3.16852 29.9734V26.506H0.579525V29.9734H3.16852ZM1.87402 31.2679H5.34143V28.6789H1.87402V31.2679ZM4.04693 29.9734V33.4408H6.63593V29.9734H4.04693ZM5.34143 32.1463H1.87402V34.7353H5.34143V32.1463ZM3.16852 33.4408V29.9734H0.579525V33.4408H3.16852ZM1.87402 34.7353H5.34143V32.1463H1.87402V34.7353ZM4.04693 33.4408V36.9082H6.63593V33.4408H4.04693ZM5.34143 35.6137H1.87402V38.2027H5.34143V35.6137ZM3.16852 36.9082V33.4408H0.579525V36.9082H3.16852ZM5.34143 34.7353H8.80883V32.1463H5.34143V34.7353ZM7.51434 33.4408V36.9082H10.1033V33.4408H7.51434ZM8.80883 35.6137H5.34143V38.2027H8.80883V35.6137ZM6.63593 36.9082V33.4408H4.04693V36.9082H6.63593ZM5.34143 31.2679H8.80883V28.6789H5.34143V31.2679ZM7.51434 29.9734V33.4408H10.1033V29.9734H7.51434ZM8.80883 32.1463H5.34143V34.7353H8.80883V32.1463ZM6.63593 33.4408V29.9734H4.04693V33.4408H6.63593ZM8.80883 31.2679H12.2762V28.6789H8.80883V31.2679ZM10.9817 29.9734V33.4408H13.5707V29.9734H10.9817ZM12.2762 32.1463H8.80883V34.7353H12.2762V32.1463ZM10.1033 33.4408V29.9734H7.51434V33.4408H10.1033ZM12.2762 31.2679H15.7436V28.6789H12.2762V31.2679ZM14.4491 29.9734V33.4408H17.0381V29.9734H14.4491ZM15.7436 32.1463H12.2762V34.7353H15.7436V32.1463ZM13.5707 33.4408V29.9734H10.9817V33.4408H13.5707ZM12.2762 34.7353H15.7436V32.1463H12.2762V34.7353ZM14.4491 33.4408V36.9082H17.0381V33.4408H14.4491ZM15.7436 35.6137H12.2762V38.2027H15.7436V35.6137ZM13.5707 36.9082V33.4408H10.9817V36.9082H13.5707ZM15.7436 34.7353H19.2111V32.1463H15.7436V34.7353ZM17.9166 33.4408V36.9082H20.5055V33.4408H17.9166ZM19.2111 35.6137H15.7436V38.2027H19.2111V35.6137ZM17.0381 36.9082V33.4408H14.4491V36.9082H17.0381ZM19.2111 34.7353H22.6785V32.1463H19.2111V34.7353ZM21.384 33.4408V36.9082H23.973V33.4408H21.384ZM22.6785 35.6137H19.2111V38.2027H22.6785V35.6137ZM20.5055 36.9082V33.4408H17.9166V36.9082H20.5055ZM22.6785 34.7353H26.1459V32.1463H22.6785V34.7353ZM24.8514 33.4408V36.9082H27.4404V33.4408H24.8514ZM26.1459 35.6137H22.6785V38.2027H26.1459V35.6137ZM23.973 36.9082V33.4408H21.384V36.9082H23.973ZM22.6785 31.2679H26.1459V28.6789H22.6785V31.2679ZM24.8514 29.9734V33.4408H27.4404V29.9734H24.8514ZM26.1459 32.1463H22.6785V34.7353H26.1459V32.1463ZM23.973 33.4408V29.9734H21.384V33.4408H23.973ZM19.2111 31.2679H22.6785V28.6789H19.2111V31.2679ZM21.384 29.9734V33.4408H23.973V29.9734H21.384ZM22.6785 32.1463H19.2111V34.7353H22.6785V32.1463ZM20.5055 33.4408V29.9734H17.9166V33.4408H20.5055ZM15.7436 31.2679H19.2111V28.6789H15.7436V31.2679ZM17.9166 29.9734V33.4408H20.5055V29.9734H17.9166ZM19.2111 32.1463H15.7436V34.7353H19.2111V32.1463ZM17.0381 33.4408V29.9734H14.4491V33.4408H17.0381ZM8.80883 34.7353H12.2762V32.1463H8.80883V34.7353ZM10.9817 33.4408V36.9082H13.5707V33.4408H10.9817ZM12.2762 35.6137H8.80883V38.2027H12.2762V35.6137ZM10.1033 36.9082V33.4408H7.51434V36.9082H10.1033ZM39.7934 2.23415V0.939653H38.4989V2.23415H39.7934ZM43.2608 2.23415H44.5553V0.939653H43.2608V2.23415ZM43.2608 5.70156V6.99605H44.5553V5.70156H43.2608ZM39.7934 5.70156H38.4989V6.99605H39.7934V5.70156ZM36.3259 2.23415V0.939653H35.0314V2.23415H36.3259ZM39.7934 2.23415H41.0878V0.939653H39.7934V2.23415ZM39.7934 5.70156V6.99605H41.0878V5.70156H39.7934ZM36.3259 5.70156H35.0314V6.99605H36.3259V5.70156ZM36.3259 5.70156V4.40706H35.0314V5.70156H36.3259ZM39.7934 5.70156H41.0878V4.40706H39.7934V5.70156ZM39.7934 9.16896V10.4635H41.0878V9.16896H39.7934ZM36.3259 9.16896H35.0314V10.4635H36.3259V9.16896ZM39.7934 5.70156V4.40706H38.4989V5.70156H39.7934ZM43.2608 5.70156H44.5553V4.40706H43.2608V5.70156ZM43.2608 9.16896V10.4635H44.5553V9.16896H43.2608ZM39.7934 9.16896H38.4989V10.4635H39.7934V9.16896ZM43.2608 5.70156V4.40706H41.9663V5.70156H43.2608ZM46.7282 5.70156H48.0227V4.40706H46.7282V5.70156ZM46.7282 9.16896V10.4635H48.0227V9.16896H46.7282ZM43.2608 9.16896H41.9663V10.4635H43.2608V9.16896ZM43.2608 2.23415V0.939653H41.9663V2.23415H43.2608ZM46.7282 2.23415H48.0227V0.939653H46.7282V2.23415ZM46.7282 5.70156V6.99605H48.0227V5.70156H46.7282ZM43.2608 5.70156H41.9663V6.99605H43.2608V5.70156ZM46.7282 2.23415V0.939653H45.4337V2.23415H46.7282ZM50.1956 2.23415H51.4901V0.939653H50.1956V2.23415ZM50.1956 5.70156V6.99605H51.4901V5.70156H50.1956ZM46.7282 5.70156H45.4337V6.99605H46.7282V5.70156ZM50.1956 5.70156V4.40706H48.9011V5.70156H50.1956ZM53.663 5.70156H54.9575V4.40706H53.663V5.70156ZM53.663 9.16896V10.4635H54.9575V9.16896H53.663ZM50.1956 9.16896H48.9011V10.4635H50.1956V9.16896ZM46.7282 5.70156V4.40706H45.4337V5.70156H46.7282ZM50.1956 5.70156H51.4901V4.40706H50.1956V5.70156ZM50.1956 9.16896V10.4635H51.4901V9.16896H50.1956ZM46.7282 9.16896H45.4337V10.4635H46.7282V9.16896ZM50.1956 9.16896V7.87446H48.9011V9.16896H50.1956ZM53.663 9.16896H54.9575V7.87446H53.663V9.16896ZM53.663 12.6364V13.9309H54.9575V12.6364H53.663ZM50.1956 12.6364H48.9011V13.9309H50.1956V12.6364ZM50.1956 29.9734V28.6789H48.9011V29.9734H50.1956ZM53.663 29.9734H54.9575V28.6789H53.663V29.9734ZM53.663 33.4408V34.7353H54.9575V33.4408H53.663ZM50.1956 33.4408H48.9011V34.7353H50.1956V33.4408ZM50.1956 26.506V25.2115H48.9011V26.506H50.1956ZM53.663 26.506H54.9575V25.2115H53.663V26.506ZM53.663 29.9734V31.2679H54.9575V29.9734H53.663ZM50.1956 29.9734H48.9011V31.2679H50.1956V29.9734ZM50.1956 23.0386V21.7441H48.9011V23.0386H50.1956ZM53.663 23.0386H54.9575V21.7441H53.663V23.0386ZM53.663 26.506V27.8005H54.9575V26.506H53.663ZM50.1956 26.506H48.9011V27.8005H50.1956V26.506ZM50.1956 19.5712V18.2767H48.9011V19.5712H50.1956ZM53.663 19.5712H54.9575V18.2767H53.663V19.5712ZM53.663 23.0386V24.3331H54.9575V23.0386H53.663ZM50.1956 23.0386H48.9011V24.3331H50.1956V23.0386ZM50.1956 16.1038V14.8093H48.9011V16.1038H50.1956ZM53.663 16.1038H54.9575V14.8093H53.663V16.1038ZM53.663 19.5712V20.8657H54.9575V19.5712H53.663ZM50.1956 19.5712H48.9011V20.8657H50.1956V19.5712ZM50.1956 12.6364V11.3419H48.9011V12.6364H50.1956ZM53.663 12.6364H54.9575V11.3419H53.663V12.6364ZM53.663 16.1038V17.3983H54.9575V16.1038H53.663ZM50.1956 16.1038H48.9011V17.3983H50.1956V16.1038ZM46.7282 29.9734V28.6789H45.4337V29.9734H46.7282ZM50.1956 29.9734H51.4901V28.6789H50.1956V29.9734ZM50.1956 33.4408V34.7353H51.4901V33.4408H50.1956ZM46.7282 33.4408H45.4337V34.7353H46.7282V33.4408ZM46.7282 33.4408V32.1463H45.4337V33.4408H46.7282ZM50.1956 33.4408H51.4901V32.1463H50.1956V33.4408ZM50.1956 36.9082V38.2027H51.4901V36.9082H50.1956ZM46.7282 36.9082H45.4337V38.2027H46.7282V36.9082ZM43.2608 33.4408V32.1463H41.9663V33.4408H43.2608ZM46.7282 33.4408H48.0227V32.1463H46.7282V33.4408ZM46.7282 36.9082V38.2027H48.0227V36.9082H46.7282ZM43.2608 36.9082H41.9663V38.2027H43.2608V36.9082ZM43.2608 29.9734V28.6789H41.9663V29.9734H43.2608ZM46.7282 29.9734H48.0227V28.6789H46.7282V29.9734ZM46.7282 33.4408V34.7353H48.0227V33.4408H46.7282ZM43.2608 33.4408H41.9663V34.7353H43.2608V33.4408ZM39.7934 33.4408V32.1463H38.4989V33.4408H39.7934ZM43.2608 33.4408H44.5553V32.1463H43.2608V33.4408ZM43.2608 36.9082V38.2027H44.5553V36.9082H43.2608ZM39.7934 36.9082H38.4989V38.2027H39.7934V36.9082ZM36.3259 33.4408V32.1463H35.0314V33.4408H36.3259ZM39.7934 33.4408H41.0878V32.1463H39.7934V33.4408ZM39.7934 36.9082V38.2027H41.0878V36.9082H39.7934ZM36.3259 36.9082H35.0314V38.2027H36.3259V36.9082ZM36.3259 29.9734V28.6789H35.0314V29.9734H36.3259ZM39.7934 29.9734H41.0878V28.6789H39.7934V29.9734ZM39.7934 33.4408V34.7353H41.0878V33.4408H39.7934ZM36.3259 33.4408H35.0314V34.7353H36.3259V33.4408ZM39.7934 29.9734V28.6789H38.4989V29.9734H39.7934ZM43.2608 29.9734H44.5553V28.6789H43.2608V29.9734ZM43.2608 33.4408V34.7353H44.5553V33.4408H43.2608ZM39.7934 33.4408H38.4989V34.7353H39.7934V33.4408ZM36.3259 26.506V25.2115H35.0314V26.506H36.3259ZM39.7934 26.506H41.0878V25.2115H39.7934V26.506ZM39.7934 29.9734V31.2679H41.0878V29.9734H39.7934ZM36.3259 29.9734H35.0314V31.2679H36.3259V29.9734ZM32.8585 29.9734V28.6789H31.564V29.9734H32.8585ZM36.3259 29.9734H37.6204V28.6789H36.3259V29.9734ZM36.3259 33.4408V34.7353H37.6204V33.4408H36.3259ZM32.8585 33.4408H31.564V34.7353H32.8585V33.4408ZM32.8585 26.506V25.2115H31.564V26.506H32.8585ZM36.3259 26.506H37.6204V25.2115H36.3259V26.506ZM36.3259 29.9734V31.2679H37.6204V29.9734H36.3259ZM32.8585 29.9734H31.564V31.2679H32.8585V29.9734ZM32.8585 23.0386V21.7441H31.564V23.0386H32.8585ZM36.3259 23.0386H37.6204V21.7441H36.3259V23.0386ZM36.3259 26.506V27.8005H37.6204V26.506H36.3259ZM32.8585 26.506H31.564V27.8005H32.8585V26.506ZM32.8585 19.5712V18.2767H31.564V19.5712H32.8585ZM36.3259 19.5712H37.6204V18.2767H36.3259V19.5712ZM36.3259 23.0386V24.3331H37.6204V23.0386H36.3259ZM32.8585 23.0386H31.564V24.3331H32.8585V23.0386ZM32.8585 16.1038V14.8093H31.564V16.1038H32.8585ZM36.3259 16.1038H37.6204V14.8093H36.3259V16.1038ZM36.3259 19.5712V20.8657H37.6204V19.5712H36.3259ZM32.8585 19.5712H31.564V20.8657H32.8585V19.5712ZM32.8585 12.6364V11.3419H31.564V12.6364H32.8585ZM36.3259 12.6364H37.6204V11.3419H36.3259V12.6364ZM36.3259 16.1038V17.3983H37.6204V16.1038H36.3259ZM32.8585 16.1038H31.564V17.3983H32.8585V16.1038ZM32.8585 9.16896V7.87446H31.564V9.16896H32.8585ZM36.3259 9.16896H37.6204V7.87446H36.3259V9.16896ZM36.3259 12.6364V13.9309H37.6204V12.6364H36.3259ZM32.8585 12.6364H31.564V13.9309H32.8585V12.6364ZM36.3259 9.16896V7.87446H35.0314V9.16896H36.3259ZM39.7934 9.16896H41.0878V7.87446H39.7934V9.16896ZM39.7934 12.6364V13.9309H41.0878V12.6364H39.7934ZM36.3259 12.6364H35.0314V13.9309H36.3259V12.6364ZM32.8585 5.70156V4.40706H31.564V5.70156H32.8585ZM36.3259 5.70156H37.6204V4.40706H36.3259V5.70156ZM36.3259 9.16896V10.4635H37.6204V9.16896H36.3259ZM32.8585 9.16896H31.564V10.4635H32.8585V9.16896ZM36.3259 12.6364V11.3419H35.0314V12.6364H36.3259ZM39.7934 12.6364H41.0878V11.3419H39.7934V12.6364ZM39.7934 16.1038V17.3983H41.0878V16.1038H39.7934ZM36.3259 16.1038H35.0314V17.3983H36.3259V16.1038ZM36.3259 16.1038V14.8093H35.0314V16.1038H36.3259ZM39.7934 16.1038H41.0878V14.8093H39.7934V16.1038ZM39.7934 19.5712V20.8657H41.0878V19.5712H39.7934ZM36.3259 19.5712H35.0314V20.8657H36.3259V19.5712ZM36.3259 19.5712V18.2767H35.0314V19.5712H36.3259ZM39.7934 19.5712H41.0878V18.2767H39.7934V19.5712ZM39.7934 23.0386V24.3331H41.0878V23.0386H39.7934ZM36.3259 23.0386H35.0314V24.3331H36.3259V23.0386ZM36.3259 23.0386V21.7441H35.0314V23.0386H36.3259ZM39.7934 23.0386H41.0878V21.7441H39.7934V23.0386ZM39.7934 26.506V27.8005H41.0878V26.506H39.7934ZM36.3259 26.506H35.0314V27.8005H36.3259V26.506ZM46.7282 9.16896V7.87446H45.4337V9.16896H46.7282ZM50.1956 9.16896H51.4901V7.87446H50.1956V9.16896ZM50.1956 12.6364V13.9309H51.4901V12.6364H50.1956ZM46.7282 12.6364H45.4337V13.9309H46.7282V12.6364ZM46.7282 12.6364V11.3419H45.4337V12.6364H46.7282ZM50.1956 12.6364H51.4901V11.3419H50.1956V12.6364ZM50.1956 16.1038V17.3983H51.4901V16.1038H50.1956ZM46.7282 16.1038H45.4337V17.3983H46.7282V16.1038ZM46.7282 16.1038V14.8093H45.4337V16.1038H46.7282ZM50.1956 16.1038H51.4901V14.8093H50.1956V16.1038ZM50.1956 19.5712V20.8657H51.4901V19.5712H50.1956ZM46.7282 19.5712H45.4337V20.8657H46.7282V19.5712ZM46.7282 19.5712V18.2767H45.4337V19.5712H46.7282ZM50.1956 19.5712H51.4901V18.2767H50.1956V19.5712ZM50.1956 23.0386V24.3331H51.4901V23.0386H50.1956ZM46.7282 23.0386H45.4337V24.3331H46.7282V23.0386ZM46.7282 23.0386V21.7441H45.4337V23.0386H46.7282ZM50.1956 23.0386H51.4901V21.7441H50.1956V23.0386ZM50.1956 26.506V27.8005H51.4901V26.506H50.1956ZM46.7282 26.506H45.4337V27.8005H46.7282V26.506ZM46.7282 26.506V25.2115H45.4337V26.506H46.7282ZM50.1956 26.506H51.4901V25.2115H50.1956V26.506ZM50.1956 29.9734V31.2679H51.4901V29.9734H50.1956ZM46.7282 29.9734H45.4337V31.2679H46.7282V29.9734ZM39.7934 3.52865H43.2608V0.939653H39.7934V3.52865ZM41.9663 2.23415V5.70156H44.5553V2.23415H41.9663ZM43.2608 4.40706H39.7934V6.99605H43.2608V4.40706ZM41.0878 5.70156V2.23415H38.4989V5.70156H41.0878ZM36.3259 3.52865H39.7934V0.939653H36.3259V3.52865ZM38.4989 2.23415V5.70156H41.0878V2.23415H38.4989ZM39.7934 4.40706H36.3259V6.99605H39.7934V4.40706ZM37.6204 5.70156V2.23415H35.0314V5.70156H37.6204ZM36.3259 6.99605H39.7934V4.40706H36.3259V6.99605ZM38.4989 5.70156V9.16896H41.0878V5.70156H38.4989ZM39.7934 7.87446H36.3259V10.4635H39.7934V7.87446ZM37.6204 9.16896V5.70156H35.0314V9.16896H37.6204ZM39.7934 6.99605H43.2608V4.40706H39.7934V6.99605ZM41.9663 5.70156V9.16896H44.5553V5.70156H41.9663ZM43.2608 7.87446H39.7934V10.4635H43.2608V7.87446ZM41.0878 9.16896V5.70156H38.4989V9.16896H41.0878ZM43.2608 6.99605H46.7282V4.40706H43.2608V6.99605ZM45.4337 5.70156V9.16896H48.0227V5.70156H45.4337ZM46.7282 7.87446H43.2608V10.4635H46.7282V7.87446ZM44.5553 9.16896V5.70156H41.9663V9.16896H44.5553ZM43.2608 3.52865H46.7282V0.939653H43.2608V3.52865ZM45.4337 2.23415V5.70156H48.0227V2.23415H45.4337ZM46.7282 4.40706H43.2608V6.99605H46.7282V4.40706ZM44.5553 5.70156V2.23415H41.9663V5.70156H44.5553ZM46.7282 3.52865H50.1956V0.939653H46.7282V3.52865ZM48.9011 2.23415V5.70156H51.4901V2.23415H48.9011ZM50.1956 4.40706H46.7282V6.99605H50.1956V4.40706ZM48.0227 5.70156V2.23415H45.4337V5.70156H48.0227ZM50.1956 6.99605H53.663V4.40706H50.1956V6.99605ZM52.3685 5.70156V9.16896H54.9575V5.70156H52.3685ZM53.663 7.87446H50.1956V10.4635H53.663V7.87446ZM51.4901 9.16896V5.70156H48.9011V9.16896H51.4901ZM46.7282 6.99605H50.1956V4.40706H46.7282V6.99605ZM48.9011 5.70156V9.16896H51.4901V5.70156H48.9011ZM50.1956 7.87446H46.7282V10.4635H50.1956V7.87446ZM48.0227 9.16896V5.70156H45.4337V9.16896H48.0227ZM50.1956 10.4635H53.663V7.87446H50.1956V10.4635ZM52.3685 9.16896V12.6364H54.9575V9.16896H52.3685ZM53.663 11.3419H50.1956V13.9309H53.663V11.3419ZM51.4901 12.6364V9.16896H48.9011V12.6364H51.4901ZM50.1956 31.2679H53.663V28.6789H50.1956V31.2679ZM52.3685 29.9734V33.4408H54.9575V29.9734H52.3685ZM53.663 32.1463H50.1956V34.7353H53.663V32.1463ZM51.4901 33.4408V29.9734H48.9011V33.4408H51.4901ZM50.1956 27.8005H53.663V25.2115H50.1956V27.8005ZM52.3685 26.506V29.9734H54.9575V26.506H52.3685ZM53.663 28.6789H50.1956V31.2679H53.663V28.6789ZM51.4901 29.9734V26.506H48.9011V29.9734H51.4901ZM50.1956 24.3331H53.663V21.7441H50.1956V24.3331ZM52.3685 23.0386V26.506H54.9575V23.0386H52.3685ZM53.663 25.2115H50.1956V27.8005H53.663V25.2115ZM51.4901 26.506V23.0386H48.9011V26.506H51.4901ZM50.1956 20.8657H53.663V18.2767H50.1956V20.8657ZM52.3685 19.5712V23.0386H54.9575V19.5712H52.3685ZM53.663 21.7441H50.1956V24.3331H53.663V21.7441ZM51.4901 23.0386V19.5712H48.9011V23.0386H51.4901ZM50.1956 17.3983H53.663V14.8093H50.1956V17.3983ZM52.3685 16.1038V19.5712H54.9575V16.1038H52.3685ZM53.663 18.2767H50.1956V20.8657H53.663V18.2767ZM51.4901 19.5712V16.1038H48.9011V19.5712H51.4901ZM50.1956 13.9309H53.663V11.3419H50.1956V13.9309ZM52.3685 12.6364V16.1038H54.9575V12.6364H52.3685ZM53.663 14.8093H50.1956V17.3983H53.663V14.8093ZM51.4901 16.1038V12.6364H48.9011V16.1038H51.4901ZM46.7282 31.2679H50.1956V28.6789H46.7282V31.2679ZM48.9011 29.9734V33.4408H51.4901V29.9734H48.9011ZM50.1956 32.1463H46.7282V34.7353H50.1956V32.1463ZM48.0227 33.4408V29.9734H45.4337V33.4408H48.0227ZM46.7282 34.7353H50.1956V32.1463H46.7282V34.7353ZM48.9011 33.4408V36.9082H51.4901V33.4408H48.9011ZM50.1956 35.6137H46.7282V38.2027H50.1956V35.6137ZM48.0227 36.9082V33.4408H45.4337V36.9082H48.0227ZM43.2608 34.7353H46.7282V32.1463H43.2608V34.7353ZM45.4337 33.4408V36.9082H48.0227V33.4408H45.4337ZM46.7282 35.6137H43.2608V38.2027H46.7282V35.6137ZM44.5553 36.9082V33.4408H41.9663V36.9082H44.5553ZM43.2608 31.2679H46.7282V28.6789H43.2608V31.2679ZM45.4337 29.9734V33.4408H48.0227V29.9734H45.4337ZM46.7282 32.1463H43.2608V34.7353H46.7282V32.1463ZM44.5553 33.4408V29.9734H41.9663V33.4408H44.5553ZM39.7934 34.7353H43.2608V32.1463H39.7934V34.7353ZM41.9663 33.4408V36.9082H44.5553V33.4408H41.9663ZM43.2608 35.6137H39.7934V38.2027H43.2608V35.6137ZM41.0878 36.9082V33.4408H38.4989V36.9082H41.0878ZM36.3259 34.7353H39.7934V32.1463H36.3259V34.7353ZM38.4989 33.4408V36.9082H41.0878V33.4408H38.4989ZM39.7934 35.6137H36.3259V38.2027H39.7934V35.6137ZM37.6204 36.9082V33.4408H35.0314V36.9082H37.6204ZM36.3259 31.2679H39.7934V28.6789H36.3259V31.2679ZM38.4989 29.9734V33.4408H41.0878V29.9734H38.4989ZM39.7934 32.1463H36.3259V34.7353H39.7934V32.1463ZM37.6204 33.4408V29.9734H35.0314V33.4408H37.6204ZM39.7934 31.2679H43.2608V28.6789H39.7934V31.2679ZM41.9663 29.9734V33.4408H44.5553V29.9734H41.9663ZM43.2608 32.1463H39.7934V34.7353H43.2608V32.1463ZM41.0878 33.4408V29.9734H38.4989V33.4408H41.0878ZM36.3259 27.8005H39.7934V25.2115H36.3259V27.8005ZM38.4989 26.506V29.9734H41.0878V26.506H38.4989ZM39.7934 28.6789H36.3259V31.2679H39.7934V28.6789ZM37.6204 29.9734V26.506H35.0314V29.9734H37.6204ZM32.8585 31.2679H36.3259V28.6789H32.8585V31.2679ZM35.0314 29.9734V33.4408H37.6204V29.9734H35.0314ZM36.3259 32.1463H32.8585V34.7353H36.3259V32.1463ZM34.153 33.4408V29.9734H31.564V33.4408H34.153ZM32.8585 27.8005H36.3259V25.2115H32.8585V27.8005ZM35.0314 26.506V29.9734H37.6204V26.506H35.0314ZM36.3259 28.6789H32.8585V31.2679H36.3259V28.6789ZM34.153 29.9734V26.506H31.564V29.9734H34.153ZM32.8585 24.3331H36.3259V21.7441H32.8585V24.3331ZM35.0314 23.0386V26.506H37.6204V23.0386H35.0314ZM36.3259 25.2115H32.8585V27.8005H36.3259V25.2115ZM34.153 26.506V23.0386H31.564V26.506H34.153ZM32.8585 20.8657H36.3259V18.2767H32.8585V20.8657ZM35.0314 19.5712V23.0386H37.6204V19.5712H35.0314ZM36.3259 21.7441H32.8585V24.3331H36.3259V21.7441ZM34.153 23.0386V19.5712H31.564V23.0386H34.153ZM32.8585 17.3983H36.3259V14.8093H32.8585V17.3983ZM35.0314 16.1038V19.5712H37.6204V16.1038H35.0314ZM36.3259 18.2767H32.8585V20.8657H36.3259V18.2767ZM34.153 19.5712V16.1038H31.564V19.5712H34.153ZM32.8585 13.9309H36.3259V11.3419H32.8585V13.9309ZM35.0314 12.6364V16.1038H37.6204V12.6364H35.0314ZM36.3259 14.8093H32.8585V17.3983H36.3259V14.8093ZM34.153 16.1038V12.6364H31.564V16.1038H34.153ZM32.8585 10.4635H36.3259V7.87446H32.8585V10.4635ZM35.0314 9.16896V12.6364H37.6204V9.16896H35.0314ZM36.3259 11.3419H32.8585V13.9309H36.3259V11.3419ZM34.153 12.6364V9.16896H31.564V12.6364H34.153ZM36.3259 10.4635H39.7934V7.87446H36.3259V10.4635ZM38.4989 9.16896V12.6364H41.0878V9.16896H38.4989ZM39.7934 11.3419H36.3259V13.9309H39.7934V11.3419ZM37.6204 12.6364V9.16896H35.0314V12.6364H37.6204ZM32.8585 6.99605H36.3259V4.40706H32.8585V6.99605ZM35.0314 5.70156V9.16896H37.6204V5.70156H35.0314ZM36.3259 7.87446H32.8585V10.4635H36.3259V7.87446ZM34.153 9.16896V5.70156H31.564V9.16896H34.153ZM36.3259 13.9309H39.7934V11.3419H36.3259V13.9309ZM38.4989 12.6364V16.1038H41.0878V12.6364H38.4989ZM39.7934 14.8093H36.3259V17.3983H39.7934V14.8093ZM37.6204 16.1038V12.6364H35.0314V16.1038H37.6204ZM36.3259 17.3983H39.7934V14.8093H36.3259V17.3983ZM38.4989 16.1038V19.5712H41.0878V16.1038H38.4989ZM39.7934 18.2767H36.3259V20.8657H39.7934V18.2767ZM37.6204 19.5712V16.1038H35.0314V19.5712H37.6204ZM36.3259 20.8657H39.7934V18.2767H36.3259V20.8657ZM38.4989 19.5712V23.0386H41.0878V19.5712H38.4989ZM39.7934 21.7441H36.3259V24.3331H39.7934V21.7441ZM37.6204 23.0386V19.5712H35.0314V23.0386H37.6204ZM36.3259 24.3331H39.7934V21.7441H36.3259V24.3331ZM38.4989 23.0386V26.506H41.0878V23.0386H38.4989ZM39.7934 25.2115H36.3259V27.8005H39.7934V25.2115ZM37.6204 26.506V23.0386H35.0314V26.506H37.6204ZM46.7282 10.4635H50.1956V7.87446H46.7282V10.4635ZM48.9011 9.16896V12.6364H51.4901V9.16896H48.9011ZM50.1956 11.3419H46.7282V13.9309H50.1956V11.3419ZM48.0227 12.6364V9.16896H45.4337V12.6364H48.0227ZM46.7282 13.9309H50.1956V11.3419H46.7282V13.9309ZM48.9011 12.6364V16.1038H51.4901V12.6364H48.9011ZM50.1956 14.8093H46.7282V17.3983H50.1956V14.8093ZM48.0227 16.1038V12.6364H45.4337V16.1038H48.0227ZM46.7282 17.3983H50.1956V14.8093H46.7282V17.3983ZM48.9011 16.1038V19.5712H51.4901V16.1038H48.9011ZM50.1956 18.2767H46.7282V20.8657H50.1956V18.2767ZM48.0227 19.5712V16.1038H45.4337V19.5712H48.0227ZM46.7282 20.8657H50.1956V18.2767H46.7282V20.8657ZM48.9011 19.5712V23.0386H51.4901V19.5712H48.9011ZM50.1956 21.7441H46.7282V24.3331H50.1956V21.7441ZM48.0227 23.0386V19.5712H45.4337V23.0386H48.0227ZM46.7282 24.3331H50.1956V21.7441H46.7282V24.3331ZM48.9011 23.0386V26.506H51.4901V23.0386H48.9011ZM50.1956 25.2115H46.7282V27.8005H50.1956V25.2115ZM48.0227 26.506V23.0386H45.4337V26.506H48.0227ZM46.7282 27.8005H50.1956V25.2115H46.7282V27.8005ZM48.9011 26.506V29.9734H51.4901V26.506H48.9011ZM50.1956 28.6789H46.7282V31.2679H50.1956V28.6789ZM48.0227 29.9734V26.506H45.4337V29.9734H48.0227ZM60.3666 5.70156V4.40706H59.0721V5.70156H60.3666ZM63.834 5.70156H65.1285V4.40706H63.834V5.70156ZM63.834 9.16896V10.4635H65.1285V9.16896H63.834ZM60.3666 9.16896H59.0721V10.4635H60.3666V9.16896ZM60.3666 9.16896V7.87446H59.0721V9.16896H60.3666ZM63.834 9.16896H65.1285V7.87446H63.834V9.16896ZM63.834 12.6364V13.9309H65.1285V12.6364H63.834ZM60.3666 12.6364H59.0721V13.9309H60.3666V12.6364ZM63.834 9.16896V7.87446H62.5395V9.16896H63.834ZM67.3014 9.16896H68.5959V7.87446H67.3014V9.16896ZM67.3014 12.6364V13.9309H68.5959V12.6364H67.3014ZM63.834 12.6364H62.5395V13.9309H63.834V12.6364ZM63.834 5.70156V4.40706H62.5395V5.70156H63.834ZM67.3014 5.70156H68.5959V4.40706H67.3014V5.70156ZM67.3014 9.16896V10.4635H68.5959V9.16896H67.3014ZM63.834 9.16896H62.5395V10.4635H63.834V9.16896ZM63.834 2.23415V0.939653H62.5395V2.23415H63.834ZM67.3014 2.23415H68.5959V0.939653H67.3014V2.23415ZM67.3014 5.70156V6.99605H68.5959V5.70156H67.3014ZM63.834 5.70156H62.5395V6.99605H63.834V5.70156ZM67.3014 2.23415V0.939653H66.0069V2.23415H67.3014ZM70.7688 2.23415H72.0633V0.939653H70.7688V2.23415ZM70.7688 5.70156V6.99605H72.0633V5.70156H70.7688ZM67.3014 5.70156H66.0069V6.99605H67.3014V5.70156ZM70.7688 2.23415V0.939653H69.4743V2.23415H70.7688ZM74.2362 2.23415H75.5307V0.939653H74.2362V2.23415ZM74.2362 5.70156V6.99605H75.5307V5.70156H74.2362ZM70.7688 5.70156H69.4743V6.99605H70.7688V5.70156ZM74.2362 2.23415V0.939653H72.9417V2.23415H74.2362ZM77.7037 2.23415H78.9981V0.939653H77.7037V2.23415ZM77.7037 5.70156V6.99605H78.9981V5.70156H77.7037ZM74.2362 5.70156H72.9417V6.99605H74.2362V5.70156ZM77.7037 2.23415V0.939653H76.4091V2.23415H77.7037ZM81.1711 2.23415H82.4656V0.939653H81.1711V2.23415ZM81.1711 5.70156V6.99605H82.4656V5.70156H81.1711ZM77.7037 5.70156H76.4091V6.99605H77.7037V5.70156ZM77.7037 5.70156V4.40706H76.4091V5.70156H77.7037ZM81.1711 5.70156H82.4656V4.40706H81.1711V5.70156ZM81.1711 9.16896V10.4635H82.4656V9.16896H81.1711ZM77.7037 9.16896H76.4091V10.4635H77.7037V9.16896ZM74.2362 5.70156V4.40706H72.9417V5.70156H74.2362ZM77.7037 5.70156H78.9981V4.40706H77.7037V5.70156ZM77.7037 9.16896V10.4635H78.9981V9.16896H77.7037ZM74.2362 9.16896H72.9417V10.4635H74.2362V9.16896ZM70.7688 5.70156V4.40706H69.4743V5.70156H70.7688ZM74.2362 5.70156H75.5307V4.40706H74.2362V5.70156ZM74.2362 9.16896V10.4635H75.5307V9.16896H74.2362ZM70.7688 9.16896H69.4743V10.4635H70.7688V9.16896ZM67.3014 5.70156V4.40706H66.0069V5.70156H67.3014ZM70.7688 5.70156H72.0633V4.40706H70.7688V5.70156ZM70.7688 9.16896V10.4635H72.0633V9.16896H70.7688ZM67.3014 9.16896H66.0069V10.4635H67.3014V9.16896ZM77.7037 9.16896V7.87446H76.4091V9.16896H77.7037ZM81.1711 9.16896H82.4656V7.87446H81.1711V9.16896ZM81.1711 12.6364V13.9309H82.4656V12.6364H81.1711ZM77.7037 12.6364H76.4091V13.9309H77.7037V12.6364ZM81.1711 9.16896V7.87446H79.8766V9.16896H81.1711ZM84.6385 9.16896H85.933V7.87446H84.6385V9.16896ZM84.6385 12.6364V13.9309H85.933V12.6364H84.6385ZM81.1711 12.6364H79.8766V13.9309H81.1711V12.6364ZM81.1711 5.70156V4.40706H79.8766V5.70156H81.1711ZM84.6385 5.70156H85.933V4.40706H84.6385V5.70156ZM84.6385 9.16896V10.4635H85.933V9.16896H84.6385ZM81.1711 9.16896H79.8766V10.4635H81.1711V9.16896ZM81.1711 12.6364V11.3419H79.8766V12.6364H81.1711ZM84.6385 12.6364H85.933V11.3419H84.6385V12.6364ZM84.6385 16.1038V17.3983H85.933V16.1038H84.6385ZM81.1711 16.1038H79.8766V17.3983H81.1711V16.1038ZM77.7037 12.6364V11.3419H76.4091V12.6364H77.7037ZM81.1711 12.6364H82.4656V11.3419H81.1711V12.6364ZM81.1711 16.1038V17.3983H82.4656V16.1038H81.1711ZM77.7037 16.1038H76.4091V17.3983H77.7037V16.1038ZM74.2362 12.6364V11.3419H72.9417V12.6364H74.2362ZM77.7037 12.6364H78.9981V11.3419H77.7037V12.6364ZM77.7037 16.1038V17.3983H78.9981V16.1038H77.7037ZM74.2362 16.1038H72.9417V17.3983H74.2362V16.1038ZM74.2362 16.1038V14.8093H72.9417V16.1038H74.2362ZM77.7037 16.1038H78.9981V14.8093H77.7037V16.1038ZM77.7037 19.5712V20.8657H78.9981V19.5712H77.7037ZM74.2362 19.5712H72.9417V20.8657H74.2362V19.5712ZM77.7037 16.1038V14.8093H76.4091V16.1038H77.7037ZM81.1711 16.1038H82.4656V14.8093H81.1711V16.1038ZM81.1711 19.5712V20.8657H82.4656V19.5712H81.1711ZM77.7037 19.5712H76.4091V20.8657H77.7037V19.5712ZM70.7688 16.1038V14.8093H69.4743V16.1038H70.7688ZM74.2362 16.1038H75.5307V14.8093H74.2362V16.1038ZM74.2362 19.5712V20.8657H75.5307V19.5712H74.2362ZM70.7688 19.5712H69.4743V20.8657H70.7688V19.5712ZM70.7688 19.5712V18.2767H69.4743V19.5712H70.7688ZM74.2362 19.5712H75.5307V18.2767H74.2362V19.5712ZM74.2362 23.0386V24.3331H75.5307V23.0386H74.2362ZM70.7688 23.0386H69.4743V24.3331H70.7688V23.0386ZM74.2362 19.5712V18.2767H72.9417V19.5712H74.2362ZM77.7037 19.5712H78.9981V18.2767H77.7037V19.5712ZM77.7037 23.0386V24.3331H78.9981V23.0386H77.7037ZM74.2362 23.0386H72.9417V24.3331H74.2362V23.0386ZM67.3014 19.5712V18.2767H66.0069V19.5712H67.3014ZM70.7688 19.5712H72.0633V18.2767H70.7688V19.5712ZM70.7688 23.0386V24.3331H72.0633V23.0386H70.7688ZM67.3014 23.0386H66.0069V24.3331H67.3014V23.0386ZM67.3014 23.0386V21.7441H66.0069V23.0386H67.3014ZM70.7688 23.0386H72.0633V21.7441H70.7688V23.0386ZM70.7688 26.506V27.8005H72.0633V26.506H70.7688ZM67.3014 26.506H66.0069V27.8005H67.3014V26.506ZM70.7688 23.0386V21.7441H69.4743V23.0386H70.7688ZM74.2362 23.0386H75.5307V21.7441H74.2362V23.0386ZM74.2362 26.506V27.8005H75.5307V26.506H74.2362ZM70.7688 26.506H69.4743V27.8005H70.7688V26.506ZM63.834 23.0386V21.7441H62.5395V23.0386H63.834ZM67.3014 23.0386H68.5959V21.7441H67.3014V23.0386ZM67.3014 26.506V27.8005H68.5959V26.506H67.3014ZM63.834 26.506H62.5395V27.8005H63.834V26.506ZM63.834 26.506V25.2115H62.5395V26.506H63.834ZM67.3014 26.506H68.5959V25.2115H67.3014V26.506ZM67.3014 29.9734V31.2679H68.5959V29.9734H67.3014ZM63.834 29.9734H62.5395V31.2679H63.834V29.9734ZM67.3014 26.506V25.2115H66.0069V26.506H67.3014ZM70.7688 26.506H72.0633V25.2115H70.7688V26.506ZM70.7688 29.9734V31.2679H72.0633V29.9734H70.7688ZM67.3014 29.9734H66.0069V31.2679H67.3014V29.9734ZM60.3666 26.506V25.2115H59.0721V26.506H60.3666ZM63.834 26.506H65.1285V25.2115H63.834V26.506ZM63.834 29.9734V31.2679H65.1285V29.9734H63.834ZM60.3666 29.9734H59.0721V31.2679H60.3666V29.9734ZM60.3666 29.9734V28.6789H59.0721V29.9734H60.3666ZM63.834 29.9734H65.1285V28.6789H63.834V29.9734ZM63.834 33.4408V34.7353H65.1285V33.4408H63.834ZM60.3666 33.4408H59.0721V34.7353H60.3666V33.4408ZM60.3666 33.4408V32.1463H59.0721V33.4408H60.3666ZM63.834 33.4408H65.1285V32.1463H63.834V33.4408ZM63.834 36.9082V38.2027H65.1285V36.9082H63.834ZM60.3666 36.9082H59.0721V38.2027H60.3666V36.9082ZM63.834 33.4408V32.1463H62.5395V33.4408H63.834ZM67.3014 33.4408H68.5959V32.1463H67.3014V33.4408ZM67.3014 36.9082V38.2027H68.5959V36.9082H67.3014ZM63.834 36.9082H62.5395V38.2027H63.834V36.9082ZM63.834 29.9734V28.6789H62.5395V29.9734H63.834ZM67.3014 29.9734H68.5959V28.6789H67.3014V29.9734ZM67.3014 33.4408V34.7353H68.5959V33.4408H67.3014ZM63.834 33.4408H62.5395V34.7353H63.834V33.4408ZM67.3014 29.9734V28.6789H66.0069V29.9734H67.3014ZM70.7688 29.9734H72.0633V28.6789H70.7688V29.9734ZM70.7688 33.4408V34.7353H72.0633V33.4408H70.7688ZM67.3014 33.4408H66.0069V34.7353H67.3014V33.4408ZM70.7688 29.9734V28.6789H69.4743V29.9734H70.7688ZM74.2362 29.9734H75.5307V28.6789H74.2362V29.9734ZM74.2362 33.4408V34.7353H75.5307V33.4408H74.2362ZM70.7688 33.4408H69.4743V34.7353H70.7688V33.4408ZM70.7688 33.4408V32.1463H69.4743V33.4408H70.7688ZM74.2362 33.4408H75.5307V32.1463H74.2362V33.4408ZM74.2362 36.9082V38.2027H75.5307V36.9082H74.2362ZM70.7688 36.9082H69.4743V38.2027H70.7688V36.9082ZM74.2362 33.4408V32.1463H72.9417V33.4408H74.2362ZM77.7037 33.4408H78.9981V32.1463H77.7037V33.4408ZM77.7037 36.9082V38.2027H78.9981V36.9082H77.7037ZM74.2362 36.9082H72.9417V38.2027H74.2362V36.9082ZM77.7037 33.4408V32.1463H76.4091V33.4408H77.7037ZM81.1711 33.4408H82.4656V32.1463H81.1711V33.4408ZM81.1711 36.9082V38.2027H82.4656V36.9082H81.1711ZM77.7037 36.9082H76.4091V38.2027H77.7037V36.9082ZM81.1711 33.4408V32.1463H79.8766V33.4408H81.1711ZM84.6385 33.4408H85.933V32.1463H84.6385V33.4408ZM84.6385 36.9082V38.2027H85.933V36.9082H84.6385ZM81.1711 36.9082H79.8766V38.2027H81.1711V36.9082ZM81.1711 29.9734V28.6789H79.8766V29.9734H81.1711ZM84.6385 29.9734H85.933V28.6789H84.6385V29.9734ZM84.6385 33.4408V34.7353H85.933V33.4408H84.6385ZM81.1711 33.4408H79.8766V34.7353H81.1711V33.4408ZM77.7037 29.9734V28.6789H76.4091V29.9734H77.7037ZM81.1711 29.9734H82.4656V28.6789H81.1711V29.9734ZM81.1711 33.4408V34.7353H82.4656V33.4408H81.1711ZM77.7037 33.4408H76.4091V34.7353H77.7037V33.4408ZM74.2362 29.9734V28.6789H72.9417V29.9734H74.2362ZM77.7037 29.9734H78.9981V28.6789H77.7037V29.9734ZM77.7037 33.4408V34.7353H78.9981V33.4408H77.7037ZM74.2362 33.4408H72.9417V34.7353H74.2362V33.4408ZM67.3014 33.4408V32.1463H66.0069V33.4408H67.3014ZM70.7688 33.4408H72.0633V32.1463H70.7688V33.4408ZM70.7688 36.9082V38.2027H72.0633V36.9082H70.7688ZM67.3014 36.9082H66.0069V38.2027H67.3014V36.9082ZM60.3666 6.99605H63.834V4.40706H60.3666V6.99605ZM62.5395 5.70156V9.16896H65.1285V5.70156H62.5395ZM63.834 7.87446H60.3666V10.4635H63.834V7.87446ZM61.6611 9.16896V5.70156H59.0721V9.16896H61.6611ZM60.3666 10.4635H63.834V7.87446H60.3666V10.4635ZM62.5395 9.16896V12.6364H65.1285V9.16896H62.5395ZM63.834 11.3419H60.3666V13.9309H63.834V11.3419ZM61.6611 12.6364V9.16896H59.0721V12.6364H61.6611ZM63.834 10.4635H67.3014V7.87446H63.834V10.4635ZM66.0069 9.16896V12.6364H68.5959V9.16896H66.0069ZM67.3014 11.3419H63.834V13.9309H67.3014V11.3419ZM65.1285 12.6364V9.16896H62.5395V12.6364H65.1285ZM63.834 6.99605H67.3014V4.40706H63.834V6.99605ZM66.0069 5.70156V9.16896H68.5959V5.70156H66.0069ZM67.3014 7.87446H63.834V10.4635H67.3014V7.87446ZM65.1285 9.16896V5.70156H62.5395V9.16896H65.1285ZM63.834 3.52865H67.3014V0.939653H63.834V3.52865ZM66.0069 2.23415V5.70156H68.5959V2.23415H66.0069ZM67.3014 4.40706H63.834V6.99605H67.3014V4.40706ZM65.1285 5.70156V2.23415H62.5395V5.70156H65.1285ZM67.3014 3.52865H70.7688V0.939653H67.3014V3.52865ZM69.4743 2.23415V5.70156H72.0633V2.23415H69.4743ZM70.7688 4.40706H67.3014V6.99605H70.7688V4.40706ZM68.5959 5.70156V2.23415H66.0069V5.70156H68.5959ZM70.7688 3.52865H74.2362V0.939653H70.7688V3.52865ZM72.9417 2.23415V5.70156H75.5307V2.23415H72.9417ZM74.2362 4.40706H70.7688V6.99605H74.2362V4.40706ZM72.0633 5.70156V2.23415H69.4743V5.70156H72.0633ZM74.2362 3.52865H77.7037V0.939653H74.2362V3.52865ZM76.4091 2.23415V5.70156H78.9981V2.23415H76.4091ZM77.7037 4.40706H74.2362V6.99605H77.7037V4.40706ZM75.5307 5.70156V2.23415H72.9417V5.70156H75.5307ZM77.7037 3.52865H81.1711V0.939653H77.7037V3.52865ZM79.8766 2.23415V5.70156H82.4656V2.23415H79.8766ZM81.1711 4.40706H77.7037V6.99605H81.1711V4.40706ZM78.9981 5.70156V2.23415H76.4091V5.70156H78.9981ZM77.7037 6.99605H81.1711V4.40706H77.7037V6.99605ZM79.8766 5.70156V9.16896H82.4656V5.70156H79.8766ZM81.1711 7.87446H77.7037V10.4635H81.1711V7.87446ZM78.9981 9.16896V5.70156H76.4091V9.16896H78.9981ZM74.2362 6.99605H77.7037V4.40706H74.2362V6.99605ZM76.4091 5.70156V9.16896H78.9981V5.70156H76.4091ZM77.7037 7.87446H74.2362V10.4635H77.7037V7.87446ZM75.5307 9.16896V5.70156H72.9417V9.16896H75.5307ZM70.7688 6.99605H74.2362V4.40706H70.7688V6.99605ZM72.9417 5.70156V9.16896H75.5307V5.70156H72.9417ZM74.2362 7.87446H70.7688V10.4635H74.2362V7.87446ZM72.0633 9.16896V5.70156H69.4743V9.16896H72.0633ZM67.3014 6.99605H70.7688V4.40706H67.3014V6.99605ZM69.4743 5.70156V9.16896H72.0633V5.70156H69.4743ZM70.7688 7.87446H67.3014V10.4635H70.7688V7.87446ZM68.5959 9.16896V5.70156H66.0069V9.16896H68.5959ZM77.7037 10.4635H81.1711V7.87446H77.7037V10.4635ZM79.8766 9.16896V12.6364H82.4656V9.16896H79.8766ZM81.1711 11.3419H77.7037V13.9309H81.1711V11.3419ZM78.9981 12.6364V9.16896H76.4091V12.6364H78.9981ZM81.1711 10.4635H84.6385V7.87446H81.1711V10.4635ZM83.344 9.16896V12.6364H85.933V9.16896H83.344ZM84.6385 11.3419H81.1711V13.9309H84.6385V11.3419ZM82.4656 12.6364V9.16896H79.8766V12.6364H82.4656ZM81.1711 6.99605H84.6385V4.40706H81.1711V6.99605ZM83.344 5.70156V9.16896H85.933V5.70156H83.344ZM84.6385 7.87446H81.1711V10.4635H84.6385V7.87446ZM82.4656 9.16896V5.70156H79.8766V9.16896H82.4656ZM81.1711 13.9309H84.6385V11.3419H81.1711V13.9309ZM83.344 12.6364V16.1038H85.933V12.6364H83.344ZM84.6385 14.8093H81.1711V17.3983H84.6385V14.8093ZM82.4656 16.1038V12.6364H79.8766V16.1038H82.4656ZM77.7037 13.9309H81.1711V11.3419H77.7037V13.9309ZM79.8766 12.6364V16.1038H82.4656V12.6364H79.8766ZM81.1711 14.8093H77.7037V17.3983H81.1711V14.8093ZM78.9981 16.1038V12.6364H76.4091V16.1038H78.9981ZM74.2362 13.9309H77.7037V11.3419H74.2362V13.9309ZM76.4091 12.6364V16.1038H78.9981V12.6364H76.4091ZM77.7037 14.8093H74.2362V17.3983H77.7037V14.8093ZM75.5307 16.1038V12.6364H72.9417V16.1038H75.5307ZM74.2362 17.3983H77.7037V14.8093H74.2362V17.3983ZM76.4091 16.1038V19.5712H78.9981V16.1038H76.4091ZM77.7037 18.2767H74.2362V20.8657H77.7037V18.2767ZM75.5307 19.5712V16.1038H72.9417V19.5712H75.5307ZM77.7037 17.3983H81.1711V14.8093H77.7037V17.3983ZM79.8766 16.1038V19.5712H82.4656V16.1038H79.8766ZM81.1711 18.2767H77.7037V20.8657H81.1711V18.2767ZM78.9981 19.5712V16.1038H76.4091V19.5712H78.9981ZM70.7688 17.3983H74.2362V14.8093H70.7688V17.3983ZM72.9417 16.1038V19.5712H75.5307V16.1038H72.9417ZM74.2362 18.2767H70.7688V20.8657H74.2362V18.2767ZM72.0633 19.5712V16.1038H69.4743V19.5712H72.0633ZM70.7688 20.8657H74.2362V18.2767H70.7688V20.8657ZM72.9417 19.5712V23.0386H75.5307V19.5712H72.9417ZM74.2362 21.7441H70.7688V24.3331H74.2362V21.7441ZM72.0633 23.0386V19.5712H69.4743V23.0386H72.0633ZM74.2362 20.8657H77.7037V18.2767H74.2362V20.8657ZM76.4091 19.5712V23.0386H78.9981V19.5712H76.4091ZM77.7037 21.7441H74.2362V24.3331H77.7037V21.7441ZM75.5307 23.0386V19.5712H72.9417V23.0386H75.5307ZM67.3014 20.8657H70.7688V18.2767H67.3014V20.8657ZM69.4743 19.5712V23.0386H72.0633V19.5712H69.4743ZM70.7688 21.7441H67.3014V24.3331H70.7688V21.7441ZM68.5959 23.0386V19.5712H66.0069V23.0386H68.5959ZM67.3014 24.3331H70.7688V21.7441H67.3014V24.3331ZM69.4743 23.0386V26.506H72.0633V23.0386H69.4743ZM70.7688 25.2115H67.3014V27.8005H70.7688V25.2115ZM68.5959 26.506V23.0386H66.0069V26.506H68.5959ZM70.7688 24.3331H74.2362V21.7441H70.7688V24.3331ZM72.9417 23.0386V26.506H75.5307V23.0386H72.9417ZM74.2362 25.2115H70.7688V27.8005H74.2362V25.2115ZM72.0633 26.506V23.0386H69.4743V26.506H72.0633ZM63.834 24.3331H67.3014V21.7441H63.834V24.3331ZM66.0069 23.0386V26.506H68.5959V23.0386H66.0069ZM67.3014 25.2115H63.834V27.8005H67.3014V25.2115ZM65.1285 26.506V23.0386H62.5395V26.506H65.1285ZM63.834 27.8005H67.3014V25.2115H63.834V27.8005ZM66.0069 26.506V29.9734H68.5959V26.506H66.0069ZM67.3014 28.6789H63.834V31.2679H67.3014V28.6789ZM65.1285 29.9734V26.506H62.5395V29.9734H65.1285ZM67.3014 27.8005H70.7688V25.2115H67.3014V27.8005ZM69.4743 26.506V29.9734H72.0633V26.506H69.4743ZM70.7688 28.6789H67.3014V31.2679H70.7688V28.6789ZM68.5959 29.9734V26.506H66.0069V29.9734H68.5959ZM60.3666 27.8005H63.834V25.2115H60.3666V27.8005ZM62.5395 26.506V29.9734H65.1285V26.506H62.5395ZM63.834 28.6789H60.3666V31.2679H63.834V28.6789ZM61.6611 29.9734V26.506H59.0721V29.9734H61.6611ZM60.3666 31.2679H63.834V28.6789H60.3666V31.2679ZM62.5395 29.9734V33.4408H65.1285V29.9734H62.5395ZM63.834 32.1463H60.3666V34.7353H63.834V32.1463ZM61.6611 33.4408V29.9734H59.0721V33.4408H61.6611ZM60.3666 34.7353H63.834V32.1463H60.3666V34.7353ZM62.5395 33.4408V36.9082H65.1285V33.4408H62.5395ZM63.834 35.6137H60.3666V38.2027H63.834V35.6137ZM61.6611 36.9082V33.4408H59.0721V36.9082H61.6611ZM63.834 34.7353H67.3014V32.1463H63.834V34.7353ZM66.0069 33.4408V36.9082H68.5959V33.4408H66.0069ZM67.3014 35.6137H63.834V38.2027H67.3014V35.6137ZM65.1285 36.9082V33.4408H62.5395V36.9082H65.1285ZM63.834 31.2679H67.3014V28.6789H63.834V31.2679ZM66.0069 29.9734V33.4408H68.5959V29.9734H66.0069ZM67.3014 32.1463H63.834V34.7353H67.3014V32.1463ZM65.1285 33.4408V29.9734H62.5395V33.4408H65.1285ZM67.3014 31.2679H70.7688V28.6789H67.3014V31.2679ZM69.4743 29.9734V33.4408H72.0633V29.9734H69.4743ZM70.7688 32.1463H67.3014V34.7353H70.7688V32.1463ZM68.5959 33.4408V29.9734H66.0069V33.4408H68.5959ZM70.7688 31.2679H74.2362V28.6789H70.7688V31.2679ZM72.9417 29.9734V33.4408H75.5307V29.9734H72.9417ZM74.2362 32.1463H70.7688V34.7353H74.2362V32.1463ZM72.0633 33.4408V29.9734H69.4743V33.4408H72.0633ZM70.7688 34.7353H74.2362V32.1463H70.7688V34.7353ZM72.9417 33.4408V36.9082H75.5307V33.4408H72.9417ZM74.2362 35.6137H70.7688V38.2027H74.2362V35.6137ZM72.0633 36.9082V33.4408H69.4743V36.9082H72.0633ZM74.2362 34.7353H77.7037V32.1463H74.2362V34.7353ZM76.4091 33.4408V36.9082H78.9981V33.4408H76.4091ZM77.7037 35.6137H74.2362V38.2027H77.7037V35.6137ZM75.5307 36.9082V33.4408H72.9417V36.9082H75.5307ZM77.7037 34.7353H81.1711V32.1463H77.7037V34.7353ZM79.8766 33.4408V36.9082H82.4656V33.4408H79.8766ZM81.1711 35.6137H77.7037V38.2027H81.1711V35.6137ZM78.9981 36.9082V33.4408H76.4091V36.9082H78.9981ZM81.1711 34.7353H84.6385V32.1463H81.1711V34.7353ZM83.344 33.4408V36.9082H85.933V33.4408H83.344ZM84.6385 35.6137H81.1711V38.2027H84.6385V35.6137ZM82.4656 36.9082V33.4408H79.8766V36.9082H82.4656ZM81.1711 31.2679H84.6385V28.6789H81.1711V31.2679ZM83.344 29.9734V33.4408H85.933V29.9734H83.344ZM84.6385 32.1463H81.1711V34.7353H84.6385V32.1463ZM82.4656 33.4408V29.9734H79.8766V33.4408H82.4656ZM77.7037 31.2679H81.1711V28.6789H77.7037V31.2679ZM79.8766 29.9734V33.4408H82.4656V29.9734H79.8766ZM81.1711 32.1463H77.7037V34.7353H81.1711V32.1463ZM78.9981 33.4408V29.9734H76.4091V33.4408H78.9981ZM74.2362 31.2679H77.7037V28.6789H74.2362V31.2679ZM76.4091 29.9734V33.4408H78.9981V29.9734H76.4091ZM77.7037 32.1463H74.2362V34.7353H77.7037V32.1463ZM75.5307 33.4408V29.9734H72.9417V33.4408H75.5307ZM67.3014 34.7353H70.7688V32.1463H67.3014V34.7353ZM69.4743 33.4408V36.9082H72.0633V33.4408H69.4743ZM70.7688 35.6137H67.3014V38.2027H70.7688V35.6137ZM68.5959 36.9082V33.4408H66.0069V36.9082H68.5959ZM108.688 2.23415V0.939653H107.394V2.23415H108.688ZM112.156 2.23415H113.45V0.939653H112.156V2.23415ZM112.156 5.70156V6.99605H113.45V5.70156H112.156ZM108.688 5.70156H107.394V6.99605H108.688V5.70156ZM105.221 2.23415V0.939653H103.926V2.23415H105.221ZM108.688 2.23415H109.983V0.939653H108.688V2.23415ZM108.688 5.70156V6.99605H109.983V5.70156H108.688ZM105.221 5.70156H103.926V6.99605H105.221V5.70156ZM105.221 5.70156V4.40706H103.926V5.70156H105.221ZM108.688 5.70156H109.983V4.40706H108.688V5.70156ZM108.688 9.16896V10.4635H109.983V9.16896H108.688ZM105.221 9.16896H103.926V10.4635H105.221V9.16896ZM101.753 5.70156V4.40706H100.459V5.70156H101.753ZM105.221 5.70156H106.515V4.40706H105.221V5.70156ZM105.221 9.16896V10.4635H106.515V9.16896H105.221ZM101.753 9.16896H100.459V10.4635H101.753V9.16896ZM98.286 5.70156V4.40706H96.9915V5.70156H98.286ZM101.753 5.70156H103.048V4.40706H101.753V5.70156ZM101.753 9.16896V10.4635H103.048V9.16896H101.753ZM98.286 9.16896H96.9915V10.4635H98.286V9.16896ZM98.286 2.23415V0.939653H96.9915V2.23415H98.286ZM101.753 2.23415H103.048V0.939653H101.753V2.23415ZM101.753 5.70156V6.99605H103.048V5.70156H101.753ZM98.286 5.70156H96.9915V6.99605H98.286V5.70156ZM94.8186 2.23415V0.939653H93.524V2.23415H94.8186ZM98.286 2.23415H99.5805V0.939653H98.286V2.23415ZM98.286 5.70156V6.99605H99.5805V5.70156H98.286ZM94.8186 5.70156H93.524V6.99605H94.8186V5.70156ZM91.3511 2.23415V0.939653H90.0566V2.23415H91.3511ZM94.8186 2.23415H96.113V0.939653H94.8186V2.23415ZM94.8186 5.70156V6.99605H96.113V5.70156H94.8186ZM91.3511 5.70156H90.0566V6.99605H91.3511V5.70156ZM101.753 2.23415V0.939653H100.459V2.23415H101.753ZM105.221 2.23415H106.515V0.939653H105.221V2.23415ZM105.221 5.70156V6.99605H106.515V5.70156H105.221ZM101.753 5.70156H100.459V6.99605H101.753V5.70156ZM108.688 5.70156V4.40706H107.394V5.70156H108.688ZM112.156 5.70156H113.45V4.40706H112.156V5.70156ZM112.156 9.16896V10.4635H113.45V9.16896H112.156ZM108.688 9.16896H107.394V10.4635H108.688V9.16896ZM94.8186 5.70156V4.40706H93.524V5.70156H94.8186ZM98.286 5.70156H99.5805V4.40706H98.286V5.70156ZM98.286 9.16896V10.4635H99.5805V9.16896H98.286ZM94.8186 9.16896H93.524V10.4635H94.8186V9.16896ZM91.3511 5.70156V4.40706H90.0566V5.70156H91.3511ZM94.8186 5.70156H96.113V4.40706H94.8186V5.70156ZM94.8186 9.16896V10.4635H96.113V9.16896H94.8186ZM91.3511 9.16896H90.0566V10.4635H91.3511V9.16896ZM91.3511 9.16896V7.87446H90.0566V9.16896H91.3511ZM94.8186 9.16896H96.113V7.87446H94.8186V9.16896ZM94.8186 12.6364V13.9309H96.113V12.6364H94.8186ZM91.3511 12.6364H90.0566V13.9309H91.3511V12.6364ZM91.3511 12.6364V11.3419H90.0566V12.6364H91.3511ZM94.8186 12.6364H96.113V11.3419H94.8186V12.6364ZM94.8186 16.1038V17.3983H96.113V16.1038H94.8186ZM91.3511 16.1038H90.0566V17.3983H91.3511V16.1038ZM94.8186 12.6364V11.3419H93.524V12.6364H94.8186ZM98.286 12.6364H99.5805V11.3419H98.286V12.6364ZM98.286 16.1038V17.3983H99.5805V16.1038H98.286ZM94.8186 16.1038H93.524V17.3983H94.8186V16.1038ZM94.8186 9.16896V7.87446H93.524V9.16896H94.8186ZM98.286 9.16896H99.5805V7.87446H98.286V9.16896ZM98.286 12.6364V13.9309H99.5805V12.6364H98.286ZM94.8186 12.6364H93.524V13.9309H94.8186V12.6364ZM94.8186 16.1038V14.8093H93.524V16.1038H94.8186ZM98.286 16.1038H99.5805V14.8093H98.286V16.1038ZM98.286 19.5712V20.8657H99.5805V19.5712H98.286ZM94.8186 19.5712H93.524V20.8657H94.8186V19.5712ZM91.3511 16.1038V14.8093H90.0566V16.1038H91.3511ZM94.8186 16.1038H96.113V14.8093H94.8186V16.1038ZM94.8186 19.5712V20.8657H96.113V19.5712H94.8186ZM91.3511 19.5712H90.0566V20.8657H91.3511V19.5712ZM94.8186 19.5712V18.2767H93.524V19.5712H94.8186ZM98.286 19.5712H99.5805V18.2767H98.286V19.5712ZM98.286 23.0386V24.3331H99.5805V23.0386H98.286ZM94.8186 23.0386H93.524V24.3331H94.8186V23.0386ZM98.286 19.5712V18.2767H96.9915V19.5712H98.286ZM101.753 19.5712H103.048V18.2767H101.753V19.5712ZM101.753 23.0386V24.3331H103.048V23.0386H101.753ZM98.286 23.0386H96.9915V24.3331H98.286V23.0386ZM101.753 19.5712V18.2767H100.459V19.5712H101.753ZM105.221 19.5712H106.515V18.2767H105.221V19.5712ZM105.221 23.0386V24.3331H106.515V23.0386H105.221ZM101.753 23.0386H100.459V24.3331H101.753V23.0386ZM105.221 19.5712V18.2767H103.926V19.5712H105.221ZM108.688 19.5712H109.983V18.2767H108.688V19.5712ZM108.688 23.0386V24.3331H109.983V23.0386H108.688ZM105.221 23.0386H103.926V24.3331H105.221V23.0386ZM105.221 16.1038V14.8093H103.926V16.1038H105.221ZM108.688 16.1038H109.983V14.8093H108.688V16.1038ZM108.688 19.5712V20.8657H109.983V19.5712H108.688ZM105.221 19.5712H103.926V20.8657H105.221V19.5712ZM101.753 16.1038V14.8093H100.459V16.1038H101.753ZM105.221 16.1038H106.515V14.8093H105.221V16.1038ZM105.221 19.5712V20.8657H106.515V19.5712H105.221ZM101.753 19.5712H100.459V20.8657H101.753V19.5712ZM98.286 16.1038V14.8093H96.9915V16.1038H98.286ZM101.753 16.1038H103.048V14.8093H101.753V16.1038ZM101.753 19.5712V20.8657H103.048V19.5712H101.753ZM98.286 19.5712H96.9915V20.8657H98.286V19.5712ZM108.688 19.5712V18.2767H107.394V19.5712H108.688ZM112.156 19.5712H113.45V18.2767H112.156V19.5712ZM112.156 23.0386V24.3331H113.45V23.0386H112.156ZM108.688 23.0386H107.394V24.3331H108.688V23.0386ZM108.688 23.0386V21.7441H107.394V23.0386H108.688ZM112.156 23.0386H113.45V21.7441H112.156V23.0386ZM112.156 26.506V27.8005H113.45V26.506H112.156ZM108.688 26.506H107.394V27.8005H108.688V26.506ZM108.688 26.506V25.2115H107.394V26.506H108.688ZM112.156 26.506H113.45V25.2115H112.156V26.506ZM112.156 29.9734V31.2679H113.45V29.9734H112.156ZM108.688 29.9734H107.394V31.2679H108.688V29.9734ZM108.688 29.9734V28.6789H107.394V29.9734H108.688ZM112.156 29.9734H113.45V28.6789H112.156V29.9734ZM112.156 33.4408V34.7353H113.45V33.4408H112.156ZM108.688 33.4408H107.394V34.7353H108.688V33.4408ZM105.221 26.506V25.2115H103.926V26.506H105.221ZM108.688 26.506H109.983V25.2115H108.688V26.506ZM108.688 29.9734V31.2679H109.983V29.9734H108.688ZM105.221 29.9734H103.926V31.2679H105.221V29.9734ZM105.221 23.0386V21.7441H103.926V23.0386H105.221ZM108.688 23.0386H109.983V21.7441H108.688V23.0386ZM108.688 26.506V27.8005H109.983V26.506H108.688ZM105.221 26.506H103.926V27.8005H105.221V26.506ZM105.221 29.9734V28.6789H103.926V29.9734H105.221ZM108.688 29.9734H109.983V28.6789H108.688V29.9734ZM108.688 33.4408V34.7353H109.983V33.4408H108.688ZM105.221 33.4408H103.926V34.7353H105.221V33.4408ZM105.221 33.4408V32.1463H103.926V33.4408H105.221ZM108.688 33.4408H109.983V32.1463H108.688V33.4408ZM108.688 36.9082V38.2027H109.983V36.9082H108.688ZM105.221 36.9082H103.926V38.2027H105.221V36.9082ZM101.753 33.4408V32.1463H100.459V33.4408H101.753ZM105.221 33.4408H106.515V32.1463H105.221V33.4408ZM105.221 36.9082V38.2027H106.515V36.9082H105.221ZM101.753 36.9082H100.459V38.2027H101.753V36.9082ZM98.286 33.4408V32.1463H96.9915V33.4408H98.286ZM101.753 33.4408H103.048V32.1463H101.753V33.4408ZM101.753 36.9082V38.2027H103.048V36.9082H101.753ZM98.286 36.9082H96.9915V38.2027H98.286V36.9082ZM98.286 29.9734V28.6789H96.9915V29.9734H98.286ZM101.753 29.9734H103.048V28.6789H101.753V29.9734ZM101.753 33.4408V34.7353H103.048V33.4408H101.753ZM98.286 33.4408H96.9915V34.7353H98.286V33.4408ZM94.8186 29.9734V28.6789H93.524V29.9734H94.8186ZM98.286 29.9734H99.5805V28.6789H98.286V29.9734ZM98.286 33.4408V34.7353H99.5805V33.4408H98.286ZM94.8186 33.4408H93.524V34.7353H94.8186V33.4408ZM94.8186 33.4408V32.1463H93.524V33.4408H94.8186ZM98.286 33.4408H99.5805V32.1463H98.286V33.4408ZM98.286 36.9082V38.2027H99.5805V36.9082H98.286ZM94.8186 36.9082H93.524V38.2027H94.8186V36.9082ZM101.753 29.9734V28.6789H100.459V29.9734H101.753ZM105.221 29.9734H106.515V28.6789H105.221V29.9734ZM105.221 33.4408V34.7353H106.515V33.4408H105.221ZM101.753 33.4408H100.459V34.7353H101.753V33.4408ZM91.3511 29.9734V28.6789H90.0566V29.9734H91.3511ZM94.8186 29.9734H96.113V28.6789H94.8186V29.9734ZM94.8186 33.4408V34.7353H96.113V33.4408H94.8186ZM91.3511 33.4408H90.0566V34.7353H91.3511V33.4408ZM91.3511 26.506V25.2115H90.0566V26.506H91.3511ZM94.8186 26.506H96.113V25.2115H94.8186V26.506ZM94.8186 29.9734V31.2679H96.113V29.9734H94.8186ZM91.3511 29.9734H90.0566V31.2679H91.3511V29.9734ZM94.8186 26.506V25.2115H93.524V26.506H94.8186ZM98.286 26.506H99.5805V25.2115H98.286V26.506ZM98.286 29.9734V31.2679H99.5805V29.9734H98.286ZM94.8186 29.9734H93.524V31.2679H94.8186V29.9734ZM108.688 3.52865H112.156V0.939653H108.688V3.52865ZM110.861 2.23415V5.70156H113.45V2.23415H110.861ZM112.156 4.40706H108.688V6.99605H112.156V4.40706ZM109.983 5.70156V2.23415H107.394V5.70156H109.983ZM105.221 3.52865H108.688V0.939653H105.221V3.52865ZM107.394 2.23415V5.70156H109.983V2.23415H107.394ZM108.688 4.40706H105.221V6.99605H108.688V4.40706ZM106.515 5.70156V2.23415H103.926V5.70156H106.515ZM105.221 6.99605H108.688V4.40706H105.221V6.99605ZM107.394 5.70156V9.16896H109.983V5.70156H107.394ZM108.688 7.87446H105.221V10.4635H108.688V7.87446ZM106.515 9.16896V5.70156H103.926V9.16896H106.515ZM101.753 6.99605H105.221V4.40706H101.753V6.99605ZM103.926 5.70156V9.16896H106.515V5.70156H103.926ZM105.221 7.87446H101.753V10.4635H105.221V7.87446ZM103.048 9.16896V5.70156H100.459V9.16896H103.048ZM98.286 6.99605H101.753V4.40706H98.286V6.99605ZM100.459 5.70156V9.16896H103.048V5.70156H100.459ZM101.753 7.87446H98.286V10.4635H101.753V7.87446ZM99.5805 9.16896V5.70156H96.9915V9.16896H99.5805ZM98.286 3.52865H101.753V0.939653H98.286V3.52865ZM100.459 2.23415V5.70156H103.048V2.23415H100.459ZM101.753 4.40706H98.286V6.99605H101.753V4.40706ZM99.5805 5.70156V2.23415H96.9915V5.70156H99.5805ZM94.8186 3.52865H98.286V0.939653H94.8186V3.52865ZM96.9915 2.23415V5.70156H99.5805V2.23415H96.9915ZM98.286 4.40706H94.8186V6.99605H98.286V4.40706ZM96.113 5.70156V2.23415H93.524V5.70156H96.113ZM91.3511 3.52865H94.8186V0.939653H91.3511V3.52865ZM93.524 2.23415V5.70156H96.113V2.23415H93.524ZM94.8186 4.40706H91.3511V6.99605H94.8186V4.40706ZM92.6456 5.70156V2.23415H90.0566V5.70156H92.6456ZM101.753 3.52865H105.221V0.939653H101.753V3.52865ZM103.926 2.23415V5.70156H106.515V2.23415H103.926ZM105.221 4.40706H101.753V6.99605H105.221V4.40706ZM103.048 5.70156V2.23415H100.459V5.70156H103.048ZM108.688 6.99605H112.156V4.40706H108.688V6.99605ZM110.861 5.70156V9.16896H113.45V5.70156H110.861ZM112.156 7.87446H108.688V10.4635H112.156V7.87446ZM109.983 9.16896V5.70156H107.394V9.16896H109.983ZM94.8186 6.99605H98.286V4.40706H94.8186V6.99605ZM96.9915 5.70156V9.16896H99.5805V5.70156H96.9915ZM98.286 7.87446H94.8186V10.4635H98.286V7.87446ZM96.113 9.16896V5.70156H93.524V9.16896H96.113ZM91.3511 6.99605H94.8186V4.40706H91.3511V6.99605ZM93.524 5.70156V9.16896H96.113V5.70156H93.524ZM94.8186 7.87446H91.3511V10.4635H94.8186V7.87446ZM92.6456 9.16896V5.70156H90.0566V9.16896H92.6456ZM91.3511 10.4635H94.8186V7.87446H91.3511V10.4635ZM93.524 9.16896V12.6364H96.113V9.16896H93.524ZM94.8186 11.3419H91.3511V13.9309H94.8186V11.3419ZM92.6456 12.6364V9.16896H90.0566V12.6364H92.6456ZM91.3511 13.9309H94.8186V11.3419H91.3511V13.9309ZM93.524 12.6364V16.1038H96.113V12.6364H93.524ZM94.8186 14.8093H91.3511V17.3983H94.8186V14.8093ZM92.6456 16.1038V12.6364H90.0566V16.1038H92.6456ZM94.8186 13.9309H98.286V11.3419H94.8186V13.9309ZM96.9915 12.6364V16.1038H99.5805V12.6364H96.9915ZM98.286 14.8093H94.8186V17.3983H98.286V14.8093ZM96.113 16.1038V12.6364H93.524V16.1038H96.113ZM94.8186 10.4635H98.286V7.87446H94.8186V10.4635ZM96.9915 9.16896V12.6364H99.5805V9.16896H96.9915ZM98.286 11.3419H94.8186V13.9309H98.286V11.3419ZM96.113 12.6364V9.16896H93.524V12.6364H96.113ZM94.8186 17.3983H98.286V14.8093H94.8186V17.3983ZM96.9915 16.1038V19.5712H99.5805V16.1038H96.9915ZM98.286 18.2767H94.8186V20.8657H98.286V18.2767ZM96.113 19.5712V16.1038H93.524V19.5712H96.113ZM91.3511 17.3983H94.8186V14.8093H91.3511V17.3983ZM93.524 16.1038V19.5712H96.113V16.1038H93.524ZM94.8186 18.2767H91.3511V20.8657H94.8186V18.2767ZM92.6456 19.5712V16.1038H90.0566V19.5712H92.6456ZM94.8186 20.8657H98.286V18.2767H94.8186V20.8657ZM96.9915 19.5712V23.0386H99.5805V19.5712H96.9915ZM98.286 21.7441H94.8186V24.3331H98.286V21.7441ZM96.113 23.0386V19.5712H93.524V23.0386H96.113ZM98.286 20.8657H101.753V18.2767H98.286V20.8657ZM100.459 19.5712V23.0386H103.048V19.5712H100.459ZM101.753 21.7441H98.286V24.3331H101.753V21.7441ZM99.5805 23.0386V19.5712H96.9915V23.0386H99.5805ZM101.753 20.8657H105.221V18.2767H101.753V20.8657ZM103.926 19.5712V23.0386H106.515V19.5712H103.926ZM105.221 21.7441H101.753V24.3331H105.221V21.7441ZM103.048 23.0386V19.5712H100.459V23.0386H103.048ZM105.221 20.8657H108.688V18.2767H105.221V20.8657ZM107.394 19.5712V23.0386H109.983V19.5712H107.394ZM108.688 21.7441H105.221V24.3331H108.688V21.7441ZM106.515 23.0386V19.5712H103.926V23.0386H106.515ZM105.221 17.3983H108.688V14.8093H105.221V17.3983ZM107.394 16.1038V19.5712H109.983V16.1038H107.394ZM108.688 18.2767H105.221V20.8657H108.688V18.2767ZM106.515 19.5712V16.1038H103.926V19.5712H106.515ZM101.753 17.3983H105.221V14.8093H101.753V17.3983ZM103.926 16.1038V19.5712H106.515V16.1038H103.926ZM105.221 18.2767H101.753V20.8657H105.221V18.2767ZM103.048 19.5712V16.1038H100.459V19.5712H103.048ZM98.286 17.3983H101.753V14.8093H98.286V17.3983ZM100.459 16.1038V19.5712H103.048V16.1038H100.459ZM101.753 18.2767H98.286V20.8657H101.753V18.2767ZM99.5805 19.5712V16.1038H96.9915V19.5712H99.5805ZM108.688 20.8657H112.156V18.2767H108.688V20.8657ZM110.861 19.5712V23.0386H113.45V19.5712H110.861ZM112.156 21.7441H108.688V24.3331H112.156V21.7441ZM109.983 23.0386V19.5712H107.394V23.0386H109.983ZM108.688 24.3331H112.156V21.7441H108.688V24.3331ZM110.861 23.0386V26.506H113.45V23.0386H110.861ZM112.156 25.2115H108.688V27.8005H112.156V25.2115ZM109.983 26.506V23.0386H107.394V26.506H109.983ZM108.688 27.8005H112.156V25.2115H108.688V27.8005ZM110.861 26.506V29.9734H113.45V26.506H110.861ZM112.156 28.6789H108.688V31.2679H112.156V28.6789ZM109.983 29.9734V26.506H107.394V29.9734H109.983ZM108.688 31.2679H112.156V28.6789H108.688V31.2679ZM110.861 29.9734V33.4408H113.45V29.9734H110.861ZM112.156 32.1463H108.688V34.7353H112.156V32.1463ZM109.983 33.4408V29.9734H107.394V33.4408H109.983ZM105.221 27.8005H108.688V25.2115H105.221V27.8005ZM107.394 26.506V29.9734H109.983V26.506H107.394ZM108.688 28.6789H105.221V31.2679H108.688V28.6789ZM106.515 29.9734V26.506H103.926V29.9734H106.515ZM105.221 24.3331H108.688V21.7441H105.221V24.3331ZM107.394 23.0386V26.506H109.983V23.0386H107.394ZM108.688 25.2115H105.221V27.8005H108.688V25.2115ZM106.515 26.506V23.0386H103.926V26.506H106.515ZM105.221 31.2679H108.688V28.6789H105.221V31.2679ZM107.394 29.9734V33.4408H109.983V29.9734H107.394ZM108.688 32.1463H105.221V34.7353H108.688V32.1463ZM106.515 33.4408V29.9734H103.926V33.4408H106.515ZM105.221 34.7353H108.688V32.1463H105.221V34.7353ZM107.394 33.4408V36.9082H109.983V33.4408H107.394ZM108.688 35.6137H105.221V38.2027H108.688V35.6137ZM106.515 36.9082V33.4408H103.926V36.9082H106.515ZM101.753 34.7353H105.221V32.1463H101.753V34.7353ZM103.926 33.4408V36.9082H106.515V33.4408H103.926ZM105.221 35.6137H101.753V38.2027H105.221V35.6137ZM103.048 36.9082V33.4408H100.459V36.9082H103.048ZM98.286 34.7353H101.753V32.1463H98.286V34.7353ZM100.459 33.4408V36.9082H103.048V33.4408H100.459ZM101.753 35.6137H98.286V38.2027H101.753V35.6137ZM99.5805 36.9082V33.4408H96.9915V36.9082H99.5805ZM98.286 31.2679H101.753V28.6789H98.286V31.2679ZM100.459 29.9734V33.4408H103.048V29.9734H100.459ZM101.753 32.1463H98.286V34.7353H101.753V32.1463ZM99.5805 33.4408V29.9734H96.9915V33.4408H99.5805ZM94.8186 31.2679H98.286V28.6789H94.8186V31.2679ZM96.9915 29.9734V33.4408H99.5805V29.9734H96.9915ZM98.286 32.1463H94.8186V34.7353H98.286V32.1463ZM96.113 33.4408V29.9734H93.524V33.4408H96.113ZM94.8186 34.7353H98.286V32.1463H94.8186V34.7353ZM96.9915 33.4408V36.9082H99.5805V33.4408H96.9915ZM98.286 35.6137H94.8186V38.2027H98.286V35.6137ZM96.113 36.9082V33.4408H93.524V36.9082H96.113ZM101.753 31.2679H105.221V28.6789H101.753V31.2679ZM103.926 29.9734V33.4408H106.515V29.9734H103.926ZM105.221 32.1463H101.753V34.7353H105.221V32.1463ZM103.048 33.4408V29.9734H100.459V33.4408H103.048ZM91.3511 31.2679H94.8186V28.6789H91.3511V31.2679ZM93.524 29.9734V33.4408H96.113V29.9734H93.524ZM94.8186 32.1463H91.3511V34.7353H94.8186V32.1463ZM92.6456 33.4408V29.9734H90.0566V33.4408H92.6456ZM91.3511 27.8005H94.8186V25.2115H91.3511V27.8005ZM93.524 26.506V29.9734H96.113V26.506H93.524ZM94.8186 28.6789H91.3511V31.2679H94.8186V28.6789ZM92.6456 29.9734V26.506H90.0566V29.9734H92.6456ZM94.8186 27.8005H98.286V25.2115H94.8186V27.8005ZM96.9915 26.506V29.9734H99.5805V26.506H96.9915ZM98.286 28.6789H94.8186V31.2679H98.286V28.6789ZM96.113 29.9734V26.506H93.524V29.9734H96.113Z" fill="#4C4C4C" mask="url(#path-1-outside-1_148_2315)"/>
</svg>
