<svg xmlns="http://www.w3.org/2000/svg" width="406" height="275" fill="none"><path fill="#EDEAE5" d="M0 .5h406V274H0z"/><path stroke="#4C4C4C" stroke-width="1.9" d="M0 138.4h402.5"/><path stroke="#4C4C4C" stroke-width="1.3" d="M31.2 95.2v43.2"/><circle cx="31.2" cy="97.1" r="2.6" fill="#EDEAE5" stroke="#4C4C4C" stroke-width="1.3"/><circle cx="31.4" cy="139.2" r="3.9" fill="#EDEAE5" stroke="#4C4C4C" stroke-width="1.3"/><path stroke="#4C4C4C" stroke-width="1.3" d="M79.1 142.9v43.2"/><circle cx="79.1" cy="188.1" r="2.6" fill="#EDEAE5" stroke="#4C4C4C" stroke-width="1.3"/><circle cx="79.2" cy="139.2" r="3.9" fill="#EDEAE5" stroke="#4C4C4C" stroke-width="1.3"/><path stroke="#4C4C4C" stroke-width="1.3" d="M175.2 206.7v-66.5"/><circle cx="174.9" cy="204.7" r="2.6" fill="#EDEAE5" stroke="#4C4C4C" stroke-width="1.3" transform="rotate(-180 175 204.7)"/><circle cx="174.8" cy="139.2" r="3.9" fill="#EDEAE5" stroke="#4C4C4C" stroke-width="1.3" transform="rotate(-180 174.8 139.2)"/><path stroke="#4C4C4C" stroke-width="1.3" d="M126.7 71.7v66.5"/><circle cx="126.9" cy="73.8" r="2.6" fill="#EDEAE5" stroke="#4C4C4C" stroke-width="1.3"/><circle cx="127" cy="139.2" r="3.9" fill="#EDEAE5" stroke="#4C4C4C" stroke-width="1.3"/><path stroke="#4C4C4C" stroke-width="1.3" d="M222.6 95.2v43.2"/><circle cx="222.6" cy="97.1" r="2.6" fill="#EDEAE5" stroke="#4C4C4C" stroke-width="1.3"/><circle cx="222.7" cy="139.2" r="3.9" fill="#EDEAE5" stroke="#4C4C4C" stroke-width="1.3"/><path stroke="#4C4C4C" stroke-width="1.3" d="M270.5 142.9v43.2"/><circle cx="270.5" cy="188.1" r="2.6" fill="#EDEAE5" stroke="#4C4C4C" stroke-width="1.3"/><circle cx="270.5" cy="139.2" r="3.9" fill="#EDEAE5" stroke="#4C4C4C" stroke-width="1.3"/><path stroke="#4C4C4C" stroke-width="1.3" d="M366.5 206.7v-66.5"/><circle cx="366.3" cy="204.7" r="2.6" fill="#EDEAE5" stroke="#4C4C4C" stroke-width="1.3" transform="rotate(-180 366.3 204.7)"/><circle cx="366.2" cy="139.2" r="3.9" fill="#EDEAE5" stroke="#4C4C4C" stroke-width="1.3" transform="rotate(-180 366.2 139.2)"/><path stroke="#4C4C4C" stroke-width="1.3" d="M318.1 71.7v66.5"/><circle cx="318.3" cy="73.8" r="2.6" fill="#EDEAE5" stroke="#4C4C4C" stroke-width="1.3"/><circle cx="318.4" cy="139.2" r="3.9" fill="#EDEAE5" stroke="#4C4C4C" stroke-width="1.3"/><path fill="#4C4C4C" d="m19 73-1.5-.1a4.2 4.2 0 0 1-2-1.3l.8-1 1 .8 1.5.3c.4 0 .7 0 1-.2a1.6 1.6 0 0 0 1-1.5c0-.4-.2-.7-.4-1-.1-.3-.4-.5-.9-.6-.4-.2-1-.3-1.8-.3V67c.7 0 1.2 0 1.6-.2.4-.1.7-.4.8-.6.2-.3.3-.6.3-1s-.1-.8-.4-1c-.3-.3-.7-.4-1.2-.4-.4 0-.8 0-1.1.2l-1 .7-.8-1c.4-.4.9-.7 1.4-.9.4-.2 1-.3 1.6-.3a4 4 0 0 1 1.6.3c.5.2.9.5 1.1.9.3.4.4.9.4 1.4 0 .6-.1 1.1-.5 1.5-.3.4-.7.7-1.3 1l1.1.5c.3.2.6.5.8.9.2.3.3.7.3 1.2 0 .6-.2 1.1-.5 1.6a3 3 0 0 1-1.3 1c-.5.3-1 .4-1.7.4Zm5.7 2.4 4-13.7h1L26 75.4h-1.2Zm7.9-2.5v-1.4h2.3v-7.1H33v-1a7.2 7.2 0 0 0 2.3-.8h1.2v9h2v1.3h-5.9Zm12 .2-1.5-.2-1-.5-1-.7.8-1 .7.5.8.4 1 .1c.3 0 .7 0 1-.2l.7-.8c.2-.3.3-.7.3-1.2 0-.6-.2-1.2-.6-1.5-.3-.4-.8-.6-1.4-.6l-.8.1-.8.5-.8-.5.3-5h5.2V64h-3.8l-.2 2.7a3.3 3.3 0 0 1 3 0c.4.2.8.6 1.1 1 .3.5.4 1.1.4 1.9 0 .7-.1 1.4-.5 2-.3.5-.7.9-1.3 1.1-.5.3-1 .5-1.7.5Z"/><path fill="#FFDB72" d="M0 40.2h66.5v10.5H0z"/><path fill="#4C4C4C" d="M10.2 40.8h4.4v1h-4.4v-1ZM9.6 36h5v1.2h-3.8v11.2H9.6V36Zm4.3 0h1.3v2.7c0 .3 0 .5-.2.7 0 .2-.2.3-.4.4l-1 .2h-1.3c0-.2 0-.4-.2-.6a4 4 0 0 0-.2-.5h1.4a3.5 3.5 0 0 0 .6 0V36Zm-2.2 5.5 1 2.3c.4.8.9 1.4 1.4 2 .6.6 1.2 1 1.9 1.4a4.9 4.9 0 0 0-.9 1.1c-.7-.4-1.3-1-1.9-1.6-.6-.7-1-1.4-1.5-2.3l-1-2.7 1-.2Zm2.5-.7h.5l.8.2a14.5 14.5 0 0 1-2.2 5.5c-.6.8-1.2 1.4-2 2a5.7 5.7 0 0 0-.9-.9c.7-.5 1.3-1.1 1.9-1.8.5-.7 1-1.4 1.2-2.2.4-.8.6-1.7.7-2.5v-.3Zm-10.9-4h5.4v1H3.3v-1ZM3 44.4h6.2v1.2H2.9v-1.2Zm0-5.4h6.2v1.1H2.9v-1.1Zm.3 3h5.6v1H3.2v-1Zm2.3-6.7h1.2v4H5.5v-4Zm0 7h1.2v6H5.5v-6Zm1.8-2.3 1.2.3a28.7 28.7 0 0 1-1.3 2.2l-1-.2.5-.7a12.3 12.3 0 0 0 .6-1.6Zm-3.5.4 1-.3a8 8 0 0 1 .7 1.6l-1 .4-.3-.9-.4-.8ZM23 46.6h6.6v1.2h-6.6v-1.2Zm-.5-9.8h5V38h-5v-1.2Zm.5-1.5 1.5.3A15.7 15.7 0 0 1 19 41l-.2-.4a6.7 6.7 0 0 0-.7-.6 12.7 12.7 0 0 0 3.6-3c.5-.5.8-1 1-1.6Zm4.1 1.5h.5l.9.4a14.4 14.4 0 0 1-6.6 7.2l-3 1.2-.1-.4a4.3 4.3 0 0 0-.6-.8 15.3 15.3 0 0 0 7.5-4.9c.6-.8 1-1.6 1.4-2.5v-.2Zm-6.4 2.7 1-.8 1 .8a21.9 21.9 0 0 1 2 1.7l-1.1 1-.8-.9a17.3 17.3 0 0 0-2.1-1.8Zm8.3 2.8h1.3v6.1H29v-6.1Zm-5.4 0h6v1.2h-6v4.9h-1.3v-5.1l1-1h.3Zm13.2-.7h6.9v1h-7v-1Zm-.3 2.4h7.4v1h-7.3v-1Zm4.5-2h1.2V48h-1.2V42Zm-2.8 0h1.1V45.4a4.8 4.8 0 0 1-.9 2c-.2.4-.6.7-1 1a3.7 3.7 0 0 0-.8-.8 3 3 0 0 0 1-1l.5-1 .1-1V42ZM35 37.9h3.7v.9H35v-1Zm6.5 0h3.7v.9h-3.7v-1Zm3.2-2H46v10.9l-.1.8-.5.5-.9.2h-1.3L43 48a5.6 5.6 0 0 0-.3-.9h1.8l.1-.2V36Zm-9.6 0h4.5v4.9H35v-1h3.2V37h-3.2v-1Zm10.3 0v1h-3.5v3h3.5v1h-4.7v-5h4.7Zm-11 0h1.2v12.5h-1.3V36Zm21.4 10.7h4.8v1.2h-4.8v-1.2Zm-.9-4h6.4v5.8H60v-4.6h-3.9v4.6H55v-5.8Zm3.9-4.7 1-.5a19.5 19.5 0 0 1 2.4 4l-1.1.5-.6-1.2a20.6 20.6 0 0 0-1.7-2.8Zm-4.1 3.7-.1-.3-.2-.5-.2-.4c.2 0 .3-.2.4-.3l.5-.6a15.7 15.7 0 0 0 1.6-2.8l.5-1.3 1.4.4a27.2 27.2 0 0 1-3 5.1l-.2.1a4.3 4.3 0 0 0-.6.4l-.1.2Zm0 0v-1l.7-.5 5.8-.4a6.6 6.6 0 0 0 .3 1.2 477.3 477.3 0 0 1-6.8.7ZM49.3 43l.8-.8a473.9 473.9 0 0 1 4.5 3.9l-.9 1a14.3 14.3 0 0 0-2-2 46 46 0 0 0-2.4-2Zm0 0a20.5 20.5 0 0 0 1-3.6 38 38 0 0 0 .6-4l1.2.1a54 54 0 0 1-1.6 7.9l-1.2-.4Zm3.4-5.6h1.2V39a22.9 22.9 0 0 1-.4 3.6 10.5 10.5 0 0 1-1.8 4 10 10 0 0 1-1.9 1.7 3 3 0 0 0-.6-.7l-.3-.2a8.6 8.6 0 0 0 3.7-6.4l.1-2v-1.7ZM49 38.5a214.5 214.5 0 0 0 3.5-.1l2-.1v1a29952.8 29952.8 0 0 0-5.4.4l-.1-1.2ZM66.6 221v-6.7a20.8 20.8 0 0 1 0-2 69.5 69.5 0 0 1-.8 1.6l-2 3.1h5.6v1.3H62v-1.1l4.1-6.5h1.9V221h-1.5Zm4.8 2.6 3.9-13.7h1l-3.8 13.7h-1.1Zm7.9-2.6v-1.3h2.2v-7.2h-1.8v-1a7.3 7.3 0 0 0 2.2-.8h1.3v9h2v1.3h-6Zm12 .2c-.6 0-1.1 0-1.5-.2-.4 0-.8-.3-1.1-.5l-.9-.7.8-1 .6.5.8.4 1 .2c.4 0 .8 0 1-.3.4-.1.6-.4.8-.7l.3-1.2c0-.7-.2-1.2-.6-1.6-.3-.3-.8-.5-1.4-.5l-.8.1-.8.4-.8-.5.3-4.9h5.2v1.4h-3.8l-.3 2.6a3.3 3.3 0 0 1 3 0c.5.3.9.6 1.2 1.1.2.5.4 1 .4 1.9 0 .7-.2 1.4-.5 1.9s-.8 1-1.3 1.2c-.5.3-1 .4-1.7.4ZM56.8 240.3h4.5v1h-4.5v-1Zm-.6-4.8h5v1.2h-3.8v11.2h-1.2v-12.4Zm4.4 0h1.2V239l-.6.4-.9.2H59l-.2-.6a4 4 0 0 0-.2-.5H59.9a3.6 3.6 0 0 0 .6 0l.1-.2v-2.7Zm-2.2 5.5c.2.8.6 1.6 1 2.3.4.8.9 1.4 1.4 2 .6.6 1.2 1 1.9 1.4a4.8 4.8 0 0 0-1 1.1c-.6-.4-1.3-1-1.8-1.6-.6-.7-1-1.4-1.5-2.3-.4-.8-.8-1.7-1-2.7l1-.2Zm2.5-.7h.5l.8.2a14.5 14.5 0 0 1-2.3 5.5c-.5.8-1.2 1.4-2 2a5.7 5.7 0 0 0-.9-.9c.8-.5 1.4-1.1 2-1.8.4-.7.9-1.4 1.2-2.2.3-.8.6-1.7.7-2.5v-.3Zm-10.9-4h5.4v1H50v-1Zm-.4 7.7h6.2v1.2h-6.2V244Zm0-5.4h6.1v1.1h-6.1v-1.1Zm.3 3h5.6v1h-5.6v-1Zm2.2-6.7h1.3v4H52v-4Zm0 7h1.3v6H52v-6Zm1.9-2.3 1.1.3a28.9 28.9 0 0 1-1.2 2.2l-1-.2.4-.7a12.6 12.6 0 0 0 .7-1.5Zm-3.5.4 1-.3a8 8 0 0 1 .6 1.6l-1 .4-.2-.9-.4-.8Zm19.1 6.1h6.5v1.2h-6.5v-1.2Zm-.6-9.8h5v1.2h-5v-1.2Zm.6-1.5 1.4.3a15.8 15.8 0 0 1-5.2 5.3l-.3-.4a6.5 6.5 0 0 0-.7-.6 12.7 12.7 0 0 0 3.7-3c.4-.5.8-1 1-1.6Zm4 1.5h.5l1 .4c-.5 1-1 2-1.7 3a14.5 14.5 0 0 1-5 4.2c-.9.5-1.8.9-2.8 1.2l-.3-.4a4.2 4.2 0 0 0-.5-.8 15.4 15.4 0 0 0 7.4-4.9c.6-.8 1.1-1.6 1.5-2.5v-.2Zm-6.4 2.7 1-.8 1.1.8a21.4 21.4 0 0 1 2 1.7l-1.1 1-.8-.9a17 17 0 0 0-2.2-1.8Zm8.3 2.8H77v6.1h-1.4v-6.1Zm-5.3 0h6v1.2h-6v4.9h-1.3v-5.1l1-1h.3Zm15.5-5.1H93v1.2h-7.4v-1.2Zm.4 3.2h6.7v1.2H86v-1.2Zm1 6.2h4.7v1.2H87V246Zm1.5-11.2H90v5.6h-1.4V235Zm-2.3 7.5h6.1v5.4h-1.3v-4.2h-3.5v4.3h-1.3v-5.5Zm-2.5-1.9 1-.3a13.6 13.6 0 0 1 1 3l-1.1.3-.2-.9a31.6 31.6 0 0 0-.7-2Zm-1.3 3.6 1-.1a22.3 22.3 0 0 1 .4 3.1l-1 .2a14.2 14.2 0 0 0-.3-2l-.1-1.2Zm-1.6-.1 1 .2a22.6 22.6 0 0 1-.6 3.5l-.5-.2-.6-.2.4-1.5.3-1.8Zm-.3-3.7v-.4a12.3 12.3 0 0 0-.4-.8l.4-.2a5.6 5.6 0 0 0 .8-1 14.1 14.1 0 0 0 1-2l.5-1 1.2.4a22.6 22.6 0 0 1-2.7 4.3l-.1.1a2.8 2.8 0 0 0-.6.4v.2Zm0 0v-1l.6-.3 2.4-.2a13.9 13.9 0 0 0 0 1 88.8 88.8 0 0 0-3 .5Zm.1 3.2a4.6 4.6 0 0 0-.2-.8l-.2-.4c.2 0 .4-.2.5-.3l.6-.6.5-.7a34.3 34.3 0 0 0 2.4-3.7l1 .7a23.8 23.8 0 0 1-3.8 5.1l-.1.1a2.8 2.8 0 0 0-.6.4v.2Zm0 0v-1l.6-.4 3.7-.5a6.6 6.6 0 0 0 0 1 235.1 235.1 0 0 0-4.3.9Zm3.2.4 1-.3a20.4 20.4 0 0 1 .8 2.7l-1 .3-.3-1.3-.5-1.4Zm12.3-7.6h12v1.2h-12v-1.2Zm5.3-1.4h1.4v13h-1.4v-13Zm-.1 7.5 1 .5a11 11 0 0 1-2.5 2.7 15.7 15.7 0 0 1-3.3 1.9l-.3-.4a6.6 6.6 0 0 0-.6-.7 11.9 11.9 0 0 0 3.2-1.7 11.9 11.9 0 0 0 2.5-2.3Zm1.7 0c.4.6.9 1.1 1.5 1.6a13.7 13.7 0 0 0 4.2 2.3l-.4.4a14.4 14.4 0 0 0-.6.8 13.7 13.7 0 0 1-5.8-4.6l1-.4Zm-4.6-2.4v2h7.5v-2h-7.5Zm-1.3-1.1h10.1v4.2H97.2V239ZM163.6 245.7c-.5 0-1 0-1.4-.2-.5 0-.8-.3-1.1-.5l-.9-.7.8-1 .6.5.8.4 1 .2c.4 0 .7 0 1-.3.3-.1.6-.4.8-.7l.2-1.2c0-.7-.1-1.2-.5-1.6-.4-.3-.8-.5-1.4-.5l-.9.1-.8.4-.8-.5.3-4.9h5.3v1.4h-3.9l-.2 2.6a3.3 3.3 0 0 1 3 0c.5.3.9.6 1.1 1.1.3.5.5 1 .5 1.9 0 .7-.2 1.4-.5 1.9-.4.5-.8 1-1.3 1.2-.5.3-1.1.4-1.7.4Zm5.8 2.4 3.9-13.7h1l-3.8 13.7h-1.1Zm7.9-2.6v-1.3h2.2V237h-1.8v-1a7.2 7.2 0 0 0 2.2-.8h1.3v9h2v1.3h-6ZM128.4 260.4H140v1.3h-11.7v-1.3Zm6.1 4.7h5v1.3h-5v-1.3Zm-6.7 5.4h12.7v1.3h-12.7v-1.3Zm6-9.6h1.5V271h-1.4V261Zm-4.1 3.2h1.3v7h-1.3v-7Zm20-2.8h5v1.3h-5v-1.3Zm-6.5-1h7v1.2h-7v-1.3Zm1.7 2.8h3.5v1.2H145V263Zm0 2.9h3.5v1.2H145V266Zm9.5-4.7h.5l.8.1c-.2 2-.5 3.5-1 5-.6 1.3-1.2 2.5-2 3.5a10 10 0 0 1-2.7 2.3 6.2 6.2 0 0 0-.8-1 8 8 0 0 0 2.4-2.1c.7-.9 1.3-2 1.8-3.2.5-1.3.8-2.7 1-4.3v-.3Zm-3.2 1.3a20 20 0 0 0 1 3.6c.5 1.1 1 2.1 1.7 3 .7.8 1.5 1.5 2.4 2l-.3.3-.4.4-.2.4c-1-.6-1.9-1.4-2.6-2.3-.7-1-1.3-2-1.7-3.2-.5-1.2-.9-2.5-1.2-4l1.3-.2Zm-7-1.9h1.3v9.1h-1.3v-9Zm3.7 0h1.3v11.7h-1.3v-11.7Zm-5 8.7 1.6-.2a153.5 153.5 0 0 0 3.9-.6v1.3a277.3 277.3 0 0 0-5.2.8l-.3-1.3Zm20.3 1.2h6.5v1.2h-6.5v-1.2Zm-.6-9.8h5v1.2h-5v-1.2Zm.5-1.5 1.5.3a15.8 15.8 0 0 1-5.3 5.3l-.2-.4a6.6 6.6 0 0 0-.7-.6 12.7 12.7 0 0 0 3.6-3c.5-.5.8-1 1.1-1.6Zm4.1 1.5h.5l1 .4c-.5 1-1 2-1.7 3a14.5 14.5 0 0 1-5 4.2c-1 .5-1.9.9-2.9 1.2l-.2-.4a4.2 4.2 0 0 0-.5-.8 15.4 15.4 0 0 0 7.4-4.9c.6-.8 1-1.6 1.4-2.5v-.2Zm-6.4 2.7 1-.8 1 .8a21.3 21.3 0 0 1 2 1.7l-1 1-.9-.9a17 17 0 0 0-2-1.8Zm8.3 2.8h1.4v6.1H169v-6.1Zm-5.3 0h6v1.2h-6v4.9h-1.4v-5.1l1-1h.4Zm15.8-2.3h1.4v8.4h-1.4V264Zm-2.8 2.4v1h7.2v-1h-7.2Zm0-2v1h7.2v-1h-7.2Zm-1.3-1h9.8v5h-9.8v-5Zm-1.3 6h12.4v1h-12.4v-1Zm2-8.6v1h2.4v-1h-2.3Zm-1.1-.9h4.8v2.8H175V260Zm7 .9v1h2.4v-1H182Zm-1.2-.9h4.8v2.8H181V260Zm16.3 7.5 1.3-.6a45.5 45.5 0 0 1 3.1 4.8l-1.3.7a19.6 19.6 0 0 0-2-3.2l-1-1.7Zm-4.1-7.6 1.4.4a18.5 18.5 0 0 1-4.1 6l-.4-.3a8.8 8.8 0 0 0-.8-.7 12.2 12.2 0 0 0 2.8-3.4l1-2Zm-2.1 12-.2-.4a39.2 39.2 0 0 0-.4-1l.7-.4a15.1 15.1 0 0 0 2.3-2.9 38.6 38.6 0 0 0 2-3.4l1.4.7a39.2 39.2 0 0 1-4.8 6.6l-.1.1a5.8 5.8 0 0 0-.8.4l-.1.3Zm0 0v-1.1l.9-.6 8.1-.4a7.6 7.6 0 0 0 .3 1.2 413.8 413.8 0 0 0-5.7.4l-1.6.2a46.1 46.1 0 0 0-2 .3Zm6.2-12h1.6a11.1 11.1 0 0 0 2.1 3.8c.5.6 1 1 1.6 1.4l-.4.4a6.3 6.3 0 0 0-.7.9 10 10 0 0 1-1.6-1.6 13.6 13.6 0 0 1-2.3-4.2h-.3v-.8Zm-1.9 0h3v1.3h-3v-1.4Zm9.7 1.7h12.4v1.2H205v-1.2Zm6.2 1.9h1.3v9h-1.3v-9Zm-4 1.7h8.7v1.3h-7.4v4.7h-1.3v-6Zm8.1 0h1.4v4.5c0 .3 0 .6-.2.7 0 .2-.2.4-.5.5l-.9.2h-1.4l-.2-.6c0-.3-.2-.5-.3-.6h2.1V265Zm-5.7-5.7 1.4.3a23.8 23.8 0 0 1-3.2 6.3c-.7 1-1.5 1.8-2.5 2.4l-.2-.3-.3-.5-.3-.3a13 13 0 0 0 4.3-5.7c.4-.8.6-1.5.8-2.2Z"/><rect width="78.2" height="21" x="87.5" y=".5" fill="#EA574A" rx="1.2"/><path fill="#4C4C4C" d="M114.4 41.4v-6.7a20.4 20.4 0 0 1 0-2 71 71 0 0 1-.8 1.5l-2 3.1h5.6v1.3H110v-1L114 31h2v10.3h-1.6Zm4.8 2.5 4-13.7h1l-3.8 13.7h-1.2Zm7.3-2.5v-1l2.6-2.4c.7-.8 1.2-1.5 1.5-2.1.3-.7.5-1.3.5-1.8 0-.4 0-.7-.2-1-.1-.3-.3-.5-.6-.7l-1-.2a2 2 0 0 0-1 .3l-1 .8-.9-.9 1.4-1.1c.5-.3 1.1-.4 1.8-.4.6 0 1.2.1 1.6.4.5.2.9.6 1.1 1 .3.5.4 1 .4 1.7 0 .6-.2 1.3-.5 2s-.8 1.3-1.3 2l-2 2.1a21.3 21.3 0 0 1 1.7-.1h2.6v1.4h-6.7Zm11.5 0a28 28 0 0 1 .7-4.9 17.1 17.1 0 0 1 2.1-4.1H136v-1.3h6.6v1a14.2 14.2 0 0 0-2.3 4.2l-.5 2.3-.2 2.8H138Z"/><path fill="#fff" d="M91.8 12.2 91.5 7l-.1-2h2v2l-.3 5.2h-1.3Zm.6 3.7c-.3 0-.7-.1-.9-.4-.2-.3-.3-.6-.3-1 0-.3 0-.7.3-1 .2-.2.6-.3 1-.3.3 0 .6.1.8.4.3.2.4.6.4 1 0 .3-.1.6-.4 1-.2.2-.5.3-.9.3Zm10-8.5h1.6v5.9h-1.6V7.4Zm3.5 1h3.4v1.5H106V8.4Zm-9-4h3.4V6H97V4.4Zm1.2 4.2h2.3V10H98V8.6Zm7-3.3h1.7v8.3h-1.7V5.3Zm3.5-1.3 1 1.4a20.7 20.7 0 0 1-4.8.9l-2.6.2-.1-.7c0-.3-.2-.6-.3-.7a144.3 144.3 0 0 0 5.4-.7l1.4-.4ZM100 8.6h.6l1 .2c-.1 1.4-.3 2.7-.6 3.7-.3 1.1-.8 2-1.3 2.8-.5.7-1.1 1.3-2 1.8a5.5 5.5 0 0 0-.5-1l-.4-.5c.7-.3 1.2-.8 1.6-1.4.5-.7.9-1.4 1.1-2.3.3-1 .5-2 .5-3v-.3Zm-1.7 2.1c.3 1 .8 1.7 1.3 2.3.5.5 1 1 1.8 1.3.6.3 1.4.5 2.2.6a19.4 19.4 0 0 0 3.1.1h.9a34.4 34.4 0 0 1 2.6 0l-.2.5a6.5 6.5 0 0 0-.4 1.2H106c-1 0-2-.1-2.9-.3-1 0-1.7-.3-2.5-.7-.8-.4-1.4-1-2-1.6a9.3 9.3 0 0 1-1.6-2.8l1.3-.6Zm3.4 1.7h8V14h-8v-1.6Zm-4-2-.1-.3a11.4 11.4 0 0 0-.5-.9c.2 0 .3-.1.5-.3l.5-.6.5-.8a26 26 0 0 0 1.3-3l.6-.3 1 .7a29.8 29.8 0 0 1-2.6 4.8l-.2.1a5.1 5.1 0 0 0-.8.4l-.1.3Zm14.9.1h12.7V12h-12.7v-1.5Zm3.2-4h7.6v1.2h-7.6V6.4Zm0 2h7.6v1.3h-7.6V8.5Zm3.7 2.3a7 7 0 0 0 2.2 3c1 .8 2.3 1.3 3.9 1.6l-.4.5a18.5 18.5 0 0 0-.7 1c-1.1-.2-2.1-.6-3-1.1a7.6 7.6 0 0 1-2-2c-.7-.7-1.1-1.6-1.5-2.6l1.5-.4Zm4 1 1.3 1a28.6 28.6 0 0 1-3.3 1.9l-1-.9a14.8 14.8 0 0 0 3-2Zm-8.6-7.5h8.9v1.4h-7.2V11h-1.7V4.3Zm-.3 12.7v-1.3l.6-.5 4.2-.8-.1.7v.8a284.1 284.1 0 0 0-4.7 1Zm0-5.5h1.7v4.1l-1.7 1.4a8.7 8.7 0 0 0-.7-1.7c.2 0 .3-.2.5-.3.2-.2.2-.4.2-.7v-2.8Zm20.6-2.3h4.3v1.4h-4.3V9.2Zm-.7-4.8h5.1V6h-3.6v11h-1.5V4.4Zm4.2 0h1.6v2.7c0 .3 0 .6-.2.8 0 .2-.3.4-.5.5l-1 .2H137c0-.2 0-.4-.2-.7l-.2-.7H138a8.3 8.3 0 0 1 .5 0l.1-.2V4.4Zm-1.7 5.7c.2.8.5 1.5 1 2.2a9 9 0 0 0 1.3 2c.5.5 1.1.9 1.8 1.2l-.6.7-.5.7-1.9-1.6a11 11 0 0 1-1.4-2.2l-1-2.7 1.3-.3Zm2-.9h.6l1 .3c-.2 1.1-.4 2.1-.8 3a11 11 0 0 1-1.3 2.6c-.5.7-1.1 1.4-1.9 1.9 0-.2-.3-.4-.5-.6a7 7 0 0 0-.6-.6 7 7 0 0 0 1.7-1.6 11.2 11.2 0 0 0 1.8-4.6v-.4Zm-10.8-4.1h5.6v1.4H128V5Zm-.4 7.9h6.3v1.4h-6.3V13Zm0-5.6h6.3v1.4h-6.3V7.4Zm.4 3h5.6V12h-5.6v-1.4Zm2-6.6h1.6V8h-1.5V4Zm0 7.2h1.6v6h-1.5v-6Zm2-2.3 1.3.3a72.5 72.5 0 0 1-1.1 2.2l-1.2-.3a9.5 9.5 0 0 0 .7-1.5l.2-.7Zm-3.5.4 1.2-.4a8.3 8.3 0 0 1 .6 1.5l-1.3.5c0-.2 0-.5-.2-.8l-.3-.8Zm19.4 5.8h6.2v1.5H148V15Zm-.7-9.7h5v1.5h-5V5.2Zm.3-1.5 2 .4a16.4 16.4 0 0 1-5.5 5.4l-.3-.4a11 11 0 0 0-.9-.9 12.2 12.2 0 0 0 3.7-2.9c.4-.5.8-1 1-1.6Zm4 1.5h.7l1.1.5a12.8 12.8 0 0 1-3.8 5.4 15.5 15.5 0 0 1-5.7 3.2 11.2 11.2 0 0 0-1-1.5 14.8 14.8 0 0 0 7.4-4.9c.6-.7 1-1.6 1.4-2.4v-.3Zm-6.2 3 1.3-1a19.4 19.4 0 0 1 2.8 2.4l-1.3 1.2-.8-.8a16 16 0 0 0-2-1.7Zm8 2.4h1.8V17h-1.7v-6.4Zm-4.7 0h5.6v1.5h-5.6V17H147v-5.1l1.3-1.3h.4Zm11.2 1.6-.3-5.2V5h2v2l-.3 5.2h-1.4Zm.7 3.7c-.4 0-.7-.1-1-.4-.2-.3-.3-.6-.3-1 0-.3.1-.7.4-1 .2-.2.5-.3 1-.3.3 0 .6.1.8.4.3.2.4.6.4 1 0 .3-.1.6-.4 1-.2.2-.5.3-.9.3Z"/><path fill="#4C4C4C" d="M210.3 81.2c-.6 0-1 0-1.5-.2-.4 0-.8-.3-1-.5l-1-.7.9-1 .6.5.8.4 1 .2c.4 0 .7 0 1-.3.3-.1.6-.4.7-.7.2-.4.3-.7.3-1.2 0-.7-.2-1.2-.5-1.6-.4-.3-.9-.5-1.5-.5l-.8.1-.8.4-.8-.5.3-4.9h5.2v1.4h-3.8l-.2 2.6a3.3 3.3 0 0 1 3 0c.5.3.8.6 1.1 1.1.3.5.4 1 .4 1.9 0 .7-.1 1.4-.5 1.9-.3.5-.7 1-1.3 1.2-.5.3-1 .4-1.6.4Zm5.8 2.4 3.8-13.7h1.2l-4 13.7h-1Zm7.8-2.6v-1.3h2.3v-7.2h-1.8v-1a7.2 7.2 0 0 0 2.2-.8h1.2v9h2V81H224Zm12.2.2c-.6 0-1.2-.2-1.7-.6-.5-.4-1-1-1.2-1.8-.3-.8-.4-1.8-.4-3 0-1.1.1-2.1.4-3 .3-.7.7-1.3 1.2-1.7.5-.4 1-.6 1.7-.6s1.3.2 1.8.6c.5.4.9 1 1.1 1.8.3.8.4 1.8.4 3 0 1.1 0 2.1-.4 3-.2.7-.6 1.3-1.1 1.7-.5.4-1.1.6-1.8.6Zm0-1.3c.4 0 .7 0 1-.4l.6-1.3.2-2.4c0-1 0-1.7-.2-2.3l-.6-1.3c-.3-.3-.6-.4-1-.4-.3 0-.6.1-.9.4-.3.3-.5.7-.6 1.3a10 10 0 0 0-.3 2.3c0 1 .1 1.8.3 2.4.1.6.3 1 .6 1.3.3.3.6.4 1 .4ZM187 45.6h3v.7h-3v-.7Zm-2.4 1.3h5.3v.8h-5.3v-.8Zm3.1 4h1V53.5a.5.5 0 0 0 .3 0H189.7l.2-.1v-.8a2.4 2.4 0 0 0 .9.4v.6l-.2.4-.1.2-.3.2h-1.4a2 2 0 0 1-.5 0 .8.8 0 0 1-.3-.2.8.8 0 0 1-.2-.4l-.1-.7v-2.2Zm-1.3-6h1v2.3h-1v-2.3Zm-1 3.7 3.8-.3v.7l-3.8.3v-.7Zm-1.4-1.7h1V49a14 14 0 0 1-.2 2.9l-.5 1.4c-.2.5-.5 1-.9 1.3l-.2-.2a4.2 4.2 0 0 0-.5-.6c.4-.4.7-1 .9-1.5.1-.6.3-1.1.3-1.7l.1-1.6V47Zm5.1-3.3 1 .8a24.9 24.9 0 0 1-4.9.8l-2.6.2-.1-.4-.2-.5a167.2 167.2 0 0 0 5.4-.6l1.4-.3Zm-3.2 7.3h1l-.1 1.8c-.1.5-.3 1-.6 1.3-.3.3-.7.5-1.2.7a2 2 0 0 0-.3-.4l-.3-.4c.4-.1.7-.3 1-.6.2-.2.3-.5.4-1l.1-1.4Zm3.6-4h.4l.8.2a89.6 89.6 0 0 1-.6 1.7l-.9-.3a11 11 0 0 0 .3-1.5V47Zm-7.2-2.4h1v3a18 18 0 0 1-.7 4.9l-.8 1.4-.2-.2a3.4 3.4 0 0 0-.6-.6l.9-1.8.3-1.9v-4.8Zm4 3h1v1.8l.1.4h2.6a20.8 20.8 0 0 1 .1.9h-2.5c-.5 0-.8 0-1-.3l-.2-1v-1.8Zm-8-3.4 1-.5a17.3 17.3 0 0 1 1.8 2.1l-1 .7a20 20 0 0 0-1.7-2.3Zm-.3 2.7h2.7v1H178v-1Zm2.6 6.3c.3.6.6 1 1.1 1.3.5.3 1 .5 1.8.6a18 18 0 0 0 4 .1 125.5 125.5 0 0 0 3.5-.1l-.2.3-.2.5v.4a57.3 57.3 0 0 1-7 0 6 6 0 0 1-1.7-.4l-1.3-.8a5 5 0 0 1-.9-1.5l.9-.4Zm-.4-2.9h.6l.5.2c-.2 1.5-.5 2.8-1 3.8-.4 1-1 1.8-1.7 2.4l-.2-.3a11.1 11.1 0 0 0-.7-.6c.7-.5 1.2-1.2 1.6-2 .4-1 .7-2 .8-3.2v-.3Zm-2 1.3v-1l.5-.3h2v1.1h-2.2l-.3.2Zm0 0-.1-.4-.2-.4a2 2 0 0 0-.2-.3l.4-.1.3-.3.4-.6a57.2 57.2 0 0 0 1.5-2.5l.4-.2.8.4a51.1 51.1 0 0 1-2.4 3.7h-.1a3.8 3.8 0 0 0-.7.5l-.1.2Zm19.6-6h8.4v1.1h-8.4v-1.2Zm1.2 4.7h6v1h-6v-1Zm0 2.3h6v1h-6v-1Zm2.3-9h1.2v13h-1.2v-13Zm-3 4.4h6.6v1h-5.4v7.6h-1.3V48Zm6.2 0h1.2v7.3l-.1.7c0 .2-.2.3-.4.4l-.7.2h-1V56l-.3-.6h1.1s.2 0 .2-.2V48Zm-1.4-3.6.8-.7a11 11 0 0 1 2 1.3l-.8.8-.9-.7a11 11 0 0 0-1-.7Zm-8.1 6.2 1.2-1.3v7.3H195v-6Zm-1.5-4.5h3.3v1.2h-3.3V46Zm2.5 3.4.4.4a19.8 19.8 0 0 1 1.1 1.5l.4.4-.7.9a10 10 0 0 0-1-1.4 14 14 0 0 0-.8-1.3l.6-.5Zm.4-3.4h.5l.7.4a17.4 17.4 0 0 1-3.9 6.5 3 3 0 0 0-.2-.4 3.2 3.2 0 0 0-.5-.7l1.4-1.5a14.5 14.5 0 0 0 2-4V46Zm1 2.7.8.6a19 19 0 0 0-1.3 1.5l-.6-.4a14.3 14.3 0 0 0 1-1.7Zm-3-4.6 1-.5a10.3 10.3 0 0 1 1.3 1.8l-1.1.6a8.4 8.4 0 0 0-1.2-1.9Zm16.9-.5 1.2.3a21.8 21.8 0 0 1-3.3 6.6l-.2-.4a6 6 0 0 0-.5-1 12.8 12.8 0 0 0 2-3.5l.8-2Zm-1.2 3.7 1.3-1.3v10.5h-1.3v-9.2Zm2.1 0h9.2v1.1h-9.2v-1.2Zm2 4.2h6v1h-6v-1Zm0 2h6v1h-6v-1Zm-1.6-8.6h8.5V46h-8.5v-1.2Zm3.9 4.9h1.2v6.4h-1.2v-6.4Zm-1.8-6.2h1.2v4.2h-1.2v-4.2Zm3.3 0h1.3v4.2H218v-4.2Zm1.6 5.8h1.3v5.9l-.1.6c0 .2-.2.3-.4.4l-.6.2h-1V56a3 3 0 0 0-.3-.5H219.4c.2 0 .2 0 .2-.2v-6Zm-5.2-1.6 1.2.3c-.3.8-.8 1.4-1.5 2-.6.7-1.2 1.2-1.8 1.6l-.2-.4a6.2 6.2 0 0 0-.6-.7 8 8 0 0 0 3-2.8Zm-.6 1.6h6.5v1h-6.5v-1Zm-.5 0h1.3V52l-.1 1.6c0 .5-.2 1-.4 1.5a4 4 0 0 1-.7 1.4l-.3-.2a16 16 0 0 0-.8-.6l.7-1.1.2-1.3v-4Zm17.4-4h5v1.3h-5v-1.3Zm-6.5-1h7v1.2h-7v-1.2Zm1.7 2.9h3.5v1.2H226v-1.2Zm0 2.9h3.5v1.2H226v-1.2Zm9.5-4.8h.4l.9.2c-.2 1.9-.6 3.5-1 4.9-.6 1.4-1.2 2.6-2 3.5a10 10 0 0 1-2.7 2.4 6.3 6.3 0 0 0-.9-1c1-.6 1.8-1.3 2.5-2.1.7-1 1.3-2 1.8-3.3.5-1.2.8-2.7 1-4.3v-.3Zm-3.2 1.4a20 20 0 0 0 1 3.6c.4 1 1 2 1.7 3 .6.8 1.4 1.4 2.4 2l-.4.3-.3.3-.3.4c-1-.6-1.8-1.3-2.5-2.2-.7-1-1.3-2-1.8-3.2-.4-1.2-.8-2.5-1-4l1.2-.2Zm-7-2h1.3V54h-1.3v-9.1Zm3.7 0h1.3v11.7h-1.3V45Zm-5 8.8a627.2 627.2 0 0 0 5.5-.8V54a295 295 0 0 0-5.3.9l-.2-1.3Zm21.4-7.5.8-.8a38.1 38.1 0 0 1 4 1.8l-.8.8-1.1-.6a34.8 34.8 0 0 0-2.9-1.2Zm-1.3 1h7v1h-5.8v6.2H244V47Zm6.6 0h1.2v6l-.1.7-.4.4-.7.1h-1.2v-.5l-.3-.5h1.5V47Zm-6.5-3h6.8v1h-6.8v-1Zm.6 5h6.3v1h-6.3v-1Zm0 2h6.3v1h-6.3v-1Zm2.6-3.6h1.1v6.8h-1.1v-6.8Zm3.2-3.4h.5l.8.5a12.2 12.2 0 0 1-3.6 2.5l-.4-.4a3 3 0 0 0-.3-.4 10.8 10.8 0 0 0 3-2v-.2ZM240 44l1-.5a13 13 0 0 1 1.3 1.4l.5.7-1 .7a11.4 11.4 0 0 0-1.1-1.5l-.7-.7Zm-.4 2.7h3v1h-3v-1Zm2.6 6.3c.3.6.7 1 1.1 1.3.5.3 1.1.5 1.8.6a17.8 17.8 0 0 0 4 .1 125.5 125.5 0 0 0 3.5-.1l-.2.3-.1.5-.1.4a57.3 57.3 0 0 1-7 0c-.6 0-1.2-.2-1.7-.4l-1.2-.8a5 5 0 0 1-1-1.5l1-.4Zm0-2.9h.5l.6.3c-.2 1.5-.6 2.7-1.1 3.8-.6 1-1.3 1.7-2 2.3l-.3-.3a11.1 11.1 0 0 0-.6-.6c.7-.5 1.3-1.2 1.8-2 .6-1 .9-2 1-3.2v-.3Zm-2.4 1.3v-1l.5-.3h2.3v1.1h-2a2 2 0 0 0-.5 0l-.3.2Zm0 0-.1-.4-.2-.4-.2-.3.4-.2.3-.3c.2 0 .3-.2.5-.5a32.8 32.8 0 0 0 1.8-2.5l.3-.2.9.4a76.5 76.5 0 0 1-2.8 3.6l-.1.1a3.8 3.8 0 0 0-.7.5l-.1.2Zm22.7 2.3h4v1.3h-4v-1.3Zm-.6-9h5.2V56h-1.3V46h-2.6v10.1H262V44.8Zm-4.2 1.2h1.3v2.8a16 16 0 0 1-.6 4c-.2.6-.5 1.3-1 2-.4.6-1 1.2-1.7 1.7l-.3-.3a13.7 13.7 0 0 0-.7-.7 6.4 6.4 0 0 0 2.5-3.3l.4-1.8V46Zm-1.3-.6h4.7v1.2h-4.7v-1.2Zm-1.5 3.8h6.6v1.2H255v-1.2Zm3.7 1.9c.2 0 .3.2.5.4a75 75 0 0 1 2.4 2.7l-.9 1.1a31.6 31.6 0 0 0-2.3-3l-.5-.5.8-.7Zm-2.2-7.5 1.3.2a15.3 15.3 0 0 1-2 4.9l-.2-.3a6.5 6.5 0 0 0-.8-.5c.4-.5.7-1.2 1-2l.7-2.3ZM257 221.2c-.6 0-1 0-1.5-.2-.4 0-.8-.3-1.1-.5l-.9-.7.8-1 .7.5.7.4 1 .2c.4 0 .8 0 1-.3.4-.1.6-.4.8-.7l.3-1.2c0-.7-.2-1.2-.6-1.6-.3-.3-.8-.5-1.4-.5l-.8.1-.8.4-.8-.5.3-4.9h5.2v1.4h-3.8l-.3 2.6a3.3 3.3 0 0 1 3 0c.5.3.9.6 1.2 1.1.3.5.4 1 .4 1.9 0 .7-.2 1.4-.5 1.9s-.8 1-1.3 1.2c-.5.3-1 .4-1.7.4Zm5.7 2.4 4-13.7h1l-3.8 13.7h-1.2Zm7.9-2.6v-1.3h2.3v-7.2H271v-1a7.2 7.2 0 0 0 2.3-.8h1.2v9h2v1.3h-5.9Zm12 .2c-.6 0-1 0-1.5-.2-.4 0-.8-.3-1-.5l-1-.7.8-1 .7.5.8.4 1 .2c.3 0 .7 0 1-.3.3-.1.5-.4.7-.7l.3-1.2c0-.7-.2-1.2-.6-1.6-.3-.3-.8-.5-1.4-.5l-.8.1-.8.4-.8-.5.3-4.9h5.2v1.4h-3.8l-.2 2.6a3.3 3.3 0 0 1 3 0c.4.3.8.6 1 1.1.4.5.5 1 .5 1.9 0 .7-.1 1.4-.5 1.9-.3.5-.7 1-1.3 1.2-.5.3-1 .4-1.7.4ZM237.5 239l.9.8a20.4 20.4 0 0 1-3.3 2l-.6-.8a25.9 25.9 0 0 0 3-2Zm-6.2-3.4 1-.6a6.8 6.8 0 0 1 1.7 1.7l-1 .7-.7-1-1-.8Zm-1 1.6h8.2v1.1h-8.2v-1.1Zm3.7 3.3.8.6-1 .8a17.7 17.7 0 0 1-2.5 1.6 5.8 5.8 0 0 0-.8-1 12 12 0 0 0 3.5-2Zm.6 1.9.9.6-1.3 1.2a16 16 0 0 1-3.4 1.8 3.8 3.8 0 0 0-.7-1 12.1 12.1 0 0 0 4.5-2.6Zm1.6-7.5 1.2.4a32.3 32.3 0 0 1-1.6 2.3l-1-.4a10.8 10.8 0 0 0 1.4-2.3Zm-10 .6h3.3v1.2h-2v11.2h-1.3v-12.4Zm3 0H229.4l1 .4a928.7 928.7 0 0 0-1.4 3.8c.5.6.8 1 1 1.6l.1 1.3v1c-.2.4-.3.6-.5.7l-.4.2-.4.1a6 6 0 0 1-1 0v-.5l-.2-.6h.7l.4-.1.2-.4v-.5a3.9 3.9 0 0 0-1-2.7 16.6 16.6 0 0 0 .6-2l.3-1.1.2-.8v-.4Zm4.7 2 1 .5-1.1 1.2a16 16 0 0 1-3 2l-.2-.3a8.7 8.7 0 0 0-.6-.7 12.4 12.4 0 0 0 2.8-1.6c.5-.3.8-.7 1.1-1Zm2.7 3.4a11.9 11.9 0 0 0 2.3 4.2 4 4 0 0 0-.9.8l-1-1.3a18.3 18.3 0 0 1-1.4-3.4l1-.3Zm-3.8-1.8 1-.5c.5.5.9 1.1 1.2 1.8a8 8 0 0 1 .9 4l-.2 1.6c-.2.5-.4.9-.6 1l-.7.6-.8.1a12.3 12.3 0 0 1-1.2 0 3.2 3.2 0 0 0-.3-1.2 19.6 19.6 0 0 0 1.7 0l.3-.3c.2-.1.3-.4.4-.8l.1-1.3a8 8 0 0 0-.7-3.4l-1.1-1.6Zm12.8-3.1h7.9v1.2h-8V236Zm0 4.4h6.6v1.2h-6.6v-1.2Zm2.7-4h1.4a87.1 87.1 0 0 1-1.4 8.6c0 .7-.2 1.2-.3 1.8h-1.4a75.1 75.1 0 0 0 1.7-10.5Zm-3.4 9.7h9.3v1.2h-9.3v-1.2Zm6.6-5.7h1.3v6.3h-1.3v-6.3ZM244 235l1.3.3a23.7 23.7 0 0 1-4 6.5l-.1-.4a5.4 5.4 0 0 0-.6-1 12.3 12.3 0 0 0 2.5-3.4l1-2Zm-1.2 3.6 1.3-1.2v10.5h-1.3v-9.3Zm18.3 7.5h6.5v1.2h-6.5v-1.2Zm-.6-9.8h5v1.2h-5v-1.2Zm.5-1.5 1.5.3a15.8 15.8 0 0 1-5.3 5.3l-.2-.4a6.6 6.6 0 0 0-.7-.6 12.7 12.7 0 0 0 3.6-3c.5-.5.8-1 1.1-1.6Zm4.1 1.5h.5l1 .4c-.5 1-1 2-1.7 3a14.5 14.5 0 0 1-5 4.2c-1 .5-1.9.9-2.9 1.2l-.2-.4a4.2 4.2 0 0 0-.5-.8 15.4 15.4 0 0 0 7.4-4.9c.6-.8 1-1.6 1.4-2.5v-.2Zm-6.4 2.7 1-.8 1 .8a21.3 21.3 0 0 1 2 1.7l-1 1-.9-.9a17 17 0 0 0-2-1.8Zm8.3 2.8h1.4v6.1H267v-6.1Zm-5.3 0h6v1.2h-6v4.9h-1.4v-5.1l1-1h.4Zm15.8-2.3h1.4v8.4h-1.4v-8.4Zm-2.8 2.4v1h7.2v-1h-7.2Zm0-2v1h7.2v-1h-7.2Zm-1.3-1h9.9v5h-9.9v-5Zm-1.4 6h12.5v1h-12.5v-1Zm2.2-8.6v1h2.3v-1h-2.3Zm-1.2-.9h4.8v2.8H273v-2.8Zm7 .9v1h2.4v-1H280Zm-1.2-.9h4.8v2.8H279v-2.8Zm16.3 7.5 1.3-.6a45.5 45.5 0 0 1 3.1 4.8l-1.3.7a19.6 19.6 0 0 0-2-3.2l-1-1.7Zm-4.1-7.6 1.4.4a18.5 18.5 0 0 1-4.1 6l-.4-.3a8.8 8.8 0 0 0-.8-.7 12.2 12.2 0 0 0 2.8-3.4l1-2Zm-2.1 12-.2-.4a39.2 39.2 0 0 0-.4-1l.7-.4a15.1 15.1 0 0 0 2.3-2.9 38.6 38.6 0 0 0 2-3.4l1.4.7a39.2 39.2 0 0 1-4.8 6.6l-.1.1a5.8 5.8 0 0 0-.8.4l-.1.3Zm0 0v-1.1l.9-.6 8.1-.4a7.6 7.6 0 0 0 .3 1.2 413.8 413.8 0 0 0-5.7.4l-1.6.2a46.1 46.1 0 0 0-2 .3Zm6.2-12h1.6a11.1 11.1 0 0 0 2.1 3.8c.5.6 1 1 1.6 1.4l-.4.4a6.3 6.3 0 0 0-.7.9 10 10 0 0 1-1.6-1.6 13.6 13.6 0 0 1-2.3-4.2h-.3v-.8Zm-1.9 0h3v1.3h-3v-1.4Zm9.7 1.7h12.4v1.2H303V237Zm6.2 1.9h1.3v9h-1.3v-9Zm-4 1.7h8.7v1.3h-7.4v4.7h-1.3v-6Zm8.1 0h1.4v4.5c0 .3 0 .6-.2.7 0 .2-.2.4-.5.5l-.9.2h-1.4l-.2-.6c0-.3-.2-.5-.3-.6h2.1v-4.7Zm-5.7-5.7 1.4.3a23.8 23.8 0 0 1-3.2 6.3c-.7 1-1.5 1.8-2.5 2.4l-.2-.3-.3-.4-.3-.4a13 13 0 0 0 4.3-5.7c.4-.8.6-1.5.8-2.2ZM306 41.6l-1.5-.2-1.1-.5-.9-.7.8-1 .7.5.7.4 1 .1c.4 0 .8 0 1-.2.4-.2.6-.5.8-.8.2-.3.3-.7.3-1.2 0-.6-.2-1.2-.6-1.5-.3-.4-.8-.6-1.4-.6l-.8.1-.8.5-.8-.5.3-5h5.2v1.4h-3.8l-.3 2.7a3.3 3.3 0 0 1 3 0c.5.2.9.6 1.2 1 .3.5.4 1.1.4 1.9 0 .7-.2 1.4-.5 2-.3.5-.8.9-1.3 1.1-.5.3-1 .5-1.7.5Zm5.7 2.3 4-13.7h1L313 43.9h-1.2Zm7.3-2.5v-1l2.6-2.4c.7-.8 1.2-1.5 1.5-2.1.3-.7.5-1.3.5-1.8 0-.4 0-.7-.2-1-.1-.3-.3-.5-.6-.7l-1-.2a2 2 0 0 0-1 .3l-1 .8-.9-.9 1.4-1.1c.5-.3 1.1-.4 1.8-.4.6 0 1.2.1 1.6.4.5.2.9.6 1.1 1 .3.5.4 1 .4 1.7 0 .6-.2 1.3-.5 2s-.8 1.3-1.3 2l-2 2.1a21.3 21.3 0 0 1 1.7-.1h2.6v1.4H319Zm13.5 0v-6.7a20.4 20.4 0 0 1 .1-2 71 71 0 0 1-.9 1.5l-2 3.1h5.7v1.3H328v-1l4-6.5h2v10.3h-1.6ZM281.9 6h12.6v1.2h-12.6V6Zm1.5 4.7h3.8v1h-3.8v-1Zm0 2.2h3.8v1h-3.8v-1Zm6.1-4.4h1.2v5.8h-1.2V8.5Zm-2.8-.1h1.3v7l-.1.8c0 .2-.2.3-.4.4l-.8.2h-1.2a3.2 3.2 0 0 0-.4-1.1 29.9 29.9 0 0 0 1.6 0V8.3Zm5.6-.3h1.3v7.2l-.1.9-.5.4-1 .2h-1.3a4.7 4.7 0 0 0-.4-1.2 297.4 297.4 0 0 1 2 0V8ZM284 4.3l1.3-.4a9.7 9.7 0 0 1 1.3 1.9l-1.3.5c0-.3-.3-.6-.5-1a9 9 0 0 0-.8-1Zm7.2-.5 1.4.5a29.1 29.1 0 0 1-1.6 2.4l-1.2-.4a9.9 9.9 0 0 0 1-1.6l.4-.9Zm-8.3 4.6h1.2v3.3a17.3 17.3 0 0 1-.5 3.6 5 5 0 0 1-.7 1.6l-.3-.3a12.6 12.6 0 0 0-.7-.4l.6-1.5.3-1.5V8.4Zm.7 0h3.9v1h-3.9v-1Zm22.3-3v1h2v-1h-2Zm-3.2 0v1h2v-1h-2Zm-3.2 0v1h2v-1h-2Zm-1.3-1h11v3h-11v-3Zm-.6 3.6h12v1h-12V8Zm5.3-1 1.4.1a22.8 22.8 0 0 1-.6 3h-1.2a26.2 26.2 0 0 0 .4-3Zm-5.5 8.5H310v1h-12.6v-1Zm2.5-4.3h7.6v.8h-7.6v-.8Zm0 1.5h7.5v.7h-7.5v-.7Zm0 1.4h7.6v.7h-7.5v-.7Zm-.7-4.4h8.9v6.4h-1.3v-5.5h-6.4V16h-1.2V9.7Zm14.3-4.3h11.2v1.4h-11.2V5.4Zm-.7 9.1h12.6V16h-12.6v-1.4Zm5.5-8.4h1.5v9h-1.5V6Zm16 .1h6.7v1.3h-7.3l.6-1.3Zm1.8 3h4.6v1.3H336V9.3Zm0 3.1h4.8v1.3H336v-1.3Zm-.7-5.7h1.4V17h-1.4V6.6Zm-.6-2.6 1.2.4a19.9 19.9 0 0 1-3.3 6c0-.2-.1-.3-.3-.4a6.5 6.5 0 0 0-.7-.6l1.2-1.5a16 16 0 0 0 1.9-3.9ZM331 4l1.3.3A24.3 24.3 0 0 1 330 9l-1.5 1.9c0-.1 0-.3-.2-.5a7.2 7.2 0 0 0-.5-1L329 8a15.6 15.6 0 0 0 2-4Zm-1.4 3.7 1.3-1.4V17h-1.3V7.7ZM351.2 4l1.2-.3a25.7 25.7 0 0 1 .7 2l-1.3.4a12.4 12.4 0 0 0-.6-2.1Zm-3.3 2.2h8.3v1.3H348V6.3Zm2.9 3.2h3.8v1.3h-3.8V9.5Zm3.4 0h1.3V10.1a135.8 135.8 0 0 1-.5 5.5c0 .3-.2.5-.3.6l-.5.4-.6.1H351.7c0-.1 0-.4-.2-.6a3 3 0 0 0-.2-.7 15.5 15.5 0 0 0 2 0h.3l.3-.8.2-1.8.1-3v-.3Zm-10.7-2.2h4.5v1.3h-4.5V7.3Zm1.6-3.2h1.3v9.4h-1.3V4Zm-1.9 9.4a58.8 58.8 0 0 0 3-1l1.9-.7.2 1.2a454.8 454.8 0 0 0-4.8 1.9l-.3-1.4Zm7-6.5h1.3v2.4c0 .6 0 1.3-.2 2 0 .6-.2 1.2-.5 1.9-.2.6-.6 1.3-1 1.9a8 8 0 0 1-2 1.7l-.5-.5-.5-.4c.7-.5 1.3-1 1.8-1.6A6.5 6.5 0 0 0 350 11l.1-1.6V7ZM340.3 245.7c-.5 0-1 0-1.4-.3-.4-.2-.8-.5-1.1-1-.3-.4-.6-.9-.8-1.5-.2-.7-.3-1.4-.3-2.3 0-1 .2-1.9.4-2.6.2-.7.5-1.2.8-1.7l1.3-1c.4-.2 1-.3 1.4-.3.6 0 1.1.1 1.5.4l1.1.7-.9 1-.7-.5a2 2 0 0 0-.9-.2c-.4 0-.8 0-1.2.4-.4.2-.7.7-1 1.3-.1.6-.3 1.4-.3 2.5 0 .9.1 1.6.3 2.2.2.5.4 1 .7 1.3.3.2.7.4 1 .4.4 0 .7-.1.9-.3l.6-.7.2-1.2c0-.4 0-.8-.2-1a1.5 1.5 0 0 0-1.5-1 2 2 0 0 0-1 .3c-.3.2-.7.5-1 1v-1.2l.6-.7.9-.4c.2-.2.5-.2.8-.2.6 0 1 .1 1.5.4.4.2.8.6 1 1 .3.5.4 1.1.4 1.8s-.1 1.3-.4 1.8c-.3.5-.7 1-1.2 1.2-.4.3-1 .4-1.5.4Zm5.3 2.4 3.8-13.7h1.2l-4 13.7h-1Zm9.3-2.6a28.4 28.4 0 0 1 .8-4.8l.8-2 1.3-2.1h-4.9v-1.4h6.7v1a14.3 14.3 0 0 0-2.4 4.3l-.4 2.3-.2 2.7h-1.7Zm12-3.3V241h3.6v1.2h-3.7Zm10 3.5c-.5 0-1 0-1.4-.3-.4-.2-.8-.5-1.1-1-.4-.4-.6-.9-.8-1.5-.2-.7-.3-1.4-.3-2.3 0-1 .1-1.9.3-2.6.3-.7.5-1.2 1-1.7.3-.4.7-.7 1.2-1 .4-.2 1-.3 1.4-.3.6 0 1 .1 1.5.4.4.2.8.4 1 .7l-.8 1-.7-.5a2 2 0 0 0-1-.2c-.4 0-.8 0-1.2.4-.3.2-.6.7-.8 1.3-.3.6-.4 1.4-.4 2.5 0 .9.1 1.6.3 2.2.1.5.4 1 .7 1.3.3.2.6.4 1 .4s.6-.1.9-.3l.5-.7c.2-.3.3-.7.3-1.2l-.2-1a1.5 1.5 0 0 0-1.5-1 2 2 0 0 0-1 .3c-.4.2-.7.5-1 1v-1.2c.1-.3.4-.5.6-.7l.8-.4c.3-.2.6-.2.9-.2.5 0 1 .1 1.5.4.4.2.7.6 1 1 .2.5.4 1.1.4 1.8s-.2 1.3-.5 1.8c-.2.5-.6 1-1 1.2-.5.3-1 .4-1.6.4Zm5.2 2.4 4-13.7h1l-3.8 13.7H382Zm10.7-2.4a4 4 0 0 1-1.7-.3c-.5-.3-1-.6-1.2-1-.3-.4-.4-.9-.4-1.4 0-.5 0-.9.2-1.2l.7-1 .9-.6a4 4 0 0 1-1-1c-.2-.5-.4-1-.4-1.5s.1-1 .4-1.4c.3-.4.6-.7 1-.9.5-.2 1-.3 1.6-.3.6 0 1 0 1.5.3.4.3.8.6 1 1a2.7 2.7 0 0 1 .2 2.4 3.8 3.8 0 0 1-1.2 1.4l.9.7a2.8 2.8 0 0 1 .9 2.1c0 .5-.2 1-.5 1.4-.2.4-.6.7-1.1 1a4 4 0 0 1-1.8.3Zm.7-5.9.7-.9.2-1c0-.3 0-.6-.2-.9 0-.2-.3-.4-.5-.5-.2-.2-.5-.3-.9-.3s-.7.2-1 .4c-.3.3-.4.7-.4 1.1 0 .4 0 .7.3 1l.7.6 1.1.5Zm-.6 4.8.9-.2c.2-.2.5-.3.6-.6.2-.2.2-.5.2-.8 0-.3 0-.6-.2-.8-.1-.3-.3-.5-.5-.6l-.8-.5-1-.4a3 3 0 0 0-.9 1c-.2.3-.3.7-.3 1.1 0 .4 0 .7.2 1l.8.5c.3.2.6.3 1 .3Z"/><path fill="#FFDB72" d="M327.8 262.4H406v11.7h-78.2z"/><path fill="#4C4C4C" d="M332.4 261v2.9h7.1v-3h-7.1Zm-1.3-1.1h9.8v5H331v-5Zm1.9 1.7.8-.3a7 7 0 0 1 .9 2l-1 .3c0-.3 0-.6-.2-1l-.5-1Zm-2.1 4.3H341v1H331v-1Zm-1.1 2h12.5v1.2h-12.5V268Zm5.5-7.6h1.3v8.3h-1.3v-8.3Zm2.8 1 1 .3a47.8 47.8 0 0 1-1.1 2.1l-.9-.3.4-.7a11.7 11.7 0 0 0 .6-1.4Zm-4.4 8.7 1.2-.1a10.2 10.2 0 0 1 .3 2.2l-1.3.2v-1.1l-.2-1.2Zm2.8 0 1.3-.2a15.5 15.5 0 0 1 .8 2.2l-1.4.3a17.6 17.6 0 0 0-.7-2.3Zm2.8 0 1.3-.5a10.2 10.2 0 0 1 1.3 1.7l.5.7-1.3.5-.5-.8a19.1 19.1 0 0 0-1.3-1.7Zm-8-.5 1.2.3c-.1.5-.4 1-.6 1.4-.3.5-.6 1-1 1.2l-1.2-.5.9-1 .6-1.4Zm18.4-7.6 1.4.3a11.8 11.8 0 0 1-4.5 3.7 4 4 0 0 0-.9-1c1-.3 1.8-.8 2.5-1.4.6-.5 1.1-1 1.5-1.6Zm.1 1h4.6v1h-5.5l1-1Zm4.2 0h.5l.9.5a8 8 0 0 1-1.8 2c-.7.6-1.5 1.1-2.4 1.6a19 19 0 0 1-5.7 1.9l-.2-.4a3.7 3.7 0 0 0-.4-.8 27.1 27.1 0 0 0 5.3-1.6l2.3-1.3c.6-.5 1.1-1 1.5-1.7v-.2Zm-4.8.8a8 8 0 0 0 2.2 1.8c.9.4 1.9.9 3 1.2l3.6.7-.3.4a18.5 18.5 0 0 0-.6.8 21 21 0 0 1-3.6-.8c-1.1-.4-2.1-.9-3-1.5-1-.6-1.8-1.3-2.4-2l1.1-.6Zm-1.7 4.3h7.9v4.4H354V269h-5.2v3.3h-1.3V268Zm.8 2.8h6.4v1.1h-6.4v-1Zm-2.9-10.2h12v2.8H356v-1.6h-9.3v1.6h-1.3v-2.8Zm5-1 1.2-.4a11.5 11.5 0 0 1 1 1.9l-1.4.4a12 12 0 0 0-.9-2Zm10 2.7h5v1.2h-5v-1.2Zm2-3h1.2v13h-1.2v-13Zm0 3.8.8.3a28.2 28.2 0 0 1-1.6 5.2l-.8 1.3-.1-.4a6 6 0 0 0-.5-1l.7-1a14.9 14.9 0 0 0 1.5-4.4Zm1.2 1 .3.4.6.8a165.9 165.9 0 0 1 .9 1.3l-.8 1a9.7 9.7 0 0 0-.8-1.6 16.6 16.6 0 0 0-.8-1.5l.6-.5Zm2.2 7.7-.1-.3a13.2 13.2 0 0 0-.3-1l.4-.3.5-.8.4-.8a18.6 18.6 0 0 0 1-3c.3-.5.4-1 .6-1.6l1.3.3a34.9 34.9 0 0 1-2.9 6.8l-.4.3-.4.2v.2Zm0 0v-1l.7-.5 5.4-.6a5.5 5.5 0 0 0 .2 1.1 126.7 126.7 0 0 0-6.3 1Zm4.2-4 1.2-.6a33.3 33.3 0 0 1 2 4.4l-1.3.5-.5-1.3a40.3 40.3 0 0 0-1.4-3Zm-2.9-8 1.3.3a20.8 20.8 0 0 1-1.3 4.4c-.2.6-.6 1.2-1 1.7 0 0 0-.2-.2-.3a6.2 6.2 0 0 0-.6-.7l.8-1.5.6-1.8.4-2Zm2.5 0h1.4a20.6 20.6 0 0 0 1.3 3.9c.2.6.5 1 .8 1.4a6 6 0 0 0-1 1l-.9-1.6a18.3 18.3 0 0 1-1.3-4h-.3v-.7Zm-.8 0h2v1.1h-2v-1.1Zm13.6.6h5.7v1h-5.7v-1Zm-.2 2.7h6.2v1h-6.2v-1Zm.8-1.2 1-.2a17.4 17.4 0 0 1 .7 1.7l-1.1.2-.2-.8-.4-.9Zm3.1-.3 1.2.3a41.2 41.2 0 0 0-.8 1.7l-1-.2a13.3 13.3 0 0 0 .6-1.8Zm-2.6 6h1.2c0 .7-.2 1.4-.4 2-.1.6-.4 1.2-.8 1.6-.4.5-1 1-1.6 1.3a2.9 2.9 0 0 0-.8-1c.7-.2 1.1-.6 1.5-1 .3-.3.5-.8.7-1.3l.2-1.6Zm2 0h1.1v3.5l.3.1h.7l.2-.3v-1.2l.5.3.5.2a11.7 11.7 0 0 1-.2 1.4c0 .2-.2.4-.4.5h-.4l-.4.1h-.8a2 2 0 0 1-.4 0 1 1 0 0 1-.5-.3 1 1 0 0 1-.2-.4v-3.9Zm-1.3-8 1.2-.2a8.5 8.5 0 0 1 .5 1.3l-1.2.3a8.6 8.6 0 0 0-.5-1.4Zm-8 .8h5.7v1h-5.7v-1Zm-.2 2.7h6v1h-6v-1Zm.9-1.2 1-.2a16.6 16.6 0 0 1 .7 1.7l-1.1.3a13.1 13.1 0 0 0-.6-1.8Zm3.1-.3 1.2.3a120.4 120.4 0 0 1-.7 1.8l-1-.3a29.7 29.7 0 0 0 .5-1.8Zm-2.5 6h1.2c0 .7-.1 1.3-.3 2a5 5 0 0 1-.6 1.5c-.3.5-.8 1-1.3 1.3 0-.2-.2-.3-.3-.5l-.5-.5a3 3 0 0 0 1.1-1l.5-1.2.2-1.6Zm.6-8 1.1-.3a7.3 7.3 0 0 1 .6 1.4l-1.2.3-.2-.7-.3-.7Zm1.5 12.2-.2-1 .3-.4 2.3-1.2a10.8 10.8 0 0 0 .2 1 68.1 68.1 0 0 0-2.6 1.6Zm-1.9-6.1v1.3h2.6v-1.3h-2.6Zm-1.1-1h4.9v3.1h-5v-3Zm3 7.1a17.3 17.3 0 0 0-.5-1.2l.3-.3.1-.5v-2.2h1.1v3.3l-.1.1-.4.2-.4.3-.1.3Zm4-6.1v1.2h3v-1.2h-3Zm-1-1h5.2v3.1h-5.2v-3Zm9-4.5h12v2.3h-1.2v-1.2h-9.6v1.2h-1.2v-2.3Zm3.3 1.3h1.2v3.7H395v-3.7Zm4.2 0h1.2v3.7h-1.2v-3.7Zm-6.2.5h9.4v.8H393v-.8Zm.2 1.3h9.1v.8h-9.1v-.8Zm-1.7 1.3h12.4v1h-12.4v-1Zm3.7.2 1 .4a7 7 0 0 1-1.2 1.2 11.5 11.5 0 0 1-3 1.7l-.5-.5a3 3 0 0 0-.4-.5 10 10 0 0 0 4.1-2.3Zm5.1 0 1 .9a8.5 8.5 0 0 0 3 1.2l-.4.5-.4.5a9.4 9.4 0 0 1-3-1.6l-1.1-1.2 1-.3ZM395 268v.6h5.4v-.6H395Zm0 1.3v.5h5.4v-.5H395Zm0-2.5v.6h5.4v-.6H395Zm-1.3-.7h8v4.4h-8v-4.4Zm4.8 5 .8-.8a31.6 31.6 0 0 1 4.4 1.3l-1.2.7a36.6 36.6 0 0 0-4-1.3Zm-2.7-.8 1 .7-1.3.5a16.4 16.4 0 0 1-3.2.9 4.7 4.7 0 0 0-.8-.9 18.8 18.8 0 0 0 4.3-1.2Zm1-10.7 1.4-.4a4.6 4.6 0 0 1 .6 1.4l-1.4.3-.2-.6-.4-.7Z"/></svg>