<svg width="1135" height="416" viewBox="0 0 1135 416" fill="none" xmlns="http://www.w3.org/2000/svg">
<g filter="url(#filter0_dii_774_1284)">
<path d="M4 9.00001C4 4.02945 8.02944 0 13 0H1116C1120.97 0 1125 4.02944 1125 9V407C1125 411.971 1120.97 416 1116 416H13C8.02946 416 4 411.971 4 407V9.00001Z" fill="#F2F1EF" fill-opacity="0.2" shape-rendering="crispEdges"/>
</g>
<path d="M68.46 106.28C67.6867 106.28 66.9933 106.187 66.38 106C65.7667 105.827 65.22 105.587 64.74 105.28C64.2733 104.96 63.8667 104.607 63.52 104.22L64.9 102.36C65.3533 102.773 65.8467 103.133 66.38 103.44C66.9267 103.733 67.5333 103.88 68.2 103.88C68.7067 103.88 69.1467 103.8 69.52 103.64C69.9067 103.48 70.2 103.247 70.4 102.94C70.6133 102.633 70.72 102.26 70.72 101.82C70.72 101.327 70.6 100.907 70.36 100.56C70.1333 100.2 69.7267 99.9267 69.14 99.74C68.5533 99.5533 67.7267 99.46 66.66 99.46V97.34C67.5667 97.34 68.28 97.2467 68.8 97.06C69.32 96.86 69.6867 96.5933 69.9 96.26C70.1267 95.9133 70.24 95.52 70.24 95.08C70.24 94.5067 70.0667 94.06 69.72 93.74C69.3733 93.4067 68.8867 93.24 68.26 93.24C67.74 93.24 67.2533 93.36 66.8 93.6C66.36 93.8267 65.92 94.14 65.48 94.54L63.96 92.72C64.6133 92.1733 65.3 91.74 66.02 91.42C66.74 91.0867 67.5333 90.92 68.4 90.92C69.3467 90.92 70.18 91.0733 70.9 91.38C71.6333 91.6867 72.2 92.1333 72.6 92.72C73 93.3067 73.2 94.02 73.2 94.86C73.2 95.66 72.9867 96.3467 72.56 96.92C72.1333 97.4933 71.5267 97.9333 70.74 98.24V98.34C71.2867 98.4867 71.78 98.7267 72.22 99.06C72.6733 99.38 73.0267 99.7867 73.28 100.28C73.5467 100.773 73.68 101.347 73.68 102C73.68 102.893 73.44 103.66 72.96 104.3C72.4933 104.94 71.86 105.433 71.06 105.78C70.2733 106.113 69.4067 106.28 68.46 106.28ZM77.0769 109.62L82.0569 89.88H83.9969L79.0369 109.62H77.0769ZM88.1713 106V103.6H91.3713V94.26H88.6713V92.42C89.4179 92.2867 90.0579 92.1267 90.5913 91.94C91.1379 91.74 91.6446 91.4867 92.1113 91.18H94.2913V103.6H97.0713V106H88.1713ZM105.868 106.28C105.081 106.28 104.381 106.187 103.768 106C103.155 105.813 102.608 105.567 102.128 105.26C101.648 104.953 101.221 104.62 100.848 104.26L102.208 102.38C102.488 102.66 102.788 102.913 103.108 103.14C103.441 103.367 103.801 103.547 104.188 103.68C104.588 103.813 105.015 103.88 105.468 103.88C105.975 103.88 106.421 103.773 106.808 103.56C107.208 103.347 107.521 103.04 107.748 102.64C107.975 102.227 108.088 101.733 108.088 101.16C108.088 100.307 107.855 99.6467 107.388 99.18C106.935 98.7133 106.335 98.48 105.588 98.48C105.161 98.48 104.795 98.54 104.488 98.66C104.181 98.7667 103.808 98.96 103.368 99.24L102.028 98.38L102.428 91.18H110.348V93.66H104.968L104.688 96.8C104.981 96.6667 105.268 96.5667 105.548 96.5C105.828 96.4333 106.135 96.4 106.468 96.4C107.295 96.4 108.055 96.5667 108.748 96.9C109.441 97.22 109.995 97.7267 110.408 98.42C110.821 99.1133 111.028 100 111.028 101.08C111.028 102.173 110.781 103.113 110.288 103.9C109.808 104.673 109.175 105.267 108.388 105.68C107.615 106.08 106.775 106.28 105.868 106.28Z" fill="#4C4C4C"/>
<rect x="40" y="52" width="99" height="17" fill="#FFDB72"/>
<path d="M58.32 52.74H64.42V54.64H58.32V52.74ZM57.2 45.86H64.54V47.96H59.38V63.76H57.2V45.86ZM63.28 45.86H65.5V49.64C65.5 50.1467 65.4333 50.56 65.3 50.88C65.1667 51.1867 64.9 51.42 64.5 51.58C64.1133 51.74 63.6467 51.84 63.1 51.88C62.5533 51.9067 61.9133 51.92 61.18 51.92C61.1267 51.6 61.0333 51.2467 60.9 50.86C60.78 50.4733 60.6467 50.14 60.5 49.86C60.8333 49.8733 61.16 49.8867 61.48 49.9C61.8133 49.9 62.1067 49.9 62.36 49.9C62.6133 49.8867 62.7867 49.88 62.88 49.88C63.0267 49.8667 63.1267 49.8467 63.18 49.82C63.2467 49.78 63.28 49.7067 63.28 49.6V45.86ZM60.84 53.98C61.1733 55.0867 61.6133 56.1467 62.16 57.16C62.7067 58.16 63.36 59.06 64.12 59.86C64.88 60.6467 65.7267 61.28 66.66 61.76C66.4067 61.9733 66.1267 62.2667 65.82 62.64C65.5133 63.0133 65.2667 63.3533 65.08 63.66C64.1067 63.06 63.2333 62.3 62.46 61.38C61.6867 60.4467 61.0133 59.3933 60.44 58.22C59.88 57.0333 59.4067 55.7733 59.02 54.44L60.84 53.98ZM63.74 52.74H64.14L64.54 52.66L65.98 53.18C65.74 54.7 65.3667 56.1333 64.86 57.48C64.3667 58.8133 63.74 60.02 62.98 61.1C62.2333 62.1667 61.3467 63.08 60.32 63.84C60.1333 63.56 59.8867 63.2667 59.58 62.96C59.2733 62.6533 58.9933 62.4 58.74 62.2C59.6733 61.56 60.48 60.7733 61.16 59.84C61.84 58.8933 62.3933 57.8533 62.82 56.72C63.26 55.5867 63.5667 54.4133 63.74 53.2V52.74ZM48.32 46.78H56.2V48.78H48.32V46.78ZM47.74 58.12H56.66V60.12H47.74V58.12ZM47.74 50.14H56.66V52.16H47.74V50.14ZM48.22 54.5H56.26V56.52H48.22V54.5ZM51.22 45.06H53.44V50.9H51.22V45.06ZM51.22 55.32H53.44V63.72H51.22V55.32ZM53.88 51.98L55.9 52.48C55.62 53.04 55.3333 53.6 55.04 54.16C54.76 54.7067 54.5 55.18 54.26 55.58L52.56 55.1C52.72 54.8067 52.88 54.48 53.04 54.12C53.2133 53.76 53.3733 53.3933 53.52 53.02C53.6667 52.6333 53.7867 52.2867 53.88 51.98ZM48.92 52.5L50.68 51.98C50.8667 52.34 51.04 52.7267 51.2 53.14C51.3733 53.5533 51.4933 53.9067 51.56 54.2L49.7 54.8C49.66 54.4933 49.56 54.1267 49.4 53.7C49.2533 53.26 49.0933 52.86 48.92 52.5ZM76.64 60.82H85.58V63H76.64V60.82ZM75.62 46.98H82.72V49.1H75.62V46.98ZM76.16 44.9L78.86 45.42C78.2867 46.3933 77.6267 47.34 76.88 48.26C76.1467 49.1667 75.3067 50.04 74.36 50.88C73.4267 51.7067 72.36 52.4733 71.16 53.18C71.04 52.98 70.88 52.7667 70.68 52.54C70.48 52.3 70.2733 52.0667 70.06 51.84C69.8467 51.6133 69.6467 51.4333 69.46 51.3C70.5667 50.7133 71.5467 50.0667 72.4 49.36C73.2667 48.6533 74.0133 47.92 74.64 47.16C75.2667 46.3867 75.7733 45.6333 76.16 44.9ZM81.96 46.98H82.4L82.8 46.86L84.46 47.72C83.8733 49.28 83.1133 50.7067 82.18 52C81.26 53.28 80.2 54.4333 79 55.46C77.8133 56.4867 76.5267 57.38 75.14 58.14C73.7533 58.9 72.3133 59.5333 70.82 60.04C70.7267 59.8133 70.6 59.5667 70.44 59.3C70.28 59.0333 70.1133 58.7733 69.94 58.52C69.7667 58.2667 69.5933 58.0533 69.42 57.88C70.8067 57.4933 72.1467 56.9667 73.44 56.3C74.7467 55.62 75.9533 54.8267 77.06 53.92C78.18 53.0133 79.16 52.0133 80 50.92C80.84 49.8133 81.4933 48.6333 81.96 47.38V46.98ZM73 51.36L74.8 49.82C75.2667 50.14 75.7533 50.5 76.26 50.9C76.78 51.3 77.2667 51.7067 77.72 52.12C78.1867 52.52 78.5667 52.9 78.86 53.26L76.92 54.98C76.6667 54.6333 76.32 54.2467 75.88 53.82C75.44 53.38 74.9667 52.9467 74.46 52.52C73.9533 52.0933 73.4667 51.7067 73 51.36ZM84.48 54.74H86.96V63.8H84.48V54.74ZM77.66 54.74H85.68V56.9H77.66V63.78H75.24V56.5L77.08 54.74H77.66ZM96.14 53.92H105.84V55.8H96.14V53.92ZM95.86 57.32H106.18V59.28H95.86V57.32ZM101.84 54.5H103.96V63.42H101.84V54.5ZM97.94 54.6H100V58.42C100 58.7533 99.96 59.1467 99.88 59.6C99.8 60.0533 99.66 60.54 99.46 61.06C99.2733 61.5667 99.0067 62.0533 98.66 62.52C98.3133 63 97.88 63.42 97.36 63.78C97.1867 63.5667 96.9467 63.32 96.64 63.04C96.3333 62.7733 96.06 62.56 95.82 62.4C96.38 62.0533 96.8133 61.6333 97.12 61.14C97.44 60.6467 97.6533 60.1533 97.76 59.66C97.88 59.1667 97.94 58.7533 97.94 58.42V54.6ZM93.78 48.5H98.8V50.06H93.78V48.5ZM103.06 48.5H108.1V50.06H103.06V48.5ZM107.16 45.78H109.52V61C109.52 61.6133 109.453 62.0933 109.32 62.44C109.2 62.8 108.953 63.08 108.58 63.28C108.22 63.48 107.773 63.6067 107.24 63.66C106.707 63.7133 106.053 63.7333 105.28 63.72C105.253 63.5067 105.2 63.2533 105.12 62.96C105.053 62.68 104.973 62.3933 104.88 62.1C104.787 61.8067 104.68 61.56 104.56 61.36C105.013 61.3733 105.453 61.3867 105.88 61.4C106.307 61.4 106.6 61.3933 106.76 61.38C106.907 61.38 107.007 61.3467 107.06 61.28C107.127 61.2133 107.16 61.1133 107.16 60.98V45.78ZM94 45.78H100.32V52.88H94V51.16H98.08V47.48H94V45.78ZM108.4 45.78V47.48H103.9V51.22H108.4V52.94H101.62V45.78H108.4ZM92.58 45.78H94.92V63.8H92.58V45.78ZM123.5 60.86H130.14V62.98H123.5V60.86ZM121.98 55.38H131.36V63.76H129.06V57.5H124.16V63.78H121.98V55.38ZM127.46 48.78L129.36 47.84C129.827 48.4133 130.28 49.04 130.72 49.72C131.16 50.3867 131.553 51.0533 131.9 51.72C132.247 52.3867 132.513 52.9867 132.7 53.52L130.64 54.62C130.467 54.0733 130.213 53.46 129.88 52.78C129.56 52.1 129.187 51.4133 128.76 50.72C128.333 50.0133 127.9 49.3667 127.46 48.78ZM121.84 54.26C121.8 54.1133 121.733 53.9067 121.64 53.64C121.56 53.36 121.467 53.0733 121.36 52.78C121.253 52.4733 121.153 52.2267 121.06 52.04C121.287 51.9733 121.5 51.8333 121.7 51.62C121.9 51.4067 122.113 51.1267 122.34 50.78C122.473 50.6067 122.647 50.3267 122.86 49.94C123.073 49.5533 123.313 49.1 123.58 48.58C123.847 48.0467 124.113 47.4733 124.38 46.86C124.647 46.2467 124.887 45.6333 125.1 45.02L127.6 45.68C127.227 46.5733 126.807 47.4667 126.34 48.36C125.887 49.24 125.413 50.0733 124.92 50.86C124.427 51.6467 123.94 52.3533 123.46 52.98V53.04C123.46 53.04 123.373 53.08 123.2 53.16C123.04 53.24 122.853 53.3467 122.64 53.48C122.44 53.6133 122.253 53.7533 122.08 53.9C121.92 54.0333 121.84 54.1533 121.84 54.26ZM121.84 54.26L121.78 52.38L123.08 51.6L131.14 51.06C131.193 51.3933 131.267 51.7667 131.36 52.18C131.467 52.58 131.56 52.9067 131.64 53.16C130.053 53.2933 128.72 53.4067 127.64 53.5C126.573 53.5933 125.693 53.68 125 53.76C124.32 53.8267 123.773 53.8867 123.36 53.94C122.96 53.9933 122.647 54.0467 122.42 54.1C122.207 54.1533 122.013 54.2067 121.84 54.26ZM113.96 55.92L115.3 54.32C115.82 54.76 116.38 55.2333 116.98 55.74C117.593 56.2333 118.2 56.7467 118.8 57.28C119.413 57.8133 119.98 58.3267 120.5 58.82C121.02 59.3 121.453 59.74 121.8 60.14L120.32 62.02C120 61.62 119.587 61.16 119.08 60.64C118.573 60.12 118.02 59.5867 117.42 59.04C116.833 58.4933 116.24 57.9533 115.64 57.42C115.04 56.8867 114.48 56.3867 113.96 55.92ZM113.96 55.92C114.16 55.2267 114.367 54.4467 114.58 53.58C114.793 52.7 114.993 51.78 115.18 50.82C115.367 49.8467 115.533 48.8733 115.68 47.9C115.827 46.9267 115.933 46 116 45.12L118.2 45.26C118.107 46.18 117.973 47.1467 117.8 48.16C117.64 49.1733 117.46 50.1867 117.26 51.2C117.06 52.2133 116.847 53.18 116.62 54.1C116.393 55.02 116.18 55.8533 115.98 56.6L113.96 55.92ZM118.72 47.84H120.86V50.28C120.86 51.04 120.827 51.8667 120.76 52.76C120.693 53.6533 120.553 54.58 120.34 55.54C120.127 56.5 119.807 57.4667 119.38 58.44C118.967 59.4 118.407 60.3333 117.7 61.24C117.007 62.1333 116.133 62.9733 115.08 63.76C114.973 63.6 114.82 63.4133 114.62 63.2C114.433 63 114.233 62.8 114.02 62.6C113.82 62.4133 113.633 62.26 113.46 62.14C114.673 61.2867 115.627 60.3467 116.32 59.32C117.027 58.28 117.553 57.2267 117.9 56.16C118.247 55.08 118.467 54.04 118.56 53.04C118.667 52.0267 118.72 51.1 118.72 50.26V47.84ZM113.54 49.36C114.247 49.3333 115.047 49.3 115.94 49.26C116.833 49.2067 117.773 49.1533 118.76 49.1C119.76 49.0467 120.76 49 121.76 48.96L121.74 50.96C120.34 51.0667 118.933 51.1667 117.52 51.26C116.107 51.34 114.853 51.42 113.76 51.5L113.54 49.36Z" fill="#4C4C4C"/>
<path d="M228.74 325V315.9C228.74 315.473 228.753 314.967 228.78 314.38C228.807 313.78 228.833 313.26 228.86 312.82H228.76C228.587 313.22 228.4 313.62 228.2 314.02C228 314.42 227.793 314.827 227.58 315.24L225.28 318.92H233.24V321.16H222.42V319.16L227.94 310.18H231.48V325H228.74ZM236.077 328.62L241.057 308.88H242.997L238.037 328.62H236.077ZM247.171 325V322.6H250.371V313.26H247.671V311.42C248.418 311.287 249.058 311.127 249.591 310.94C250.138 310.74 250.645 310.487 251.111 310.18H253.291V322.6H256.071V325H247.171ZM264.868 325.28C264.081 325.28 263.381 325.187 262.768 325C262.155 324.813 261.608 324.567 261.128 324.26C260.648 323.953 260.221 323.62 259.848 323.26L261.208 321.38C261.488 321.66 261.788 321.913 262.108 322.14C262.441 322.367 262.801 322.547 263.188 322.68C263.588 322.813 264.015 322.88 264.468 322.88C264.975 322.88 265.421 322.773 265.808 322.56C266.208 322.347 266.521 322.04 266.748 321.64C266.975 321.227 267.088 320.733 267.088 320.16C267.088 319.307 266.855 318.647 266.388 318.18C265.935 317.713 265.335 317.48 264.588 317.48C264.161 317.48 263.795 317.54 263.488 317.66C263.181 317.767 262.808 317.96 262.368 318.24L261.028 317.38L261.428 310.18H269.348V312.66H263.968L263.688 315.8C263.981 315.667 264.268 315.567 264.548 315.5C264.828 315.433 265.135 315.4 265.468 315.4C266.295 315.4 267.055 315.567 267.748 315.9C268.441 316.22 268.995 316.727 269.408 317.42C269.821 318.113 270.028 319 270.028 320.08C270.028 321.173 269.781 322.113 269.288 322.9C268.808 323.673 268.175 324.267 267.388 324.68C266.615 325.08 265.775 325.28 264.868 325.28Z" fill="#4C4C4C"/>
<path d="M215.32 363.74H221.42V365.64H215.32V363.74ZM214.2 356.86H221.54V358.96H216.38V374.76H214.2V356.86ZM220.28 356.86H222.5V360.64C222.5 361.147 222.433 361.56 222.3 361.88C222.167 362.187 221.9 362.42 221.5 362.58C221.113 362.74 220.647 362.84 220.1 362.88C219.553 362.907 218.913 362.92 218.18 362.92C218.127 362.6 218.033 362.247 217.9 361.86C217.78 361.473 217.647 361.14 217.5 360.86C217.833 360.873 218.16 360.887 218.48 360.9C218.813 360.9 219.107 360.9 219.36 360.9C219.613 360.887 219.787 360.88 219.88 360.88C220.027 360.867 220.127 360.847 220.18 360.82C220.247 360.78 220.28 360.707 220.28 360.6V356.86ZM217.84 364.98C218.173 366.087 218.613 367.147 219.16 368.16C219.707 369.16 220.36 370.06 221.12 370.86C221.88 371.647 222.727 372.28 223.66 372.76C223.407 372.973 223.127 373.267 222.82 373.64C222.513 374.013 222.267 374.353 222.08 374.66C221.107 374.06 220.233 373.3 219.46 372.38C218.687 371.447 218.013 370.393 217.44 369.22C216.88 368.033 216.407 366.773 216.02 365.44L217.84 364.98ZM220.74 363.74H221.14L221.54 363.66L222.98 364.18C222.74 365.7 222.367 367.133 221.86 368.48C221.367 369.813 220.74 371.02 219.98 372.1C219.233 373.167 218.347 374.08 217.32 374.84C217.133 374.56 216.887 374.267 216.58 373.96C216.273 373.653 215.993 373.4 215.74 373.2C216.673 372.56 217.48 371.773 218.16 370.84C218.84 369.893 219.393 368.853 219.82 367.72C220.26 366.587 220.567 365.413 220.74 364.2V363.74ZM205.32 357.78H213.2V359.78H205.32V357.78ZM204.74 369.12H213.66V371.12H204.74V369.12ZM204.74 361.14H213.66V363.16H204.74V361.14ZM205.22 365.5H213.26V367.52H205.22V365.5ZM208.22 356.06H210.44V361.9H208.22V356.06ZM208.22 366.32H210.44V374.72H208.22V366.32ZM210.88 362.98L212.9 363.48C212.62 364.04 212.333 364.6 212.04 365.16C211.76 365.707 211.5 366.18 211.26 366.58L209.56 366.1C209.72 365.807 209.88 365.48 210.04 365.12C210.213 364.76 210.373 364.393 210.52 364.02C210.667 363.633 210.787 363.287 210.88 362.98ZM205.92 363.5L207.68 362.98C207.867 363.34 208.04 363.727 208.2 364.14C208.373 364.553 208.493 364.907 208.56 365.2L206.7 365.8C206.66 365.493 206.56 365.127 206.4 364.7C206.253 364.26 206.093 363.86 205.92 363.5ZM233.64 371.82H242.58V374H233.64V371.82ZM232.62 357.98H239.72V360.1H232.62V357.98ZM233.16 355.9L235.86 356.42C235.287 357.393 234.627 358.34 233.88 359.26C233.147 360.167 232.307 361.04 231.36 361.88C230.427 362.707 229.36 363.473 228.16 364.18C228.04 363.98 227.88 363.767 227.68 363.54C227.48 363.3 227.273 363.067 227.06 362.84C226.847 362.613 226.647 362.433 226.46 362.3C227.567 361.713 228.547 361.067 229.4 360.36C230.267 359.653 231.013 358.92 231.64 358.16C232.267 357.387 232.773 356.633 233.16 355.9ZM238.96 357.98H239.4L239.8 357.86L241.46 358.72C240.873 360.28 240.113 361.707 239.18 363C238.26 364.28 237.2 365.433 236 366.46C234.813 367.487 233.527 368.38 232.14 369.14C230.753 369.9 229.313 370.533 227.82 371.04C227.727 370.813 227.6 370.567 227.44 370.3C227.28 370.033 227.113 369.773 226.94 369.52C226.767 369.267 226.593 369.053 226.42 368.88C227.807 368.493 229.147 367.967 230.44 367.3C231.747 366.62 232.953 365.827 234.06 364.92C235.18 364.013 236.16 363.013 237 361.92C237.84 360.813 238.493 359.633 238.96 358.38V357.98ZM230 362.36L231.8 360.82C232.267 361.14 232.753 361.5 233.26 361.9C233.78 362.3 234.267 362.707 234.72 363.12C235.187 363.52 235.567 363.9 235.86 364.26L233.92 365.98C233.667 365.633 233.32 365.247 232.88 364.82C232.44 364.38 231.967 363.947 231.46 363.52C230.953 363.093 230.467 362.707 230 362.36ZM241.48 365.74H243.96V374.8H241.48V365.74ZM234.66 365.74H242.68V367.9H234.66V374.78H232.24V367.5L234.08 365.74H234.66ZM256.34 358.46H267.14V360.68H256.34V358.46ZM256.9 362.96H266.66V365.16H256.9V362.96ZM258.6 371.76H264.98V373.92H258.6V371.76ZM260.4 355.98H262.86V364.12H260.4V355.98ZM257.3 366.72H266.18V374.7H263.84V368.88H259.52V374.78H257.3V366.72ZM253.6 364.24L255.32 363.72C255.493 364.16 255.66 364.64 255.82 365.16C255.993 365.667 256.147 366.16 256.28 366.64C256.427 367.12 256.527 367.54 256.58 367.9L254.76 368.54C254.707 368.18 254.62 367.753 254.5 367.26C254.38 366.753 254.24 366.24 254.08 365.72C253.933 365.2 253.773 364.707 253.6 364.24ZM251.7 369.5L253.4 369.16C253.547 369.88 253.673 370.66 253.78 371.5C253.887 372.34 253.96 373.073 254 373.7L252.18 374.06C252.167 373.647 252.133 373.18 252.08 372.66C252.04 372.127 251.987 371.587 251.92 371.04C251.853 370.493 251.78 369.98 251.7 369.5ZM249.38 369.22L251.28 369.52C251.2 370.427 251.08 371.333 250.92 372.24C250.773 373.133 250.593 373.887 250.38 374.5C250.18 374.367 249.887 374.24 249.5 374.12C249.113 374 248.8 373.907 248.56 373.84C248.787 373.253 248.96 372.54 249.08 371.7C249.213 370.86 249.313 370.033 249.38 369.22ZM249.18 363.96C249.14 363.813 249.08 363.613 249 363.36C248.92 363.107 248.833 362.853 248.74 362.6C248.647 362.333 248.56 362.107 248.48 361.92C248.68 361.853 248.867 361.733 249.04 361.56C249.227 361.373 249.427 361.133 249.64 360.84C249.747 360.693 249.9 360.46 250.1 360.14C250.3 359.807 250.52 359.413 250.76 358.96C251.013 358.507 251.26 358.013 251.5 357.48C251.74 356.947 251.953 356.42 252.14 355.9L254.26 356.78C253.767 357.86 253.18 358.94 252.5 360.02C251.833 361.1 251.16 362.033 250.48 362.82V362.86C250.48 362.86 250.413 362.9 250.28 362.98C250.16 363.047 250.013 363.14 249.84 363.26C249.667 363.38 249.513 363.5 249.38 363.62C249.247 363.74 249.18 363.853 249.18 363.96ZM249.18 363.96L249.12 362.32L250.08 361.72L253.56 361.46C253.507 361.74 253.46 362.06 253.42 362.42C253.38 362.78 253.353 363.08 253.34 363.32C252.567 363.387 251.927 363.453 251.42 363.52C250.927 363.587 250.533 363.64 250.24 363.68C249.947 363.72 249.72 363.767 249.56 363.82C249.4 363.86 249.273 363.907 249.18 363.96ZM249.34 368.6C249.3 368.453 249.233 368.253 249.14 368C249.06 367.733 248.967 367.467 248.86 367.2C248.767 366.92 248.68 366.68 248.6 366.48C248.867 366.427 249.12 366.293 249.36 366.08C249.6 365.853 249.88 365.56 250.2 365.2C250.373 365.013 250.613 364.713 250.92 364.3C251.24 363.887 251.593 363.4 251.98 362.84C252.38 362.267 252.773 361.653 253.16 361C253.56 360.333 253.92 359.667 254.24 359L256.2 360.22C255.693 361.087 255.14 361.953 254.54 362.82C253.94 363.687 253.307 364.52 252.64 365.32C251.987 366.107 251.327 366.82 250.66 367.46V367.5C250.66 367.5 250.593 367.54 250.46 367.62C250.327 367.687 250.167 367.78 249.98 367.9C249.807 368.02 249.653 368.14 249.52 368.26C249.4 368.38 249.34 368.493 249.34 368.6ZM249.34 368.6L249.24 366.88L250.24 366.22L255.5 365.58C255.447 365.873 255.407 366.207 255.38 366.58C255.353 366.953 255.347 367.253 255.36 367.48C254.173 367.653 253.207 367.8 252.46 367.92C251.727 368.027 251.153 368.12 250.74 368.2C250.34 368.28 250.033 368.353 249.82 368.42C249.62 368.473 249.46 368.533 249.34 368.6ZM253.82 369.08L255.42 368.56C255.66 369.173 255.887 369.847 256.1 370.58C256.313 371.313 256.473 371.947 256.58 372.48L254.88 373.06C254.8 372.527 254.653 371.887 254.44 371.14C254.24 370.393 254.033 369.707 253.82 369.08ZM271.42 357.88H288.62V360.08H271.42V357.88ZM278.72 356.02H281.22V374.8H278.72V356.02ZM278.56 366.82L280.58 367.68C280.1 368.4 279.547 369.087 278.92 369.74C278.293 370.38 277.613 370.987 276.88 371.56C276.16 372.133 275.407 372.653 274.62 373.12C273.833 373.587 273.047 373.987 272.26 374.32C272.14 374.12 271.98 373.893 271.78 373.64C271.593 373.387 271.393 373.14 271.18 372.9C270.98 372.66 270.787 372.46 270.6 372.3C271.373 372.033 272.147 371.707 272.92 371.32C273.693 370.92 274.427 370.48 275.12 370C275.827 369.52 276.473 369.013 277.06 368.48C277.647 367.933 278.147 367.38 278.56 366.82ZM281.58 366.94C282.127 367.673 282.82 368.38 283.66 369.06C284.5 369.727 285.42 370.34 286.42 370.9C287.433 371.447 288.447 371.893 289.46 372.24C289.273 372.4 289.067 372.607 288.84 372.86C288.627 373.113 288.42 373.367 288.22 373.62C288.033 373.887 287.873 374.133 287.74 374.36C286.7 373.92 285.68 373.367 284.68 372.7C283.68 372.02 282.74 371.267 281.86 370.44C280.993 369.6 280.24 368.72 279.6 367.8L281.58 366.94ZM275.06 363.78V366H284.98V363.78H275.06ZM272.74 361.66H287.44V368.12H272.74V361.66Z" fill="#4C4C4C"/>
<path d="M391.54 106.28C390.753 106.28 390.053 106.187 389.44 106C388.827 105.813 388.28 105.567 387.8 105.26C387.32 104.953 386.893 104.62 386.52 104.26L387.88 102.38C388.16 102.66 388.46 102.913 388.78 103.14C389.113 103.367 389.473 103.547 389.86 103.68C390.26 103.813 390.687 103.88 391.14 103.88C391.647 103.88 392.093 103.773 392.48 103.56C392.88 103.347 393.193 103.04 393.42 102.64C393.647 102.227 393.76 101.733 393.76 101.16C393.76 100.307 393.527 99.6467 393.06 99.18C392.607 98.7133 392.007 98.48 391.26 98.48C390.833 98.48 390.467 98.54 390.16 98.66C389.853 98.7667 389.48 98.96 389.04 99.24L387.7 98.38L388.1 91.18H396.02V93.66H390.64L390.36 96.8C390.653 96.6667 390.94 96.5667 391.22 96.5C391.5 96.4333 391.807 96.4 392.14 96.4C392.967 96.4 393.727 96.5667 394.42 96.9C395.113 97.22 395.667 97.7267 396.08 98.42C396.493 99.1133 396.7 100 396.7 101.08C396.7 102.173 396.453 103.113 395.96 103.9C395.48 104.673 394.847 105.267 394.06 105.68C393.287 106.08 392.447 106.28 391.54 106.28ZM400.077 109.62L405.057 89.88H406.997L402.037 109.62H400.077ZM411.171 106V103.6H414.371V94.26H411.671V92.42C412.418 92.2867 413.058 92.1267 413.591 91.94C414.138 91.74 414.645 91.4867 415.111 91.18H417.291V103.6H420.071V106H411.171Z" fill="#4C4C4C"/>
<path d="M340.56 46.3H357.6V48.64H340.56V46.3ZM349.5 53.06H356.58V55.4H349.5V53.06ZM339.88 60.7H358.16V63.04H339.88V60.7ZM348.34 47.24H350.88V61.84H348.34V47.24ZM342.36 51.76H344.86V61.94H342.36V51.76ZM371.38 47.58H378.2V49.92H371.38V47.58ZM361.86 46.14H371.96V48.36H361.86V46.14ZM364.5 50.26H369.3V52.4H364.5V50.26ZM364.5 54.42H369.3V56.56H364.5V54.42ZM377.54 47.58H377.96L378.38 47.5L379.94 47.9C379.687 50.6067 379.22 52.9667 378.54 54.98C377.873 56.9933 377 58.7133 375.92 60.14C374.84 61.5667 373.54 62.74 372.02 63.66C371.847 63.3533 371.607 63 371.3 62.6C371.007 62.2133 370.727 61.9133 370.46 61.7C371.793 60.9933 372.947 60 373.92 58.72C374.893 57.4267 375.687 55.8867 376.3 54.1C376.927 52.3 377.34 50.3 377.54 48.1V47.58ZM373.74 49.98C374.06 51.7 374.52 53.32 375.12 54.84C375.72 56.36 376.48 57.7067 377.4 58.88C378.32 60.0533 379.42 60.9867 380.7 61.68C380.527 61.8267 380.327 62.0133 380.1 62.24C379.887 62.48 379.687 62.72 379.5 62.96C379.313 63.2133 379.16 63.4467 379.04 63.66C377.64 62.8067 376.447 61.7333 375.46 60.44C374.487 59.1467 373.68 57.6533 373.04 55.96C372.4 54.2667 371.867 52.42 371.44 50.42L373.74 49.98ZM363.24 47.04H365.52V60.12H363.24V47.04ZM368.38 47.04H370.68V63.78H368.38V47.04ZM361.38 59.24C362.047 59.1733 362.8 59.0867 363.64 58.98C364.493 58.8733 365.393 58.7533 366.34 58.62C367.3 58.4867 368.247 58.3533 369.18 58.22L369.3 60.42C368.007 60.6467 366.7 60.8667 365.38 61.08C364.06 61.28 362.88 61.4667 361.84 61.64L361.38 59.24ZM390.64 60.82H399.58V63H390.64V60.82ZM389.62 46.98H396.72V49.1H389.62V46.98ZM390.16 44.9L392.86 45.42C392.287 46.3933 391.627 47.34 390.88 48.26C390.147 49.1667 389.307 50.04 388.36 50.88C387.427 51.7067 386.36 52.4733 385.16 53.18C385.04 52.98 384.88 52.7667 384.68 52.54C384.48 52.3 384.273 52.0667 384.06 51.84C383.847 51.6133 383.647 51.4333 383.46 51.3C384.567 50.7133 385.547 50.0667 386.4 49.36C387.267 48.6533 388.013 47.92 388.64 47.16C389.267 46.3867 389.773 45.6333 390.16 44.9ZM395.96 46.98H396.4L396.8 46.86L398.46 47.72C397.873 49.28 397.113 50.7067 396.18 52C395.26 53.28 394.2 54.4333 393 55.46C391.813 56.4867 390.527 57.38 389.14 58.14C387.753 58.9 386.313 59.5333 384.82 60.04C384.727 59.8133 384.6 59.5667 384.44 59.3C384.28 59.0333 384.113 58.7733 383.94 58.52C383.767 58.2667 383.593 58.0533 383.42 57.88C384.807 57.4933 386.147 56.9667 387.44 56.3C388.747 55.62 389.953 54.8267 391.06 53.92C392.18 53.0133 393.16 52.0133 394 50.92C394.84 49.8133 395.493 48.6333 395.96 47.38V46.98ZM387 51.36L388.8 49.82C389.267 50.14 389.753 50.5 390.26 50.9C390.78 51.3 391.267 51.7067 391.72 52.12C392.187 52.52 392.567 52.9 392.86 53.26L390.92 54.98C390.667 54.6333 390.32 54.2467 389.88 53.82C389.44 53.38 388.967 52.9467 388.46 52.52C387.953 52.0933 387.467 51.7067 387 51.36ZM398.48 54.74H400.96V63.8H398.48V54.74ZM391.66 54.74H399.68V56.9H391.66V63.78H389.24V56.5L391.08 54.74H391.66ZM413.68 51.68H416.16V63.8H413.68V51.68ZM410.3 55.24V56.3H419.76V55.24H410.3ZM410.3 52.44V53.52H419.76V52.44H410.3ZM407.96 50.6H422.24V58.14H407.96V50.6ZM406.06 59.18H423.98V61.26H406.06V59.18ZM409.36 47.22V48.38H412.18V47.22H409.36ZM407.24 45.78H414.44V49.82H407.24V45.78ZM417.76 47.22V48.38H420.62V47.22H417.76ZM415.62 45.78H422.88V49.82H415.62V45.78ZM438.86 56.62L441.22 55.54C441.767 56.2867 442.32 57.0733 442.88 57.9C443.44 58.7267 443.967 59.54 444.46 60.34C444.953 61.14 445.353 61.8533 445.66 62.48L443.2 63.8C442.907 63.1733 442.52 62.4467 442.04 61.62C441.56 60.78 441.04 59.92 440.48 59.04C439.92 58.16 439.38 57.3533 438.86 56.62ZM432.9 45.46L435.58 46.32C435.087 47.4133 434.507 48.5067 433.84 49.6C433.187 50.68 432.493 51.7 431.76 52.66C431.04 53.6067 430.313 54.4333 429.58 55.14C429.42 54.9533 429.207 54.7333 428.94 54.48C428.687 54.2133 428.42 53.9533 428.14 53.7C427.873 53.4333 427.64 53.2267 427.44 53.08C428.147 52.48 428.84 51.7733 429.52 50.96C430.2 50.1333 430.827 49.2533 431.4 48.32C431.987 47.3733 432.487 46.42 432.9 45.46ZM430.06 63.08C430.007 62.9067 429.927 62.66 429.82 62.34C429.713 62.0333 429.593 61.7133 429.46 61.38C429.34 61.0333 429.22 60.74 429.1 60.5C429.433 60.4067 429.747 60.2267 430.04 59.96C430.333 59.6933 430.68 59.34 431.08 58.9C431.293 58.6867 431.593 58.3267 431.98 57.82C432.38 57.3133 432.82 56.7133 433.3 56.02C433.78 55.3133 434.253 54.5533 434.72 53.74C435.2 52.9267 435.64 52.1067 436.04 51.28L438.86 52.46C438.207 53.6067 437.493 54.74 436.72 55.86C435.947 56.9667 435.147 58.0133 434.32 59C433.507 59.9867 432.693 60.8733 431.88 61.66V61.72C431.88 61.72 431.787 61.7667 431.6 61.86C431.427 61.9533 431.213 62.0733 430.96 62.22C430.72 62.3667 430.507 62.5133 430.32 62.66C430.147 62.8067 430.06 62.9467 430.06 63.08ZM430.06 63.08L429.98 61.04L431.58 60.16L443.06 59.4C443.113 59.7733 443.2 60.18 443.32 60.62C443.44 61.06 443.533 61.42 443.6 61.7C441.773 61.8467 440.187 61.9733 438.84 62.08C437.507 62.2 436.367 62.2933 435.42 62.36C434.487 62.44 433.707 62.5067 433.08 62.56C432.467 62.6267 431.967 62.6867 431.58 62.74C431.207 62.7933 430.9 62.8467 430.66 62.9C430.433 62.9533 430.233 63.0133 430.06 63.08ZM438.78 45.5H441.58C441.887 46.4333 442.287 47.3533 442.78 48.26C443.273 49.1533 443.853 49.98 444.52 50.74C445.2 51.5 445.947 52.1333 446.76 52.64C446.587 52.8133 446.38 53.0467 446.14 53.34C445.9 53.6333 445.673 53.9333 445.46 54.24C445.247 54.5467 445.073 54.8267 444.94 55.08C444.06 54.4 443.26 53.6067 442.54 52.7C441.82 51.7933 441.187 50.84 440.64 49.84C440.093 48.8267 439.64 47.82 439.28 46.82H438.78V45.5ZM436.52 45.5H440.7V47.96H436.52V45.5ZM450.06 47.86H467.98V50.16H450.06V47.86ZM458.84 50.88H461.26V63.78H458.84V50.88ZM453.26 53.18H465.64V55.46H455.66V62H453.26V53.18ZM464.6 53.18H467.02V59.44C467.02 59.9867 466.947 60.4267 466.8 60.76C466.667 61.08 466.4 61.3267 466 61.5C465.627 61.6733 465.16 61.78 464.6 61.82C464.053 61.86 463.4 61.88 462.64 61.88C462.6 61.5467 462.507 61.1733 462.36 60.76C462.213 60.3467 462.06 59.9933 461.9 59.7C462.207 59.7133 462.513 59.72 462.82 59.72C463.14 59.72 463.42 59.72 463.66 59.72C463.913 59.72 464.087 59.72 464.18 59.72C464.34 59.72 464.447 59.7 464.5 59.66C464.567 59.6067 464.6 59.5133 464.6 59.38V53.18ZM456.48 44.96L458.96 45.52C458.48 47.16 457.867 48.78 457.12 50.38C456.387 51.98 455.493 53.4733 454.44 54.86C453.387 56.2333 452.147 57.4133 450.72 58.4C450.627 58.2 450.493 57.9733 450.32 57.72C450.16 57.4533 449.993 57.1933 449.82 56.94C449.647 56.6867 449.487 56.4733 449.34 56.3C450.287 55.6867 451.14 54.9533 451.9 54.1C452.673 53.2333 453.353 52.2933 453.94 51.28C454.527 50.2667 455.033 49.2267 455.46 48.16C455.887 47.08 456.227 46.0133 456.48 44.96Z" fill="#4C4C4C"/>
<path d="M701.54 106.28C700.753 106.28 700.053 106.187 699.44 106C698.827 105.813 698.28 105.567 697.8 105.26C697.32 104.953 696.893 104.62 696.52 104.26L697.88 102.38C698.16 102.66 698.46 102.913 698.78 103.14C699.113 103.367 699.473 103.547 699.86 103.68C700.26 103.813 700.687 103.88 701.14 103.88C701.647 103.88 702.093 103.773 702.48 103.56C702.88 103.347 703.193 103.04 703.42 102.64C703.647 102.227 703.76 101.733 703.76 101.16C703.76 100.307 703.527 99.6467 703.06 99.18C702.607 98.7133 702.007 98.48 701.26 98.48C700.833 98.48 700.467 98.54 700.16 98.66C699.853 98.7667 699.48 98.96 699.04 99.24L697.7 98.38L698.1 91.18H706.02V93.66H700.64L700.36 96.8C700.653 96.6667 700.94 96.5667 701.22 96.5C701.5 96.4333 701.807 96.4 702.14 96.4C702.967 96.4 703.727 96.5667 704.42 96.9C705.113 97.22 705.667 97.7267 706.08 98.42C706.493 99.1133 706.7 100 706.7 101.08C706.7 102.173 706.453 103.113 705.96 103.9C705.48 104.673 704.847 105.267 704.06 105.68C703.287 106.08 702.447 106.28 701.54 106.28ZM710.077 109.62L715.057 89.88H716.997L712.037 109.62H710.077ZM721.171 106V103.6H724.371V94.26H721.671V92.42C722.418 92.2867 723.058 92.1267 723.591 91.94C724.138 91.74 724.645 91.4867 725.111 91.18H727.291V103.6H730.071V106H721.171ZM738.868 106.28C738.081 106.28 737.381 106.187 736.768 106C736.155 105.813 735.608 105.567 735.128 105.26C734.648 104.953 734.221 104.62 733.848 104.26L735.208 102.38C735.488 102.66 735.788 102.913 736.108 103.14C736.441 103.367 736.801 103.547 737.188 103.68C737.588 103.813 738.015 103.88 738.468 103.88C738.975 103.88 739.421 103.773 739.808 103.56C740.208 103.347 740.521 103.04 740.748 102.64C740.975 102.227 741.088 101.733 741.088 101.16C741.088 100.307 740.855 99.6467 740.388 99.18C739.935 98.7133 739.335 98.48 738.588 98.48C738.161 98.48 737.795 98.54 737.488 98.66C737.181 98.7667 736.808 98.96 736.368 99.24L735.028 98.38L735.428 91.18H743.348V93.66H737.968L737.688 96.8C737.981 96.6667 738.268 96.5667 738.548 96.5C738.828 96.4333 739.135 96.4 739.468 96.4C740.295 96.4 741.055 96.5667 741.748 96.9C742.441 97.22 742.995 97.7267 743.408 98.42C743.821 99.1133 744.028 100 744.028 101.08C744.028 102.173 743.781 103.113 743.288 103.9C742.808 104.673 742.175 105.267 741.388 105.68C740.615 106.08 739.775 106.28 738.868 106.28Z" fill="#4C4C4C"/>
<path d="M673.68 50.84L675.16 52.44C674.427 52.9333 673.627 53.4267 672.76 53.92C671.893 54.4133 671.107 54.8267 670.4 55.16L669.22 53.76C669.673 53.5333 670.173 53.2533 670.72 52.92C671.267 52.5867 671.8 52.24 672.32 51.88C672.84 51.52 673.293 51.1733 673.68 50.84ZM664.8 46.14L666.56 45.06C667.027 45.4067 667.48 45.8067 667.92 46.26C668.36 46.7 668.7 47.1067 668.94 47.48L667.1 48.76C666.873 48.3867 666.54 47.9533 666.1 47.46C665.673 46.9533 665.24 46.5133 664.8 46.14ZM663.5 48.16H675.2V50.24H663.5V48.16ZM668.36 53.18L669.86 54.16C669.473 54.5333 668.993 54.9333 668.42 55.36C667.86 55.7733 667.273 56.1667 666.66 56.54C666.06 56.9 665.493 57.2133 664.96 57.48C664.813 57.2267 664.62 56.9333 664.38 56.6C664.14 56.2667 663.907 56 663.68 55.8C664.2 55.6133 664.753 55.38 665.34 55.1C665.94 54.82 666.507 54.5067 667.04 54.16C667.573 53.8133 668.013 53.4867 668.36 53.18ZM669.34 55.88L670.9 56.94C670.407 57.4733 669.787 58.0133 669.04 58.56C668.307 59.0933 667.52 59.5933 666.68 60.06C665.853 60.5133 665.06 60.8867 664.3 61.18C664.14 60.9133 663.927 60.62 663.66 60.3C663.393 59.98 663.133 59.7133 662.88 59.5C663.653 59.2867 664.453 58.9867 665.28 58.6C666.107 58.2133 666.873 57.7867 667.58 57.32C668.3 56.84 668.887 56.36 669.34 55.88ZM671.6 45.04L673.9 45.7C673.527 46.2867 673.14 46.8667 672.74 47.44C672.34 48 671.98 48.4733 671.66 48.86L669.7 48.24C669.927 47.9467 670.16 47.6133 670.4 47.24C670.64 46.8667 670.86 46.4867 671.06 46.1C671.273 45.7133 671.453 45.36 671.6 45.04ZM657.42 45.86H662.14V48.02H659.52V63.8H657.42V45.86ZM661.42 45.86H661.8L662.14 45.78L663.7 46.68C663.54 47.24 663.36 47.8467 663.16 48.5C662.96 49.1533 662.753 49.7933 662.54 50.42C662.34 51.0467 662.147 51.62 661.96 52.14C662.573 52.9 662.973 53.62 663.16 54.3C663.347 54.98 663.44 55.6133 663.44 56.2C663.44 56.84 663.367 57.3733 663.22 57.8C663.087 58.2267 662.86 58.5533 662.54 58.78C662.38 58.8867 662.2 58.9733 662 59.04C661.813 59.1067 661.613 59.16 661.4 59.2C661.027 59.24 660.587 59.2533 660.08 59.24C660.067 58.96 660.013 58.62 659.92 58.22C659.84 57.82 659.72 57.48 659.56 57.2C659.747 57.2133 659.907 57.22 660.04 57.22C660.187 57.22 660.32 57.22 660.44 57.22C660.68 57.2067 660.867 57.1467 661 57.04C661.12 56.9467 661.2 56.8067 661.24 56.62C661.293 56.42 661.32 56.18 661.32 55.9C661.32 55.4333 661.227 54.9 661.04 54.3C660.867 53.7 660.5 53.0667 659.94 52.4C660.073 51.9467 660.207 51.4533 660.34 50.92C660.487 50.3733 660.627 49.8267 660.76 49.28C660.907 48.7333 661.033 48.2267 661.14 47.76C661.26 47.28 661.353 46.88 661.42 46.56V45.86ZM668.48 48.86L670.42 49.62C669.927 50.22 669.333 50.8067 668.64 51.38C667.96 51.94 667.24 52.4533 666.48 52.92C665.733 53.3867 664.993 53.7933 664.26 54.14C664.167 54.0067 664.033 53.8333 663.86 53.62C663.7 53.3933 663.533 53.1733 663.36 52.96C663.187 52.7467 663.027 52.58 662.88 52.46C663.587 52.1933 664.287 51.88 664.98 51.52C665.687 51.1467 666.34 50.7333 666.94 50.28C667.553 49.8267 668.067 49.3533 668.48 48.86ZM672.74 53.72C672.953 54.4133 673.227 55.12 673.56 55.84C673.893 56.5467 674.253 57.2133 674.64 57.84C675.04 58.4533 675.433 58.98 675.82 59.42C675.58 59.6067 675.307 59.8533 675 60.16C674.707 60.4533 674.473 60.7267 674.3 60.98C673.873 60.4467 673.447 59.82 673.02 59.1C672.607 58.3667 672.22 57.5867 671.86 56.76C671.5 55.9333 671.2 55.1267 670.96 54.34L672.74 53.72ZM666.7 51.36L668.42 50.44C669.18 51.16 669.793 51.98 670.26 52.9C670.727 53.82 671.06 54.7733 671.26 55.76C671.473 56.7467 671.573 57.6933 671.56 58.6C671.56 59.4933 671.46 60.2867 671.26 60.98C671.06 61.6733 670.793 62.1867 670.46 62.52C670.14 62.9067 669.793 63.1733 669.42 63.32C669.047 63.4667 668.6 63.5467 668.08 63.56C667.867 63.56 667.613 63.5533 667.32 63.54C667.027 63.54 666.74 63.5333 666.46 63.52C666.447 63.2133 666.393 62.86 666.3 62.46C666.207 62.06 666.067 61.7 665.88 61.38C666.213 61.42 666.54 61.4467 666.86 61.46C667.18 61.4733 667.447 61.48 667.66 61.48C667.9 61.48 668.1 61.4467 668.26 61.38C668.433 61.3 668.593 61.1467 668.74 60.92C668.927 60.7067 669.073 60.34 669.18 59.82C669.3 59.3 669.353 58.6867 669.34 57.98C669.327 57.2733 669.233 56.5267 669.06 55.74C668.887 54.94 668.607 54.16 668.22 53.4C667.833 52.64 667.327 51.96 666.7 51.36ZM685.32 46.48H696.52V48.72H685.32V46.48ZM685.32 52.76H694.54V55H685.32V52.76ZM688.84 47.16L691.32 47.36C691.2 48.32 691.067 49.3267 690.92 50.38C690.773 51.4333 690.62 52.4933 690.46 53.56C690.313 54.6267 690.16 55.6667 690 56.68C689.84 57.6933 689.68 58.6533 689.52 59.56C689.373 60.4667 689.233 61.2867 689.1 62.02H686.62C686.78 61.26 686.94 60.4133 687.1 59.48C687.273 58.5467 687.44 57.56 687.6 56.52C687.773 55.48 687.933 54.4267 688.08 53.36C688.24 52.28 688.38 51.2133 688.5 50.16C688.62 49.1067 688.733 48.1067 688.84 47.16ZM684.44 60.82H697.54V63.06H684.44V60.82ZM693.3 52.76H695.72V61.94H693.3V52.76ZM682.8 45.08L685.02 45.78C684.593 46.9267 684.08 48.08 683.48 49.24C682.893 50.3867 682.253 51.4733 681.56 52.5C680.867 53.5267 680.147 54.4267 679.4 55.2C679.347 55 679.247 54.74 679.1 54.42C678.953 54.1 678.793 53.78 678.62 53.46C678.46 53.14 678.313 52.8867 678.18 52.7C678.793 52.0867 679.387 51.3733 679.96 50.56C680.533 49.7467 681.067 48.8733 681.56 47.94C682.053 46.9933 682.467 46.04 682.8 45.08ZM681.12 50.6L683.44 48.3L683.46 48.32V63.8H681.12V50.6ZM707.64 60.82H716.58V63H707.64V60.82ZM706.62 46.98H713.72V49.1H706.62V46.98ZM707.16 44.9L709.86 45.42C709.287 46.3933 708.627 47.34 707.88 48.26C707.147 49.1667 706.307 50.04 705.36 50.88C704.427 51.7067 703.36 52.4733 702.16 53.18C702.04 52.98 701.88 52.7667 701.68 52.54C701.48 52.3 701.273 52.0667 701.06 51.84C700.847 51.6133 700.647 51.4333 700.46 51.3C701.567 50.7133 702.547 50.0667 703.4 49.36C704.267 48.6533 705.013 47.92 705.64 47.16C706.267 46.3867 706.773 45.6333 707.16 44.9ZM712.96 46.98H713.4L713.8 46.86L715.46 47.72C714.873 49.28 714.113 50.7067 713.18 52C712.26 53.28 711.2 54.4333 710 55.46C708.813 56.4867 707.527 57.38 706.14 58.14C704.753 58.9 703.313 59.5333 701.82 60.04C701.727 59.8133 701.6 59.5667 701.44 59.3C701.28 59.0333 701.113 58.7733 700.94 58.52C700.767 58.2667 700.593 58.0533 700.42 57.88C701.807 57.4933 703.147 56.9667 704.44 56.3C705.747 55.62 706.953 54.8267 708.06 53.92C709.18 53.0133 710.16 52.0133 711 50.92C711.84 49.8133 712.493 48.6333 712.96 47.38V46.98ZM704 51.36L705.8 49.82C706.267 50.14 706.753 50.5 707.26 50.9C707.78 51.3 708.267 51.7067 708.72 52.12C709.187 52.52 709.567 52.9 709.86 53.26L707.92 54.98C707.667 54.6333 707.32 54.2467 706.88 53.82C706.44 53.38 705.967 52.9467 705.46 52.52C704.953 52.0933 704.467 51.7067 704 51.36ZM715.48 54.74H717.96V63.8H715.48V54.74ZM708.66 54.74H716.68V56.9H708.66V63.78H706.24V56.5L708.08 54.74H708.66ZM730.68 51.68H733.16V63.8H730.68V51.68ZM727.3 55.24V56.3H736.76V55.24H727.3ZM727.3 52.44V53.52H736.76V52.44H727.3ZM724.96 50.6H739.24V58.14H724.96V50.6ZM723.06 59.18H740.98V61.26H723.06V59.18ZM726.36 47.22V48.38H729.18V47.22H726.36ZM724.24 45.78H731.44V49.82H724.24V45.78ZM734.76 47.22V48.38H737.62V47.22H734.76ZM732.62 45.78H739.88V49.82H732.62V45.78ZM755.86 56.62L758.22 55.54C758.767 56.2867 759.32 57.0733 759.88 57.9C760.44 58.7267 760.967 59.54 761.46 60.34C761.953 61.14 762.353 61.8533 762.66 62.48L760.2 63.8C759.907 63.1733 759.52 62.4467 759.04 61.62C758.56 60.78 758.04 59.92 757.48 59.04C756.92 58.16 756.38 57.3533 755.86 56.62ZM749.9 45.46L752.58 46.32C752.087 47.4133 751.507 48.5067 750.84 49.6C750.187 50.68 749.493 51.7 748.76 52.66C748.04 53.6067 747.313 54.4333 746.58 55.14C746.42 54.9533 746.207 54.7333 745.94 54.48C745.687 54.2133 745.42 53.9533 745.14 53.7C744.873 53.4333 744.64 53.2267 744.44 53.08C745.147 52.48 745.84 51.7733 746.52 50.96C747.2 50.1333 747.827 49.2533 748.4 48.32C748.987 47.3733 749.487 46.42 749.9 45.46ZM747.06 63.08C747.007 62.9067 746.927 62.66 746.82 62.34C746.713 62.0333 746.593 61.7133 746.46 61.38C746.34 61.0333 746.22 60.74 746.1 60.5C746.433 60.4067 746.747 60.2267 747.04 59.96C747.333 59.6933 747.68 59.34 748.08 58.9C748.293 58.6867 748.593 58.3267 748.98 57.82C749.38 57.3133 749.82 56.7133 750.3 56.02C750.78 55.3133 751.253 54.5533 751.72 53.74C752.2 52.9267 752.64 52.1067 753.04 51.28L755.86 52.46C755.207 53.6067 754.493 54.74 753.72 55.86C752.947 56.9667 752.147 58.0133 751.32 59C750.507 59.9867 749.693 60.8733 748.88 61.66V61.72C748.88 61.72 748.787 61.7667 748.6 61.86C748.427 61.9533 748.213 62.0733 747.96 62.22C747.72 62.3667 747.507 62.5133 747.32 62.66C747.147 62.8067 747.06 62.9467 747.06 63.08ZM747.06 63.08L746.98 61.04L748.58 60.16L760.06 59.4C760.113 59.7733 760.2 60.18 760.32 60.62C760.44 61.06 760.533 61.42 760.6 61.7C758.773 61.8467 757.187 61.9733 755.84 62.08C754.507 62.2 753.367 62.2933 752.42 62.36C751.487 62.44 750.707 62.5067 750.08 62.56C749.467 62.6267 748.967 62.6867 748.58 62.74C748.207 62.7933 747.9 62.8467 747.66 62.9C747.433 62.9533 747.233 63.0133 747.06 63.08ZM755.78 45.5H758.58C758.887 46.4333 759.287 47.3533 759.78 48.26C760.273 49.1533 760.853 49.98 761.52 50.74C762.2 51.5 762.947 52.1333 763.76 52.64C763.587 52.8133 763.38 53.0467 763.14 53.34C762.9 53.6333 762.673 53.9333 762.46 54.24C762.247 54.5467 762.073 54.8267 761.94 55.08C761.06 54.4 760.26 53.6067 759.54 52.7C758.82 51.7933 758.187 50.84 757.64 49.84C757.093 48.8267 756.64 47.82 756.28 46.82H755.78V45.5ZM753.52 45.5H757.7V47.96H753.52V45.5ZM767.06 47.86H784.98V50.16H767.06V47.86ZM775.84 50.88H778.26V63.78H775.84V50.88ZM770.26 53.18H782.64V55.46H772.66V62H770.26V53.18ZM781.6 53.18H784.02V59.44C784.02 59.9867 783.947 60.4267 783.8 60.76C783.667 61.08 783.4 61.3267 783 61.5C782.627 61.6733 782.16 61.78 781.6 61.82C781.053 61.86 780.4 61.88 779.64 61.88C779.6 61.5467 779.507 61.1733 779.36 60.76C779.213 60.3467 779.06 59.9933 778.9 59.7C779.207 59.7133 779.513 59.72 779.82 59.72C780.14 59.72 780.42 59.72 780.66 59.72C780.913 59.72 781.087 59.72 781.18 59.72C781.34 59.72 781.447 59.7 781.5 59.66C781.567 59.6067 781.6 59.5133 781.6 59.38V53.18ZM773.48 44.96L775.96 45.52C775.48 47.16 774.867 48.78 774.12 50.38C773.387 51.98 772.493 53.4733 771.44 54.86C770.387 56.2333 769.147 57.4133 767.72 58.4C767.627 58.2 767.493 57.9733 767.32 57.72C767.16 57.4533 766.993 57.1933 766.82 56.94C766.647 56.6867 766.487 56.4733 766.34 56.3C767.287 55.6867 768.14 54.9533 768.9 54.1C769.673 53.2333 770.353 52.2933 770.94 51.28C771.527 50.2667 772.033 49.2267 772.46 48.16C772.887 47.08 773.227 46.0133 773.48 44.96Z" fill="#4C4C4C"/>
<path d="M543.54 325.28C542.753 325.28 542.053 325.187 541.44 325C540.827 324.813 540.28 324.567 539.8 324.26C539.32 323.953 538.893 323.62 538.52 323.26L539.88 321.38C540.16 321.66 540.46 321.913 540.78 322.14C541.113 322.367 541.473 322.547 541.86 322.68C542.26 322.813 542.687 322.88 543.14 322.88C543.647 322.88 544.093 322.773 544.48 322.56C544.88 322.347 545.193 322.04 545.42 321.64C545.647 321.227 545.76 320.733 545.76 320.16C545.76 319.307 545.527 318.647 545.06 318.18C544.607 317.713 544.007 317.48 543.26 317.48C542.833 317.48 542.467 317.54 542.16 317.66C541.853 317.767 541.48 317.96 541.04 318.24L539.7 317.38L540.1 310.18H548.02V312.66H542.64L542.36 315.8C542.653 315.667 542.94 315.567 543.22 315.5C543.5 315.433 543.807 315.4 544.14 315.4C544.967 315.4 545.727 315.567 546.42 315.9C547.113 316.22 547.667 316.727 548.08 317.42C548.493 318.113 548.7 319 548.7 320.08C548.7 321.173 548.453 322.113 547.96 322.9C547.48 323.673 546.847 324.267 546.06 324.68C545.287 325.08 544.447 325.28 543.54 325.28ZM552.077 328.62L557.057 308.88H558.997L554.037 328.62H552.077ZM563.171 325V322.6H566.371V313.26H563.671V311.42C564.418 311.287 565.058 311.127 565.591 310.94C566.138 310.74 566.645 310.487 567.111 310.18H569.291V322.6H572.071V325H563.171ZM581.228 325.28C580.228 325.28 579.348 324.993 578.588 324.42C577.841 323.833 577.255 322.967 576.828 321.82C576.415 320.66 576.208 319.227 576.208 317.52C576.208 315.827 576.415 314.42 576.828 313.3C577.255 312.167 577.841 311.32 578.588 310.76C579.348 310.2 580.228 309.92 581.228 309.92C582.241 309.92 583.121 310.207 583.868 310.78C584.615 311.34 585.195 312.18 585.608 313.3C586.035 314.42 586.248 315.827 586.248 317.52C586.248 319.227 586.035 320.66 585.608 321.82C585.195 322.967 584.615 323.833 583.868 324.42C583.121 324.993 582.241 325.28 581.228 325.28ZM581.228 322.98C581.668 322.98 582.055 322.813 582.388 322.48C582.721 322.147 582.981 321.587 583.168 320.8C583.355 320 583.448 318.907 583.448 317.52C583.448 316.147 583.355 315.073 583.168 314.3C582.981 313.513 582.721 312.967 582.388 312.66C582.055 312.34 581.668 312.18 581.228 312.18C580.815 312.18 580.435 312.34 580.088 312.66C579.755 312.967 579.488 313.513 579.288 314.3C579.088 315.073 578.988 316.147 578.988 317.52C578.988 318.907 579.088 320 579.288 320.8C579.488 321.587 579.755 322.147 580.088 322.48C580.435 322.813 580.815 322.98 581.228 322.98Z" fill="#4C4C4C"/>
<path d="M512.9 358.88H517.28V360.16H512.9V358.88ZM509.5 360.78H516.82V362.14H509.5V360.78ZM513.86 366.64H515.66V369.56C515.66 369.813 515.68 369.96 515.72 370C515.747 370.027 515.78 370.053 515.82 370.08C515.86 370.093 515.907 370.1 515.96 370.1C516 370.1 516.053 370.1 516.12 370.1C516.2 370.1 516.273 370.1 516.34 370.1C516.393 370.1 516.447 370.1 516.5 370.1C516.567 370.087 516.607 370.073 516.62 370.06C516.7 370.033 516.767 369.94 516.82 369.78C516.847 369.7 516.86 369.567 516.86 369.38C516.873 369.193 516.887 368.98 516.9 368.74C517.06 368.887 517.287 369.033 517.58 369.18C517.873 369.327 518.147 369.447 518.4 369.54C518.373 369.807 518.34 370.073 518.3 370.34C518.26 370.593 518.2 370.78 518.12 370.9C518.053 371.033 517.96 371.147 517.84 371.24C517.733 371.333 517.6 371.407 517.44 371.46C517.333 371.5 517.187 371.533 517 371.56C516.827 371.587 516.673 371.6 516.54 371.6C516.433 371.6 516.32 371.6 516.2 371.6C516.08 371.6 515.96 371.6 515.84 371.6C515.72 371.6 515.613 371.6 515.52 371.6C515.32 371.6 515.1 371.567 514.86 371.5C514.62 371.433 514.433 371.327 514.3 371.18C514.14 371.033 514.027 370.847 513.96 370.62C513.893 370.38 513.86 369.993 513.86 369.46V366.64ZM511.84 358.02H513.82V361.18H511.84V358.02ZM510.64 363.12L515.98 362.8L516.08 364L510.74 364.36L510.64 363.12ZM508.52 360.78H510.4V363.74C510.4 364.353 510.367 365.02 510.3 365.74C510.233 366.447 510.113 367.173 509.94 367.92C509.78 368.667 509.547 369.393 509.24 370.1C508.933 370.793 508.533 371.433 508.04 372.02C507.947 371.887 507.813 371.727 507.64 371.54C507.48 371.34 507.3 371.153 507.1 370.98C506.913 370.807 506.76 370.687 506.64 370.62C507.2 369.94 507.613 369.193 507.88 368.38C508.147 367.567 508.32 366.76 508.4 365.96C508.48 365.147 508.52 364.4 508.52 363.72V360.78ZM515.62 355.98L517.44 357.48C516.413 357.747 515.28 357.973 514.04 358.16C512.8 358.347 511.527 358.493 510.22 358.6C508.927 358.707 507.66 358.793 506.42 358.86C506.393 358.633 506.327 358.353 506.22 358.02C506.113 357.687 506 357.413 505.88 357.2C506.76 357.147 507.653 357.087 508.56 357.02C509.467 356.94 510.353 356.847 511.22 356.74C512.087 356.633 512.893 356.52 513.64 356.4C514.4 356.28 515.06 356.14 515.62 355.98ZM511.18 366.64H513.04C513.027 367.613 512.953 368.453 512.82 369.16C512.687 369.867 512.427 370.453 512.04 370.92C511.653 371.387 511.067 371.76 510.28 372.04C510.2 371.813 510.06 371.56 509.86 371.28C509.673 371 509.487 370.773 509.3 370.6C509.873 370.4 510.287 370.14 510.54 369.82C510.807 369.487 510.98 369.067 511.06 368.56C511.14 368.04 511.18 367.4 511.18 366.64ZM516.16 360.78H516.46L516.76 360.7L518.14 361.08C518.047 361.507 517.933 361.953 517.8 362.42C517.68 362.887 517.56 363.28 517.44 363.6L515.82 363.06C515.873 362.78 515.933 362.453 516 362.08C516.08 361.693 516.133 361.333 516.16 361V360.78ZM505.88 357.2H507.82V361.64C507.82 362.307 507.787 363.04 507.72 363.84C507.667 364.627 507.56 365.44 507.4 366.28C507.24 367.12 507.013 367.933 506.72 368.72C506.44 369.493 506.073 370.2 505.62 370.84C505.54 370.693 505.413 370.513 505.24 370.3C505.08 370.073 504.907 369.867 504.72 369.68C504.533 369.48 504.387 369.34 504.28 369.26C504.773 368.513 505.127 367.693 505.34 366.8C505.567 365.907 505.713 365.013 505.78 364.12C505.847 363.213 505.88 362.38 505.88 361.62V357.2ZM511.92 361.74H513.66V364.16C513.66 364.4 513.687 364.567 513.74 364.66C513.793 364.74 513.907 364.78 514.08 364.78C514.173 364.78 514.3 364.78 514.46 364.78C514.633 364.78 514.82 364.78 515.02 364.78C515.22 364.78 515.407 364.78 515.58 364.78C515.767 364.78 515.9 364.78 515.98 364.78C516.167 364.78 516.387 364.773 516.64 364.76C516.907 364.747 517.12 364.72 517.28 364.68C517.307 364.893 517.327 365.14 517.34 365.42C517.367 365.7 517.4 365.94 517.44 366.14C517.28 366.193 517.073 366.227 516.82 366.24C516.567 366.253 516.307 366.26 516.04 366.26C515.947 366.26 515.8 366.26 515.6 366.26C515.4 366.26 515.187 366.26 514.96 366.26C514.747 366.26 514.54 366.26 514.34 366.26C514.153 366.26 514.02 366.26 513.94 366.26C513.113 366.26 512.567 366.1 512.3 365.78C512.047 365.46 511.92 364.913 511.92 364.14V361.74ZM500.26 357.08L502.06 356C502.513 356.48 502.973 357.007 503.44 357.58C503.907 358.14 504.273 358.627 504.54 359.04L502.68 360.32C502.52 360.04 502.3 359.713 502.02 359.34C501.74 358.953 501.447 358.567 501.14 358.18C500.833 357.78 500.54 357.413 500.26 357.08ZM499.84 360.68H503.52V362.58H499.84V360.68ZM503.88 369.36C504.253 370.253 504.753 370.92 505.38 371.36C506.02 371.787 506.807 372.067 507.74 372.2C508.673 372.32 509.74 372.387 510.94 372.4C511.647 372.4 512.453 372.387 513.36 372.36C514.28 372.333 515.2 372.3 516.12 372.26C517.053 372.207 517.9 372.14 518.66 372.06C518.54 372.22 518.427 372.433 518.32 372.7C518.227 372.967 518.14 373.24 518.06 373.52C517.993 373.8 517.933 374.053 517.88 374.28C517.187 374.307 516.447 374.333 515.66 374.36C514.887 374.4 514.093 374.427 513.28 374.44C512.48 374.453 511.687 374.46 510.9 374.46C509.727 374.46 508.687 374.4 507.78 374.28C506.887 374.173 506.093 373.967 505.4 373.66C504.707 373.367 504.107 372.927 503.6 372.34C503.093 371.753 502.66 370.973 502.3 370L503.88 369.36ZM502.72 365.54H503.44L503.82 365.48L504.82 365.88C504.553 368.04 504.1 369.873 503.46 371.38C502.82 372.873 502.013 374.027 501.04 374.84C500.933 374.68 500.78 374.493 500.58 374.28C500.393 374.08 500.2 373.88 500 373.68C499.8 373.493 499.62 373.353 499.46 373.26C500.353 372.567 501.073 371.593 501.62 370.34C502.167 369.087 502.533 367.607 502.72 365.9V365.54ZM500.22 367.7V365.98L501.08 365.54H503.78V367.4H501.42C501.193 367.4 500.96 367.427 500.72 367.48C500.48 367.533 500.313 367.607 500.22 367.7ZM500.22 367.7C500.18 367.527 500.113 367.32 500.02 367.08C499.927 366.84 499.827 366.6 499.72 366.36C499.627 366.12 499.54 365.927 499.46 365.78C499.62 365.727 499.773 365.66 499.92 365.58C500.08 365.487 500.247 365.34 500.42 365.14C500.54 365.007 500.713 364.767 500.94 364.42C501.167 364.06 501.407 363.66 501.66 363.22C501.927 362.78 502.173 362.353 502.4 361.94C502.64 361.527 502.833 361.18 502.98 360.9V360.82L503.56 360.6L505 361.14C504.813 361.487 504.587 361.893 504.32 362.36C504.053 362.827 503.767 363.313 503.46 363.82C503.167 364.313 502.873 364.787 502.58 365.24C502.3 365.693 502.033 366.08 501.78 366.4C501.78 366.4 501.7 366.447 501.54 366.54C501.393 366.62 501.213 366.727 501 366.86C500.787 366.993 500.6 367.133 500.44 367.28C500.293 367.427 500.22 367.567 500.22 367.7ZM528.32 358.52H540.36V360.7H528.32V358.52ZM530.26 365.46H538.32V367.32H530.26V365.46ZM530.26 368.7H538.32V370.56H530.26V368.7ZM533 356.02H535.3V374.64H533V356.02ZM528.78 362.08H538.32V364.1H531V374.78H528.78V362.08ZM537.44 362.08H539.7V372.44C539.7 372.92 539.653 373.307 539.56 373.6C539.467 373.907 539.267 374.16 538.96 374.36C538.667 374.533 538.313 374.64 537.9 374.68C537.5 374.72 537.04 374.74 536.52 374.74C536.48 374.433 536.4 374.08 536.28 373.68C536.16 373.28 536.027 372.94 535.88 372.66C536.16 372.673 536.42 372.68 536.66 372.68C536.913 372.68 537.093 372.673 537.2 372.66C537.36 372.66 537.44 372.573 537.44 372.4V362.08ZM535.88 357.22L537.2 355.96C537.707 356.2 538.227 356.493 538.76 356.84C539.293 357.187 539.713 357.513 540.02 357.82L538.6 359.2C538.32 358.893 537.92 358.553 537.4 358.18C536.88 357.807 536.373 357.487 535.88 357.22ZM523.9 366.32L526.08 363.94V374.7H523.9V366.32ZM521.98 359.4H526.54V361.48H521.98V359.4ZM525.8 364.28C525.92 364.4 526.1 364.62 526.34 364.94C526.593 365.247 526.86 365.58 527.14 365.94C527.433 366.3 527.7 366.64 527.94 366.96C528.18 367.267 528.347 367.48 528.44 367.6L527.16 369.2C527.027 368.933 526.853 368.627 526.64 368.28C526.427 367.92 526.193 367.547 525.94 367.16C525.687 366.76 525.447 366.393 525.22 366.06C525.007 365.727 524.827 365.46 524.68 365.26L525.8 364.28ZM525.9 359.4H526.36L526.76 359.32L527.98 360.08C527.593 361.28 527.1 362.48 526.5 363.68C525.9 364.867 525.247 365.987 524.54 367.04C523.847 368.08 523.147 368.96 522.44 369.68C522.373 369.493 522.267 369.267 522.12 369C521.987 368.733 521.847 368.473 521.7 368.22C521.553 367.967 521.413 367.78 521.28 367.66C521.92 367.06 522.54 366.327 523.14 365.46C523.74 364.593 524.28 363.667 524.76 362.68C525.253 361.693 525.633 360.747 525.9 359.84V359.4ZM527.44 363.32L528.92 364.36C528.573 364.733 528.247 365.113 527.94 365.5C527.647 365.887 527.367 366.22 527.1 366.5L526.04 365.68C526.267 365.373 526.513 364.987 526.78 364.52C527.06 364.053 527.28 363.653 527.44 363.32ZM523.12 357L525.04 356.12C525.36 356.493 525.673 356.913 525.98 357.38C526.287 357.833 526.52 358.233 526.68 358.58L524.68 359.6C524.533 359.253 524.307 358.833 524 358.34C523.707 357.847 523.413 357.4 523.12 357ZM547.2 356L549.42 356.66C549.047 357.82 548.6 358.993 548.08 360.18C547.573 361.367 547.013 362.493 546.4 363.56C545.8 364.613 545.167 365.54 544.5 366.34C544.433 366.153 544.333 365.893 544.2 365.56C544.067 365.227 543.92 364.893 543.76 364.56C543.6 364.227 543.46 363.953 543.34 363.74C543.873 363.113 544.38 362.387 544.86 361.56C545.34 360.733 545.78 359.847 546.18 358.9C546.58 357.94 546.92 356.973 547.2 356ZM545.6 361.58L547.88 359.3L547.94 359.34V374.76H545.6V361.58ZM548.76 361.08H562.16V363.28H548.76V361.08ZM552.06 367.3H560.34V369.02H552.06V367.3ZM552.02 370.14H560.34V371.86H552.02V370.14ZM549.36 357.62H561.68V359.82H549.36V357.62ZM554.8 365.04H556.96V374.38H554.8V365.04ZM552.22 356.08H554.52V362.1H552.22V356.08ZM556.94 356.08H559.24V362.1H556.94V356.08ZM559.2 364.34H561.46V372.66C561.46 373.127 561.407 373.493 561.3 373.76C561.193 374.027 560.987 374.24 560.68 374.4C560.387 374.547 560.033 374.633 559.62 374.66C559.22 374.7 558.767 374.72 558.26 374.72C558.207 374.44 558.113 374.127 557.98 373.78C557.86 373.433 557.733 373.14 557.6 372.9C557.853 372.913 558.113 372.92 558.38 372.92C558.66 372.92 558.847 372.913 558.94 372.9C559.113 372.9 559.2 372.813 559.2 372.64V364.34ZM551.76 362.14L553.88 362.82C553.347 363.847 552.653 364.827 551.8 365.76C550.96 366.68 550.087 367.44 549.18 368.04C549.1 367.893 548.973 367.693 548.8 367.44C548.64 367.187 548.467 366.933 548.28 366.68C548.107 366.427 547.953 366.22 547.82 366.06C548.607 365.62 549.353 365.053 550.06 364.36C550.78 363.667 551.347 362.927 551.76 362.14ZM551.2 364.34H560.38V366.26H551.2V364.34ZM550.32 364.34H552.62V368.32C552.62 369.013 552.58 369.767 552.5 370.58C552.42 371.38 552.253 372.16 552 372.92C551.747 373.68 551.373 374.353 550.88 374.94C550.76 374.807 550.573 374.653 550.32 374.48C550.08 374.307 549.827 374.133 549.56 373.96C549.307 373.787 549.093 373.653 548.92 373.56C549.347 373.053 549.653 372.5 549.84 371.9C550.04 371.287 550.167 370.667 550.22 370.04C550.287 369.413 550.32 368.82 550.32 368.26V364.34ZM575.38 358.58H582.2V360.92H575.38V358.58ZM565.86 357.14H575.96V359.36H565.86V357.14ZM568.5 361.26H573.3V363.4H568.5V361.26ZM568.5 365.42H573.3V367.56H568.5V365.42ZM581.54 358.58H581.96L582.38 358.5L583.94 358.9C583.687 361.607 583.22 363.967 582.54 365.98C581.873 367.993 581 369.713 579.92 371.14C578.84 372.567 577.54 373.74 576.02 374.66C575.847 374.353 575.607 374 575.3 373.6C575.007 373.213 574.727 372.913 574.46 372.7C575.793 371.993 576.947 371 577.92 369.72C578.893 368.427 579.687 366.887 580.3 365.1C580.927 363.3 581.34 361.3 581.54 359.1V358.58ZM577.74 360.98C578.06 362.7 578.52 364.32 579.12 365.84C579.72 367.36 580.48 368.707 581.4 369.88C582.32 371.053 583.42 371.987 584.7 372.68C584.527 372.827 584.327 373.013 584.1 373.24C583.887 373.48 583.687 373.72 583.5 373.96C583.313 374.213 583.16 374.447 583.04 374.66C581.64 373.807 580.447 372.733 579.46 371.44C578.487 370.147 577.68 368.653 577.04 366.96C576.4 365.267 575.867 363.42 575.44 361.42L577.74 360.98ZM567.24 358.04H569.52V371.12H567.24V358.04ZM572.38 358.04H574.68V374.78H572.38V358.04ZM565.38 370.24C566.047 370.173 566.8 370.087 567.64 369.98C568.493 369.873 569.393 369.753 570.34 369.62C571.3 369.487 572.247 369.353 573.18 369.22L573.3 371.42C572.007 371.647 570.7 371.867 569.38 372.08C568.06 372.28 566.88 372.467 565.84 372.64L565.38 370.24ZM596.02 359.9L597.56 358.62C598.16 358.82 598.813 359.067 599.52 359.36C600.24 359.653 600.933 359.953 601.6 360.26C602.267 360.553 602.82 360.84 603.26 361.12L601.62 362.54C601.22 362.287 600.693 362 600.04 361.68C599.4 361.36 598.727 361.047 598.02 360.74C597.313 360.42 596.647 360.14 596.02 359.9ZM594.16 361.02H604.22V362.76H596.28V371.38H594.16V361.02ZM603.36 361.02H605.52V369.38C605.52 369.847 605.467 370.213 605.36 370.48C605.253 370.733 605.04 370.94 604.72 371.1C604.427 371.247 604.06 371.333 603.62 371.36C603.193 371.387 602.68 371.4 602.08 371.4C602.053 371.133 601.98 370.833 601.86 370.5C601.753 370.167 601.64 369.873 601.52 369.62C601.84 369.633 602.147 369.64 602.44 369.64C602.747 369.64 602.953 369.64 603.06 369.64C603.18 369.64 603.26 369.62 603.3 369.58C603.34 369.54 603.36 369.467 603.36 369.36V361.02ZM594.4 356.68H603.92V358.44H594.4V356.68ZM595.46 363.84H604.06V365.52H595.46V363.84ZM595.46 366.64H604.06V368.38H595.46V366.64ZM598.74 361.84H600.78V371.3H598.74V361.84ZM603.06 356.68H603.62L604.08 356.56L605.5 357.7C605.033 358.14 604.507 358.587 603.92 359.04C603.347 359.493 602.747 359.92 602.12 360.32C601.493 360.707 600.873 361.047 600.26 361.34C600.127 361.14 599.933 360.907 599.68 360.64C599.44 360.373 599.24 360.16 599.08 360C599.587 359.76 600.093 359.473 600.6 359.14C601.12 358.793 601.593 358.44 602.02 358.08C602.46 357.72 602.807 357.393 603.06 357.1V356.68ZM588.36 357.1L590.14 356C590.46 356.32 590.787 356.66 591.12 357.02C591.453 357.38 591.767 357.733 592.06 358.08C592.367 358.427 592.613 358.74 592.8 359.02L590.98 360.34C590.807 360.047 590.567 359.713 590.26 359.34C589.967 358.967 589.653 358.587 589.32 358.2C588.987 357.8 588.667 357.433 588.36 357.1ZM587.86 360.68H592.1V362.58H587.86V360.68ZM591.92 369.36C592.28 370.253 592.773 370.92 593.4 371.36C594.04 371.787 594.82 372.067 595.74 372.2C596.673 372.32 597.747 372.387 598.96 372.4C599.667 372.4 600.473 372.387 601.38 372.36C602.287 372.333 603.2 372.293 604.12 372.24C605.053 372.187 605.9 372.127 606.66 372.06C606.553 372.22 606.447 372.433 606.34 372.7C606.233 372.967 606.14 373.24 606.06 373.52C605.993 373.8 605.933 374.053 605.88 374.28C605.2 374.32 604.467 374.353 603.68 374.38C602.907 374.42 602.113 374.44 601.3 374.44C600.487 374.453 599.687 374.46 598.9 374.46C597.74 374.46 596.707 374.407 595.8 374.3C594.893 374.193 594.093 373.987 593.4 373.68C592.72 373.373 592.127 372.927 591.62 372.34C591.113 371.753 590.673 370.98 590.3 370.02L591.92 369.36ZM591.42 365.54H592L592.38 365.48L593.52 365.9C593.187 368.113 592.62 369.96 591.82 371.44C591.02 372.92 590.04 374.04 588.88 374.8C588.787 374.653 588.647 374.473 588.46 374.26C588.273 374.06 588.08 373.86 587.88 373.66C587.68 373.46 587.5 373.307 587.34 373.2C588.42 372.547 589.307 371.607 590 370.38C590.707 369.153 591.18 367.66 591.42 365.9V365.54ZM588.22 367.7V365.98L589.08 365.54H592.1L592.08 367.4H589.46C589.22 367.4 588.973 367.427 588.72 367.48C588.48 367.533 588.313 367.607 588.22 367.7ZM588.22 367.7C588.18 367.527 588.113 367.32 588.02 367.08C587.927 366.827 587.827 366.58 587.72 366.34C587.613 366.087 587.527 365.893 587.46 365.76C587.62 365.72 587.787 365.653 587.96 365.56C588.133 365.467 588.313 365.32 588.5 365.12C588.647 364.973 588.853 364.727 589.12 364.38C589.387 364.033 589.673 363.647 589.98 363.22C590.3 362.78 590.6 362.353 590.88 361.94C591.173 361.527 591.407 361.18 591.58 360.9V360.82L592.18 360.58L593.64 361.24C593.413 361.573 593.14 361.973 592.82 362.44C592.5 362.893 592.16 363.36 591.8 363.84C591.453 364.32 591.107 364.787 590.76 365.24C590.427 365.693 590.12 366.08 589.84 366.4C589.84 366.4 589.76 366.44 589.6 366.52C589.44 366.6 589.247 366.713 589.02 366.86C588.807 366.993 588.62 367.133 588.46 367.28C588.3 367.427 588.22 367.567 588.22 367.7ZM620.78 370.5H626.26V372.76H620.78V370.5ZM619.72 357.74H627.38V373.92H624.96V359.98H622.04V374.22H619.72V357.74ZM613.46 359.62H615.88V363.46C615.88 364.313 615.82 365.24 615.7 366.24C615.593 367.24 615.367 368.253 615.02 369.28C614.687 370.307 614.207 371.293 613.58 372.24C612.967 373.173 612.16 374.007 611.16 374.74C611.053 374.567 610.893 374.36 610.68 374.12C610.467 373.88 610.247 373.647 610.02 373.42C609.807 373.193 609.613 373.027 609.44 372.92C610.36 372.267 611.087 371.547 611.62 370.76C612.167 369.96 612.567 369.14 612.82 368.3C613.087 367.447 613.26 366.607 613.34 365.78C613.42 364.94 613.46 364.16 613.46 363.44V359.62ZM611.82 358.54H618.7V360.76H611.82V358.54ZM609.74 363.94H619.18V366.2H609.74V363.94ZM615.3 366.74C615.46 366.887 615.68 367.113 615.96 367.42C616.253 367.713 616.567 368.047 616.9 368.42C617.233 368.793 617.567 369.167 617.9 369.54C618.233 369.913 618.527 370.253 618.78 370.56C619.047 370.853 619.24 371.073 619.36 371.22L617.74 373.26C617.553 372.967 617.333 372.64 617.08 372.28C616.827 371.907 616.553 371.527 616.26 371.14C615.967 370.753 615.673 370.373 615.38 370C615.087 369.627 614.8 369.28 614.52 368.96C614.253 368.627 614.02 368.34 613.82 368.1L615.3 366.74ZM611.6 356.02L613.9 356.48C613.74 357.36 613.527 358.227 613.26 359.08C612.993 359.92 612.693 360.72 612.36 361.48C612.027 362.227 611.673 362.88 611.3 363.44C611.153 363.307 610.96 363.153 610.72 362.98C610.493 362.807 610.253 362.633 610 362.46C609.747 362.287 609.533 362.153 609.36 362.06C609.907 361.327 610.367 360.42 610.74 359.34C611.127 358.26 611.413 357.153 611.6 356.02Z" fill="#4C4C4C"/>
<path d="M859.54 325.28C858.753 325.28 858.053 325.187 857.44 325C856.827 324.813 856.28 324.567 855.8 324.26C855.32 323.953 854.893 323.62 854.52 323.26L855.88 321.38C856.16 321.66 856.46 321.913 856.78 322.14C857.113 322.367 857.473 322.547 857.86 322.68C858.26 322.813 858.687 322.88 859.14 322.88C859.647 322.88 860.093 322.773 860.48 322.56C860.88 322.347 861.193 322.04 861.42 321.64C861.647 321.227 861.76 320.733 861.76 320.16C861.76 319.307 861.527 318.647 861.06 318.18C860.607 317.713 860.007 317.48 859.26 317.48C858.833 317.48 858.467 317.54 858.16 317.66C857.853 317.767 857.48 317.96 857.04 318.24L855.7 317.38L856.1 310.18H864.02V312.66H858.64L858.36 315.8C858.653 315.667 858.94 315.567 859.22 315.5C859.5 315.433 859.807 315.4 860.14 315.4C860.967 315.4 861.727 315.567 862.42 315.9C863.113 316.22 863.667 316.727 864.08 317.42C864.493 318.113 864.7 319 864.7 320.08C864.7 321.173 864.453 322.113 863.96 322.9C863.48 323.673 862.847 324.267 862.06 324.68C861.287 325.08 860.447 325.28 859.54 325.28ZM868.077 328.62L873.057 308.88H874.997L870.037 328.62H868.077ZM878.391 325V323.3C879.738 322.1 880.885 320.987 881.831 319.96C882.791 318.933 883.525 317.98 884.031 317.1C884.538 316.207 884.791 315.38 884.791 314.62C884.791 314.14 884.705 313.72 884.531 313.36C884.358 313 884.105 312.727 883.771 312.54C883.451 312.34 883.051 312.24 882.571 312.24C882.038 312.24 881.545 312.393 881.091 312.7C880.651 312.993 880.245 313.347 879.871 313.76L878.231 312.18C878.925 311.433 879.631 310.873 880.351 310.5C881.085 310.113 881.951 309.92 882.951 309.92C883.885 309.92 884.698 310.113 885.391 310.5C886.098 310.873 886.645 311.4 887.031 312.08C887.418 312.76 887.611 313.56 887.611 314.48C887.611 315.373 887.385 316.287 886.931 317.22C886.491 318.14 885.898 319.06 885.151 319.98C884.405 320.9 883.578 321.807 882.671 322.7C883.058 322.647 883.471 322.607 883.911 322.58C884.365 322.54 884.765 322.52 885.111 322.52H888.311V325H878.391ZM898.068 325V315.9C898.068 315.473 898.081 314.967 898.108 314.38C898.135 313.78 898.161 313.26 898.188 312.82H898.088C897.915 313.22 897.728 313.62 897.528 314.02C897.328 314.42 897.121 314.827 896.908 315.24L894.608 318.92H902.568V321.16H891.748V319.16L897.268 310.18H900.808V325H898.068Z" fill="#4C4C4C"/>
<path d="M825.9 358.98H844.1V361.16H825.9V358.98ZM828.28 365.78H833.46V367.56H828.28V365.78ZM828.28 368.86H833.46V370.62H828.28V368.86ZM836.66 362.74H838.86V370.94H836.66V362.74ZM832.64 362.52H834.94V372.44C834.94 372.933 834.88 373.333 834.76 373.64C834.64 373.947 834.413 374.187 834.08 374.36C833.733 374.533 833.327 374.64 832.86 374.68C832.407 374.72 831.873 374.74 831.26 374.74C831.193 374.433 831.087 374.08 830.94 373.68C830.807 373.293 830.66 372.967 830.5 372.7C830.86 372.713 831.22 372.727 831.58 372.74C831.94 372.74 832.18 372.733 832.3 372.72C832.42 372.72 832.507 372.693 832.56 372.64C832.613 372.587 832.64 372.507 832.64 372.4V362.52ZM840.66 362.18H843.02V372.16C843.02 372.747 842.947 373.2 842.8 373.52C842.667 373.853 842.407 374.12 842.02 374.32C841.633 374.493 841.167 374.607 840.62 374.66C840.073 374.713 839.433 374.733 838.7 374.72C838.647 374.4 838.533 374.02 838.36 373.58C838.2 373.14 838.027 372.767 837.84 372.46C838.36 372.487 838.847 372.5 839.3 372.5C839.767 372.5 840.08 372.493 840.24 372.48C840.4 372.48 840.507 372.46 840.56 372.42C840.627 372.367 840.66 372.273 840.66 372.14V362.18ZM828.66 356.78L830.94 355.98C831.3 356.38 831.66 356.82 832.02 357.3C832.38 357.78 832.647 358.213 832.82 358.6L830.38 359.44C830.247 359.08 830.013 358.647 829.68 358.14C829.36 357.633 829.02 357.18 828.66 356.78ZM838.94 355.94L841.54 356.72C841.14 357.36 840.727 357.987 840.3 358.6C839.887 359.2 839.5 359.72 839.14 360.16L836.98 359.42C837.22 359.1 837.46 358.74 837.7 358.34C837.94 357.94 838.167 357.533 838.38 357.12C838.607 356.693 838.793 356.3 838.94 355.94ZM827.18 362.52H829.32V367.16C829.32 367.947 829.28 368.807 829.2 369.74C829.12 370.66 828.953 371.567 828.7 372.46C828.46 373.34 828.093 374.12 827.6 374.8C827.48 374.667 827.307 374.507 827.08 374.32C826.867 374.147 826.64 373.973 826.4 373.8C826.16 373.64 825.96 373.52 825.8 373.44C826.227 372.853 826.533 372.193 826.72 371.46C826.907 370.727 827.027 369.987 827.08 369.24C827.147 368.48 827.18 367.78 827.18 367.14V362.52ZM828.58 362.52H833.76V364.42H828.58V362.52ZM860.28 358.32V359.48H862.6V358.32H860.28ZM855.82 358.32V359.48H858.1V358.32H855.82ZM851.4 358.32V359.48H853.62V358.32H851.4ZM849.1 356.72H865.02V361.1H849.1V356.72ZM848.3 361.9H865.46V363.66H848.3V361.9ZM855.68 360.62L858.14 360.74C858.06 361.46 857.953 362.22 857.82 363.02C857.687 363.807 857.553 364.493 857.42 365.08H855.18C855.26 364.68 855.333 364.227 855.4 363.72C855.467 363.213 855.52 362.693 855.56 362.16C855.613 361.613 855.653 361.1 855.68 360.62ZM848.02 372.58H866.06V374.26H848.02V372.58ZM851.62 366.62H862.4V367.84H851.62V366.62ZM851.7 368.6H862.38V369.78H851.7V368.6ZM851.76 370.58H862.52V371.8H851.76V370.58ZM850.36 364.44H863.6V373.5H861.24V365.9H852.62V373.5H850.36V364.44ZM871 358.08H887.06V360.6H871V358.08ZM869.9 370.98H888.18V373.4H869.9V370.98ZM877.56 359.46H880.3V371.96H877.56V359.46ZM900.86 359.28H910.44V361.56H899.72L900.86 359.28ZM903.48 363.66H909.94V365.86H903.48V363.66ZM903.46 368.1H910.2V370.34H903.46V368.1ZM902.26 360.04H904.74V374.78H902.26V360.04ZM901.32 356.2L903.62 356.8C903.247 357.88 902.807 358.953 902.3 360.02C901.807 361.087 901.267 362.087 900.68 363.02C900.093 363.94 899.493 364.753 898.88 365.46C898.76 365.3 898.587 365.113 898.36 364.9C898.133 364.687 897.9 364.48 897.66 364.28C897.433 364.067 897.227 363.9 897.04 363.78C897.64 363.18 898.2 362.473 898.72 361.66C899.253 360.847 899.74 359.973 900.18 359.04C900.633 358.093 901.013 357.147 901.32 356.2ZM896.02 356.08L898.34 356.82C897.913 357.953 897.407 359.093 896.82 360.24C896.233 361.387 895.593 362.473 894.9 363.5C894.207 364.513 893.493 365.4 892.76 366.16C892.68 365.96 892.56 365.7 892.4 365.38C892.253 365.06 892.093 364.733 891.92 364.4C891.747 364.067 891.587 363.8 891.44 363.6C892.053 362.987 892.64 362.28 893.2 361.48C893.773 360.68 894.3 359.82 894.78 358.9C895.273 357.98 895.687 357.04 896.02 356.08ZM894 361.62L896.42 359.2V359.22V374.76H894V361.62ZM924.8 356.34L927.06 355.8C927.247 356.28 927.433 356.807 927.62 357.38C927.82 357.94 927.967 358.413 928.06 358.8L925.68 359.44C925.613 359.053 925.493 358.567 925.32 357.98C925.147 357.38 924.973 356.833 924.8 356.34ZM920.32 359.36H932.34V361.66H920.32V359.36ZM924.48 364.08H929.7V366.3H924.48V364.08ZM929.02 364.08H931.42C931.42 364.08 931.413 364.14 931.4 364.26C931.4 364.38 931.4 364.52 931.4 364.68C931.4 364.84 931.393 364.973 931.38 365.08C931.327 366.467 931.267 367.66 931.2 368.66C931.133 369.647 931.053 370.48 930.96 371.16C930.88 371.827 930.78 372.36 930.66 372.76C930.553 373.16 930.42 373.453 930.26 373.64C930.02 373.947 929.76 374.16 929.48 374.28C929.213 374.413 928.9 374.5 928.54 374.54C928.22 374.593 927.813 374.62 927.32 374.62C926.827 374.633 926.307 374.627 925.76 374.6C925.747 374.253 925.667 373.853 925.52 373.4C925.387 372.947 925.213 372.56 925 372.24C925.507 372.28 925.98 372.307 926.42 372.32C926.86 372.333 927.187 372.34 927.4 372.34C927.587 372.34 927.733 372.32 927.84 372.28C927.96 372.24 928.073 372.167 928.18 372.06C928.327 371.913 928.447 371.567 928.54 371.02C928.647 370.473 928.733 369.673 928.8 368.62C928.88 367.553 928.953 366.173 929.02 364.48V364.08ZM913.9 360.82H920.36V363.1H913.9V360.82ZM916.1 356.4H918.44V369.78H916.1V356.4ZM913.5 369.44C914.1 369.267 914.78 369.053 915.54 368.8C916.313 368.547 917.12 368.273 917.96 367.98C918.813 367.673 919.66 367.367 920.5 367.06L920.96 369.3C919.787 369.767 918.593 370.233 917.38 370.7C916.167 371.153 915.06 371.567 914.06 371.94L913.5 369.44ZM923.28 360.7H925.68V364.24C925.68 365.08 925.613 365.967 925.48 366.9C925.347 367.82 925.093 368.747 924.72 369.68C924.36 370.613 923.82 371.52 923.1 372.4C922.393 373.267 921.453 374.067 920.28 374.8C920.067 374.547 919.787 374.26 919.44 373.94C919.093 373.62 918.767 373.353 918.46 373.14C919.527 372.46 920.373 371.74 921 370.98C921.64 370.22 922.12 369.447 922.44 368.66C922.773 367.86 922.993 367.087 923.1 366.34C923.22 365.58 923.28 364.867 923.28 364.2V360.7Z" fill="#4C4C4C"/>
<path d="M996.32 106.28C995.627 106.28 994.953 106.133 994.3 105.84C993.66 105.547 993.093 105.1 992.6 104.5C992.107 103.887 991.713 103.113 991.42 102.18C991.14 101.233 991 100.107 991 98.8C991 97.4267 991.153 96.24 991.46 95.24C991.78 94.24 992.207 93.4267 992.74 92.8C993.273 92.16 993.88 91.6867 994.56 91.38C995.253 91.0733 995.98 90.92 996.74 90.92C997.647 90.92 998.427 91.0867 999.08 91.42C999.747 91.74 1000.3 92.1333 1000.74 92.6L999.18 94.36C998.927 94.0667 998.593 93.8133 998.18 93.6C997.767 93.3867 997.347 93.28 996.92 93.28C996.32 93.28 995.773 93.4533 995.28 93.8C994.8 94.1467 994.413 94.72 994.12 95.52C993.827 96.32 993.68 97.4133 993.68 98.8C993.68 100.08 993.793 101.107 994.02 101.88C994.26 102.64 994.573 103.193 994.96 103.54C995.347 103.887 995.78 104.06 996.26 104.06C996.633 104.06 996.967 103.96 997.26 103.76C997.567 103.547 997.813 103.24 998 102.84C998.187 102.427 998.28 101.92 998.28 101.32C998.28 100.733 998.187 100.253 998 99.88C997.827 99.5067 997.58 99.2267 997.26 99.04C996.953 98.8533 996.587 98.76 996.16 98.76C995.76 98.76 995.34 98.8867 994.9 99.14C994.46 99.38 994.053 99.8067 993.68 100.42L993.54 98.44C993.807 98.0667 994.12 97.7467 994.48 97.48C994.853 97.2133 995.233 97.0133 995.62 96.88C996.02 96.7467 996.38 96.68 996.7 96.68C997.527 96.68 998.26 96.8467 998.9 97.18C999.553 97.5133 1000.06 98.02 1000.42 98.7C1000.78 99.38 1000.96 100.253 1000.96 101.32C1000.96 102.333 1000.75 103.213 1000.32 103.96C999.907 104.693 999.347 105.267 998.64 105.68C997.933 106.08 997.16 106.28 996.32 106.28ZM1004.08 109.62L1009.06 89.88H1011L1006.04 109.62H1004.08ZM1017.25 106C1017.32 104.72 1017.43 103.54 1017.59 102.46C1017.75 101.367 1017.98 100.34 1018.27 99.38C1018.56 98.4067 1018.94 97.4533 1019.41 96.52C1019.89 95.5867 1020.48 94.6333 1021.19 93.66H1014.53V91.18H1024.37V92.98C1023.52 94.02 1022.82 95.02 1022.29 95.98C1021.77 96.94 1021.37 97.9133 1021.09 98.9C1020.82 99.8867 1020.62 100.953 1020.49 102.1C1020.37 103.247 1020.28 104.547 1020.21 106H1017.25ZM1034.84 101.34V99.22H1040.3V101.34H1034.84ZM1049.58 106.28C1048.89 106.28 1048.22 106.133 1047.56 105.84C1046.92 105.547 1046.36 105.1 1045.86 104.5C1045.37 103.887 1044.98 103.113 1044.68 102.18C1044.4 101.233 1044.26 100.107 1044.26 98.8C1044.26 97.4267 1044.42 96.24 1044.72 95.24C1045.04 94.24 1045.47 93.4267 1046 92.8C1046.54 92.16 1047.14 91.6867 1047.82 91.38C1048.52 91.0733 1049.24 90.92 1050 90.92C1050.91 90.92 1051.69 91.0867 1052.34 91.42C1053.01 91.74 1053.56 92.1333 1054 92.6L1052.44 94.36C1052.19 94.0667 1051.86 93.8133 1051.44 93.6C1051.03 93.3867 1050.61 93.28 1050.18 93.28C1049.58 93.28 1049.04 93.4533 1048.54 93.8C1048.06 94.1467 1047.68 94.72 1047.38 95.52C1047.09 96.32 1046.94 97.4133 1046.94 98.8C1046.94 100.08 1047.06 101.107 1047.28 101.88C1047.52 102.64 1047.84 103.193 1048.22 103.54C1048.61 103.887 1049.04 104.06 1049.52 104.06C1049.9 104.06 1050.23 103.96 1050.52 103.76C1050.83 103.547 1051.08 103.24 1051.26 102.84C1051.45 102.427 1051.54 101.92 1051.54 101.32C1051.54 100.733 1051.45 100.253 1051.26 99.88C1051.09 99.5067 1050.84 99.2267 1050.52 99.04C1050.22 98.8533 1049.85 98.76 1049.42 98.76C1049.02 98.76 1048.6 98.8867 1048.16 99.14C1047.72 99.38 1047.32 99.8067 1046.94 100.42L1046.8 98.44C1047.07 98.0667 1047.38 97.7467 1047.74 97.48C1048.12 97.2133 1048.5 97.0133 1048.88 96.88C1049.28 96.7467 1049.64 96.68 1049.96 96.68C1050.79 96.68 1051.52 96.8467 1052.16 97.18C1052.82 97.5133 1053.32 98.02 1053.68 98.7C1054.04 99.38 1054.22 100.253 1054.22 101.32C1054.22 102.333 1054.01 103.213 1053.58 103.96C1053.17 104.693 1052.61 105.267 1051.9 105.68C1051.2 106.08 1050.42 106.28 1049.58 106.28ZM1057.34 109.62L1062.32 89.88H1064.26L1059.3 109.62H1057.34ZM1072.69 106.28C1071.75 106.28 1070.9 106.113 1070.15 105.78C1069.41 105.447 1068.81 104.98 1068.37 104.38C1067.95 103.78 1067.73 103.093 1067.73 102.32C1067.73 101.68 1067.85 101.12 1068.07 100.64C1068.31 100.147 1068.63 99.72 1069.01 99.36C1069.4 99 1069.82 98.7 1070.27 98.46V98.36C1069.71 97.96 1069.25 97.4733 1068.87 96.9C1068.5 96.3133 1068.31 95.6333 1068.31 94.86C1068.31 94.06 1068.51 93.3667 1068.89 92.78C1069.28 92.1933 1069.81 91.74 1070.47 91.42C1071.15 91.1 1071.92 90.94 1072.77 90.94C1073.65 90.94 1074.41 91.1067 1075.05 91.44C1075.69 91.76 1076.19 92.2133 1076.53 92.8C1076.89 93.3867 1077.07 94.08 1077.07 94.88C1077.07 95.36 1076.98 95.8133 1076.79 96.24C1076.62 96.6667 1076.39 97.0533 1076.09 97.4C1075.81 97.7333 1075.51 98.02 1075.17 98.26V98.36C1075.64 98.6 1076.06 98.9 1076.43 99.26C1076.81 99.62 1077.11 100.053 1077.33 100.56C1077.56 101.053 1077.67 101.64 1077.67 102.32C1077.67 103.067 1077.46 103.74 1077.03 104.34C1076.62 104.94 1076.04 105.413 1075.29 105.76C1074.55 106.107 1073.68 106.28 1072.69 106.28ZM1073.61 97.54C1073.97 97.1533 1074.24 96.7533 1074.41 96.34C1074.59 95.9267 1074.67 95.5 1074.67 95.06C1074.67 94.66 1074.59 94.3067 1074.43 94C1074.29 93.68 1074.07 93.4333 1073.77 93.26C1073.48 93.0867 1073.13 93 1072.71 93C1072.21 93 1071.78 93.16 1071.43 93.48C1071.09 93.8 1070.91 94.26 1070.91 94.86C1070.91 95.3133 1071.03 95.7067 1071.25 96.04C1071.49 96.36 1071.82 96.64 1072.23 96.88C1072.65 97.1067 1073.11 97.3267 1073.61 97.54ZM1072.75 104.2C1073.18 104.2 1073.55 104.127 1073.87 103.98C1074.21 103.82 1074.47 103.593 1074.65 103.3C1074.84 102.993 1074.93 102.633 1074.93 102.22C1074.93 101.833 1074.85 101.5 1074.67 101.22C1074.51 100.927 1074.29 100.673 1073.99 100.46C1073.7 100.233 1073.35 100.027 1072.95 99.84C1072.55 99.6533 1072.11 99.4533 1071.63 99.24C1071.23 99.5733 1070.91 99.98 1070.65 100.46C1070.4 100.927 1070.27 101.44 1070.27 102C1070.27 102.44 1070.38 102.827 1070.59 103.16C1070.82 103.48 1071.12 103.733 1071.49 103.92C1071.87 104.107 1072.29 104.2 1072.75 104.2Z" fill="#4C4C4C"/>
<rect x="977" y="54" width="114" height="17" fill="#FFDB72"/>
<path d="M986.2 47.62V51.42H995.7V47.62H986.2ZM983.9 45.68H998.12V53.36H983.9V45.68ZM986.64 48.42L988.12 47.9C988.373 48.3267 988.607 48.7933 988.82 49.3C989.033 49.7933 989.173 50.2333 989.24 50.62L987.64 51.2C987.587 50.84 987.467 50.4 987.28 49.88C987.093 49.3467 986.88 48.86 986.64 48.42ZM983.62 54.32H998.4V56.2H983.62V54.32ZM982.04 57.22H999.98V59.3H982.04V57.22ZM989.78 46.48H992.18V58.3H989.78V46.48ZM993.68 47.84L995.46 48.46C995.22 48.98 994.973 49.4933 994.72 50C994.48 50.4933 994.26 50.9267 994.06 51.3L992.56 50.72C992.693 50.4533 992.833 50.1533 992.98 49.82C993.127 49.4867 993.26 49.1467 993.38 48.8C993.513 48.44 993.613 48.12 993.68 47.84ZM987.5 60.28L989.74 60.08C989.86 60.6133 989.953 61.1933 990.02 61.82C990.1 62.4467 990.14 62.9667 990.14 63.38L987.76 63.68C987.773 63.24 987.753 62.7 987.7 62.06C987.66 61.4333 987.593 60.84 987.5 60.28ZM991.54 60.36L993.8 59.9C994.027 60.42 994.24 60.98 994.44 61.58C994.64 62.18 994.78 62.7 994.86 63.14L992.44 63.68C992.387 63.2533 992.273 62.7267 992.1 62.1C991.927 61.4733 991.74 60.8933 991.54 60.36ZM995.48 60.24L997.72 59.5C998.027 59.86 998.34 60.2533 998.66 60.68C998.98 61.0933 999.28 61.5067 999.56 61.92C999.84 62.32 1000.06 62.6867 1000.22 63.02L997.82 63.86C997.687 63.54 997.487 63.1667 997.22 62.74C996.967 62.3267 996.687 61.9 996.38 61.46C996.073 61.02 995.773 60.6133 995.48 60.24ZM983.98 59.54L986.34 60.12C986.127 60.7867 985.827 61.46 985.44 62.14C985.053 62.82 984.633 63.4 984.18 63.88L981.86 62.88C982.287 62.5067 982.693 62.0133 983.08 61.4C983.467 60.7867 983.767 60.1667 983.98 59.54ZM1010.54 48.76L1013.08 49.28C1012.33 50.3467 1011.43 51.3333 1010.36 52.24C1009.29 53.1333 1007.99 53.9333 1006.44 54.64C1006.35 54.4533 1006.21 54.2467 1006.02 54.02C1005.83 53.7933 1005.63 53.5733 1005.42 53.36C1005.22 53.1467 1005.03 52.98 1004.86 52.86C1006.27 52.3267 1007.45 51.7 1008.38 50.98C1009.33 50.2467 1010.05 49.5067 1010.54 48.76ZM1011.2 50.12H1017.16V51.9H1009.56L1011.2 50.12ZM1016.46 50.12H1016.92L1017.32 50L1018.96 50.98C1018.28 52.0867 1017.43 53.0733 1016.4 53.94C1015.39 54.7933 1014.25 55.54 1012.98 56.18C1011.73 56.82 1010.39 57.36 1008.98 57.8C1007.57 58.24 1006.13 58.5933 1004.68 58.86C1004.61 58.6467 1004.51 58.4133 1004.38 58.16C1004.25 57.8933 1004.11 57.6333 1003.96 57.38C1003.83 57.1267 1003.69 56.9067 1003.54 56.72C1004.9 56.52 1006.24 56.24 1007.56 55.88C1008.88 55.52 1010.11 55.08 1011.26 54.56C1012.42 54.0267 1013.45 53.42 1014.34 52.74C1015.25 52.0467 1015.95 51.2867 1016.46 50.46V50.12ZM1010.14 51.46C1010.91 52.3267 1011.92 53.08 1013.16 53.72C1014.41 54.36 1015.83 54.8933 1017.42 55.32C1019.02 55.7333 1020.71 56.0267 1022.5 56.2C1022.33 56.3867 1022.14 56.62 1021.94 56.9C1021.75 57.1667 1021.57 57.4467 1021.4 57.74C1021.23 58.02 1021.09 58.2733 1020.98 58.5C1019.14 58.2467 1017.41 57.86 1015.8 57.34C1014.2 56.8067 1012.75 56.1333 1011.44 55.32C1010.13 54.4933 1009 53.5133 1008.04 52.38L1010.14 51.46ZM1007.28 57.52H1018.86V63.76H1016.4V59.5H1009.62V63.8H1007.28V57.52ZM1008.66 61.2H1017.64V63.18H1008.66V61.2ZM1004.4 46.64H1021.64V51.08H1019.18V48.82H1006.74V51.08H1004.4V46.64ZM1011.2 45.34L1013.6 44.76C1013.84 45.1867 1014.1 45.66 1014.38 46.18C1014.66 46.7 1014.88 47.1467 1015.04 47.52L1012.52 48.16C1012.39 47.8 1012.19 47.3533 1011.94 46.82C1011.69 46.2733 1011.44 45.78 1011.2 45.34ZM1025.8 48.96H1032.94V51.18H1025.8V48.96ZM1028.42 45H1030.6V63.78H1028.42V45ZM1028.4 50.6L1029.68 51.12C1029.55 51.9467 1029.37 52.8 1029.16 53.68C1028.95 54.5467 1028.7 55.4 1028.42 56.24C1028.15 57.0667 1027.86 57.84 1027.54 58.56C1027.22 59.2667 1026.89 59.88 1026.54 60.4C1026.47 60.16 1026.37 59.9 1026.24 59.62C1026.11 59.3267 1025.97 59.0333 1025.82 58.74C1025.67 58.4333 1025.53 58.1733 1025.4 57.96C1025.72 57.5467 1026.03 57.0533 1026.34 56.48C1026.65 55.8933 1026.93 55.2733 1027.2 54.62C1027.47 53.9533 1027.7 53.2733 1027.9 52.58C1028.11 51.8867 1028.28 51.2267 1028.4 50.6ZM1030.5 51.76C1030.63 51.9067 1030.82 52.1533 1031.06 52.5C1031.31 52.8333 1031.58 53.2067 1031.86 53.62C1032.14 54.02 1032.4 54.3933 1032.64 54.74C1032.88 55.0867 1033.05 55.3333 1033.14 55.48L1031.74 57.12C1031.62 56.8267 1031.46 56.4733 1031.26 56.06C1031.07 55.6467 1030.87 55.2267 1030.64 54.8C1030.41 54.36 1030.19 53.9533 1029.98 53.58C1029.77 53.1933 1029.59 52.8733 1029.44 52.62L1030.5 51.76ZM1033.46 63.04C1033.42 62.88 1033.35 62.66 1033.26 62.38C1033.18 62.1133 1033.09 61.8333 1032.98 61.54C1032.89 61.2467 1032.79 60.9933 1032.7 60.78C1032.95 60.7133 1033.18 60.5467 1033.38 60.28C1033.58 60 1033.81 59.6267 1034.06 59.16C1034.19 58.9333 1034.38 58.5667 1034.62 58.06C1034.86 57.54 1035.12 56.9267 1035.4 56.22C1035.68 55.5133 1035.96 54.76 1036.24 53.96C1036.52 53.1467 1036.77 52.3333 1037 51.52L1039.4 52.12C1039.03 53.3067 1038.6 54.48 1038.12 55.64C1037.64 56.7867 1037.14 57.88 1036.62 58.92C1036.11 59.9467 1035.6 60.88 1035.08 61.72V61.76C1035.08 61.76 1035 61.8067 1034.84 61.9C1034.68 61.98 1034.49 62.0867 1034.28 62.22C1034.07 62.3667 1033.87 62.5133 1033.7 62.66C1033.54 62.8067 1033.46 62.9333 1033.46 63.04ZM1033.46 63.04L1033.36 61.12L1034.54 60.34L1042.2 59.48C1042.21 59.8 1042.25 60.16 1042.32 60.56C1042.39 60.96 1042.45 61.2867 1042.5 61.54C1041.05 61.74 1039.82 61.9067 1038.82 62.04C1037.83 62.1867 1037.02 62.3 1036.38 62.38C1035.74 62.4733 1035.23 62.5533 1034.86 62.62C1034.49 62.7 1034.19 62.7667 1033.98 62.82C1033.78 62.8867 1033.61 62.96 1033.46 63.04ZM1039.38 56.86L1041.44 56.02C1041.76 56.7133 1042.1 57.46 1042.46 58.26C1042.82 59.0467 1043.16 59.82 1043.48 60.58C1043.8 61.3267 1044.05 61.9733 1044.24 62.52L1042.04 63.58C1041.87 62.9933 1041.63 62.32 1041.32 61.56C1041.03 60.7867 1040.71 59.9933 1040.36 59.18C1040.03 58.3533 1039.7 57.58 1039.38 56.86ZM1035.06 45.66L1037.32 46.12C1037.11 47.24 1036.85 48.3533 1036.54 49.46C1036.23 50.5667 1035.88 51.6133 1035.48 52.6C1035.08 53.5733 1034.63 54.4267 1034.12 55.16C1034.03 54.9867 1033.88 54.78 1033.68 54.54C1033.49 54.3 1033.29 54.06 1033.08 53.82C1032.87 53.58 1032.69 53.3933 1032.54 53.26C1032.97 52.6467 1033.34 51.9333 1033.66 51.12C1033.98 50.3067 1034.25 49.44 1034.48 48.52C1034.72 47.5867 1034.91 46.6333 1035.06 45.66ZM1038.8 45.54H1041.22C1041.41 46.5 1041.65 47.46 1041.94 48.42C1042.23 49.38 1042.58 50.2733 1042.98 51.1C1043.39 51.9133 1043.84 52.6067 1044.32 53.18C1044.15 53.3267 1043.95 53.5133 1043.72 53.74C1043.49 53.9667 1043.27 54.2067 1043.06 54.46C1042.86 54.7 1042.69 54.92 1042.56 55.12C1042.04 54.3867 1041.57 53.56 1041.14 52.64C1040.71 51.7067 1040.34 50.7267 1040.02 49.7C1039.71 48.6733 1039.45 47.66 1039.24 46.66H1038.8V45.54ZM1037.78 45.54H1040.84V47.54H1037.78V45.54ZM1057.22 46.34H1065.54V48.16H1057.22V46.34ZM1057 50.2H1065.96V52.06H1057V50.2ZM1058.08 48.66L1059.96 48.28C1060.12 48.6667 1060.27 49.08 1060.42 49.52C1060.58 49.9467 1060.7 50.32 1060.78 50.64L1058.8 51.12C1058.75 50.7867 1058.65 50.3867 1058.5 49.92C1058.37 49.4533 1058.23 49.0333 1058.08 48.66ZM1062.44 48.24L1064.52 48.6C1064.32 49.0667 1064.13 49.52 1063.94 49.96C1063.75 50.3867 1063.57 50.7667 1063.4 51.1L1061.66 50.74C1061.81 50.38 1061.95 49.9667 1062.1 49.5C1062.26 49.0333 1062.37 48.6133 1062.44 48.24ZM1058.66 56.92H1060.76C1060.67 57.9467 1060.5 58.9 1060.26 59.78C1060.03 60.66 1059.64 61.4467 1059.08 62.14C1058.53 62.8333 1057.74 63.42 1056.7 63.9C1056.59 63.6467 1056.41 63.3533 1056.14 63.02C1055.89 62.6867 1055.65 62.4267 1055.44 62.24C1056.31 61.8667 1056.96 61.42 1057.4 60.9C1057.84 60.3667 1058.15 59.7667 1058.32 59.1C1058.49 58.4333 1058.61 57.7067 1058.66 56.92ZM1061.48 56.92H1063.62V61.12C1063.62 61.4133 1063.64 61.5933 1063.68 61.66C1063.73 61.7133 1063.82 61.74 1063.94 61.74C1063.99 61.74 1064.06 61.74 1064.14 61.74C1064.22 61.74 1064.29 61.74 1064.36 61.74C1064.41 61.74 1064.47 61.7333 1064.52 61.72C1064.59 61.7067 1064.63 61.6933 1064.66 61.68C1064.74 61.6267 1064.81 61.4933 1064.86 61.28C1064.89 61.1467 1064.9 60.9467 1064.9 60.68C1064.91 60.4133 1064.93 60.1 1064.94 59.74C1065.13 59.9 1065.38 60.0667 1065.7 60.24C1066.02 60.4 1066.31 60.5267 1066.58 60.62C1066.57 60.9933 1066.53 61.3667 1066.48 61.74C1066.44 62.1133 1066.38 62.3867 1066.3 62.56C1066.15 62.92 1065.91 63.1733 1065.58 63.32C1065.45 63.3867 1065.27 63.44 1065.06 63.48C1064.85 63.52 1064.65 63.54 1064.48 63.54C1064.37 63.54 1064.25 63.54 1064.12 63.54C1063.99 63.54 1063.85 63.54 1063.72 63.54C1063.59 63.54 1063.47 63.54 1063.36 63.54C1063.13 63.54 1062.89 63.5 1062.62 63.42C1062.37 63.34 1062.16 63.2133 1062 63.04C1061.81 62.88 1061.68 62.66 1061.6 62.38C1061.52 62.1133 1061.48 61.6733 1061.48 61.06V56.92ZM1059.8 45.36L1061.9 44.96C1062.03 45.2667 1062.16 45.6133 1062.28 46C1062.41 46.3733 1062.51 46.6933 1062.58 46.96L1060.4 47.44C1060.36 47.16 1060.28 46.8267 1060.16 46.44C1060.04 46.04 1059.92 45.68 1059.8 45.36ZM1048.28 46.32H1056.58V48.14H1048.28V46.32ZM1047.94 50.22H1056.66V52.08H1047.94V50.22ZM1049.14 48.66L1051.06 48.26C1051.22 48.6467 1051.38 49.06 1051.54 49.5C1051.7 49.94 1051.83 50.3267 1051.92 50.66L1049.92 51.14C1049.85 50.8067 1049.75 50.4067 1049.6 49.94C1049.45 49.46 1049.3 49.0333 1049.14 48.66ZM1053.64 48.24L1055.76 48.6C1055.56 49.08 1055.37 49.54 1055.18 49.98C1055.01 50.42 1054.84 50.7933 1054.68 51.1L1052.9 50.74C1053.03 50.38 1053.17 49.9667 1053.32 49.5C1053.47 49.0333 1053.57 48.6133 1053.64 48.24ZM1050.02 57H1052.12C1052.05 57.9333 1051.92 58.8267 1051.72 59.68C1051.53 60.52 1051.21 61.28 1050.76 61.96C1050.32 62.64 1049.68 63.2267 1048.84 63.72C1048.72 63.4667 1048.53 63.1667 1048.26 62.82C1048.01 62.4867 1047.76 62.2333 1047.52 62.06C1048.19 61.6867 1048.69 61.24 1049.04 60.72C1049.39 60.2 1049.63 59.6267 1049.76 59C1049.89 58.36 1049.98 57.6933 1050.02 57ZM1050.98 45.32L1053.1 44.9C1053.25 45.22 1053.39 45.5667 1053.52 45.94C1053.65 46.3133 1053.75 46.6333 1053.82 46.9L1051.62 47.42C1051.57 47.14 1051.47 46.8067 1051.34 46.42C1051.22 46.02 1051.1 45.6533 1050.98 45.32ZM1053.16 63.12L1052.8 61.26L1053.34 60.56L1056.5 58.86C1056.54 59.14 1056.61 59.46 1056.7 59.82C1056.79 60.1667 1056.87 60.4533 1056.94 60.68C1056.22 61.1067 1055.63 61.46 1055.16 61.74C1054.71 62.02 1054.35 62.2467 1054.08 62.42C1053.81 62.5933 1053.61 62.7267 1053.48 62.82C1053.35 62.9267 1053.24 63.0267 1053.16 63.12ZM1050.76 54.3V55.82H1053.92V54.3H1050.76ZM1048.78 52.74H1056.02V57.36H1048.78V52.74ZM1053.16 63.12C1053.13 62.92 1053.07 62.68 1052.98 62.4C1052.9 62.1333 1052.81 61.86 1052.7 61.58C1052.61 61.2867 1052.51 61.0533 1052.4 60.88C1052.56 60.7867 1052.69 60.66 1052.8 60.5C1052.91 60.3267 1052.96 60.06 1052.96 59.7V56.98H1055V61.62C1055 61.62 1054.91 61.6667 1054.72 61.76C1054.53 61.8533 1054.32 61.98 1054.08 62.14C1053.84 62.3 1053.63 62.46 1053.44 62.62C1053.25 62.7933 1053.16 62.96 1053.16 63.12ZM1059.4 54.3V55.78H1063.08V54.3H1059.4ZM1057.42 52.76H1065.18V57.34H1057.42V52.76ZM1070.3 46.12H1087.76V49.48H1085.48V47.94H1072.48V49.48H1070.3V46.12ZM1075 48.2H1077.22V53.56H1075V48.2ZM1080.8 48.2H1083.04V53.56H1080.8V48.2ZM1072.34 48.86H1085.74V50.14H1072.34V48.86ZM1072.56 50.76H1085.6V51.96H1072.56V50.76ZM1070.18 52.52H1087.9V54.18H1070.18V52.52ZM1075.38 52.98L1077.12 53.68C1076.65 54.28 1076.09 54.8533 1075.42 55.4C1074.75 55.9333 1074.03 56.4133 1073.24 56.84C1072.47 57.2533 1071.68 57.5867 1070.88 57.84C1070.73 57.5867 1070.52 57.2933 1070.24 56.96C1069.96 56.6133 1069.7 56.3333 1069.46 56.12C1070.23 55.92 1070.99 55.6667 1071.74 55.36C1072.5 55.04 1073.19 54.68 1073.82 54.28C1074.46 53.88 1074.98 53.4467 1075.38 52.98ZM1082.88 52.86C1083.28 53.2867 1083.78 53.6867 1084.38 54.06C1084.98 54.4333 1085.64 54.7667 1086.36 55.06C1087.08 55.3533 1087.81 55.58 1088.56 55.74C1088.32 55.9533 1088.05 56.2467 1087.76 56.62C1087.47 56.98 1087.24 57.2933 1087.08 57.56C1086.32 57.32 1085.57 56.9933 1084.82 56.58C1084.09 56.1667 1083.41 55.7 1082.78 55.18C1082.15 54.6467 1081.61 54.0933 1081.16 53.52L1082.88 52.86ZM1075.4 57.66V58.24H1082.56V57.66H1075.4ZM1075.4 59.36V59.98H1082.56V59.36H1075.4ZM1075.4 55.96V56.54H1082.56V55.96H1075.4ZM1073.22 54.8H1084.86V61.14H1073.22V54.8ZM1079.86 61.9L1081.36 60.64C1082.09 60.84 1082.84 61.0467 1083.6 61.26C1084.37 61.4733 1085.11 61.68 1085.8 61.88C1086.49 62.08 1087.09 62.2733 1087.58 62.46L1085.6 63.74C1084.95 63.5 1084.1 63.2067 1083.06 62.86C1082.03 62.5267 1080.97 62.2067 1079.86 61.9ZM1076.34 60.62L1078.14 61.84C1077.61 62.12 1076.97 62.3867 1076.22 62.64C1075.47 62.8933 1074.69 63.1133 1073.88 63.3C1073.07 63.4867 1072.28 63.64 1071.52 63.76C1071.36 63.5467 1071.14 63.2867 1070.86 62.98C1070.59 62.6867 1070.35 62.44 1070.14 62.24C1070.87 62.1333 1071.64 61.9933 1072.44 61.82C1073.24 61.6467 1073.98 61.4533 1074.66 61.24C1075.35 61.0267 1075.91 60.82 1076.34 60.62ZM1077.58 45.36L1079.98 44.74C1080.15 45.02 1080.32 45.3467 1080.48 45.72C1080.65 46.08 1080.77 46.3933 1080.82 46.66L1078.3 47.36C1078.26 47.0933 1078.17 46.7733 1078.02 46.4C1077.89 46.0133 1077.74 45.6667 1077.58 45.36Z" fill="#4C4C4C"/>
<line x1="4" y1="208.5" x2="1123" y2="208.5" stroke="#4C4C4C" stroke-width="3"/>
<line x1="247" y1="269" x2="247" y2="202" stroke="#4C4C4C" stroke-width="2"/>
<circle cx="247" cy="264.996" r="4" fill="#EDEAE5" stroke="#4C4C4C" stroke-width="2"/>
<circle cx="247" cy="209" r="6" fill="#EDEAE5" stroke="#4C4C4C" stroke-width="2"/>
<line x1="405" y1="149" x2="405" y2="216" stroke="#4C4C4C" stroke-width="2"/>
<circle cx="405" cy="152" r="4" fill="#EDEAE5" stroke="#4C4C4C" stroke-width="2"/>
<circle cx="405" cy="209" r="6" fill="#EDEAE5" stroke="#4C4C4C" stroke-width="2"/>
<line x1="721" y1="149" x2="721" y2="216" stroke="#4C4C4C" stroke-width="2"/>
<circle cx="721" cy="152" r="4" fill="#EDEAE5" stroke="#4C4C4C" stroke-width="2"/>
<circle cx="721" cy="209" r="6" fill="#EDEAE5" stroke="#4C4C4C" stroke-width="2"/>
<line x1="879" y1="269" x2="879" y2="202" stroke="#4C4C4C" stroke-width="2"/>
<circle cx="879" cy="264.996" r="4" fill="#EDEAE5" stroke="#4C4C4C" stroke-width="2"/>
<circle cx="879" cy="209" r="6" fill="#EDEAE5" stroke="#4C4C4C" stroke-width="2"/>
<line x1="563" y1="269" x2="563" y2="202" stroke="#4C4C4C" stroke-width="2"/>
<circle cx="563" cy="264.996" r="4" fill="#EDEAE5" stroke="#4C4C4C" stroke-width="2"/>
<circle cx="563" cy="209" r="6" fill="#EDEAE5" stroke="#4C4C4C" stroke-width="2"/>
<line x1="1037" y1="149" x2="1037" y2="216" stroke="#4C4C4C" stroke-width="2"/>
<circle cx="1037" cy="152" r="4" fill="#EDEAE5" stroke="#4C4C4C" stroke-width="2"/>
<circle cx="1037" cy="209" r="6" fill="#EDEAE5" stroke="#4C4C4C" stroke-width="2"/>
<line x1="89" y1="149" x2="89" y2="216" stroke="#4C4C4C" stroke-width="2"/>
<circle cx="89" cy="152" r="4" fill="#EDEAE5" stroke="#4C4C4C" stroke-width="2"/>
<circle cx="89" cy="209" r="6" fill="#EDEAE5" stroke="#4C4C4C" stroke-width="2"/>
<defs>
<filter id="filter0_dii_774_1284" x="0" y="-4" width="1135" height="431" filterUnits="userSpaceOnUse" color-interpolation-filters="sRGB">
<feFlood flood-opacity="0" result="BackgroundImageFix"/>
<feColorMatrix in="SourceAlpha" type="matrix" values="0 0 0 0 0 0 0 0 0 0 0 0 0 0 0 0 0 0 127 0" result="hardAlpha"/>
<feOffset dx="3" dy="4"/>
<feGaussianBlur stdDeviation="3.5"/>
<feComposite in2="hardAlpha" operator="out"/>
<feColorMatrix type="matrix" values="0 0 0 0 0 0 0 0 0 0 0 0 0 0 0 0 0 0 0.08 0"/>
<feBlend mode="normal" in2="BackgroundImageFix" result="effect1_dropShadow_774_1284"/>
<feBlend mode="normal" in="SourceGraphic" in2="effect1_dropShadow_774_1284" result="shape"/>
<feColorMatrix in="SourceAlpha" type="matrix" values="0 0 0 0 0 0 0 0 0 0 0 0 0 0 0 0 0 0 127 0" result="hardAlpha"/>
<feOffset dx="4" dy="4"/>
<feGaussianBlur stdDeviation="4"/>
<feComposite in2="hardAlpha" operator="arithmetic" k2="-1" k3="1"/>
<feColorMatrix type="matrix" values="0 0 0 0 1 0 0 0 0 1 0 0 0 0 1 0 0 0 0.28 0"/>
<feBlend mode="normal" in2="shape" result="effect2_innerShadow_774_1284"/>
<feColorMatrix in="SourceAlpha" type="matrix" values="0 0 0 0 0 0 0 0 0 0 0 0 0 0 0 0 0 0 127 0" result="hardAlpha"/>
<feOffset dx="-4" dy="-4"/>
<feGaussianBlur stdDeviation="4"/>
<feComposite in2="hardAlpha" operator="arithmetic" k2="-1" k3="1"/>
<feColorMatrix type="matrix" values="0 0 0 0 0 0 0 0 0 0 0 0 0 0 0 0 0 0 0.08 0"/>
<feBlend mode="normal" in2="effect2_innerShadow_774_1284" result="effect3_innerShadow_774_1284"/>
</filter>
</defs>
</svg>
