<svg width="393" height="246" viewBox="0 0 393 246" fill="none" xmlns="http://www.w3.org/2000/svg">
<line x1="24" y1="130.087" x2="369" y2="130.087" stroke="#4C4C4C" stroke-width="1.65833"/>
<line x1="50.7637" y1="93.0221" x2="50.7637" y2="130.058" stroke="#4C4C4C" stroke-width="1.10556"/>
<line x1="142.053" y1="72.9166" x2="142.053" y2="129.917" stroke="#4C4C4C" stroke-width="1.10556"/>
<line x1="338.053" y1="72.9166" x2="338.053" y2="129.917" stroke="#4C4C4C" stroke-width="1.10556"/>
<line x1="239.764" y1="93.0221" x2="239.764" y2="130.058" stroke="#4C4C4C" stroke-width="1.10556"/>
<line x1="96.5528" y1="133.917" x2="96.5528" y2="170.953" stroke="#4C4C4C" stroke-width="1.10556"/>
<line x1="195.752" y1="133.917" x2="195.752" y2="170.953" stroke="#4C4C4C" stroke-width="1.10556"/>
<line x1="294.953" y1="133.917" x2="294.953" y2="170.953" stroke="#4C4C4C" stroke-width="1.10556"/>
<circle cx="50.7639" cy="94.6805" r="2.21111" fill="#EDEAE5" stroke="#4C4C4C" stroke-width="1.10556"/>
<circle cx="142.264" cy="74.6805" r="2.21111" fill="#EDEAE5" stroke="#4C4C4C" stroke-width="1.10556"/>
<circle cx="338.264" cy="74.6805" r="2.21111" fill="#EDEAE5" stroke="#4C4C4C" stroke-width="1.10556"/>
<circle cx="239.764" cy="94.6805" r="2.21111" fill="#EDEAE5" stroke="#4C4C4C" stroke-width="1.10556"/>
<circle cx="96.5647" cy="172.681" r="2.21111" fill="#EDEAE5" stroke="#4C4C4C" stroke-width="1.10556"/>
<circle cx="195.764" cy="172.681" r="2.21111" fill="#EDEAE5" stroke="#4C4C4C" stroke-width="1.10556"/>
<circle cx="294.963" cy="172.681" r="2.21111" fill="#EDEAE5" stroke="#4C4C4C" stroke-width="1.10556"/>
<circle cx="50.8694" cy="130.786" r="3.31667" fill="#EDEAE5" stroke="#4C4C4C" stroke-width="1.10556"/>
<circle cx="96.6077" cy="130.786" r="3.31667" fill="#EDEAE5" stroke="#4C4C4C" stroke-width="1.10556"/>
<circle cx="142.348" cy="130.786" r="3.31667" fill="#EDEAE5" stroke="#4C4C4C" stroke-width="1.10556"/>
<circle cx="196.088" cy="130.786" r="3.31667" fill="#EDEAE5" stroke="#4C4C4C" stroke-width="1.10556"/>
<circle cx="240.826" cy="130.786" r="3.31667" fill="#EDEAE5" stroke="#4C4C4C" stroke-width="1.10556"/>
<circle cx="295.565" cy="130.786" r="3.31667" fill="#EDEAE5" stroke="#4C4C4C" stroke-width="1.10556"/>
<circle cx="338.305" cy="130.786" r="3.31667" fill="#EDEAE5" stroke="#4C4C4C" stroke-width="1.10556"/>
<path d="M40.216 74.0846C39.752 74.0846 39.34 74.0286 38.98 73.9166C38.628 73.8046 38.316 73.6566 38.044 73.4726C37.772 73.2806 37.536 73.0766 37.336 72.8606L38.008 71.9726C38.272 72.2286 38.572 72.4526 38.908 72.6446C39.244 72.8366 39.64 72.9326 40.096 72.9326C40.432 72.9326 40.724 72.8766 40.972 72.7646C41.22 72.6446 41.412 72.4766 41.548 72.2606C41.692 72.0446 41.764 71.7806 41.764 71.4686C41.764 71.1486 41.684 70.8686 41.524 70.6286C41.372 70.3806 41.104 70.1926 40.72 70.0646C40.344 69.9286 39.824 69.8606 39.16 69.8606V68.8286C39.744 68.8286 40.2 68.7646 40.528 68.6366C40.864 68.5006 41.104 68.3166 41.248 68.0846C41.4 67.8526 41.476 67.5886 41.476 67.2926C41.476 66.9086 41.356 66.6046 41.116 66.3806C40.876 66.1486 40.544 66.0326 40.12 66.0326C39.784 66.0326 39.468 66.1086 39.172 66.2606C38.884 66.4046 38.612 66.6006 38.356 66.8486L37.636 65.9846C37.988 65.6646 38.372 65.4086 38.788 65.2166C39.204 65.0166 39.664 64.9166 40.168 64.9166C40.696 64.9166 41.164 65.0086 41.572 65.1926C41.98 65.3686 42.3 65.6246 42.532 65.9606C42.764 66.2966 42.88 66.7086 42.88 67.1966C42.88 67.7006 42.74 68.1286 42.46 68.4806C42.188 68.8326 41.82 69.0966 41.356 69.2726V69.3206C41.692 69.4086 41.996 69.5526 42.268 69.7526C42.548 69.9446 42.768 70.1926 42.928 70.4966C43.088 70.8006 43.168 71.1486 43.168 71.5406C43.168 72.0686 43.032 72.5246 42.76 72.9086C42.496 73.2846 42.14 73.5766 41.692 73.7846C41.244 73.9846 40.752 74.0846 40.216 74.0846ZM45.1877 76.0766L48.5238 64.3286H49.4718L46.1597 76.0766H45.1877ZM51.9395 73.9166V72.7766H53.8835V66.6326H52.2995V65.7566C52.7155 65.6846 53.0755 65.5926 53.3795 65.4806C53.6915 65.3686 53.9755 65.2326 54.2315 65.0726H55.2755V72.7766H56.9915V73.9166H51.9395ZM62.1793 74.0846C61.7233 74.0846 61.3153 74.0286 60.9553 73.9166C60.5953 73.8046 60.2793 73.6566 60.0073 73.4726C59.7353 73.2886 59.4953 73.0966 59.2873 72.8966L59.9473 71.9966C60.1153 72.1646 60.2993 72.3206 60.4993 72.4646C60.6993 72.6006 60.9233 72.7126 61.1713 72.8006C61.4273 72.8886 61.7113 72.9326 62.0233 72.9326C62.3513 72.9326 62.6473 72.8606 62.9113 72.7166C63.1753 72.5646 63.3833 72.3486 63.5353 72.0686C63.6873 71.7806 63.7633 71.4406 63.7633 71.0486C63.7633 70.4726 63.6073 70.0246 63.2953 69.7046C62.9913 69.3846 62.5873 69.2246 62.0833 69.2246C61.8033 69.2246 61.5633 69.2646 61.3633 69.3446C61.1633 69.4246 60.9353 69.5486 60.6793 69.7166L59.9953 69.2726L60.2593 65.0726H64.7353V66.2486H61.4593L61.2553 68.5046C61.4473 68.4086 61.6393 68.3366 61.8313 68.2886C62.0233 68.2326 62.2353 68.2046 62.4673 68.2046C62.9633 68.2046 63.4153 68.3046 63.8233 68.5046C64.2313 68.7046 64.5553 69.0126 64.7953 69.4286C65.0353 69.8366 65.1553 70.3646 65.1553 71.0126C65.1553 71.6606 65.0153 72.2166 64.7353 72.6806C64.4553 73.1366 64.0873 73.4846 63.6313 73.7246C63.1833 73.9646 62.6993 74.0846 62.1793 74.0846Z" fill="#4C4C4C"/>
<rect x="24" y="45.9166" width="57" height="9" fill="#FFDB72"/>
<path d="M32.72 46.4206H36.536V47.3446H32.72V46.4206ZM32.192 42.3166H36.524V43.3246H33.224V52.9126H32.192V42.3166ZM35.948 42.3166H37.004V44.6206C37.004 44.8766 36.968 45.0846 36.896 45.2446C36.824 45.3966 36.684 45.5126 36.476 45.5926C36.276 45.6646 36.016 45.7126 35.696 45.7366C35.376 45.7526 34.988 45.7606 34.532 45.7606C34.516 45.6006 34.476 45.4286 34.412 45.2446C34.348 45.0606 34.28 44.9006 34.208 44.7646C34.432 44.7726 34.644 44.7806 34.844 44.7886C35.052 44.7886 35.232 44.7886 35.384 44.7886C35.536 44.7886 35.644 44.7846 35.708 44.7766C35.804 44.7686 35.868 44.7566 35.9 44.7406C35.932 44.7166 35.948 44.6726 35.948 44.6086V42.3166ZM34.04 46.9846C34.256 47.6966 34.536 48.3766 34.88 49.0246C35.232 49.6646 35.644 50.2366 36.116 50.7406C36.596 51.2446 37.128 51.6446 37.712 51.9406C37.592 52.0446 37.456 52.1846 37.304 52.3606C37.16 52.5446 37.044 52.7086 36.956 52.8526C36.348 52.4926 35.8 52.0286 35.312 51.4606C34.832 50.8926 34.412 50.2446 34.052 49.5166C33.7 48.7886 33.408 48.0206 33.176 47.2126L34.04 46.9846ZM36.2 46.4206H36.404L36.596 46.3726L37.28 46.6246C37.128 47.5126 36.892 48.3566 36.572 49.1566C36.26 49.9566 35.864 50.6806 35.384 51.3286C34.904 51.9686 34.344 52.5086 33.704 52.9486C33.616 52.8206 33.496 52.6846 33.344 52.5406C33.2 52.3966 33.068 52.2766 32.948 52.1806C33.54 51.7886 34.06 51.3046 34.508 50.7286C34.956 50.1446 35.32 49.5046 35.6 48.8086C35.888 48.1046 36.088 47.3886 36.2 46.6606V46.4206ZM26.864 42.9406H31.496V43.9006H26.864V42.9406ZM26.516 49.6126H31.796V50.5846H26.516V49.6126ZM26.516 44.9446H31.784V45.9166H26.516V44.9446ZM26.78 47.4886H31.568V48.4486H26.78V47.4886ZM28.688 41.8126H29.744V45.2926H28.688V41.8126ZM28.688 47.8726H29.744V52.8886H28.688V47.8726ZM30.272 45.8686L31.244 46.1086C31.076 46.4526 30.9 46.7926 30.716 47.1286C30.54 47.4646 30.368 47.7566 30.2 48.0046L29.384 47.7646C29.496 47.5966 29.608 47.4006 29.72 47.1766C29.832 46.9526 29.936 46.7246 30.032 46.4926C30.128 46.2606 30.208 46.0526 30.272 45.8686ZM27.284 46.1446L28.112 45.8926C28.24 46.1166 28.36 46.3606 28.472 46.6246C28.584 46.8806 28.656 47.1006 28.688 47.2846L27.812 47.5846C27.772 47.3926 27.7 47.1606 27.596 46.8886C27.5 46.6086 27.396 46.3606 27.284 46.1446ZM43.664 51.4126H49.268V52.4446H43.664V51.4126ZM43.172 42.9766H47.504V43.9966H43.172V42.9766ZM43.616 41.7406L44.888 41.9806C44.568 42.5246 44.192 43.0646 43.76 43.6006C43.328 44.1366 42.832 44.6526 42.272 45.1486C41.72 45.6366 41.088 46.0926 40.376 46.5166C40.328 46.4206 40.256 46.3166 40.16 46.2046C40.064 46.0926 39.964 45.9846 39.86 45.8806C39.764 45.7766 39.668 45.6926 39.572 45.6286C40.236 45.2686 40.828 44.8726 41.348 44.4406C41.868 44.0006 42.316 43.5486 42.692 43.0846C43.076 42.6206 43.384 42.1726 43.616 41.7406ZM47.144 42.9766H47.348L47.552 42.9166L48.32 43.3366C47.968 44.2566 47.504 45.0966 46.928 45.8566C46.36 46.6166 45.716 47.3006 44.996 47.9086C44.276 48.5086 43.508 49.0286 42.692 49.4686C41.876 49.9086 41.044 50.2726 40.196 50.5606C40.148 50.4566 40.084 50.3406 40.004 50.2126C39.932 50.0846 39.852 49.9606 39.764 49.8406C39.684 49.7206 39.608 49.6206 39.536 49.5406C40.336 49.3086 41.124 48.9926 41.9 48.5926C42.676 48.1926 43.404 47.7206 44.084 47.1766C44.772 46.6246 45.38 46.0126 45.908 45.3406C46.436 44.6686 46.848 43.9486 47.144 43.1806V42.9766ZM41.636 45.3286L42.488 44.6086C42.792 44.8086 43.104 45.0406 43.424 45.3046C43.752 45.5606 44.06 45.8166 44.348 46.0726C44.636 46.3286 44.868 46.5726 45.044 46.8046L44.132 47.6086C43.964 47.3926 43.74 47.1486 43.46 46.8766C43.188 46.6046 42.892 46.3326 42.572 46.0606C42.252 45.7886 41.94 45.5446 41.636 45.3286ZM48.74 47.6806H49.904V52.9366H48.74V47.6806ZM44.168 47.6806H49.304V48.7126H44.168V52.9246H43.028V48.5446L43.916 47.6806H44.168ZM55.448 47.1166H61.34V48.0286H55.448V47.1166ZM55.244 49.1566H61.568V50.1046H55.244V49.1566ZM59.06 47.3926H60.08V52.7086H59.06V47.3926ZM56.66 47.4406H57.632V49.6846C57.632 49.8686 57.608 50.0966 57.56 50.3686C57.52 50.6406 57.44 50.9326 57.32 51.2446C57.2 51.5486 57.036 51.8446 56.828 52.1326C56.62 52.4206 56.348 52.6766 56.012 52.9006C55.932 52.7966 55.82 52.6766 55.676 52.5406C55.532 52.4126 55.4 52.3086 55.28 52.2286C55.656 51.9966 55.94 51.7246 56.132 51.4126C56.332 51.0926 56.468 50.7766 56.54 50.4646C56.62 50.1526 56.66 49.8886 56.66 49.6726V47.4406ZM53.984 43.9246H57.2V44.7046H53.984V43.9246ZM59.54 43.9246H62.768V44.7046H59.54V43.9246ZM62.324 42.2806H63.452V51.5446C63.452 51.8486 63.412 52.0886 63.332 52.2646C63.26 52.4486 63.128 52.5886 62.936 52.6846C62.736 52.7806 62.48 52.8406 62.168 52.8646C61.856 52.8886 61.468 52.9006 61.004 52.9006C60.996 52.7966 60.972 52.6766 60.932 52.5406C60.9 52.4046 60.86 52.2646 60.812 52.1206C60.772 51.9846 60.724 51.8686 60.668 51.7726C60.972 51.7806 61.26 51.7846 61.532 51.7846C61.804 51.7846 61.988 51.7846 62.084 51.7846C62.172 51.7766 62.232 51.7566 62.264 51.7246C62.304 51.6846 62.324 51.6206 62.324 51.5326V42.2806ZM54.092 42.2806H57.908V46.4206H54.092V45.5806H56.84V43.1086H54.092V42.2806ZM62.9 42.2806V43.1086H59.936V45.6046H62.9V46.4326H58.856V42.2806H62.9ZM53.408 42.2806H54.524V52.9366H53.408V42.2806ZM71.792 51.4126H75.968V52.4086H71.792V51.4126ZM71.072 47.9686H76.532V52.9006H75.44V48.9886H72.116V52.9246H71.072V47.9686ZM74.396 43.9486L75.296 43.5046C75.568 43.8566 75.836 44.2366 76.1 44.6446C76.364 45.0446 76.604 45.4406 76.82 45.8326C77.036 46.2246 77.2 46.5766 77.312 46.8886L76.34 47.4046C76.236 47.0926 76.08 46.7366 75.872 46.3366C75.664 45.9286 75.432 45.5166 75.176 45.1006C74.92 44.6846 74.66 44.3006 74.396 43.9486ZM70.856 47.1406C70.84 47.0606 70.808 46.9566 70.76 46.8286C70.72 46.6926 70.672 46.5566 70.616 46.4206C70.568 46.2766 70.524 46.1566 70.484 46.0606C70.604 46.0286 70.724 45.9486 70.844 45.8206C70.972 45.6846 71.108 45.5086 71.252 45.2926C71.324 45.1886 71.432 45.0206 71.576 44.7886C71.72 44.5486 71.876 44.2686 72.044 43.9486C72.22 43.6286 72.396 43.2846 72.572 42.9166C72.748 42.5406 72.908 42.1606 73.052 41.7766L74.228 42.1006C73.988 42.6446 73.724 43.1846 73.436 43.7206C73.148 44.2486 72.852 44.7526 72.548 45.2326C72.244 45.7046 71.944 46.1326 71.648 46.5166V46.5406C71.648 46.5406 71.608 46.5606 71.528 46.6006C71.448 46.6406 71.356 46.6926 71.252 46.7566C71.148 46.8126 71.056 46.8766 70.976 46.9486C70.896 47.0126 70.856 47.0766 70.856 47.1406ZM70.856 47.1406L70.832 46.2286L71.48 45.8446L76.46 45.5206C76.484 45.6806 76.52 45.8566 76.568 46.0486C76.616 46.2406 76.656 46.3966 76.688 46.5166C75.728 46.6046 74.92 46.6766 74.264 46.7326C73.608 46.7806 73.072 46.8246 72.656 46.8646C72.248 46.9046 71.928 46.9406 71.696 46.9726C71.464 46.9966 71.284 47.0246 71.156 47.0566C71.036 47.0806 70.936 47.1086 70.856 47.1406ZM66.284 48.3526L66.932 47.5966C67.244 47.8446 67.58 48.1126 67.94 48.4006C68.308 48.6886 68.668 48.9846 69.02 49.2886C69.372 49.5846 69.7 49.8766 70.004 50.1646C70.308 50.4446 70.56 50.7006 70.76 50.9326L70.064 51.8326C69.864 51.5926 69.616 51.3246 69.32 51.0286C69.024 50.7326 68.704 50.4286 68.36 50.1166C68.016 49.8046 67.664 49.4966 67.304 49.1926C66.952 48.8886 66.612 48.6086 66.284 48.3526ZM66.284 48.3526C66.42 47.9446 66.552 47.4766 66.68 46.9486C66.816 46.4126 66.944 45.8526 67.064 45.2686C67.192 44.6846 67.304 44.0966 67.4 43.5046C67.496 42.9126 67.568 42.3566 67.616 41.8366L68.672 41.9086C68.6 42.4526 68.512 43.0286 68.408 43.6366C68.304 44.2446 68.188 44.8526 68.06 45.4606C67.932 46.0606 67.796 46.6366 67.652 47.1886C67.516 47.7326 67.384 48.2206 67.256 48.6526L66.284 48.3526ZM69.176 43.4806H70.208V44.9566C70.208 45.4126 70.188 45.9046 70.148 46.4326C70.108 46.9606 70.024 47.5086 69.896 48.0766C69.768 48.6366 69.576 49.2006 69.32 49.7686C69.064 50.3286 68.724 50.8766 68.3 51.4126C67.876 51.9406 67.344 52.4406 66.704 52.9126C66.648 52.8326 66.576 52.7446 66.488 52.6486C66.4 52.5526 66.304 52.4606 66.2 52.3726C66.104 52.2846 66.012 52.2126 65.924 52.1566C66.676 51.6206 67.268 51.0446 67.7 50.4286C68.14 49.8046 68.464 49.1726 68.672 48.5326C68.888 47.8846 69.024 47.2566 69.08 46.6486C69.144 46.0326 69.176 45.4646 69.176 44.9446V43.4806ZM65.984 44.4886C66.392 44.4726 66.852 44.4526 67.364 44.4286C67.884 44.3966 68.432 44.3686 69.008 44.3446C69.592 44.3126 70.176 44.2806 70.76 44.2486L70.748 45.2086C69.924 45.2646 69.1 45.3206 68.276 45.3766C67.452 45.4246 66.724 45.4686 66.092 45.5086L65.984 44.4886Z" fill="#4C4C4C"/>
<path d="M86.068 202.917V197.157C86.068 196.917 86.076 196.633 86.092 196.305C86.108 195.969 86.12 195.681 86.128 195.441H86.08C85.968 195.665 85.852 195.893 85.732 196.125C85.62 196.357 85.5 196.585 85.372 196.809L83.644 199.461H88.48V200.541H82.24V199.617L85.756 194.073H87.364V202.917H86.068ZM90.1877 205.077L93.5238 193.329H94.4718L91.1597 205.077H90.1877ZM96.9395 202.917V201.777H98.8835V195.633H97.2995V194.757C97.7155 194.685 98.0755 194.593 98.3795 194.481C98.6915 194.369 98.9755 194.233 99.2315 194.073H100.276V201.777H101.992V202.917H96.9395ZM107.179 203.085C106.723 203.085 106.315 203.029 105.955 202.917C105.595 202.805 105.279 202.657 105.007 202.473C104.735 202.289 104.495 202.097 104.287 201.897L104.947 200.997C105.115 201.165 105.299 201.321 105.499 201.465C105.699 201.601 105.923 201.713 106.171 201.801C106.427 201.889 106.711 201.933 107.023 201.933C107.351 201.933 107.647 201.861 107.911 201.717C108.175 201.565 108.383 201.349 108.535 201.069C108.687 200.781 108.763 200.441 108.763 200.049C108.763 199.473 108.607 199.025 108.295 198.705C107.991 198.385 107.587 198.225 107.083 198.225C106.803 198.225 106.563 198.265 106.363 198.345C106.163 198.425 105.935 198.549 105.679 198.717L104.995 198.273L105.259 194.073H109.735V195.249H106.459L106.255 197.505C106.447 197.409 106.639 197.337 106.831 197.289C107.023 197.233 107.235 197.205 107.467 197.205C107.963 197.205 108.415 197.305 108.823 197.505C109.231 197.705 109.555 198.013 109.795 198.429C110.035 198.837 110.155 199.365 110.155 200.013C110.155 200.661 110.015 201.217 109.735 201.681C109.455 202.137 109.087 202.485 108.631 202.725C108.183 202.965 107.699 203.085 107.179 203.085Z" fill="#4C4C4C"/>
<path d="M77.72 219.421H81.536V220.345H77.72V219.421ZM77.192 215.317H81.524V216.325H78.224V225.913H77.192V215.317ZM80.948 215.317H82.004V217.621C82.004 217.877 81.968 218.085 81.896 218.245C81.824 218.397 81.684 218.513 81.476 218.593C81.276 218.665 81.016 218.713 80.696 218.737C80.376 218.753 79.988 218.761 79.532 218.761C79.516 218.601 79.476 218.429 79.412 218.245C79.348 218.061 79.28 217.901 79.208 217.765C79.432 217.773 79.644 217.781 79.844 217.789C80.052 217.789 80.232 217.789 80.384 217.789C80.536 217.789 80.644 217.785 80.708 217.777C80.804 217.769 80.868 217.757 80.9 217.741C80.932 217.717 80.948 217.673 80.948 217.609V215.317ZM79.04 219.985C79.256 220.697 79.536 221.377 79.88 222.025C80.232 222.665 80.644 223.237 81.116 223.741C81.596 224.245 82.128 224.645 82.712 224.941C82.592 225.045 82.456 225.185 82.304 225.361C82.16 225.545 82.044 225.709 81.956 225.853C81.348 225.493 80.8 225.029 80.312 224.461C79.832 223.893 79.412 223.245 79.052 222.517C78.7 221.789 78.408 221.021 78.176 220.213L79.04 219.985ZM81.2 219.421H81.404L81.596 219.373L82.28 219.625C82.128 220.513 81.892 221.357 81.572 222.157C81.26 222.957 80.864 223.681 80.384 224.329C79.904 224.969 79.344 225.509 78.704 225.949C78.616 225.821 78.496 225.685 78.344 225.541C78.2 225.397 78.068 225.277 77.948 225.181C78.54 224.789 79.06 224.305 79.508 223.729C79.956 223.145 80.32 222.505 80.6 221.809C80.888 221.105 81.088 220.389 81.2 219.661V219.421ZM71.864 215.941H76.496V216.901H71.864V215.941ZM71.516 222.613H76.796V223.585H71.516V222.613ZM71.516 217.945H76.784V218.917H71.516V217.945ZM71.78 220.489H76.568V221.449H71.78V220.489ZM73.688 214.813H74.744V218.293H73.688V214.813ZM73.688 220.873H74.744V225.889H73.688V220.873ZM75.272 218.869L76.244 219.109C76.076 219.453 75.9 219.793 75.716 220.129C75.54 220.465 75.368 220.757 75.2 221.005L74.384 220.765C74.496 220.597 74.608 220.401 74.72 220.177C74.832 219.953 74.936 219.725 75.032 219.493C75.128 219.261 75.208 219.053 75.272 218.869ZM72.284 219.145L73.112 218.893C73.24 219.117 73.36 219.361 73.472 219.625C73.584 219.881 73.656 220.101 73.688 220.285L72.812 220.585C72.772 220.393 72.7 220.161 72.596 219.889C72.5 219.609 72.396 219.361 72.284 219.145ZM88.664 224.413H94.268V225.445H88.664V224.413ZM88.172 215.977H92.504V216.997H88.172V215.977ZM88.616 214.741L89.888 214.981C89.568 215.525 89.192 216.065 88.76 216.601C88.328 217.137 87.832 217.653 87.272 218.149C86.72 218.637 86.088 219.093 85.376 219.517C85.328 219.421 85.256 219.317 85.16 219.205C85.064 219.093 84.964 218.985 84.86 218.881C84.764 218.777 84.668 218.693 84.572 218.629C85.236 218.269 85.828 217.873 86.348 217.441C86.868 217.001 87.316 216.549 87.692 216.085C88.076 215.621 88.384 215.173 88.616 214.741ZM92.144 215.977H92.348L92.552 215.917L93.32 216.337C92.968 217.257 92.504 218.097 91.928 218.857C91.36 219.617 90.716 220.301 89.996 220.909C89.276 221.509 88.508 222.029 87.692 222.469C86.876 222.909 86.044 223.273 85.196 223.561C85.148 223.457 85.084 223.341 85.004 223.213C84.932 223.085 84.852 222.961 84.764 222.841C84.684 222.721 84.608 222.621 84.536 222.541C85.336 222.309 86.124 221.993 86.9 221.593C87.676 221.193 88.404 220.721 89.084 220.177C89.772 219.625 90.38 219.013 90.908 218.341C91.436 217.669 91.848 216.949 92.144 216.181V215.977ZM86.636 218.329L87.488 217.609C87.792 217.809 88.104 218.041 88.424 218.305C88.752 218.561 89.06 218.817 89.348 219.073C89.636 219.329 89.868 219.573 90.044 219.805L89.132 220.609C88.964 220.393 88.74 220.149 88.46 219.877C88.188 219.605 87.892 219.333 87.572 219.061C87.252 218.789 86.94 218.545 86.636 218.329ZM93.74 220.681H94.904V225.937H93.74V220.681ZM89.168 220.681H94.304V221.713H89.168V225.925H88.028V221.545L88.916 220.681H89.168ZM102.428 216.337H108.836V217.393H102.428V216.337ZM102.764 219.049H108.536V220.105H102.764V219.049ZM103.628 224.377H107.66V225.397H103.628V224.377ZM104.972 214.777H106.136V219.613H104.972V214.777ZM103.004 221.209H108.212V225.865H107.108V222.241H104.072V225.913H103.004V221.209ZM100.856 219.613L101.684 219.361C101.796 219.625 101.904 219.913 102.008 220.225C102.112 220.529 102.204 220.825 102.284 221.113C102.372 221.401 102.436 221.653 102.476 221.869L101.588 222.181C101.556 221.957 101.5 221.697 101.42 221.401C101.34 221.105 101.252 220.801 101.156 220.489C101.06 220.177 100.96 219.885 100.856 219.613ZM99.692 222.721L100.532 222.565C100.62 222.997 100.696 223.465 100.76 223.969C100.824 224.473 100.868 224.913 100.892 225.289L100.004 225.457C99.996 225.209 99.976 224.929 99.944 224.617C99.92 224.305 99.884 223.985 99.836 223.657C99.796 223.321 99.748 223.009 99.692 222.721ZM98.324 222.601L99.248 222.745C99.192 223.281 99.112 223.821 99.008 224.365C98.904 224.909 98.792 225.369 98.672 225.745C98.568 225.689 98.424 225.629 98.24 225.565C98.056 225.509 97.9 225.461 97.772 225.421C97.924 225.053 98.04 224.617 98.12 224.113C98.208 223.601 98.276 223.097 98.324 222.601ZM98.108 219.397C98.092 219.325 98.064 219.229 98.024 219.109C97.984 218.989 97.94 218.865 97.892 218.737C97.844 218.609 97.804 218.497 97.772 218.401C97.876 218.377 97.984 218.309 98.096 218.197C98.208 218.077 98.328 217.929 98.456 217.753C98.52 217.665 98.616 217.521 98.744 217.321C98.872 217.121 99.012 216.881 99.164 216.601C99.324 216.321 99.48 216.021 99.632 215.701C99.784 215.381 99.92 215.061 100.04 214.741L101.06 215.161C100.748 215.825 100.388 216.485 99.98 217.141C99.58 217.789 99.176 218.353 98.768 218.833V218.857C98.768 218.857 98.732 218.877 98.66 218.917C98.596 218.949 98.52 218.993 98.432 219.049C98.344 219.105 98.268 219.165 98.204 219.229C98.14 219.285 98.108 219.341 98.108 219.397ZM98.108 219.397L98.084 218.605L98.576 218.305L100.688 218.125C100.664 218.261 100.64 218.417 100.616 218.593C100.6 218.769 100.592 218.909 100.592 219.013C100.112 219.069 99.72 219.117 99.416 219.157C99.12 219.189 98.884 219.221 98.708 219.253C98.54 219.277 98.412 219.301 98.324 219.325C98.236 219.349 98.164 219.373 98.108 219.397ZM98.192 222.145C98.176 222.073 98.148 221.973 98.108 221.845C98.068 221.717 98.024 221.589 97.976 221.461C97.928 221.325 97.884 221.209 97.844 221.113C97.988 221.089 98.132 221.009 98.276 220.873C98.42 220.737 98.584 220.557 98.768 220.333C98.872 220.229 99.016 220.053 99.2 219.805C99.392 219.557 99.608 219.265 99.848 218.929C100.088 218.585 100.328 218.217 100.568 217.825C100.808 217.425 101.024 217.021 101.216 216.613L102.164 217.189C101.86 217.725 101.524 218.257 101.156 218.785C100.796 219.305 100.42 219.805 100.028 220.285C99.644 220.757 99.256 221.189 98.864 221.581V221.605C98.864 221.605 98.828 221.625 98.756 221.665C98.692 221.697 98.616 221.741 98.528 221.797C98.44 221.853 98.36 221.913 98.288 221.977C98.224 222.033 98.192 222.089 98.192 222.145ZM98.192 222.145L98.156 221.317L98.66 220.981L101.888 220.573C101.864 220.709 101.844 220.865 101.828 221.041C101.82 221.217 101.82 221.361 101.828 221.473C101.092 221.585 100.5 221.677 100.052 221.749C99.604 221.821 99.256 221.881 99.008 221.929C98.76 221.969 98.576 222.005 98.456 222.037C98.344 222.069 98.256 222.105 98.192 222.145ZM100.952 222.481L101.72 222.241C101.864 222.609 102.004 223.013 102.14 223.453C102.276 223.885 102.372 224.261 102.428 224.581L101.612 224.869C101.556 224.541 101.464 224.157 101.336 223.717C101.208 223.269 101.08 222.857 100.952 222.481ZM111.488 216.001H121.748V217.045H111.488V216.001ZM115.988 214.789H117.176V225.925H115.988V214.789ZM115.904 221.233L116.852 221.653C116.564 222.069 116.228 222.473 115.844 222.865C115.46 223.249 115.048 223.613 114.608 223.957C114.168 224.293 113.708 224.601 113.228 224.881C112.756 225.153 112.284 225.385 111.812 225.577C111.756 225.481 111.68 225.373 111.584 225.253C111.496 225.133 111.404 225.017 111.308 224.905C111.212 224.793 111.116 224.701 111.02 224.629C111.492 224.469 111.96 224.269 112.424 224.029C112.896 223.781 113.348 223.509 113.78 223.213C114.212 222.917 114.608 222.601 114.968 222.265C115.336 221.921 115.648 221.577 115.904 221.233ZM117.344 221.281C117.688 221.737 118.12 222.181 118.64 222.613C119.168 223.045 119.74 223.433 120.356 223.777C120.98 224.121 121.604 224.397 122.228 224.605C122.14 224.677 122.044 224.773 121.94 224.893C121.836 225.013 121.736 225.133 121.64 225.253C121.552 225.381 121.476 225.497 121.412 225.601C120.788 225.345 120.164 225.017 119.54 224.617C118.924 224.209 118.344 223.757 117.8 223.261C117.256 222.765 116.792 222.241 116.408 221.689L117.344 221.281ZM113.396 219.205V220.825H119.816V219.205H113.396ZM112.292 218.209H120.98V221.845H112.292V218.209Z" fill="#4C4C4C"/>
<path d="M134.216 54.0846C133.76 54.0846 133.352 54.0286 132.992 53.9166C132.632 53.8046 132.316 53.6566 132.044 53.4726C131.772 53.2886 131.532 53.0966 131.324 52.8966L131.984 51.9966C132.152 52.1646 132.336 52.3206 132.536 52.4646C132.736 52.6006 132.96 52.7126 133.208 52.8006C133.464 52.8886 133.748 52.9326 134.06 52.9326C134.388 52.9326 134.684 52.8606 134.948 52.7166C135.212 52.5646 135.42 52.3486 135.572 52.0686C135.724 51.7806 135.8 51.4406 135.8 51.0486C135.8 50.4726 135.644 50.0246 135.332 49.7046C135.028 49.3846 134.624 49.2246 134.12 49.2246C133.84 49.2246 133.6 49.2646 133.4 49.3446C133.2 49.4246 132.972 49.5486 132.716 49.7166L132.032 49.2726L132.296 45.0726H136.772V46.2486H133.496L133.292 48.5046C133.484 48.4086 133.676 48.3366 133.868 48.2886C134.06 48.2326 134.272 48.2046 134.504 48.2046C135 48.2046 135.452 48.3046 135.86 48.5046C136.268 48.7046 136.592 49.0126 136.832 49.4286C137.072 49.8366 137.192 50.3646 137.192 51.0126C137.192 51.6606 137.052 52.2166 136.772 52.6806C136.492 53.1366 136.124 53.4846 135.668 53.7246C135.22 53.9646 134.736 54.0846 134.216 54.0846ZM139.188 56.0766L142.524 44.3286H143.472L140.16 56.0766H139.188ZM145.94 53.9166V52.7766H147.884V46.6326H146.3V45.7566C146.716 45.6846 147.076 45.5926 147.38 45.4806C147.692 45.3686 147.976 45.2326 148.232 45.0726H149.276V52.7766H150.992V53.9166H145.94Z" fill="#4C4C4C"/>
<path d="M104.02 22.6166H114.076V23.7326H104.02V22.6166ZM109.288 26.6966H113.536V27.8006H109.288V26.6966ZM103.576 31.3166H114.448V32.4326H103.576V31.3166ZM108.736 23.0486H109.936V31.8566H108.736V23.0486ZM105.148 25.7846H106.324V31.9046H105.148V25.7846ZM122.38 23.3966H126.664V24.5006H122.38V23.3966ZM116.752 22.5086H122.692V23.5646H116.752V22.5086ZM118.228 24.9566H121.24V25.9886H118.228V24.9566ZM118.228 27.4526H121.24V28.4726H118.228V27.4526ZM126.34 23.3966H126.532L126.736 23.3486L127.468 23.5406C127.292 25.1486 126.988 26.5486 126.556 27.7406C126.124 28.9326 125.576 29.9446 124.912 30.7766C124.248 31.6006 123.476 32.2726 122.596 32.7926C122.508 32.6486 122.392 32.4846 122.248 32.3006C122.104 32.1166 121.972 31.9726 121.852 31.8686C122.644 31.4526 123.348 30.8646 123.964 30.1046C124.58 29.3366 125.092 28.4126 125.5 27.3326C125.908 26.2446 126.188 25.0166 126.34 23.6486V23.3966ZM123.604 24.5366C123.812 25.6406 124.104 26.6726 124.48 27.6326C124.856 28.5846 125.332 29.4246 125.908 30.1526C126.484 30.8806 127.172 31.4566 127.972 31.8806C127.884 31.9526 127.788 32.0446 127.684 32.1566C127.588 32.2686 127.492 32.3806 127.396 32.4926C127.308 32.6126 127.236 32.7206 127.18 32.8166C126.324 32.3206 125.596 31.6806 124.996 30.8966C124.396 30.1046 123.896 29.1926 123.496 28.1606C123.096 27.1206 122.772 25.9846 122.524 24.7526L123.604 24.5366ZM117.628 22.9166H118.72V30.7406H117.628V22.9166ZM120.796 22.9166H121.888V32.9126H120.796V22.9166ZM116.488 30.3566C116.88 30.3086 117.332 30.2526 117.844 30.1886C118.356 30.1246 118.9 30.0526 119.476 29.9726C120.052 29.8846 120.628 29.8006 121.204 29.7206L121.264 30.7646C120.456 30.8926 119.648 31.0246 118.84 31.1606C118.04 31.2886 117.328 31.4006 116.704 31.4966L116.488 30.3566ZM133.864 31.4126H139.468V32.4446H133.864V31.4126ZM133.372 22.9766H137.704V23.9966H133.372V22.9766ZM133.816 21.7406L135.088 21.9806C134.768 22.5246 134.392 23.0646 133.96 23.6006C133.528 24.1366 133.032 24.6526 132.472 25.1486C131.92 25.6366 131.288 26.0926 130.576 26.5166C130.528 26.4206 130.456 26.3166 130.36 26.2046C130.264 26.0926 130.164 25.9846 130.06 25.8806C129.964 25.7766 129.868 25.6926 129.772 25.6286C130.436 25.2686 131.028 24.8726 131.548 24.4406C132.068 24.0006 132.516 23.5486 132.892 23.0846C133.276 22.6206 133.584 22.1726 133.816 21.7406ZM137.344 22.9766H137.548L137.752 22.9166L138.52 23.3366C138.168 24.2566 137.704 25.0966 137.128 25.8566C136.56 26.6166 135.916 27.3006 135.196 27.9086C134.476 28.5086 133.708 29.0286 132.892 29.4686C132.076 29.9086 131.244 30.2726 130.396 30.5606C130.348 30.4566 130.284 30.3406 130.204 30.2126C130.132 30.0846 130.052 29.9606 129.964 29.8406C129.884 29.7206 129.808 29.6206 129.736 29.5406C130.536 29.3086 131.324 28.9926 132.1 28.5926C132.876 28.1926 133.604 27.7206 134.284 27.1766C134.972 26.6246 135.58 26.0126 136.108 25.3406C136.636 24.6686 137.048 23.9486 137.344 23.1806V22.9766ZM131.836 25.3286L132.688 24.6086C132.992 24.8086 133.304 25.0406 133.624 25.3046C133.952 25.5606 134.26 25.8166 134.548 26.0726C134.836 26.3286 135.068 26.5726 135.244 26.8046L134.332 27.6086C134.164 27.3926 133.94 27.1486 133.66 26.8766C133.388 26.6046 133.092 26.3326 132.772 26.0606C132.452 25.7886 132.14 25.5446 131.836 25.3286ZM138.94 27.6806H140.104V32.9366H138.94V27.6806ZM134.368 27.6806H139.504V28.7126H134.368V32.9246H133.228V28.5446L134.116 27.6806H134.368ZM147.976 25.7006H149.14V32.9246H147.976V25.7006ZM145.552 27.7646V28.6286H151.708V27.7646H145.552ZM145.552 26.0726V26.9246H151.708V26.0726H145.552ZM144.448 25.1726H152.872V29.5286H144.448V25.1726ZM143.272 30.3206H153.964V31.3046H143.272V30.3206ZM145.096 22.9766V23.9126H147.124V22.9766H145.096ZM144.076 22.2566H148.192V24.6326H144.076V22.2566ZM150.064 22.9766V23.9126H152.128V22.9766H150.064ZM149.056 22.2566H153.208V24.6326H149.056V22.2566ZM163.036 28.6526L164.128 28.1606C164.456 28.5926 164.792 29.0566 165.136 29.5526C165.48 30.0486 165.8 30.5326 166.096 31.0046C166.392 31.4766 166.636 31.8966 166.828 32.2646L165.676 32.8886C165.492 32.5126 165.252 32.0806 164.956 31.5926C164.668 31.0966 164.352 30.5926 164.008 30.0806C163.672 29.5686 163.348 29.0926 163.036 28.6526ZM159.484 22.1006L160.744 22.4966C160.456 23.1606 160.116 23.8126 159.724 24.4526C159.34 25.0926 158.928 25.6926 158.488 26.2526C158.056 26.8046 157.616 27.2886 157.168 27.7046C157.104 27.6166 157.008 27.5126 156.88 27.3926C156.76 27.2726 156.636 27.1566 156.508 27.0446C156.38 26.9246 156.264 26.8286 156.16 26.7566C156.6 26.3886 157.028 25.9566 157.444 25.4606C157.86 24.9646 158.24 24.4286 158.584 23.8526C158.936 23.2766 159.236 22.6926 159.484 22.1006ZM157.708 32.4086C157.676 32.3206 157.632 32.2006 157.576 32.0486C157.528 31.9046 157.476 31.7526 157.42 31.5926C157.364 31.4326 157.304 31.2966 157.24 31.1846C157.424 31.1366 157.604 31.0286 157.78 30.8606C157.956 30.6846 158.164 30.4566 158.404 30.1766C158.532 30.0406 158.712 29.8206 158.944 29.5166C159.184 29.2046 159.448 28.8326 159.736 28.4006C160.024 27.9686 160.316 27.5046 160.612 27.0086C160.908 26.5126 161.176 26.0126 161.416 25.5086L162.724 26.0606C162.332 26.7566 161.908 27.4486 161.452 28.1366C160.996 28.8166 160.524 29.4646 160.036 30.0806C159.556 30.6886 159.076 31.2366 158.596 31.7246V31.7606C158.596 31.7606 158.548 31.7846 158.452 31.8326C158.364 31.8726 158.26 31.9246 158.14 31.9886C158.028 32.0526 157.928 32.1206 157.84 32.1926C157.752 32.2726 157.708 32.3446 157.708 32.4086ZM157.708 32.4086L157.672 31.4486L158.464 31.0046L165.46 30.5846C165.484 30.7606 165.52 30.9526 165.568 31.1606C165.624 31.3686 165.672 31.5366 165.712 31.6646C164.592 31.7446 163.628 31.8166 162.82 31.8806C162.012 31.9366 161.328 31.9846 160.768 32.0246C160.216 32.0726 159.76 32.1126 159.4 32.1446C159.04 32.1766 158.752 32.2046 158.536 32.2286C158.32 32.2606 158.148 32.2886 158.02 32.3126C157.9 32.3366 157.796 32.3686 157.708 32.4086ZM163.036 22.0766H164.38C164.564 22.6846 164.812 23.2766 165.124 23.8526C165.436 24.4206 165.796 24.9406 166.204 25.4126C166.612 25.8846 167.056 26.2726 167.536 26.5766C167.448 26.6566 167.348 26.7646 167.236 26.9006C167.124 27.0286 167.016 27.1646 166.912 27.3086C166.816 27.4446 166.732 27.5726 166.66 27.6926C166.164 27.3086 165.7 26.8526 165.268 26.3246C164.836 25.7886 164.452 25.2126 164.116 24.5966C163.788 23.9806 163.52 23.3566 163.312 22.7246H163.036V22.0766ZM161.404 22.0766H163.984V23.2526H161.404V22.0766ZM169.684 23.5646H180.34V24.6566H169.684V23.5646ZM175.024 25.1846H176.164V32.9246H175.024V25.1846ZM171.616 26.6966H179.068V27.7646H172.756V31.8326H171.616V26.6966ZM178.564 26.6966H179.716V30.5126C179.716 30.7926 179.676 31.0126 179.596 31.1726C179.524 31.3326 179.384 31.4606 179.176 31.5566C178.968 31.6366 178.7 31.6886 178.372 31.7126C178.044 31.7286 177.636 31.7326 177.148 31.7246C177.124 31.5726 177.076 31.4006 177.004 31.2086C176.932 31.0086 176.856 30.8366 176.776 30.6926C177 30.7006 177.216 30.7086 177.424 30.7166C177.64 30.7166 177.828 30.7166 177.988 30.7166C178.148 30.7086 178.256 30.7046 178.312 30.7046C178.408 30.7046 178.472 30.6926 178.504 30.6686C178.544 30.6366 178.564 30.5806 178.564 30.5006V26.6966ZM173.656 21.7646L174.832 22.0406C174.544 22.9926 174.18 23.9326 173.74 24.8606C173.3 25.7886 172.768 26.6566 172.144 27.4646C171.52 28.2646 170.792 28.9566 169.96 29.5406C169.912 29.4446 169.848 29.3406 169.768 29.2286C169.688 29.1086 169.608 28.9886 169.528 28.8686C169.448 28.7406 169.372 28.6366 169.3 28.5566C169.868 28.1806 170.384 27.7366 170.848 27.2246C171.312 26.7046 171.724 26.1446 172.084 25.5446C172.444 24.9366 172.756 24.3126 173.02 23.6726C173.284 23.0326 173.496 22.3966 173.656 21.7646Z" fill="#4C4C4C"/>
<path d="M183.216 203.085C182.76 203.085 182.352 203.029 181.992 202.917C181.632 202.805 181.316 202.657 181.044 202.473C180.772 202.289 180.532 202.097 180.324 201.897L180.984 200.997C181.152 201.165 181.336 201.321 181.536 201.465C181.736 201.601 181.96 201.713 182.208 201.801C182.464 201.889 182.748 201.933 183.06 201.933C183.388 201.933 183.684 201.861 183.948 201.717C184.212 201.565 184.42 201.349 184.572 201.069C184.724 200.781 184.8 200.441 184.8 200.049C184.8 199.473 184.644 199.025 184.332 198.705C184.028 198.385 183.624 198.225 183.12 198.225C182.84 198.225 182.6 198.265 182.4 198.345C182.2 198.425 181.972 198.549 181.716 198.717L181.032 198.273L181.296 194.073H185.772V195.249H182.496L182.292 197.505C182.484 197.409 182.676 197.337 182.868 197.289C183.06 197.233 183.272 197.205 183.504 197.205C184 197.205 184.452 197.305 184.86 197.505C185.268 197.705 185.592 198.013 185.832 198.429C186.072 198.837 186.192 199.365 186.192 200.013C186.192 200.661 186.052 201.217 185.772 201.681C185.492 202.137 185.124 202.485 184.668 202.725C184.22 202.965 183.736 203.085 183.216 203.085ZM188.188 205.077L191.524 193.329H192.472L189.16 205.077H188.188ZM194.94 202.917V201.777H196.884V195.633H195.3V194.757C195.716 194.685 196.076 194.593 196.38 194.481C196.692 194.369 196.976 194.233 197.232 194.073H198.276V201.777H199.992V202.917H194.94ZM205.395 203.085C204.819 203.085 204.315 202.913 203.883 202.569C203.451 202.225 203.115 201.713 202.875 201.033C202.643 200.345 202.527 199.489 202.527 198.465C202.527 197.441 202.643 196.593 202.875 195.921C203.115 195.249 203.451 194.749 203.883 194.421C204.315 194.085 204.819 193.917 205.395 193.917C205.971 193.917 206.471 194.085 206.895 194.421C207.319 194.757 207.647 195.261 207.879 195.933C208.119 196.597 208.239 197.441 208.239 198.465C208.239 199.489 208.119 200.345 207.879 201.033C207.647 201.713 207.319 202.225 206.895 202.569C206.471 202.913 205.971 203.085 205.395 203.085ZM205.395 201.981C205.691 201.981 205.955 201.865 206.187 201.633C206.419 201.401 206.599 201.029 206.727 200.517C206.855 199.997 206.919 199.313 206.919 198.465C206.919 197.617 206.855 196.941 206.727 196.437C206.599 195.933 206.419 195.569 206.187 195.345C205.955 195.121 205.691 195.009 205.395 195.009C205.099 195.009 204.835 195.121 204.603 195.345C204.371 195.569 204.187 195.933 204.051 196.437C203.923 196.941 203.859 197.617 203.859 198.465C203.859 199.313 203.923 199.997 204.051 200.517C204.187 201.029 204.371 201.401 204.603 201.633C204.835 201.865 205.099 201.981 205.395 201.981Z" fill="#4C4C4C"/>
<path d="M163.244 216.505H165.884V217.153H163.244V216.505ZM161.204 217.645H165.776V218.329H161.204V217.645ZM163.88 221.113H164.756V223.045C164.756 223.213 164.772 223.313 164.804 223.345C164.836 223.361 164.868 223.373 164.9 223.381C164.932 223.389 164.968 223.393 165.008 223.393C165.048 223.393 165.104 223.393 165.176 223.393C165.248 223.393 165.316 223.393 165.38 223.393C165.428 223.393 165.476 223.393 165.524 223.393C165.572 223.385 165.608 223.377 165.632 223.369C165.696 223.345 165.74 223.285 165.764 223.189C165.78 223.133 165.792 223.049 165.8 222.937C165.808 222.817 165.812 222.681 165.812 222.529C165.9 222.601 166.012 222.673 166.148 222.745C166.292 222.809 166.424 222.861 166.544 222.901C166.536 223.069 166.52 223.233 166.496 223.393C166.472 223.553 166.44 223.669 166.4 223.741C166.36 223.813 166.308 223.877 166.244 223.933C166.188 223.981 166.116 224.021 166.028 224.053C165.964 224.077 165.876 224.097 165.764 224.113C165.652 224.121 165.556 224.125 165.476 224.125C165.42 224.125 165.348 224.125 165.26 224.125C165.18 224.125 165.096 224.125 165.008 224.125C164.928 224.125 164.864 224.125 164.816 224.125C164.696 224.125 164.568 224.109 164.432 224.077C164.304 224.045 164.2 223.993 164.12 223.921C164.032 223.841 163.968 223.737 163.928 223.609C163.896 223.481 163.88 223.265 163.88 222.961V221.113ZM162.728 215.917H163.676V217.885H162.728V215.917ZM161.84 219.109L165.128 218.869L165.188 219.469L161.888 219.745L161.84 219.109ZM160.736 217.645H161.648V219.493C161.648 219.845 161.628 220.229 161.588 220.645C161.548 221.061 161.476 221.485 161.372 221.917C161.276 222.341 161.136 222.757 160.952 223.165C160.768 223.565 160.528 223.937 160.232 224.281C160.192 224.209 160.128 224.129 160.04 224.041C159.96 223.953 159.876 223.869 159.788 223.789C159.7 223.701 159.624 223.637 159.56 223.597C159.912 223.197 160.168 222.757 160.328 222.277C160.496 221.789 160.604 221.305 160.652 220.825C160.708 220.337 160.736 219.889 160.736 219.481V217.645ZM165.08 214.789L165.968 215.509C165.392 215.661 164.74 215.797 164.012 215.917C163.284 216.029 162.532 216.125 161.756 216.205C160.988 216.277 160.24 216.337 159.512 216.385C159.496 216.281 159.46 216.149 159.404 215.989C159.348 215.829 159.296 215.697 159.248 215.593C159.768 215.553 160.3 215.509 160.844 215.461C161.396 215.405 161.932 215.341 162.452 215.269C162.972 215.197 163.456 215.121 163.904 215.041C164.36 214.961 164.752 214.877 165.08 214.789ZM162.356 221.113H163.244C163.236 221.705 163.184 222.213 163.088 222.637C163 223.061 162.836 223.417 162.596 223.705C162.356 223.985 162.004 224.209 161.54 224.377C161.5 224.273 161.432 224.153 161.336 224.017C161.24 223.873 161.144 223.761 161.048 223.681C161.416 223.545 161.688 223.373 161.864 223.165C162.048 222.949 162.172 222.677 162.236 222.349C162.3 222.013 162.34 221.601 162.356 221.113ZM165.464 217.645H165.608L165.764 217.597L166.424 217.789C166.352 218.053 166.276 218.325 166.196 218.605C166.116 218.885 166.036 219.125 165.956 219.325L165.176 219.061C165.224 218.885 165.272 218.677 165.32 218.437C165.376 218.197 165.424 217.973 165.464 217.765V217.645ZM159.248 215.593H160.172V218.185C160.172 218.585 160.152 219.021 160.112 219.493C160.08 219.957 160.016 220.433 159.92 220.921C159.832 221.409 159.7 221.885 159.524 222.349C159.348 222.805 159.12 223.225 158.84 223.609C158.8 223.537 158.736 223.453 158.648 223.357C158.568 223.253 158.484 223.157 158.396 223.069C158.308 222.973 158.236 222.905 158.18 222.865C158.5 222.401 158.732 221.897 158.876 221.353C159.028 220.809 159.128 220.261 159.176 219.709C159.224 219.157 159.248 218.649 159.248 218.185V215.593ZM162.764 218.137H163.616V219.745C163.616 219.889 163.632 219.989 163.664 220.045C163.696 220.093 163.768 220.117 163.88 220.117C163.928 220.117 164.008 220.117 164.12 220.117C164.24 220.117 164.368 220.117 164.504 220.117C164.648 220.117 164.78 220.117 164.9 220.117C165.02 220.117 165.104 220.117 165.152 220.117C165.264 220.117 165.392 220.117 165.536 220.117C165.68 220.109 165.8 220.093 165.896 220.069C165.904 220.173 165.912 220.297 165.92 220.441C165.936 220.577 165.952 220.693 165.968 220.789C165.888 220.813 165.776 220.829 165.632 220.837C165.488 220.845 165.34 220.849 165.188 220.849C165.132 220.849 165.036 220.849 164.9 220.849C164.772 220.849 164.632 220.849 164.48 220.849C164.328 220.849 164.188 220.849 164.06 220.849C163.94 220.849 163.856 220.849 163.808 220.849C163.384 220.849 163.104 220.765 162.968 220.597C162.832 220.429 162.764 220.141 162.764 219.733V218.137ZM155.876 215.293L156.74 214.789C157.004 215.077 157.272 215.397 157.544 215.749C157.824 216.093 158.04 216.389 158.192 216.637L157.304 217.237C157.208 217.061 157.08 216.861 156.92 216.637C156.76 216.413 156.588 216.185 156.404 215.953C156.22 215.713 156.044 215.493 155.876 215.293ZM155.528 217.573H157.844V218.497H155.528V217.573ZM157.784 222.949C158.016 223.477 158.336 223.869 158.744 224.125C159.16 224.381 159.66 224.549 160.244 224.629C160.836 224.709 161.516 224.749 162.284 224.749C162.708 224.749 163.18 224.741 163.7 224.725C164.22 224.709 164.744 224.689 165.272 224.665C165.8 224.641 166.276 224.609 166.7 224.569C166.644 224.649 166.592 224.753 166.544 224.881C166.496 225.001 166.452 225.129 166.412 225.265C166.38 225.401 166.352 225.521 166.328 225.625C165.936 225.649 165.512 225.669 165.056 225.685C164.6 225.701 164.136 225.713 163.664 225.721C163.192 225.729 162.728 225.733 162.272 225.733C161.568 225.733 160.94 225.701 160.388 225.637C159.836 225.581 159.348 225.465 158.924 225.289C158.508 225.121 158.144 224.877 157.832 224.557C157.52 224.229 157.252 223.801 157.028 223.273L157.784 222.949ZM157.412 220.525H157.748L157.928 220.501L158.42 220.693C158.252 221.965 157.968 223.041 157.568 223.921C157.176 224.793 156.684 225.465 156.092 225.937C156.044 225.865 155.972 225.781 155.876 225.685C155.788 225.589 155.696 225.493 155.6 225.397C155.504 225.301 155.42 225.229 155.348 225.181C155.892 224.765 156.34 224.181 156.692 223.429C157.044 222.669 157.284 221.765 157.412 220.717V220.525ZM155.732 221.605V220.765L156.2 220.525H157.916V221.425H156.44C156.296 221.425 156.152 221.445 156.008 221.485C155.872 221.517 155.78 221.557 155.732 221.605ZM155.732 221.605C155.716 221.517 155.68 221.413 155.624 221.293C155.576 221.173 155.528 221.053 155.48 220.933C155.432 220.813 155.388 220.721 155.348 220.657C155.444 220.625 155.536 220.585 155.624 220.537C155.72 220.481 155.816 220.397 155.912 220.285C155.992 220.197 156.104 220.045 156.248 219.829C156.392 219.605 156.548 219.357 156.716 219.085C156.884 218.813 157.044 218.553 157.196 218.305C157.348 218.049 157.468 217.841 157.556 217.681V217.645L157.844 217.513L158.564 217.801C158.444 218.001 158.296 218.241 158.12 218.521C157.952 218.801 157.772 219.093 157.58 219.397C157.396 219.693 157.212 219.977 157.028 220.249C156.844 220.521 156.672 220.757 156.512 220.957C156.512 220.957 156.472 220.977 156.392 221.017C156.32 221.057 156.232 221.113 156.128 221.185C156.024 221.249 155.932 221.321 155.852 221.401C155.772 221.473 155.732 221.541 155.732 221.605ZM172.58 216.397H179.744V217.429H172.58V216.397ZM173.6 220.501H178.664V221.401H173.6V220.501ZM173.6 222.481H178.664V223.381H173.6V222.481ZM175.508 214.789H176.6V225.841H175.508V214.789ZM172.904 218.473H178.664V219.445H173.96V225.925H172.904V218.473ZM178.244 218.473H179.312V224.749C179.312 224.997 179.284 225.197 179.228 225.349C179.18 225.501 179.072 225.621 178.904 225.709C178.752 225.797 178.556 225.849 178.316 225.865C178.076 225.881 177.796 225.889 177.476 225.889C177.46 225.753 177.42 225.585 177.356 225.385C177.3 225.193 177.232 225.029 177.152 224.893C177.368 224.901 177.56 224.905 177.728 224.905C177.896 224.905 178.012 224.905 178.076 224.905C178.188 224.905 178.244 224.845 178.244 224.725V218.473ZM177.104 215.389L177.74 214.789C178.052 214.941 178.376 215.125 178.712 215.341C179.048 215.557 179.312 215.761 179.504 215.953L178.82 216.613C178.652 216.421 178.4 216.213 178.064 215.989C177.736 215.757 177.416 215.557 177.104 215.389ZM170.108 220.741L171.152 219.601V225.865H170.108V220.741ZM168.848 216.877H171.668V217.873H168.848V216.877ZM171.008 219.781C171.08 219.853 171.192 219.981 171.344 220.165C171.496 220.349 171.656 220.553 171.824 220.777C172 220.993 172.16 221.197 172.304 221.389C172.456 221.573 172.564 221.705 172.628 221.785L171.992 222.541C171.912 222.397 171.804 222.221 171.668 222.013C171.54 221.797 171.396 221.577 171.236 221.353C171.084 221.121 170.936 220.909 170.792 220.717C170.656 220.517 170.544 220.357 170.456 220.237L171.008 219.781ZM171.368 216.877H171.584L171.788 216.841L172.364 217.201C172.132 217.905 171.836 218.609 171.476 219.313C171.116 220.009 170.724 220.661 170.3 221.269C169.876 221.869 169.452 222.385 169.028 222.817C168.988 222.721 168.932 222.613 168.86 222.493C168.796 222.365 168.724 222.245 168.644 222.133C168.572 222.013 168.504 221.925 168.44 221.869C168.832 221.509 169.22 221.065 169.604 220.537C169.988 220.009 170.332 219.445 170.636 218.845C170.948 218.245 171.192 217.661 171.368 217.093V216.877ZM172.16 219.193L172.88 219.697C172.68 219.929 172.488 220.165 172.304 220.405C172.12 220.645 171.944 220.849 171.776 221.017L171.248 220.621C171.392 220.429 171.552 220.197 171.728 219.925C171.912 219.645 172.056 219.401 172.16 219.193ZM169.628 215.281L170.54 214.861C170.74 215.093 170.936 215.349 171.128 215.629C171.328 215.901 171.476 216.141 171.572 216.349L170.612 216.841C170.516 216.633 170.376 216.381 170.192 216.085C170.008 215.789 169.82 215.521 169.628 215.281ZM184.076 214.789L185.12 215.089C184.912 215.777 184.656 216.469 184.352 217.165C184.056 217.853 183.732 218.509 183.38 219.133C183.036 219.757 182.668 220.305 182.276 220.777C182.252 220.689 182.204 220.569 182.132 220.417C182.068 220.257 181.996 220.101 181.916 219.949C181.844 219.797 181.776 219.673 181.712 219.577C182.032 219.177 182.34 218.721 182.636 218.209C182.932 217.697 183.204 217.149 183.452 216.565C183.7 215.981 183.908 215.389 184.076 214.789ZM183.116 217.969L184.184 216.901L184.208 216.925V225.913H183.116V217.969ZM184.88 217.933H192.8V218.977H184.88V217.933ZM186.62 221.569H191.792V222.409H186.62V221.569ZM186.572 223.297H191.792V224.137H186.572V223.297ZM185.228 215.905H192.512V216.949H185.228V215.905ZM188.564 220.129H189.584V225.661H188.564V220.129ZM186.992 214.837H188.084V218.425H186.992V214.837ZM189.848 214.837H190.94V218.425H189.848V214.837ZM191.24 219.793H192.32V224.845C192.32 225.085 192.292 225.269 192.236 225.397C192.18 225.533 192.076 225.641 191.924 225.721C191.772 225.793 191.584 225.837 191.36 225.853C191.144 225.869 190.888 225.877 190.592 225.877C190.568 225.749 190.524 225.601 190.46 225.433C190.404 225.265 190.34 225.117 190.268 224.989C190.444 224.997 190.612 225.001 190.772 225.001C190.932 225.001 191.04 225.001 191.096 225.001C191.192 225.001 191.24 224.949 191.24 224.845V219.793ZM186.812 218.413L187.832 218.725C187.504 219.333 187.076 219.901 186.548 220.429C186.028 220.957 185.488 221.397 184.928 221.749C184.896 221.677 184.84 221.581 184.76 221.461C184.68 221.341 184.596 221.225 184.508 221.113C184.42 220.993 184.34 220.897 184.268 220.825C184.78 220.553 185.264 220.205 185.72 219.781C186.184 219.357 186.548 218.901 186.812 218.413ZM186.248 219.793H191.804V220.717H186.248V219.793ZM185.816 219.793H186.908V222.145C186.908 222.545 186.884 222.977 186.836 223.441C186.788 223.905 186.692 224.361 186.548 224.809C186.412 225.249 186.2 225.645 185.912 225.997C185.856 225.933 185.772 225.857 185.66 225.769C185.548 225.681 185.432 225.593 185.312 225.505C185.192 225.425 185.088 225.365 185 225.325C185.248 225.013 185.428 224.673 185.54 224.305C185.66 223.937 185.736 223.565 185.768 223.189C185.8 222.813 185.816 222.457 185.816 222.121V219.793ZM200.78 216.397H205.064V217.501H200.78V216.397ZM195.152 215.509H201.092V216.565H195.152V215.509ZM196.628 217.957H199.64V218.989H196.628V217.957ZM196.628 220.453H199.64V221.473H196.628V220.453ZM204.74 216.397H204.932L205.136 216.349L205.868 216.541C205.692 218.149 205.388 219.549 204.956 220.741C204.524 221.933 203.976 222.945 203.312 223.777C202.648 224.601 201.876 225.273 200.996 225.793C200.908 225.649 200.792 225.485 200.648 225.301C200.504 225.117 200.372 224.973 200.252 224.869C201.044 224.453 201.748 223.865 202.364 223.105C202.98 222.337 203.492 221.413 203.9 220.333C204.308 219.245 204.588 218.017 204.74 216.649V216.397ZM202.004 217.537C202.212 218.641 202.504 219.673 202.88 220.633C203.256 221.585 203.732 222.425 204.308 223.153C204.884 223.881 205.572 224.457 206.372 224.881C206.284 224.953 206.188 225.045 206.084 225.157C205.988 225.269 205.892 225.381 205.796 225.493C205.708 225.613 205.636 225.721 205.58 225.817C204.724 225.321 203.996 224.681 203.396 223.897C202.796 223.105 202.296 222.193 201.896 221.161C201.496 220.121 201.172 218.985 200.924 217.753L202.004 217.537ZM196.028 215.917H197.12V223.741H196.028V215.917ZM199.196 215.917H200.288V225.913H199.196V215.917ZM194.888 223.357C195.28 223.309 195.732 223.253 196.244 223.189C196.756 223.125 197.3 223.053 197.876 222.973C198.452 222.885 199.028 222.801 199.604 222.721L199.664 223.765C198.856 223.893 198.048 224.025 197.24 224.161C196.44 224.289 195.728 224.401 195.104 224.497L194.888 223.357ZM213.26 216.937L213.98 216.313C214.356 216.449 214.76 216.605 215.192 216.781C215.624 216.957 216.036 217.137 216.428 217.321C216.828 217.505 217.164 217.677 217.436 217.837L216.668 218.533C216.42 218.381 216.1 218.209 215.708 218.017C215.324 217.825 214.916 217.633 214.484 217.441C214.06 217.249 213.652 217.081 213.26 216.937ZM212.12 217.801H218.216V218.641H213.14V223.993H212.12V217.801ZM217.82 217.801H218.84V222.997C218.84 223.245 218.808 223.433 218.744 223.561C218.688 223.689 218.576 223.793 218.408 223.873C218.248 223.945 218.036 223.989 217.772 224.005C217.516 224.021 217.196 224.029 216.812 224.029C216.796 223.893 216.76 223.745 216.704 223.585C216.648 223.425 216.588 223.285 216.524 223.165C216.772 223.173 217 223.177 217.208 223.177C217.416 223.177 217.556 223.177 217.628 223.177C217.7 223.169 217.748 223.153 217.772 223.129C217.804 223.105 217.82 223.057 217.82 222.985V217.801ZM212.192 215.245H218.06V216.097H212.192V215.245ZM212.732 219.529H218.168V220.345H212.732V219.529ZM212.732 221.257H218.168V222.109H212.732V221.257ZM214.94 218.173H215.924V223.969H214.94V218.173ZM217.676 215.245H217.928L218.156 215.185L218.84 215.725C218.568 215.981 218.26 216.237 217.916 216.493C217.572 216.749 217.212 216.989 216.836 217.213C216.46 217.429 216.088 217.621 215.72 217.789C215.648 217.685 215.552 217.569 215.432 217.441C215.32 217.313 215.22 217.213 215.132 217.141C215.452 216.997 215.772 216.829 216.092 216.637C216.42 216.445 216.724 216.245 217.004 216.037C217.284 215.829 217.508 215.633 217.676 215.449V215.245ZM208.724 215.305L209.564 214.789C209.756 214.981 209.948 215.189 210.14 215.413C210.34 215.637 210.528 215.853 210.704 216.061C210.88 216.269 211.024 216.453 211.136 216.613L210.272 217.237C210.16 217.069 210.016 216.873 209.84 216.649C209.672 216.425 209.488 216.197 209.288 215.965C209.096 215.725 208.908 215.505 208.724 215.305ZM208.34 217.573H210.932V218.497H208.34V217.573ZM210.62 222.949C210.852 223.477 211.172 223.869 211.58 224.125C211.988 224.381 212.484 224.549 213.068 224.629C213.66 224.709 214.336 224.749 215.096 224.749C215.52 224.749 215.992 224.741 216.512 224.725C217.032 224.709 217.556 224.689 218.084 224.665C218.612 224.641 219.088 224.609 219.512 224.569C219.456 224.649 219.404 224.753 219.356 224.881C219.308 225.009 219.264 225.141 219.224 225.277C219.192 225.413 219.164 225.533 219.14 225.637C218.748 225.661 218.324 225.681 217.868 225.697C217.412 225.713 216.948 225.725 216.476 225.733C216.004 225.741 215.54 225.745 215.084 225.745C214.38 225.745 213.752 225.713 213.2 225.649C212.656 225.585 212.172 225.469 211.748 225.301C211.332 225.133 210.968 224.889 210.656 224.569C210.344 224.241 210.076 223.809 209.852 223.273L210.62 222.949ZM210.572 220.525H210.848L211.028 220.501L211.58 220.705C211.38 222.009 211.04 223.097 210.56 223.969C210.08 224.833 209.5 225.493 208.82 225.949C208.772 225.869 208.704 225.777 208.616 225.673C208.528 225.577 208.436 225.481 208.34 225.385C208.244 225.297 208.156 225.229 208.076 225.181C208.724 224.781 209.264 224.205 209.696 223.453C210.128 222.701 210.42 221.789 210.572 220.717V220.525ZM208.532 221.605V220.765L209 220.525H210.92V221.425H209.264C209.112 221.425 208.964 221.445 208.82 221.485C208.676 221.517 208.58 221.557 208.532 221.605ZM208.532 221.605C208.516 221.517 208.48 221.413 208.424 221.293C208.376 221.173 208.328 221.053 208.28 220.933C208.232 220.805 208.188 220.705 208.148 220.633C208.244 220.609 208.34 220.573 208.436 220.525C208.532 220.469 208.636 220.381 208.748 220.261C208.844 220.173 208.976 220.021 209.144 219.805C209.312 219.589 209.492 219.349 209.684 219.085C209.884 218.813 210.068 218.553 210.236 218.305C210.412 218.049 210.552 217.841 210.656 217.681V217.645L210.98 217.513L211.688 217.837C211.544 218.045 211.372 218.289 211.172 218.569C210.98 218.841 210.776 219.125 210.56 219.421C210.344 219.709 210.128 219.989 209.912 220.261C209.704 220.525 209.512 220.753 209.336 220.945C209.336 220.945 209.296 220.969 209.216 221.017C209.136 221.057 209.04 221.113 208.928 221.185C208.824 221.249 208.732 221.321 208.652 221.401C208.572 221.473 208.532 221.541 208.532 221.605ZM227.996 223.597H231.44V224.665H227.996V223.597ZM227.504 215.821H231.956V225.433H230.804V216.889H228.608V225.577H227.504V215.821ZM223.868 216.877H225.02V219.241C225.02 219.753 224.984 220.305 224.912 220.897C224.84 221.481 224.704 222.073 224.504 222.673C224.304 223.265 224.012 223.841 223.628 224.401C223.252 224.961 222.76 225.457 222.152 225.889C222.104 225.817 222.028 225.725 221.924 225.613C221.828 225.501 221.728 225.389 221.624 225.277C221.52 225.173 221.428 225.093 221.348 225.037C221.916 224.637 222.368 224.197 222.704 223.717C223.04 223.229 223.292 222.725 223.46 222.205C223.628 221.685 223.736 221.173 223.784 220.669C223.84 220.157 223.868 219.673 223.868 219.217V216.877ZM222.74 216.361H226.82V217.417H222.74V216.361ZM221.492 219.589H227.156V220.669H221.492V219.589ZM224.696 221.221C224.792 221.301 224.924 221.433 225.092 221.617C225.268 221.801 225.46 222.005 225.668 222.229C225.876 222.453 226.08 222.681 226.28 222.913C226.48 223.137 226.66 223.341 226.82 223.525C226.98 223.701 227.1 223.833 227.18 223.921L226.4 224.893C226.296 224.733 226.164 224.549 226.004 224.341C225.852 224.125 225.684 223.901 225.5 223.669C225.316 223.429 225.132 223.197 224.948 222.973C224.764 222.749 224.588 222.541 224.42 222.349C224.252 222.157 224.112 221.997 224 221.869L224.696 221.221ZM222.74 214.789L223.844 215.005C223.74 215.533 223.604 216.053 223.436 216.565C223.276 217.069 223.092 217.545 222.884 217.993C222.684 218.441 222.468 218.837 222.236 219.181C222.172 219.117 222.084 219.045 221.972 218.965C221.86 218.877 221.744 218.793 221.624 218.713C221.504 218.633 221.4 218.569 221.312 218.521C221.656 218.073 221.948 217.517 222.188 216.853C222.428 216.181 222.612 215.493 222.74 214.789Z" fill="#4C4C4C"/>
<path d="M230.216 75.0846C229.76 75.0846 229.352 75.0286 228.992 74.9166C228.632 74.8046 228.316 74.6566 228.044 74.4726C227.772 74.2886 227.532 74.0966 227.324 73.8966L227.984 72.9966C228.152 73.1646 228.336 73.3206 228.536 73.4646C228.736 73.6006 228.96 73.7126 229.208 73.8006C229.464 73.8886 229.748 73.9326 230.06 73.9326C230.388 73.9326 230.684 73.8606 230.948 73.7166C231.212 73.5646 231.42 73.3486 231.572 73.0686C231.724 72.7806 231.8 72.4406 231.8 72.0486C231.8 71.4726 231.644 71.0246 231.332 70.7046C231.028 70.3846 230.624 70.2246 230.12 70.2246C229.84 70.2246 229.6 70.2646 229.4 70.3446C229.2 70.4246 228.972 70.5486 228.716 70.7166L228.032 70.2726L228.296 66.0726H232.772V67.2486H229.496L229.292 69.5046C229.484 69.4086 229.676 69.3366 229.868 69.2886C230.06 69.2326 230.272 69.2046 230.504 69.2046C231 69.2046 231.452 69.3046 231.86 69.5046C232.268 69.7046 232.592 70.0126 232.832 70.4286C233.072 70.8366 233.192 71.3646 233.192 72.0126C233.192 72.6606 233.052 73.2166 232.772 73.6806C232.492 74.1366 232.124 74.4846 231.668 74.7246C231.22 74.9646 230.736 75.0846 230.216 75.0846ZM235.188 77.0766L238.524 65.3286H239.472L236.16 77.0766H235.188ZM241.94 74.9166V73.7766H243.884V67.6326H242.3V66.7566C242.716 66.6846 243.076 66.5926 243.38 66.4806C243.692 66.3686 243.976 66.2326 244.232 66.0726H245.276V73.7766H246.992V74.9166H241.94ZM252.179 75.0846C251.723 75.0846 251.315 75.0286 250.955 74.9166C250.595 74.8046 250.279 74.6566 250.007 74.4726C249.735 74.2886 249.495 74.0966 249.287 73.8966L249.947 72.9966C250.115 73.1646 250.299 73.3206 250.499 73.4646C250.699 73.6006 250.923 73.7126 251.171 73.8006C251.427 73.8886 251.711 73.9326 252.023 73.9326C252.351 73.9326 252.647 73.8606 252.911 73.7166C253.175 73.5646 253.383 73.3486 253.535 73.0686C253.687 72.7806 253.763 72.4406 253.763 72.0486C253.763 71.4726 253.607 71.0246 253.295 70.7046C252.991 70.3846 252.587 70.2246 252.083 70.2246C251.803 70.2246 251.563 70.2646 251.363 70.3446C251.163 70.4246 250.935 70.5486 250.679 70.7166L249.995 70.2726L250.259 66.0726H254.735V67.2486H251.459L251.255 69.5046C251.447 69.4086 251.639 69.3366 251.831 69.2886C252.023 69.2326 252.235 69.2046 252.467 69.2046C252.963 69.2046 253.415 69.3046 253.823 69.5046C254.231 69.7046 254.555 70.0126 254.795 70.4286C255.035 70.8366 255.155 71.3646 255.155 72.0126C255.155 72.6606 255.015 73.2166 254.735 73.6806C254.455 74.1366 254.087 74.4846 253.631 74.7246C253.183 74.9646 252.699 75.0846 252.179 75.0846Z" fill="#4C4C4C"/>
<path d="M213.596 46.2446L214.316 46.9886C213.9 47.3006 213.436 47.6126 212.924 47.9246C212.42 48.2366 211.96 48.5006 211.544 48.7166L210.968 48.0566C211.24 47.9046 211.536 47.7286 211.856 47.5286C212.176 47.3206 212.488 47.1046 212.792 46.8806C213.104 46.6486 213.372 46.4366 213.596 46.2446ZM208.292 43.3646L209.132 42.8486C209.42 43.0566 209.696 43.3006 209.96 43.5806C210.232 43.8606 210.44 44.1126 210.584 44.3366L209.708 44.9486C209.572 44.7166 209.368 44.4526 209.096 44.1566C208.832 43.8526 208.564 43.5886 208.292 43.3646ZM207.416 44.7446L214.46 44.7566V45.7526L207.416 45.7406V44.7446ZM210.536 47.6006L211.256 48.0806C211.016 48.3126 210.72 48.5566 210.368 48.8126C210.024 49.0686 209.664 49.3126 209.288 49.5446C208.912 49.7766 208.56 49.9726 208.232 50.1326C208.16 50.0126 208.064 49.8726 207.944 49.7126C207.832 49.5526 207.72 49.4206 207.608 49.3166C207.936 49.1966 208.284 49.0446 208.652 48.8606C209.02 48.6766 209.372 48.4726 209.708 48.2486C210.044 48.0246 210.32 47.8086 210.536 47.6006ZM211.076 49.2206L211.832 49.7366C211.536 50.0646 211.164 50.3966 210.716 50.7326C210.268 51.0606 209.792 51.3646 209.288 51.6446C208.792 51.9246 208.312 52.1566 207.848 52.3406C207.776 52.2126 207.676 52.0686 207.548 51.9086C207.428 51.7486 207.308 51.6206 207.188 51.5246C207.652 51.3806 208.132 51.1886 208.628 50.9486C209.124 50.7006 209.588 50.4286 210.02 50.1326C210.452 49.8286 210.804 49.5246 211.076 49.2206ZM212.42 42.8006L213.512 43.1366C213.288 43.4886 213.052 43.8406 212.804 44.1926C212.556 44.5446 212.324 44.8486 212.108 45.1046L211.196 44.7926C211.34 44.6086 211.488 44.4006 211.64 44.1686C211.792 43.9366 211.936 43.7006 212.072 43.4606C212.216 43.2206 212.332 43.0006 212.42 42.8006ZM203.924 43.3046H206.744V44.3246H204.92V53.9366H203.924V43.3046ZM206.408 43.3046H206.588L206.756 43.2566L207.5 43.6886C207.388 44.0246 207.268 44.3846 207.14 44.7686C207.012 45.1446 206.88 45.5166 206.744 45.8846C206.616 46.2526 206.488 46.5966 206.36 46.9166C206.768 47.3966 207.036 47.8446 207.164 48.2606C207.292 48.6766 207.356 49.0686 207.356 49.4366C207.356 49.7806 207.316 50.0766 207.236 50.3246C207.164 50.5726 207.036 50.7606 206.852 50.8886C206.764 50.9526 206.664 51.0046 206.552 51.0446C206.448 51.0766 206.332 51.1046 206.204 51.1286C205.972 51.1526 205.708 51.1566 205.412 51.1406C205.404 51.0046 205.376 50.8446 205.328 50.6606C205.288 50.4686 205.228 50.3046 205.148 50.1686C205.268 50.1766 205.38 50.1806 205.484 50.1806C205.588 50.1806 205.684 50.1806 205.772 50.1806C205.924 50.1726 206.044 50.1366 206.132 50.0726C206.212 50.0086 206.268 49.9086 206.3 49.7726C206.332 49.6366 206.348 49.4806 206.348 49.3046C206.348 49.0006 206.284 48.6566 206.156 48.2726C206.028 47.8886 205.768 47.4766 205.376 47.0366C205.48 46.7646 205.58 46.4726 205.676 46.1606C205.772 45.8486 205.864 45.5366 205.952 45.2246C206.048 44.9046 206.132 44.6086 206.204 44.3366C206.284 44.0566 206.352 43.8206 206.408 43.6286V43.3046ZM210.488 45.1046L211.412 45.4526C211.124 45.8206 210.78 46.1726 210.38 46.5086C209.98 46.8366 209.556 47.1446 209.108 47.4326C208.668 47.7126 208.232 47.9566 207.8 48.1646C207.76 48.0926 207.7 48.0086 207.62 47.9126C207.54 47.8086 207.456 47.7046 207.368 47.6006C207.288 47.4966 207.212 47.4126 207.14 47.3486C207.564 47.1806 207.984 46.9806 208.4 46.7486C208.816 46.5166 209.204 46.2606 209.564 45.9806C209.932 45.7006 210.24 45.4086 210.488 45.1046ZM212.768 47.9366C212.904 48.3766 213.08 48.8246 213.296 49.2806C213.512 49.7286 213.748 50.1486 214.004 50.5406C214.26 50.9246 214.516 51.2446 214.772 51.5006C214.652 51.5886 214.52 51.7046 214.376 51.8486C214.232 51.9926 214.116 52.1246 214.028 52.2446C213.756 51.9406 213.488 51.5686 213.224 51.1286C212.96 50.6886 212.712 50.2206 212.48 49.7246C212.256 49.2206 212.064 48.7206 211.904 48.2246L212.768 47.9366ZM209.516 46.4246L210.344 45.9806C210.792 46.4286 211.152 46.9326 211.424 47.4926C211.704 48.0526 211.904 48.6286 212.024 49.2206C212.144 49.8126 212.196 50.3806 212.18 50.9246C212.172 51.4606 212.108 51.9326 211.988 52.3406C211.868 52.7486 211.704 53.0446 211.496 53.2286C211.312 53.4366 211.12 53.5766 210.92 53.6486C210.72 53.7286 210.48 53.7686 210.2 53.7686C210.08 53.7686 209.932 53.7646 209.756 53.7566C209.58 53.7566 209.408 53.7526 209.24 53.7446C209.232 53.5926 209.204 53.4206 209.156 53.2286C209.116 53.0366 209.052 52.8686 208.964 52.7246C209.156 52.7406 209.344 52.7526 209.528 52.7606C209.72 52.7686 209.876 52.7726 209.996 52.7726C210.14 52.7726 210.264 52.7566 210.368 52.7246C210.472 52.6846 210.572 52.6046 210.668 52.4846C210.804 52.3566 210.912 52.1286 210.992 51.8006C211.08 51.4726 211.124 51.0886 211.124 50.6486C211.124 50.2006 211.072 49.7286 210.968 49.2326C210.864 48.7286 210.696 48.2366 210.464 47.7566C210.232 47.2686 209.916 46.8246 209.516 46.4246ZM220.484 43.7126H227.288V44.7686H220.484V43.7126ZM220.496 47.4806H226.136V48.5366H220.496V47.4806ZM222.824 44.0246L223.988 44.1326C223.916 44.7006 223.832 45.3006 223.736 45.9326C223.648 46.5646 223.552 47.2046 223.448 47.8526C223.352 48.4926 223.252 49.1206 223.148 49.7366C223.052 50.3526 222.956 50.9366 222.86 51.4886C222.764 52.0326 222.672 52.5246 222.584 52.9646H221.408C221.504 52.5086 221.604 52.0006 221.708 51.4406C221.812 50.8806 221.916 50.2886 222.02 49.6646C222.132 49.0326 222.236 48.3926 222.332 47.7446C222.428 47.0886 222.516 46.4446 222.596 45.8126C222.684 45.1806 222.76 44.5846 222.824 44.0246ZM219.944 52.3886H227.852V53.4446H219.944V52.3886ZM225.56 47.4806H226.7V52.9286H225.56V47.4806ZM219.248 42.8486L220.304 43.1726C220.04 43.8606 219.732 44.5446 219.38 45.2246C219.028 45.9046 218.644 46.5446 218.228 47.1446C217.82 47.7446 217.396 48.2766 216.956 48.7406C216.924 48.6446 216.872 48.5246 216.8 48.3806C216.736 48.2286 216.664 48.0806 216.584 47.9366C216.504 47.7926 216.428 47.6726 216.356 47.5766C216.74 47.1926 217.112 46.7486 217.472 46.2446C217.832 45.7406 218.164 45.1966 218.468 44.6126C218.772 44.0286 219.032 43.4406 219.248 42.8486ZM218.18 45.9926L219.272 44.9126L219.296 44.9246V53.9246H218.18V45.9926ZM233.864 52.4126H239.468V53.4446H233.864V52.4126ZM233.372 43.9766H237.704V44.9966H233.372V43.9766ZM233.816 42.7406L235.088 42.9806C234.768 43.5246 234.392 44.0646 233.96 44.6006C233.528 45.1366 233.032 45.6526 232.472 46.1486C231.92 46.6366 231.288 47.0926 230.576 47.5166C230.528 47.4206 230.456 47.3166 230.36 47.2046C230.264 47.0926 230.164 46.9846 230.06 46.8806C229.964 46.7766 229.868 46.6926 229.772 46.6286C230.436 46.2686 231.028 45.8726 231.548 45.4406C232.068 45.0006 232.516 44.5486 232.892 44.0846C233.276 43.6206 233.584 43.1726 233.816 42.7406ZM237.344 43.9766H237.548L237.752 43.9166L238.52 44.3366C238.168 45.2566 237.704 46.0966 237.128 46.8566C236.56 47.6166 235.916 48.3006 235.196 48.9086C234.476 49.5086 233.708 50.0286 232.892 50.4686C232.076 50.9086 231.244 51.2726 230.396 51.5606C230.348 51.4566 230.284 51.3406 230.204 51.2126C230.132 51.0846 230.052 50.9606 229.964 50.8406C229.884 50.7206 229.808 50.6206 229.736 50.5406C230.536 50.3086 231.324 49.9926 232.1 49.5926C232.876 49.1926 233.604 48.7206 234.284 48.1766C234.972 47.6246 235.58 47.0126 236.108 46.3406C236.636 45.6686 237.048 44.9486 237.344 44.1806V43.9766ZM231.836 46.3286L232.688 45.6086C232.992 45.8086 233.304 46.0406 233.624 46.3046C233.952 46.5606 234.26 46.8166 234.548 47.0726C234.836 47.3286 235.068 47.5726 235.244 47.8046L234.332 48.6086C234.164 48.3926 233.94 48.1486 233.66 47.8766C233.388 47.6046 233.092 47.3326 232.772 47.0606C232.452 46.7886 232.14 46.5446 231.836 46.3286ZM238.94 48.6806H240.104V53.9366H238.94V48.6806ZM234.368 48.6806H239.504V49.7126H234.368V53.9246H233.228V49.5446L234.116 48.6806H234.368ZM247.976 46.7006H249.14V53.9246H247.976V46.7006ZM245.552 48.7646V49.6286H251.708V48.7646H245.552ZM245.552 47.0726V47.9246H251.708V47.0726H245.552ZM244.448 46.1726H252.872V50.5286H244.448V46.1726ZM243.272 51.3206H253.964V52.3046H243.272V51.3206ZM245.096 43.9766V44.9126H247.124V43.9766H245.096ZM244.076 43.2566H248.192V45.6326H244.076V43.2566ZM250.064 43.9766V44.9126H252.128V43.9766H250.064ZM249.056 43.2566H253.208V45.6326H249.056V43.2566ZM263.036 49.6526L264.128 49.1606C264.456 49.5926 264.792 50.0566 265.136 50.5526C265.48 51.0486 265.8 51.5326 266.096 52.0046C266.392 52.4766 266.636 52.8966 266.828 53.2646L265.676 53.8886C265.492 53.5126 265.252 53.0806 264.956 52.5926C264.668 52.0966 264.352 51.5926 264.008 51.0806C263.672 50.5686 263.348 50.0926 263.036 49.6526ZM259.484 43.1006L260.744 43.4966C260.456 44.1606 260.116 44.8126 259.724 45.4526C259.34 46.0926 258.928 46.6926 258.488 47.2526C258.056 47.8046 257.616 48.2886 257.168 48.7046C257.104 48.6166 257.008 48.5126 256.88 48.3926C256.76 48.2726 256.636 48.1566 256.508 48.0446C256.38 47.9246 256.264 47.8286 256.16 47.7566C256.6 47.3886 257.028 46.9566 257.444 46.4606C257.86 45.9646 258.24 45.4286 258.584 44.8526C258.936 44.2766 259.236 43.6926 259.484 43.1006ZM257.708 53.4086C257.676 53.3206 257.632 53.2006 257.576 53.0486C257.528 52.9046 257.476 52.7526 257.42 52.5926C257.364 52.4326 257.304 52.2966 257.24 52.1846C257.424 52.1366 257.604 52.0286 257.78 51.8606C257.956 51.6846 258.164 51.4566 258.404 51.1766C258.532 51.0406 258.712 50.8206 258.944 50.5166C259.184 50.2046 259.448 49.8326 259.736 49.4006C260.024 48.9686 260.316 48.5046 260.612 48.0086C260.908 47.5126 261.176 47.0126 261.416 46.5086L262.724 47.0606C262.332 47.7566 261.908 48.4486 261.452 49.1366C260.996 49.8166 260.524 50.4646 260.036 51.0806C259.556 51.6886 259.076 52.2366 258.596 52.7246V52.7606C258.596 52.7606 258.548 52.7846 258.452 52.8326C258.364 52.8726 258.26 52.9246 258.14 52.9886C258.028 53.0526 257.928 53.1206 257.84 53.1926C257.752 53.2726 257.708 53.3446 257.708 53.4086ZM257.708 53.4086L257.672 52.4486L258.464 52.0046L265.46 51.5846C265.484 51.7606 265.52 51.9526 265.568 52.1606C265.624 52.3686 265.672 52.5366 265.712 52.6646C264.592 52.7446 263.628 52.8166 262.82 52.8806C262.012 52.9366 261.328 52.9846 260.768 53.0246C260.216 53.0726 259.76 53.1126 259.4 53.1446C259.04 53.1766 258.752 53.2046 258.536 53.2286C258.32 53.2606 258.148 53.2886 258.02 53.3126C257.9 53.3366 257.796 53.3686 257.708 53.4086ZM263.036 43.0766H264.38C264.564 43.6846 264.812 44.2766 265.124 44.8526C265.436 45.4206 265.796 45.9406 266.204 46.4126C266.612 46.8846 267.056 47.2726 267.536 47.5766C267.448 47.6566 267.348 47.7646 267.236 47.9006C267.124 48.0286 267.016 48.1646 266.912 48.3086C266.816 48.4446 266.732 48.5726 266.66 48.6926C266.164 48.3086 265.7 47.8526 265.268 47.3246C264.836 46.7886 264.452 46.2126 264.116 45.5966C263.788 44.9806 263.52 44.3566 263.312 43.7246H263.036V43.0766ZM261.404 43.0766H263.984V44.2526H261.404V43.0766ZM269.684 44.5646H280.34V45.6566H269.684V44.5646ZM275.024 46.1846H276.164V53.9246H275.024V46.1846ZM271.616 47.6966H279.068V48.7646H272.756V52.8326H271.616V47.6966ZM278.564 47.6966H279.716V51.5126C279.716 51.7926 279.676 52.0126 279.596 52.1726C279.524 52.3326 279.384 52.4606 279.176 52.5566C278.968 52.6366 278.7 52.6886 278.372 52.7126C278.044 52.7286 277.636 52.7326 277.148 52.7246C277.124 52.5726 277.076 52.4006 277.004 52.2086C276.932 52.0086 276.856 51.8366 276.776 51.6926C277 51.7006 277.216 51.7086 277.424 51.7166C277.64 51.7166 277.828 51.7166 277.988 51.7166C278.148 51.7086 278.256 51.7046 278.312 51.7046C278.408 51.7046 278.472 51.6926 278.504 51.6686C278.544 51.6366 278.564 51.5806 278.564 51.5006V47.6966ZM273.656 42.7646L274.832 43.0406C274.544 43.9926 274.18 44.9326 273.74 45.8606C273.3 46.7886 272.768 47.6566 272.144 48.4646C271.52 49.2646 270.792 49.9566 269.96 50.5406C269.912 50.4446 269.848 50.3406 269.768 50.2286C269.688 50.1086 269.608 49.9886 269.528 49.8686C269.448 49.7406 269.372 49.6366 269.3 49.5566C269.868 49.1806 270.384 48.7366 270.848 48.2246C271.312 47.7046 271.724 47.1446 272.084 46.5446C272.444 45.9366 272.756 45.3126 273.02 44.6726C273.284 44.0326 273.496 43.3966 273.656 42.7646Z" fill="#4C4C4C"/>
<path d="M285.216 201.085C284.76 201.085 284.352 201.029 283.992 200.917C283.632 200.805 283.316 200.657 283.044 200.473C282.772 200.289 282.532 200.097 282.324 199.897L282.984 198.997C283.152 199.165 283.336 199.321 283.536 199.465C283.736 199.601 283.96 199.713 284.208 199.801C284.464 199.889 284.748 199.933 285.06 199.933C285.388 199.933 285.684 199.861 285.948 199.717C286.212 199.565 286.42 199.349 286.572 199.069C286.724 198.781 286.8 198.441 286.8 198.049C286.8 197.473 286.644 197.025 286.332 196.705C286.028 196.385 285.624 196.225 285.12 196.225C284.84 196.225 284.6 196.265 284.4 196.345C284.2 196.425 283.972 196.549 283.716 196.717L283.032 196.273L283.296 192.073H287.772V193.249H284.496L284.292 195.505C284.484 195.409 284.676 195.337 284.868 195.289C285.06 195.233 285.272 195.205 285.504 195.205C286 195.205 286.452 195.305 286.86 195.505C287.268 195.705 287.592 196.013 287.832 196.429C288.072 196.837 288.192 197.365 288.192 198.013C288.192 198.661 288.052 199.217 287.772 199.681C287.492 200.137 287.124 200.485 286.668 200.725C286.22 200.965 285.736 201.085 285.216 201.085ZM290.188 203.077L293.524 191.329H294.472L291.16 203.077H290.188ZM296.448 200.917V200.113C297.32 199.337 298.048 198.629 298.632 197.989C299.216 197.341 299.652 196.741 299.94 196.189C300.236 195.637 300.384 195.121 300.384 194.641C300.384 194.321 300.328 194.041 300.216 193.801C300.112 193.553 299.948 193.365 299.724 193.237C299.508 193.101 299.232 193.033 298.896 193.033C298.552 193.033 298.236 193.129 297.948 193.321C297.66 193.505 297.396 193.733 297.156 194.005L296.376 193.237C296.752 192.821 297.148 192.497 297.564 192.265C297.988 192.033 298.492 191.917 299.076 191.917C299.612 191.917 300.08 192.029 300.48 192.253C300.88 192.469 301.188 192.777 301.404 193.177C301.628 193.569 301.74 194.033 301.74 194.569C301.74 195.137 301.6 195.713 301.32 196.297C301.04 196.873 300.656 197.457 300.168 198.049C299.68 198.633 299.124 199.225 298.5 199.825C298.732 199.801 298.976 199.781 299.232 199.765C299.496 199.741 299.732 199.729 299.94 199.729H302.16V200.917H296.448ZM308.031 200.917V195.157C308.031 194.917 308.039 194.633 308.055 194.305C308.071 193.969 308.083 193.681 308.091 193.441H308.043C307.931 193.665 307.815 193.893 307.695 194.125C307.583 194.357 307.463 194.585 307.335 194.809L305.607 197.461H310.443V198.541H304.203V197.617L307.719 192.073H309.327V200.917H308.031Z" fill="#4C4C4C"/>
<path d="M264.6 214.637H275.412V215.669H264.6V214.637ZM265.92 218.585H269.172V219.449H265.92V218.585ZM265.92 220.481H269.172V221.333H265.92V220.481ZM271.14 216.749H272.184V221.681H271.14V216.749ZM268.764 216.629H269.868V222.725C269.868 222.989 269.832 223.197 269.76 223.349C269.696 223.501 269.572 223.617 269.388 223.697C269.204 223.785 268.976 223.837 268.704 223.853C268.432 223.877 268.1 223.889 267.708 223.889C267.684 223.745 267.636 223.577 267.564 223.385C267.492 223.193 267.416 223.033 267.336 222.905C267.608 222.913 267.86 222.917 268.092 222.917C268.324 222.925 268.48 222.925 268.56 222.917C268.64 222.909 268.692 222.893 268.716 222.869C268.748 222.837 268.764 222.785 268.764 222.713V216.629ZM273.552 216.401H274.68V222.605C274.68 222.909 274.64 223.141 274.56 223.301C274.48 223.469 274.336 223.597 274.128 223.685C273.928 223.773 273.668 223.829 273.348 223.853C273.028 223.877 272.644 223.889 272.196 223.889C272.164 223.737 272.108 223.553 272.028 223.337C271.948 223.129 271.868 222.953 271.788 222.809C272.124 222.817 272.436 222.825 272.724 222.833C273.012 222.833 273.204 222.829 273.3 222.821C273.396 222.813 273.46 222.797 273.492 222.773C273.532 222.741 273.552 222.681 273.552 222.593V216.401ZM266.364 213.149L267.432 212.777C267.656 213.017 267.88 213.293 268.104 213.605C268.328 213.909 268.492 214.177 268.596 214.409L267.468 214.817C267.38 214.593 267.228 214.325 267.012 214.013C266.804 213.693 266.588 213.405 266.364 213.149ZM272.532 212.741L273.756 213.113C273.524 213.497 273.28 213.877 273.024 214.253C272.776 214.629 272.54 214.953 272.316 215.225L271.308 214.865C271.452 214.673 271.6 214.453 271.752 214.205C271.904 213.957 272.048 213.705 272.184 213.449C272.328 213.193 272.444 212.957 272.532 212.741ZM265.38 216.629H266.412V219.461C266.412 219.917 266.384 220.417 266.328 220.961C266.28 221.505 266.184 222.037 266.04 222.557C265.896 223.077 265.676 223.541 265.38 223.949C265.324 223.885 265.24 223.809 265.128 223.721C265.024 223.641 264.916 223.561 264.804 223.481C264.692 223.401 264.596 223.341 264.516 223.301C264.78 222.933 264.972 222.529 265.092 222.089C265.212 221.641 265.288 221.189 265.32 220.733C265.36 220.277 265.38 219.849 265.38 219.449V216.629ZM266.04 216.629H269.304V217.541H266.04V216.629ZM285.084 214.013V214.925H286.824V214.013H285.084ZM282.336 214.013V214.925H284.04V214.013H282.336ZM279.624 214.013V214.925H281.292V214.013H279.624ZM278.544 213.233H287.976V215.717H278.544V213.233ZM278.004 216.329H288.276V217.181H278.004V216.329ZM282.564 215.465L283.728 215.537C283.672 215.961 283.596 216.409 283.5 216.881C283.412 217.353 283.324 217.761 283.236 218.105H282.18C282.228 217.865 282.276 217.597 282.324 217.301C282.372 216.997 282.416 216.685 282.456 216.365C282.496 216.045 282.532 215.745 282.564 215.465ZM277.848 222.761H288.588V223.589H277.848V222.761ZM279.936 219.089H286.452V219.713H279.936V219.089ZM279.984 220.301H286.428V220.913H279.984V220.301ZM280.032 221.525H286.488V222.149H280.032V221.525ZM279.372 217.793H287.004V223.217H285.888V218.513H280.44V223.217H279.372V217.793ZM291.624 214.097H301.212V215.273H291.624V214.097ZM290.988 221.909H301.848V223.049H290.988V221.909ZM295.728 214.721H297V222.365H295.728V214.721ZM309.48 214.769H315.192V215.861H308.94L309.48 214.769ZM311.004 217.385H314.904V218.429H311.004V217.385ZM311.004 220.037H315.072V221.105H311.004V220.037ZM310.44 215.129H311.604V223.925H310.44V215.129ZM309.852 212.921L310.956 213.197C310.732 213.845 310.468 214.481 310.164 215.105C309.86 215.729 309.532 216.313 309.18 216.857C308.836 217.401 308.48 217.881 308.112 218.297C308.056 218.225 307.972 218.141 307.86 218.045C307.756 217.941 307.648 217.841 307.536 217.745C307.424 217.649 307.328 217.573 307.248 217.517C307.608 217.141 307.948 216.709 308.268 216.221C308.596 215.725 308.896 215.197 309.168 214.637C309.44 214.069 309.668 213.497 309.852 212.921ZM306.84 212.837L307.944 213.173C307.68 213.853 307.372 214.533 307.02 215.213C306.668 215.885 306.284 216.517 305.868 217.109C305.46 217.701 305.036 218.225 304.596 218.681C304.564 218.593 304.508 218.473 304.428 218.321C304.356 218.169 304.276 218.017 304.188 217.865C304.108 217.705 304.032 217.585 303.96 217.505C304.344 217.121 304.712 216.681 305.064 216.185C305.424 215.689 305.756 215.153 306.06 214.577C306.364 214.001 306.624 213.421 306.84 212.837ZM305.592 216.017L306.732 214.877L306.744 214.901V223.913H305.592V216.017ZM324 212.945L325.068 212.705C325.18 212.985 325.296 213.297 325.416 213.641C325.536 213.977 325.624 214.261 325.68 214.493L324.552 214.805C324.504 214.565 324.428 214.269 324.324 213.917C324.22 213.565 324.112 213.241 324 212.945ZM321.216 214.853H328.356V215.933H321.216V214.853ZM323.676 217.637H326.952V218.705H323.676V217.637ZM326.616 217.637H327.744C327.744 217.637 327.744 217.669 327.744 217.733C327.744 217.797 327.74 217.869 327.732 217.949C327.732 218.029 327.732 218.093 327.732 218.141C327.692 219.005 327.652 219.741 327.612 220.349C327.58 220.957 327.536 221.465 327.48 221.873C327.432 222.273 327.372 222.589 327.3 222.821C327.236 223.053 327.156 223.225 327.06 223.337C326.932 223.497 326.792 223.609 326.64 223.673C326.496 223.737 326.324 223.781 326.124 223.805C325.94 223.821 325.696 223.829 325.392 223.829C325.096 223.837 324.78 223.833 324.444 223.817C324.436 223.649 324.396 223.457 324.324 223.241C324.26 223.033 324.18 222.849 324.084 222.689C324.412 222.721 324.716 222.741 324.996 222.749C325.276 222.757 325.48 222.761 325.608 222.761C325.72 222.761 325.808 222.749 325.872 222.725C325.944 222.701 326.012 222.661 326.076 222.605C326.164 222.509 326.24 222.293 326.304 221.957C326.376 221.621 326.436 221.121 326.484 220.457C326.532 219.785 326.576 218.909 326.616 217.829V217.637ZM317.388 215.741H321.252V216.821H317.388V215.741ZM318.84 212.981H319.932V220.985H318.84V212.981ZM317.172 220.997C317.532 220.885 317.936 220.753 318.384 220.601C318.84 220.441 319.32 220.273 319.824 220.097C320.336 219.913 320.848 219.729 321.36 219.545L321.576 220.601C320.856 220.873 320.132 221.149 319.404 221.429C318.684 221.709 318.032 221.961 317.448 222.185L317.172 220.997ZM323.124 215.465H324.252V217.541C324.252 218.053 324.216 218.589 324.144 219.149C324.072 219.701 323.928 220.261 323.712 220.829C323.496 221.389 323.176 221.933 322.752 222.461C322.336 222.989 321.78 223.481 321.084 223.937C320.988 223.809 320.856 223.669 320.688 223.517C320.528 223.373 320.376 223.253 320.232 223.157C320.872 222.725 321.384 222.273 321.768 221.801C322.152 221.321 322.44 220.833 322.632 220.337C322.824 219.841 322.952 219.353 323.016 218.873C323.088 218.393 323.124 217.945 323.124 217.529V215.465Z" fill="#4C4C4C"/>
<path d="M313.696 54.0846C313.272 54.0846 312.876 53.9966 312.508 53.8206C312.14 53.6366 311.816 53.3646 311.536 53.0046C311.256 52.6366 311.036 52.1766 310.876 51.6246C310.716 51.0726 310.636 50.4206 310.636 49.6686C310.636 48.8206 310.728 48.0966 310.912 47.4966C311.096 46.8886 311.344 46.3966 311.656 46.0206C311.968 45.6446 312.324 45.3686 312.724 45.1926C313.124 45.0086 313.54 44.9166 313.972 44.9166C314.468 44.9166 314.896 45.0086 315.256 45.1926C315.624 45.3766 315.932 45.6006 316.18 45.8646L315.424 46.7046C315.264 46.5126 315.06 46.3566 314.812 46.2366C314.564 46.1086 314.308 46.0446 314.044 46.0446C313.66 46.0446 313.304 46.1606 312.976 46.3926C312.656 46.6166 312.4 46.9926 312.208 47.5206C312.016 48.0486 311.92 48.7646 311.92 49.6686C311.92 50.4286 311.992 51.0566 312.136 51.5526C312.28 52.0406 312.484 52.4086 312.748 52.6566C313.012 52.8966 313.32 53.0166 313.672 53.0166C313.936 53.0166 314.168 52.9406 314.368 52.7886C314.576 52.6366 314.74 52.4246 314.86 52.1526C314.98 51.8726 315.04 51.5446 315.04 51.1686C315.04 50.7926 314.984 50.4726 314.872 50.2086C314.76 49.9446 314.596 49.7446 314.38 49.6086C314.172 49.4726 313.912 49.4046 313.6 49.4046C313.336 49.4046 313.052 49.4886 312.748 49.6566C312.452 49.8246 312.168 50.1126 311.896 50.5206L311.848 49.5126C312.016 49.2726 312.212 49.0726 312.436 48.9126C312.66 48.7446 312.892 48.6166 313.132 48.5286C313.38 48.4406 313.616 48.3966 313.84 48.3966C314.336 48.3966 314.768 48.5006 315.136 48.7086C315.512 48.9086 315.804 49.2126 316.012 49.6206C316.228 50.0286 316.336 50.5446 316.336 51.1686C316.336 51.7526 316.212 52.2646 315.964 52.7046C315.724 53.1366 315.404 53.4766 315.004 53.7246C314.612 53.9646 314.176 54.0846 313.696 54.0846ZM318.188 56.0766L321.524 44.3286H322.472L319.16 56.0766H318.188ZM326.236 53.9166C326.276 53.1086 326.344 52.3686 326.44 51.6966C326.536 51.0166 326.676 50.3766 326.86 49.7766C327.044 49.1686 327.284 48.5806 327.58 48.0126C327.876 47.4366 328.236 46.8486 328.66 46.2486H324.52V45.0726H330.196V45.9246C329.684 46.5646 329.268 47.1846 328.948 47.7846C328.628 48.3766 328.38 48.9806 328.204 49.5966C328.028 50.2126 327.9 50.8726 327.82 51.5766C327.74 52.2726 327.684 53.0526 327.652 53.9166H326.236ZM336.423 51.0366V50.0166H339.591V51.0366H336.423ZM345.044 54.0846C344.62 54.0846 344.224 53.9966 343.856 53.8206C343.488 53.6366 343.164 53.3646 342.884 53.0046C342.604 52.6366 342.384 52.1766 342.224 51.6246C342.064 51.0726 341.984 50.4206 341.984 49.6686C341.984 48.8206 342.076 48.0966 342.26 47.4966C342.444 46.8886 342.692 46.3966 343.004 46.0206C343.316 45.6446 343.672 45.3686 344.072 45.1926C344.472 45.0086 344.888 44.9166 345.32 44.9166C345.816 44.9166 346.244 45.0086 346.604 45.1926C346.972 45.3766 347.28 45.6006 347.528 45.8646L346.772 46.7046C346.612 46.5126 346.408 46.3566 346.16 46.2366C345.912 46.1086 345.656 46.0446 345.392 46.0446C345.008 46.0446 344.652 46.1606 344.324 46.3926C344.004 46.6166 343.748 46.9926 343.556 47.5206C343.364 48.0486 343.268 48.7646 343.268 49.6686C343.268 50.4286 343.34 51.0566 343.484 51.5526C343.628 52.0406 343.832 52.4086 344.096 52.6566C344.36 52.8966 344.668 53.0166 345.02 53.0166C345.284 53.0166 345.516 52.9406 345.716 52.7886C345.924 52.6366 346.088 52.4246 346.208 52.1526C346.328 51.8726 346.388 51.5446 346.388 51.1686C346.388 50.7926 346.332 50.4726 346.22 50.2086C346.108 49.9446 345.944 49.7446 345.728 49.6086C345.52 49.4726 345.26 49.4046 344.948 49.4046C344.684 49.4046 344.4 49.4886 344.096 49.6566C343.8 49.8246 343.516 50.1126 343.244 50.5206L343.196 49.5126C343.364 49.2726 343.56 49.0726 343.784 48.9126C344.008 48.7446 344.24 48.6166 344.48 48.5286C344.728 48.4406 344.964 48.3966 345.188 48.3966C345.684 48.3966 346.116 48.5006 346.484 48.7086C346.86 48.9086 347.152 49.2126 347.36 49.6206C347.576 50.0286 347.684 50.5446 347.684 51.1686C347.684 51.7526 347.56 52.2646 347.312 52.7046C347.072 53.1366 346.752 53.4766 346.352 53.7246C345.96 53.9646 345.524 54.0846 345.044 54.0846ZM349.535 56.0766L352.871 44.3286H353.819L350.507 56.0766H349.535ZM358.699 54.0846C358.147 54.0846 357.655 53.9846 357.223 53.7846C356.791 53.5766 356.447 53.2966 356.191 52.9446C355.943 52.5846 355.819 52.1766 355.819 51.7206C355.819 51.3286 355.895 50.9806 356.047 50.6766C356.199 50.3726 356.395 50.1126 356.635 49.8966C356.875 49.6726 357.127 49.4886 357.391 49.3446V49.2846C357.071 49.0526 356.795 48.7686 356.563 48.4326C356.331 48.0886 356.215 47.6846 356.215 47.2206C356.215 46.7646 356.323 46.3646 356.539 46.0206C356.763 45.6766 357.063 45.4126 357.439 45.2286C357.823 45.0366 358.259 44.9406 358.747 44.9406C359.259 44.9406 359.699 45.0406 360.067 45.2406C360.435 45.4406 360.719 45.7166 360.919 46.0686C361.127 46.4126 361.231 46.8166 361.231 47.2806C361.231 47.5766 361.171 47.8566 361.051 48.1206C360.931 48.3846 360.783 48.6246 360.607 48.8406C360.439 49.0486 360.259 49.2206 360.067 49.3566V49.4166C360.339 49.5606 360.587 49.7406 360.811 49.9566C361.035 50.1646 361.215 50.4166 361.351 50.7126C361.487 51.0086 361.555 51.3566 361.555 51.7566C361.555 52.1886 361.435 52.5806 361.195 52.9326C360.963 53.2846 360.631 53.5646 360.199 53.7726C359.775 53.9806 359.275 54.0846 358.699 54.0846ZM359.287 49.0086C359.543 48.7606 359.735 48.5006 359.863 48.2286C359.999 47.9486 360.067 47.6566 360.067 47.3526C360.067 47.0886 360.015 46.8486 359.911 46.6326C359.807 46.4166 359.651 46.2486 359.443 46.1286C359.243 46.0006 358.999 45.9366 358.711 45.9366C358.351 45.9366 358.051 46.0526 357.811 46.2846C357.571 46.5086 357.451 46.8206 357.451 47.2206C357.451 47.5406 357.535 47.8086 357.703 48.0246C357.871 48.2406 358.095 48.4246 358.375 48.5766C358.655 48.7286 358.959 48.8726 359.287 49.0086ZM358.735 53.0766C359.031 53.0766 359.291 53.0206 359.515 52.9086C359.747 52.7966 359.927 52.6406 360.055 52.4406C360.183 52.2326 360.247 51.9886 360.247 51.7086C360.247 51.4446 360.191 51.2166 360.079 51.0246C359.967 50.8246 359.811 50.6526 359.611 50.5086C359.419 50.3646 359.191 50.2326 358.927 50.1126C358.663 49.9846 358.379 49.8606 358.075 49.7406C357.771 49.9566 357.523 50.2246 357.331 50.5446C357.139 50.8566 357.043 51.2006 357.043 51.5766C357.043 51.8726 357.115 52.1326 357.259 52.3566C357.411 52.5806 357.615 52.7566 357.871 52.8846C358.127 53.0126 358.415 53.0766 358.735 53.0766Z" fill="#4C4C4C"/>
<rect x="303" y="26.3831" width="67" height="10" fill="#FFDB72"/>
<path d="M306.892 23.1566V25.6166H313.036V23.1566H306.892ZM305.812 22.2206H314.176V26.5646H305.812V22.2206ZM307.384 23.6606L308.116 23.3966C308.284 23.6606 308.436 23.9526 308.572 24.2726C308.716 24.5926 308.808 24.8686 308.848 25.1006L308.08 25.4006C308.04 25.1686 307.952 24.8886 307.816 24.5606C307.688 24.2246 307.544 23.9246 307.384 23.6606ZM305.62 27.3686H314.38V28.2806H305.62V27.3686ZM304.648 29.1566H315.364V30.1526H304.648V29.1566ZM309.412 22.6046H310.552V29.6606H309.412V22.6046ZM311.764 23.3846L312.64 23.6846C312.48 24.0046 312.312 24.3286 312.136 24.6566C311.968 24.9766 311.816 25.2566 311.68 25.4966L310.96 25.1966C311.056 25.0366 311.152 24.8526 311.248 24.6446C311.352 24.4286 311.448 24.2086 311.536 23.9846C311.632 23.7606 311.708 23.5606 311.764 23.3846ZM308.008 30.8606L309.064 30.7646C309.136 31.0766 309.192 31.4206 309.232 31.7966C309.28 32.1646 309.304 32.4726 309.304 32.7206L308.188 32.8526C308.196 32.5966 308.18 32.2806 308.14 31.9046C308.108 31.5286 308.064 31.1806 308.008 30.8606ZM310.456 30.8966L311.524 30.6806C311.66 30.9846 311.792 31.3166 311.92 31.6766C312.048 32.0366 312.136 32.3446 312.184 32.6006L311.044 32.8646C311.004 32.6086 310.924 32.2926 310.804 31.9166C310.692 31.5486 310.576 31.2086 310.456 30.8966ZM312.856 30.8366L313.912 30.4766C314.104 30.6766 314.3 30.9046 314.5 31.1606C314.7 31.4086 314.884 31.6526 315.052 31.8926C315.22 32.1326 315.356 32.3486 315.46 32.5406L314.344 32.9486C314.256 32.7566 314.128 32.5366 313.96 32.2886C313.8 32.0486 313.624 31.8006 313.432 31.5446C313.24 31.2806 313.048 31.0446 312.856 30.8366ZM305.92 30.4766L307.024 30.7526C306.88 31.1526 306.692 31.5526 306.46 31.9526C306.228 32.3526 305.968 32.6926 305.68 32.9726L304.612 32.4926C304.876 32.2606 305.124 31.9606 305.356 31.5926C305.588 31.2246 305.776 30.8526 305.92 30.4766ZM321.736 23.9606L322.948 24.2006C322.516 24.8086 321.984 25.3886 321.352 25.9406C320.728 26.4846 319.968 26.9726 319.072 27.4046C319.016 27.3166 318.944 27.2206 318.856 27.1166C318.768 27.0046 318.676 26.9006 318.58 26.8046C318.484 26.7006 318.392 26.6206 318.304 26.5646C319.144 26.2206 319.848 25.8166 320.416 25.3526C320.992 24.8806 321.432 24.4166 321.736 23.9606ZM321.844 24.8246H325.768V25.7006H321.052L321.844 24.8246ZM325.432 24.8246H325.66L325.852 24.7766L326.62 25.2326C326.22 25.8806 325.708 26.4566 325.084 26.9606C324.468 27.4646 323.78 27.9086 323.02 28.2926C322.268 28.6766 321.472 29.0046 320.632 29.2766C319.8 29.5486 318.964 29.7646 318.124 29.9246C318.092 29.8206 318.044 29.7086 317.98 29.5886C317.924 29.4606 317.86 29.3366 317.788 29.2166C317.716 29.0966 317.648 28.9966 317.584 28.9166C318.376 28.7806 319.168 28.6006 319.96 28.3766C320.752 28.1446 321.5 27.8646 322.204 27.5366C322.916 27.2006 323.552 26.8206 324.112 26.3966C324.672 25.9726 325.112 25.5046 325.432 24.9926V24.8246ZM321.352 25.4966C321.824 26.0566 322.436 26.5526 323.188 26.9846C323.948 27.4086 324.812 27.7606 325.78 28.0406C326.748 28.3126 327.768 28.5086 328.84 28.6286C328.752 28.7166 328.664 28.8286 328.576 28.9646C328.488 29.0926 328.4 29.2246 328.312 29.3606C328.232 29.4886 328.164 29.6086 328.108 29.7206C327.028 29.5606 326 29.3166 325.024 28.9886C324.056 28.6526 323.176 28.2326 322.384 27.7286C321.592 27.2246 320.92 26.6286 320.368 25.9406L321.352 25.4966ZM319.876 29.2046H326.608V32.9006H325.444V30.1526H320.992V32.9246H319.876V29.2046ZM320.512 31.5806H326.044V32.5286H320.512V31.5806ZM318.088 22.8326H328.324V25.2686H327.16V23.8646H319.204V25.2686H318.088V22.8326ZM322.276 21.9446L323.392 21.6686C323.544 21.9006 323.7 22.1686 323.86 22.4726C324.028 22.7686 324.156 23.0246 324.244 23.2406L323.068 23.5646C322.988 23.3566 322.872 23.0966 322.72 22.7846C322.568 22.4726 322.42 22.1926 322.276 21.9446ZM330.94 24.2486H335.14V25.3166H330.94V24.2486ZM332.644 21.7886H333.676V32.9126H332.644V21.7886ZM332.62 24.9806L333.268 25.2326C333.172 25.7286 333.056 26.2366 332.92 26.7566C332.784 27.2766 332.628 27.7886 332.452 28.2926C332.284 28.7886 332.1 29.2526 331.9 29.6846C331.708 30.1086 331.504 30.4726 331.288 30.7766C331.256 30.6726 331.208 30.5526 331.144 30.4166C331.08 30.2806 331.008 30.1446 330.928 30.0086C330.856 29.8726 330.788 29.7566 330.724 29.6606C330.924 29.4046 331.12 29.0966 331.312 28.7366C331.504 28.3686 331.684 27.9726 331.852 27.5486C332.02 27.1246 332.168 26.6966 332.296 26.2646C332.432 25.8246 332.54 25.3966 332.62 24.9806ZM333.616 25.7486C333.688 25.8366 333.796 25.9846 333.94 26.1926C334.092 26.3926 334.248 26.6166 334.408 26.8646C334.576 27.1046 334.732 27.3286 334.876 27.5366C335.02 27.7366 335.12 27.8846 335.176 27.9806L334.492 28.7726C334.428 28.6126 334.336 28.4126 334.216 28.1726C334.096 27.9326 333.964 27.6846 333.82 27.4286C333.684 27.1726 333.548 26.9326 333.412 26.7086C333.284 26.4846 333.18 26.3046 333.1 26.1686L333.616 25.7486ZM335.548 32.4446C335.532 32.3726 335.5 32.2686 335.452 32.1326C335.412 32.0046 335.368 31.8726 335.32 31.7366C335.272 31.5926 335.224 31.4726 335.176 31.3766C335.312 31.3366 335.44 31.2286 335.56 31.0526C335.68 30.8766 335.812 30.6446 335.956 30.3566C336.036 30.2126 336.144 29.9846 336.28 29.6726C336.424 29.3606 336.576 28.9886 336.736 28.5566C336.904 28.1246 337.072 27.6646 337.24 27.1766C337.408 26.6886 337.552 26.1966 337.672 25.7006L338.824 26.0006C338.608 26.7046 338.364 27.4046 338.092 28.1006C337.82 28.7966 337.536 29.4606 337.24 30.0926C336.952 30.7166 336.656 31.2886 336.352 31.8086V31.8206C336.352 31.8206 336.312 31.8446 336.232 31.8926C336.152 31.9326 336.056 31.9846 335.944 32.0486C335.84 32.1206 335.748 32.1926 335.668 32.2646C335.588 32.3366 335.548 32.3966 335.548 32.4446ZM335.548 32.4446L335.512 31.5446L336.112 31.1486L340.756 30.6086C340.764 30.7606 340.784 30.9326 340.816 31.1246C340.856 31.3166 340.892 31.4726 340.924 31.5926C340.036 31.7046 339.292 31.8046 338.692 31.8926C338.092 31.9726 337.6 32.0366 337.216 32.0846C336.84 32.1406 336.544 32.1886 336.328 32.2286C336.112 32.2766 335.944 32.3166 335.824 32.3486C335.712 32.3806 335.62 32.4126 335.548 32.4446ZM339.172 28.9166L340.144 28.5206C340.344 28.9126 340.548 29.3406 340.756 29.8046C340.972 30.2606 341.172 30.7006 341.356 31.1246C341.548 31.5486 341.7 31.9166 341.812 32.2286L340.768 32.7206C340.664 32.3926 340.52 32.0126 340.336 31.5806C340.16 31.1406 339.968 30.6886 339.76 30.2246C339.56 29.7526 339.364 29.3166 339.172 28.9166ZM336.664 22.2086L337.732 22.4126C337.62 23.0766 337.472 23.7286 337.288 24.3686C337.112 25.0086 336.908 25.6086 336.676 26.1686C336.444 26.7206 336.176 27.2086 335.872 27.6326C335.832 27.5606 335.764 27.4686 335.668 27.3566C335.58 27.2446 335.484 27.1326 335.38 27.0206C335.276 26.9006 335.184 26.8086 335.104 26.7446C335.368 26.3846 335.6 25.9646 335.8 25.4846C336 24.9966 336.168 24.4766 336.304 23.9246C336.448 23.3646 336.568 22.7926 336.664 22.2086ZM338.824 22.1126H340C340.112 22.6966 340.256 23.2806 340.432 23.8646C340.616 24.4486 340.828 24.9886 341.068 25.4846C341.308 25.9726 341.564 26.3846 341.836 26.7206C341.756 26.7846 341.66 26.8686 341.548 26.9726C341.444 27.0766 341.34 27.1886 341.236 27.3086C341.14 27.4206 341.06 27.5206 340.996 27.6086C340.7 27.2086 340.428 26.7406 340.18 26.2046C339.932 25.6606 339.712 25.0886 339.52 24.4886C339.336 23.8806 339.184 23.2766 339.064 22.6766H338.824V22.1126ZM338.08 22.1126H339.784V23.0846H338.08V22.1126ZM349.744 22.6526H354.64V23.5286H349.744V22.6526ZM349.612 24.9566H354.904V25.8686H349.612V24.9566ZM350.32 23.9486L351.22 23.7566C351.316 23.9886 351.412 24.2406 351.508 24.5126C351.612 24.7766 351.688 25.0006 351.736 25.1846L350.788 25.4366C350.756 25.2286 350.692 24.9886 350.596 24.7166C350.508 24.4366 350.416 24.1806 350.32 23.9486ZM352.972 23.7206L353.98 23.9126C353.86 24.1846 353.744 24.4566 353.632 24.7286C353.52 24.9926 353.416 25.2206 353.32 25.4126L352.48 25.2206C352.568 25.0126 352.66 24.7686 352.756 24.4886C352.86 24.2006 352.932 23.9446 352.972 23.7206ZM350.752 28.8206H351.748C351.692 29.4446 351.588 30.0206 351.436 30.5486C351.292 31.0766 351.052 31.5446 350.716 31.9526C350.388 32.3606 349.916 32.7046 349.3 32.9846C349.244 32.8646 349.152 32.7206 349.024 32.5526C348.904 32.3926 348.792 32.2726 348.688 32.1926C349.224 31.9686 349.632 31.6926 349.912 31.3646C350.192 31.0286 350.392 30.6486 350.512 30.2246C350.632 29.7926 350.712 29.3246 350.752 28.8206ZM352.36 28.8206H353.368V31.4966C353.368 31.6966 353.388 31.8166 353.428 31.8566C353.476 31.8966 353.552 31.9166 353.656 31.9166C353.696 31.9166 353.752 31.9166 353.824 31.9166C353.896 31.9166 353.96 31.9166 354.016 31.9166C354.064 31.9166 354.112 31.9126 354.16 31.9046C354.216 31.8966 354.252 31.8846 354.268 31.8686C354.332 31.8366 354.38 31.7526 354.412 31.6166C354.428 31.5366 354.436 31.4126 354.436 31.2446C354.444 31.0686 354.452 30.8646 354.46 30.6326C354.556 30.7126 354.68 30.7926 354.832 30.8726C354.992 30.9526 355.136 31.0126 355.264 31.0526C355.256 31.2846 355.24 31.5166 355.216 31.7486C355.192 31.9726 355.16 32.1326 355.12 32.2286C355.048 32.4366 354.912 32.5806 354.712 32.6606C354.64 32.7006 354.54 32.7286 354.412 32.7446C354.292 32.7606 354.18 32.7686 354.076 32.7686C354.02 32.7686 353.948 32.7686 353.86 32.7686C353.772 32.7686 353.684 32.7686 353.596 32.7686C353.516 32.7686 353.452 32.7686 353.404 32.7686C353.276 32.7686 353.136 32.7486 352.984 32.7086C352.84 32.6686 352.724 32.6086 352.636 32.5286C352.54 32.4406 352.468 32.3206 352.42 32.1686C352.38 32.0246 352.36 31.7806 352.36 31.4366V28.8206ZM351.316 21.9566L352.3 21.7646C352.388 21.9406 352.476 22.1406 352.564 22.3646C352.652 22.5886 352.716 22.7806 352.756 22.9406L351.736 23.1806C351.696 23.0206 351.636 22.8246 351.556 22.5926C351.476 22.3606 351.396 22.1486 351.316 21.9566ZM344.452 22.6526H349.312V23.5286H344.452V22.6526ZM344.248 24.9926H349.372V25.8926H344.248V24.9926ZM345.016 23.9606L345.928 23.7566C346.032 23.9886 346.136 24.2406 346.24 24.5126C346.352 24.7766 346.436 25.0086 346.492 25.2086L345.544 25.4606C345.488 25.2526 345.412 25.0086 345.316 24.7286C345.22 24.4486 345.12 24.1926 345.016 23.9606ZM347.728 23.7206L348.748 23.9246C348.636 24.2046 348.524 24.4806 348.412 24.7526C348.308 25.0246 348.208 25.2566 348.112 25.4486L347.26 25.2566C347.34 25.0406 347.428 24.7886 347.524 24.5006C347.62 24.2046 347.688 23.9446 347.728 23.7206ZM345.592 28.8446H346.588C346.548 29.4286 346.468 29.9766 346.348 30.4886C346.236 30.9926 346.052 31.4486 345.796 31.8566C345.54 32.2646 345.172 32.6126 344.692 32.9006C344.636 32.7806 344.544 32.6406 344.416 32.4806C344.288 32.3206 344.168 32.1966 344.056 32.1086C344.456 31.8846 344.76 31.6086 344.968 31.2806C345.176 30.9446 345.324 30.5726 345.412 30.1646C345.5 29.7486 345.56 29.3086 345.592 28.8446ZM346.072 21.9446L347.056 21.7286C347.152 21.9126 347.244 22.1166 347.332 22.3406C347.42 22.5646 347.488 22.7566 347.536 22.9166L346.504 23.1686C346.464 23.0086 346.4 22.8126 346.312 22.5806C346.232 22.3486 346.152 22.1366 346.072 21.9446ZM347.344 32.4566L347.188 31.5566L347.476 31.1846L349.384 30.1886C349.408 30.3166 349.44 30.4646 349.48 30.6326C349.528 30.8006 349.572 30.9406 349.612 31.0526C349.164 31.3086 348.8 31.5206 348.52 31.6886C348.24 31.8486 348.02 31.9766 347.86 32.0726C347.708 32.1686 347.592 32.2446 347.512 32.3006C347.432 32.3646 347.376 32.4166 347.344 32.4566ZM345.736 27.1646V28.2686H347.98V27.1646H345.736ZM344.788 26.4086H348.976V29.0366H344.788V26.4086ZM347.344 32.4566C347.32 32.3686 347.288 32.2566 347.248 32.1206C347.208 31.9926 347.16 31.8646 347.104 31.7366C347.056 31.6006 347.004 31.4886 346.948 31.4006C347.036 31.3526 347.116 31.2766 347.188 31.1726C347.26 31.0686 347.296 30.9086 347.296 30.6926V28.8326H348.268V31.6646C348.268 31.6646 348.22 31.6926 348.124 31.7486C348.036 31.7966 347.928 31.8606 347.8 31.9406C347.68 32.0286 347.572 32.1166 347.476 32.2046C347.388 32.3006 347.344 32.3846 347.344 32.4566ZM350.872 27.1766V28.2566H353.404V27.1766H350.872ZM349.924 26.4086H354.412V29.0246H349.924V26.4086ZM357.616 22.5086H368.02V24.4286H366.94V23.3846H358.66V24.4286H357.616V22.5086ZM360.508 23.5766H361.552V26.7326H360.508V23.5766ZM364.06 23.5766H365.116V26.7326H364.06V23.5766ZM358.756 24.0566H366.856V24.7046H358.756V24.0566ZM358.924 25.1726H366.736V25.7966H358.924V25.1726ZM357.508 26.2406H368.128V27.0446H357.508V26.2406ZM360.688 26.4566L361.516 26.7926C361.244 27.1446 360.908 27.4806 360.508 27.8006C360.108 28.1126 359.676 28.3966 359.212 28.6526C358.756 28.9086 358.296 29.1126 357.832 29.2646C357.76 29.1366 357.656 28.9926 357.52 28.8326C357.392 28.6646 357.272 28.5326 357.16 28.4366C357.608 28.3166 358.052 28.1566 358.492 27.9566C358.94 27.7486 359.356 27.5166 359.74 27.2606C360.124 27.0046 360.44 26.7366 360.688 26.4566ZM365.056 26.3966C365.296 26.6686 365.596 26.9286 365.956 27.1766C366.316 27.4166 366.712 27.6286 367.144 27.8126C367.584 27.9966 368.024 28.1446 368.464 28.2566C368.344 28.3526 368.212 28.4886 368.068 28.6646C367.932 28.8326 367.828 28.9846 367.756 29.1206C367.308 28.9766 366.86 28.7846 366.412 28.5446C365.972 28.2966 365.564 28.0166 365.188 27.7046C364.82 27.3926 364.504 27.0646 364.24 26.7206L365.056 26.3966ZM360.448 29.2046V29.6726H365.14V29.2046H360.448ZM360.448 30.2486V30.7406H365.14V30.2486H360.448ZM360.448 28.1606V28.6166H365.14V28.1606H360.448ZM359.392 27.5486H366.232V31.3406H359.392V27.5486ZM363.484 31.7606L364.192 31.1486C364.64 31.2606 365.088 31.3846 365.536 31.5206C365.992 31.6486 366.424 31.7766 366.832 31.9046C367.24 32.0246 367.596 32.1366 367.9 32.2406L366.952 32.8766C366.56 32.7246 366.048 32.5446 365.416 32.3366C364.792 32.1366 364.148 31.9446 363.484 31.7606ZM361.18 31.1246L362.08 31.7126C361.76 31.8806 361.376 32.0406 360.928 32.1926C360.488 32.3526 360.028 32.4926 359.548 32.6126C359.076 32.7326 358.616 32.8326 358.168 32.9126C358.096 32.8086 357.996 32.6846 357.868 32.5406C357.74 32.3966 357.62 32.2726 357.508 32.1686C357.948 32.1046 358.404 32.0166 358.876 31.9046C359.348 31.7926 359.788 31.6686 360.196 31.5326C360.604 31.3966 360.932 31.2606 361.18 31.1246ZM362.068 21.9566L363.184 21.6686C363.296 21.8286 363.404 22.0166 363.508 22.2326C363.612 22.4486 363.684 22.6326 363.724 22.7846L362.548 23.1206C362.516 22.9686 362.452 22.7846 362.356 22.5686C362.26 22.3446 362.164 22.1406 362.068 21.9566Z" fill="#4C4C4C"/>
</svg>
