<svg width="65" height="39" viewBox="0 0 65 39" fill="none" xmlns="http://www.w3.org/2000/svg">
<mask id="path-1-outside-1_148_2314" maskUnits="userSpaceOnUse" x="-0.650391" y="0.908203" width="66" height="38" fill="black">
<rect fill="white" x="-0.650391" y="0.908203" width="66" height="38"/>
<path d="M1.34961 2.23415H4.81701V5.70155H1.34961V2.23415ZM4.81701 2.23415H8.28442V5.70155H4.81701V2.23415ZM8.28442 2.23415H11.7518V5.70155H8.28442V2.23415ZM11.7518 2.23415H15.2192V5.70155H11.7518V2.23415ZM15.2192 2.23415H18.6866V5.70155H15.2192V2.23415ZM18.6866 2.23415H22.154V5.70155H18.6866V2.23415ZM18.6866 5.70155H22.154V9.16896H18.6866V5.70155ZM15.2192 5.70155H18.6866V9.16896H15.2192V5.70155ZM11.7518 5.70155H15.2192V9.16896H11.7518V5.70155ZM8.28442 5.70155H11.7518V9.16896H8.28442V5.70155ZM4.81701 5.70155H8.28442V9.16896H4.81701V5.70155ZM1.34961 5.70155H4.81701V9.16896H1.34961V5.70155ZM8.28442 9.16896H11.7518V12.6364H8.28442V9.16896ZM8.28442 12.6364H11.7518V16.1038H8.28442V12.6364ZM8.28442 16.1038H11.7518V19.5712H8.28442V16.1038ZM8.28442 19.5712H11.7518V23.0386H8.28442V19.5712ZM8.28442 23.0386H11.7518V26.506H8.28442V23.0386ZM8.28442 26.506H11.7518V29.9734H8.28442V26.506ZM11.7518 23.0386H15.2192V26.506H11.7518V23.0386ZM11.7518 19.5712H15.2192V23.0386H11.7518V19.5712ZM11.7518 16.1038H15.2192V19.5712H11.7518V16.1038ZM11.7518 12.6364H15.2192V16.1038H11.7518V12.6364ZM11.7518 9.16896H15.2192V12.6364H11.7518V9.16896ZM11.7518 26.506H15.2192V29.9734H11.7518V26.506ZM11.7518 29.9734H15.2192V33.4408H11.7518V29.9734ZM11.7518 33.4408H15.2192V36.9082H11.7518V33.4408ZM8.28442 33.4408H11.7518V36.9082H8.28442V33.4408ZM8.28442 29.9734H11.7518V33.4408H8.28442V29.9734ZM35.7925 33.4408H39.2599V36.9082H35.7925V33.4408ZM35.7925 29.9734H39.2599V33.4408H35.7925V29.9734ZM35.7925 26.506H39.2599V29.9734H35.7925V26.506ZM32.3251 29.9734H35.7925V33.4408H32.3251V29.9734ZM32.3251 26.506H35.7925V29.9734H32.3251V26.506ZM28.8577 26.506H32.3251V29.9734H28.8577V26.506ZM32.3251 23.0386H35.7925V26.506H32.3251V23.0386ZM39.2599 26.506H42.7273V29.9734H39.2599V26.506ZM39.2599 29.9734H42.7273V33.4408H39.2599V29.9734ZM42.7273 26.506H46.1947V29.9734H42.7273V26.506ZM28.8577 23.0386H32.3251V26.506H28.8577V23.0386ZM32.3251 19.5712H35.7925V23.0386H32.3251V19.5712ZM28.8577 19.5712H32.3251V23.0386H28.8577V19.5712ZM28.8577 16.1038H32.3251V19.5712H28.8577V16.1038ZM32.3251 16.1038H35.7925V19.5712H32.3251V16.1038ZM32.3251 12.6364H35.7925V16.1038H32.3251V12.6364ZM28.8577 12.6364H32.3251V16.1038H28.8577V12.6364ZM28.8577 9.16896H32.3251V12.6364H28.8577V9.16896ZM32.3251 9.16896H35.7925V12.6364H32.3251V9.16896ZM28.8577 2.23415H32.3251V5.70155H28.8577V2.23415ZM32.3251 2.23415H35.7925V5.70155H32.3251V2.23415ZM32.3251 5.70155H35.7925V9.16896H32.3251V5.70155ZM28.8577 5.70155H32.3251V9.16896H28.8577V5.70155ZM53.1295 33.4408H56.5969V36.9082H53.1295V33.4408ZM53.1295 29.9734H56.5969V33.4408H53.1295V29.9734ZM53.1295 26.506H56.5969V29.9734H53.1295V26.506ZM49.6621 29.9734H53.1295V33.4408H49.6621V29.9734ZM49.6621 26.506H53.1295V29.9734H49.6621V26.506ZM46.1947 26.506H49.6621V29.9734H46.1947V26.506ZM46.1947 23.0386H49.6621V26.506H46.1947V23.0386ZM56.5969 26.506H60.0643V29.9734H56.5969V26.506ZM56.5969 29.9734H60.0643V33.4408H56.5969V29.9734ZM56.5969 23.0386H60.0643V26.506H56.5969V23.0386ZM60.0643 26.506H63.5317V29.9734H60.0643V26.506ZM60.0643 23.0386H63.5317V26.506H60.0643V23.0386ZM42.7273 23.0386H46.1947V26.506H42.7273V23.0386ZM56.5969 2.23415H60.0643V5.70155H56.5969V2.23415ZM60.0643 2.23415H63.5317V5.70155H60.0643V2.23415ZM60.0643 5.70155H63.5317V9.16896H60.0643V5.70155ZM60.0643 9.16896H63.5317V12.6364H60.0643V9.16896ZM60.0643 12.6364H63.5317V16.1038H60.0643V12.6364ZM60.0643 16.1038H63.5317V19.5712H60.0643V16.1038ZM56.5969 16.1038H60.0643V19.5712H56.5969V16.1038ZM56.5969 19.5712H60.0643V23.0386H56.5969V19.5712ZM56.5969 12.6364H60.0643V16.1038H56.5969V12.6364ZM56.5969 9.16896H60.0643V12.6364H56.5969V9.16896ZM56.5969 5.70155H60.0643V9.16896H56.5969V5.70155ZM60.0643 19.5712H63.5317V23.0386H60.0643V19.5712ZM46.1947 19.5712H49.6621V23.0386H46.1947V19.5712ZM42.7273 19.5712H46.1947V23.0386H42.7273V19.5712ZM42.7273 16.1038H46.1947V19.5712H42.7273V16.1038ZM46.1947 16.1038H49.6621V19.5712H46.1947V16.1038ZM46.1947 12.6364H49.6621V16.1038H46.1947V12.6364ZM42.7273 12.6364H46.1947V16.1038H42.7273V12.6364ZM42.7273 9.16896H46.1947V12.6364H42.7273V9.16896ZM46.1947 9.16896H49.6621V12.6364H46.1947V9.16896ZM42.7273 2.23415H46.1947V5.70155H42.7273V2.23415ZM46.1947 2.23415H49.6621V5.70155H46.1947V2.23415ZM46.1947 5.70155H49.6621V9.16896H46.1947V5.70155ZM42.7273 5.70155H46.1947V9.16896H42.7273V5.70155Z"/>
</mask>
<path d="M1.34961 2.23415V0.939653H0.0551112V2.23415H1.34961ZM4.81701 2.23415H6.11151V0.939653H4.81701V2.23415ZM4.81701 5.70155V6.99605H6.11151V5.70155H4.81701ZM1.34961 5.70155H0.0551112V6.99605H1.34961V5.70155ZM4.81701 2.23415V0.939653H3.52252V2.23415H4.81701ZM8.28442 2.23415H9.57892V0.939653H8.28442V2.23415ZM8.28442 5.70155V6.99605H9.57892V5.70155H8.28442ZM4.81701 5.70155H3.52252V6.99605H4.81701V5.70155ZM8.28442 2.23415V0.939653H6.98992V2.23415H8.28442ZM11.7518 2.23415H13.0463V0.939653H11.7518V2.23415ZM11.7518 5.70155V6.99605H13.0463V5.70155H11.7518ZM8.28442 5.70155H6.98992V6.99605H8.28442V5.70155ZM11.7518 2.23415V0.939653H10.4573V2.23415H11.7518ZM15.2192 2.23415H16.5137V0.939653H15.2192V2.23415ZM15.2192 5.70155V6.99605H16.5137V5.70155H15.2192ZM11.7518 5.70155H10.4573V6.99605H11.7518V5.70155ZM15.2192 2.23415V0.939653H13.9247V2.23415H15.2192ZM18.6866 2.23415H19.9811V0.939653H18.6866V2.23415ZM18.6866 5.70155V6.99605H19.9811V5.70155H18.6866ZM15.2192 5.70155H13.9247V6.99605H15.2192V5.70155ZM18.6866 2.23415V0.939653H17.3921V2.23415H18.6866ZM22.154 2.23415H23.4485V0.939653H22.154V2.23415ZM22.154 5.70155V6.99605H23.4485V5.70155H22.154ZM18.6866 5.70155H17.3921V6.99605H18.6866V5.70155ZM18.6866 5.70155V4.40706H17.3921V5.70155H18.6866ZM22.154 5.70155H23.4485V4.40706H22.154V5.70155ZM22.154 9.16896V10.4635H23.4485V9.16896H22.154ZM18.6866 9.16896H17.3921V10.4635H18.6866V9.16896ZM15.2192 5.70155V4.40706H13.9247V5.70155H15.2192ZM18.6866 5.70155H19.9811V4.40706H18.6866V5.70155ZM18.6866 9.16896V10.4635H19.9811V9.16896H18.6866ZM15.2192 9.16896H13.9247V10.4635H15.2192V9.16896ZM11.7518 5.70155V4.40706H10.4573V5.70155H11.7518ZM15.2192 5.70155H16.5137V4.40706H15.2192V5.70155ZM15.2192 9.16896V10.4635H16.5137V9.16896H15.2192ZM11.7518 9.16896H10.4573V10.4635H11.7518V9.16896ZM8.28442 5.70155V4.40706H6.98992V5.70155H8.28442ZM11.7518 5.70155H13.0463V4.40706H11.7518V5.70155ZM11.7518 9.16896V10.4635H13.0463V9.16896H11.7518ZM8.28442 9.16896H6.98992V10.4635H8.28442V9.16896ZM4.81701 5.70155V4.40706H3.52252V5.70155H4.81701ZM8.28442 5.70155H9.57892V4.40706H8.28442V5.70155ZM8.28442 9.16896V10.4635H9.57892V9.16896H8.28442ZM4.81701 9.16896H3.52252V10.4635H4.81701V9.16896ZM1.34961 5.70155V4.40706H0.0551112V5.70155H1.34961ZM4.81701 5.70155H6.11151V4.40706H4.81701V5.70155ZM4.81701 9.16896V10.4635H6.11151V9.16896H4.81701ZM1.34961 9.16896H0.0551112V10.4635H1.34961V9.16896ZM8.28442 9.16896V7.87446H6.98992V9.16896H8.28442ZM11.7518 9.16896H13.0463V7.87446H11.7518V9.16896ZM11.7518 12.6364V13.9309H13.0463V12.6364H11.7518ZM8.28442 12.6364H6.98992V13.9309H8.28442V12.6364ZM8.28442 12.6364V11.3419H6.98992V12.6364H8.28442ZM11.7518 12.6364H13.0463V11.3419H11.7518V12.6364ZM11.7518 16.1038V17.3983H13.0463V16.1038H11.7518ZM8.28442 16.1038H6.98992V17.3983H8.28442V16.1038ZM8.28442 16.1038V14.8093H6.98992V16.1038H8.28442ZM11.7518 16.1038H13.0463V14.8093H11.7518V16.1038ZM11.7518 19.5712V20.8657H13.0463V19.5712H11.7518ZM8.28442 19.5712H6.98992V20.8657H8.28442V19.5712ZM8.28442 19.5712V18.2767H6.98992V19.5712H8.28442ZM11.7518 19.5712H13.0463V18.2767H11.7518V19.5712ZM11.7518 23.0386V24.3331H13.0463V23.0386H11.7518ZM8.28442 23.0386H6.98992V24.3331H8.28442V23.0386ZM8.28442 23.0386V21.7441H6.98992V23.0386H8.28442ZM11.7518 23.0386H13.0463V21.7441H11.7518V23.0386ZM11.7518 26.506V27.8005H13.0463V26.506H11.7518ZM8.28442 26.506H6.98992V27.8005H8.28442V26.506ZM8.28442 26.506V25.2115H6.98992V26.506H8.28442ZM11.7518 26.506H13.0463V25.2115H11.7518V26.506ZM11.7518 29.9734V31.2679H13.0463V29.9734H11.7518ZM8.28442 29.9734H6.98992V31.2679H8.28442V29.9734ZM11.7518 23.0386V21.7441H10.4573V23.0386H11.7518ZM15.2192 23.0386H16.5137V21.7441H15.2192V23.0386ZM15.2192 26.506V27.8005H16.5137V26.506H15.2192ZM11.7518 26.506H10.4573V27.8005H11.7518V26.506ZM11.7518 19.5712V18.2767H10.4573V19.5712H11.7518ZM15.2192 19.5712H16.5137V18.2767H15.2192V19.5712ZM15.2192 23.0386V24.3331H16.5137V23.0386H15.2192ZM11.7518 23.0386H10.4573V24.3331H11.7518V23.0386ZM11.7518 16.1038V14.8093H10.4573V16.1038H11.7518ZM15.2192 16.1038H16.5137V14.8093H15.2192V16.1038ZM15.2192 19.5712V20.8657H16.5137V19.5712H15.2192ZM11.7518 19.5712H10.4573V20.8657H11.7518V19.5712ZM11.7518 12.6364V11.3419H10.4573V12.6364H11.7518ZM15.2192 12.6364H16.5137V11.3419H15.2192V12.6364ZM15.2192 16.1038V17.3983H16.5137V16.1038H15.2192ZM11.7518 16.1038H10.4573V17.3983H11.7518V16.1038ZM11.7518 9.16896V7.87446H10.4573V9.16896H11.7518ZM15.2192 9.16896H16.5137V7.87446H15.2192V9.16896ZM15.2192 12.6364V13.9309H16.5137V12.6364H15.2192ZM11.7518 12.6364H10.4573V13.9309H11.7518V12.6364ZM11.7518 26.506V25.2115H10.4573V26.506H11.7518ZM15.2192 26.506H16.5137V25.2115H15.2192V26.506ZM15.2192 29.9734V31.2679H16.5137V29.9734H15.2192ZM11.7518 29.9734H10.4573V31.2679H11.7518V29.9734ZM11.7518 29.9734V28.6789H10.4573V29.9734H11.7518ZM15.2192 29.9734H16.5137V28.6789H15.2192V29.9734ZM15.2192 33.4408V34.7353H16.5137V33.4408H15.2192ZM11.7518 33.4408H10.4573V34.7353H11.7518V33.4408ZM11.7518 33.4408V32.1463H10.4573V33.4408H11.7518ZM15.2192 33.4408H16.5137V32.1463H15.2192V33.4408ZM15.2192 36.9082V38.2027H16.5137V36.9082H15.2192ZM11.7518 36.9082H10.4573V38.2027H11.7518V36.9082ZM8.28442 33.4408V32.1463H6.98992V33.4408H8.28442ZM11.7518 33.4408H13.0463V32.1463H11.7518V33.4408ZM11.7518 36.9082V38.2027H13.0463V36.9082H11.7518ZM8.28442 36.9082H6.98992V38.2027H8.28442V36.9082ZM8.28442 29.9734V28.6789H6.98992V29.9734H8.28442ZM11.7518 29.9734H13.0463V28.6789H11.7518V29.9734ZM11.7518 33.4408V34.7353H13.0463V33.4408H11.7518ZM8.28442 33.4408H6.98992V34.7353H8.28442V33.4408ZM1.34961 3.52865H4.81701V0.939653H1.34961V3.52865ZM3.52252 2.23415V5.70155H6.11151V2.23415H3.52252ZM4.81701 4.40706H1.34961V6.99605H4.81701V4.40706ZM2.64411 5.70155V2.23415H0.0551112V5.70155H2.64411ZM4.81701 3.52865H8.28442V0.939653H4.81701V3.52865ZM6.98992 2.23415V5.70155H9.57892V2.23415H6.98992ZM8.28442 4.40706H4.81701V6.99605H8.28442V4.40706ZM6.11151 5.70155V2.23415H3.52252V5.70155H6.11151ZM8.28442 3.52865H11.7518V0.939653H8.28442V3.52865ZM10.4573 2.23415V5.70155H13.0463V2.23415H10.4573ZM11.7518 4.40706H8.28442V6.99605H11.7518V4.40706ZM9.57892 5.70155V2.23415H6.98992V5.70155H9.57892ZM11.7518 3.52865H15.2192V0.939653H11.7518V3.52865ZM13.9247 2.23415V5.70155H16.5137V2.23415H13.9247ZM15.2192 4.40706H11.7518V6.99605H15.2192V4.40706ZM13.0463 5.70155V2.23415H10.4573V5.70155H13.0463ZM15.2192 3.52865H18.6866V0.939653H15.2192V3.52865ZM17.3921 2.23415V5.70155H19.9811V2.23415H17.3921ZM18.6866 4.40706H15.2192V6.99605H18.6866V4.40706ZM16.5137 5.70155V2.23415H13.9247V5.70155H16.5137ZM18.6866 3.52865H22.154V0.939653H18.6866V3.52865ZM20.8595 2.23415V5.70155H23.4485V2.23415H20.8595ZM22.154 4.40706H18.6866V6.99605H22.154V4.40706ZM19.9811 5.70155V2.23415H17.3921V5.70155H19.9811ZM18.6866 6.99605H22.154V4.40706H18.6866V6.99605ZM20.8595 5.70155V9.16896H23.4485V5.70155H20.8595ZM22.154 7.87446H18.6866V10.4635H22.154V7.87446ZM19.9811 9.16896V5.70155H17.3921V9.16896H19.9811ZM15.2192 6.99605H18.6866V4.40706H15.2192V6.99605ZM17.3921 5.70155V9.16896H19.9811V5.70155H17.3921ZM18.6866 7.87446H15.2192V10.4635H18.6866V7.87446ZM16.5137 9.16896V5.70155H13.9247V9.16896H16.5137ZM11.7518 6.99605H15.2192V4.40706H11.7518V6.99605ZM13.9247 5.70155V9.16896H16.5137V5.70155H13.9247ZM15.2192 7.87446H11.7518V10.4635H15.2192V7.87446ZM13.0463 9.16896V5.70155H10.4573V9.16896H13.0463ZM8.28442 6.99605H11.7518V4.40706H8.28442V6.99605ZM10.4573 5.70155V9.16896H13.0463V5.70155H10.4573ZM11.7518 7.87446H8.28442V10.4635H11.7518V7.87446ZM9.57892 9.16896V5.70155H6.98992V9.16896H9.57892ZM4.81701 6.99605H8.28442V4.40706H4.81701V6.99605ZM6.98992 5.70155V9.16896H9.57892V5.70155H6.98992ZM8.28442 7.87446H4.81701V10.4635H8.28442V7.87446ZM6.11151 9.16896V5.70155H3.52252V9.16896H6.11151ZM1.34961 6.99605H4.81701V4.40706H1.34961V6.99605ZM3.52252 5.70155V9.16896H6.11151V5.70155H3.52252ZM4.81701 7.87446H1.34961V10.4635H4.81701V7.87446ZM2.64411 9.16896V5.70155H0.0551112V9.16896H2.64411ZM8.28442 10.4635H11.7518V7.87446H8.28442V10.4635ZM10.4573 9.16896V12.6364H13.0463V9.16896H10.4573ZM11.7518 11.3419H8.28442V13.9309H11.7518V11.3419ZM9.57892 12.6364V9.16896H6.98992V12.6364H9.57892ZM8.28442 13.9309H11.7518V11.3419H8.28442V13.9309ZM10.4573 12.6364V16.1038H13.0463V12.6364H10.4573ZM11.7518 14.8093H8.28442V17.3983H11.7518V14.8093ZM9.57892 16.1038V12.6364H6.98992V16.1038H9.57892ZM8.28442 17.3983H11.7518V14.8093H8.28442V17.3983ZM10.4573 16.1038V19.5712H13.0463V16.1038H10.4573ZM11.7518 18.2767H8.28442V20.8657H11.7518V18.2767ZM9.57892 19.5712V16.1038H6.98992V19.5712H9.57892ZM8.28442 20.8657H11.7518V18.2767H8.28442V20.8657ZM10.4573 19.5712V23.0386H13.0463V19.5712H10.4573ZM11.7518 21.7441H8.28442V24.3331H11.7518V21.7441ZM9.57892 23.0386V19.5712H6.98992V23.0386H9.57892ZM8.28442 24.3331H11.7518V21.7441H8.28442V24.3331ZM10.4573 23.0386V26.506H13.0463V23.0386H10.4573ZM11.7518 25.2115H8.28442V27.8005H11.7518V25.2115ZM9.57892 26.506V23.0386H6.98992V26.506H9.57892ZM8.28442 27.8005H11.7518V25.2115H8.28442V27.8005ZM10.4573 26.506V29.9734H13.0463V26.506H10.4573ZM11.7518 28.6789H8.28442V31.2679H11.7518V28.6789ZM9.57892 29.9734V26.506H6.98992V29.9734H9.57892ZM11.7518 24.3331H15.2192V21.7441H11.7518V24.3331ZM13.9247 23.0386V26.506H16.5137V23.0386H13.9247ZM15.2192 25.2115H11.7518V27.8005H15.2192V25.2115ZM13.0463 26.506V23.0386H10.4573V26.506H13.0463ZM11.7518 20.8657H15.2192V18.2767H11.7518V20.8657ZM13.9247 19.5712V23.0386H16.5137V19.5712H13.9247ZM15.2192 21.7441H11.7518V24.3331H15.2192V21.7441ZM13.0463 23.0386V19.5712H10.4573V23.0386H13.0463ZM11.7518 17.3983H15.2192V14.8093H11.7518V17.3983ZM13.9247 16.1038V19.5712H16.5137V16.1038H13.9247ZM15.2192 18.2767H11.7518V20.8657H15.2192V18.2767ZM13.0463 19.5712V16.1038H10.4573V19.5712H13.0463ZM11.7518 13.9309H15.2192V11.3419H11.7518V13.9309ZM13.9247 12.6364V16.1038H16.5137V12.6364H13.9247ZM15.2192 14.8093H11.7518V17.3983H15.2192V14.8093ZM13.0463 16.1038V12.6364H10.4573V16.1038H13.0463ZM11.7518 10.4635H15.2192V7.87446H11.7518V10.4635ZM13.9247 9.16896V12.6364H16.5137V9.16896H13.9247ZM15.2192 11.3419H11.7518V13.9309H15.2192V11.3419ZM13.0463 12.6364V9.16896H10.4573V12.6364H13.0463ZM11.7518 27.8005H15.2192V25.2115H11.7518V27.8005ZM13.9247 26.506V29.9734H16.5137V26.506H13.9247ZM15.2192 28.6789H11.7518V31.2679H15.2192V28.6789ZM13.0463 29.9734V26.506H10.4573V29.9734H13.0463ZM11.7518 31.2679H15.2192V28.6789H11.7518V31.2679ZM13.9247 29.9734V33.4408H16.5137V29.9734H13.9247ZM15.2192 32.1463H11.7518V34.7353H15.2192V32.1463ZM13.0463 33.4408V29.9734H10.4573V33.4408H13.0463ZM11.7518 34.7353H15.2192V32.1463H11.7518V34.7353ZM13.9247 33.4408V36.9082H16.5137V33.4408H13.9247ZM15.2192 35.6137H11.7518V38.2027H15.2192V35.6137ZM13.0463 36.9082V33.4408H10.4573V36.9082H13.0463ZM8.28442 34.7353H11.7518V32.1463H8.28442V34.7353ZM10.4573 33.4408V36.9082H13.0463V33.4408H10.4573ZM11.7518 35.6137H8.28442V38.2027H11.7518V35.6137ZM9.57892 36.9082V33.4408H6.98992V36.9082H9.57892ZM8.28442 31.2679H11.7518V28.6789H8.28442V31.2679ZM10.4573 29.9734V33.4408H13.0463V29.9734H10.4573ZM11.7518 32.1463H8.28442V34.7353H11.7518V32.1463ZM9.57892 33.4408V29.9734H6.98992V33.4408H9.57892ZM35.7925 33.4408V32.1463H34.498V33.4408H35.7925ZM39.2599 33.4408H40.5544V32.1463H39.2599V33.4408ZM39.2599 36.9082V38.2027H40.5544V36.9082H39.2599ZM35.7925 36.9082H34.498V38.2027H35.7925V36.9082ZM35.7925 29.9734V28.6789H34.498V29.9734H35.7925ZM39.2599 29.9734H40.5544V28.6789H39.2599V29.9734ZM39.2599 33.4408V34.7353H40.5544V33.4408H39.2599ZM35.7925 33.4408H34.498V34.7353H35.7925V33.4408ZM35.7925 26.506V25.2115H34.498V26.506H35.7925ZM39.2599 26.506H40.5544V25.2115H39.2599V26.506ZM39.2599 29.9734V31.2679H40.5544V29.9734H39.2599ZM35.7925 29.9734H34.498V31.2679H35.7925V29.9734ZM32.3251 29.9734V28.6789H31.0306V29.9734H32.3251ZM35.7925 29.9734H37.087V28.6789H35.7925V29.9734ZM35.7925 33.4408V34.7353H37.087V33.4408H35.7925ZM32.3251 33.4408H31.0306V34.7353H32.3251V33.4408ZM32.3251 26.506V25.2115H31.0306V26.506H32.3251ZM35.7925 26.506H37.087V25.2115H35.7925V26.506ZM35.7925 29.9734V31.2679H37.087V29.9734H35.7925ZM32.3251 29.9734H31.0306V31.2679H32.3251V29.9734ZM28.8577 26.506V25.2115H27.5632V26.506H28.8577ZM32.3251 26.506H33.6196V25.2115H32.3251V26.506ZM32.3251 29.9734V31.2679H33.6196V29.9734H32.3251ZM28.8577 29.9734H27.5632V31.2679H28.8577V29.9734ZM32.3251 23.0386V21.7441H31.0306V23.0386H32.3251ZM35.7925 23.0386H37.087V21.7441H35.7925V23.0386ZM35.7925 26.506V27.8005H37.087V26.506H35.7925ZM32.3251 26.506H31.0306V27.8005H32.3251V26.506ZM39.2599 26.506V25.2115H37.9654V26.506H39.2599ZM42.7273 26.506H44.0218V25.2115H42.7273V26.506ZM42.7273 29.9734V31.2679H44.0218V29.9734H42.7273ZM39.2599 29.9734H37.9654V31.2679H39.2599V29.9734ZM39.2599 29.9734V28.6789H37.9654V29.9734H39.2599ZM42.7273 29.9734H44.0218V28.6789H42.7273V29.9734ZM42.7273 33.4408V34.7353H44.0218V33.4408H42.7273ZM39.2599 33.4408H37.9654V34.7353H39.2599V33.4408ZM42.7273 26.506V25.2115H41.4328V26.506H42.7273ZM46.1947 26.506H47.4892V25.2115H46.1947V26.506ZM46.1947 29.9734V31.2679H47.4892V29.9734H46.1947ZM42.7273 29.9734H41.4328V31.2679H42.7273V29.9734ZM28.8577 23.0386V21.7441H27.5632V23.0386H28.8577ZM32.3251 23.0386H33.6196V21.7441H32.3251V23.0386ZM32.3251 26.506V27.8005H33.6196V26.506H32.3251ZM28.8577 26.506H27.5632V27.8005H28.8577V26.506ZM32.3251 19.5712V18.2767H31.0306V19.5712H32.3251ZM35.7925 19.5712H37.087V18.2767H35.7925V19.5712ZM35.7925 23.0386V24.3331H37.087V23.0386H35.7925ZM32.3251 23.0386H31.0306V24.3331H32.3251V23.0386ZM28.8577 19.5712V18.2767H27.5632V19.5712H28.8577ZM32.3251 19.5712H33.6196V18.2767H32.3251V19.5712ZM32.3251 23.0386V24.3331H33.6196V23.0386H32.3251ZM28.8577 23.0386H27.5632V24.3331H28.8577V23.0386ZM28.8577 16.1038V14.8093H27.5632V16.1038H28.8577ZM32.3251 16.1038H33.6196V14.8093H32.3251V16.1038ZM32.3251 19.5712V20.8657H33.6196V19.5712H32.3251ZM28.8577 19.5712H27.5632V20.8657H28.8577V19.5712ZM32.3251 16.1038V14.8093H31.0306V16.1038H32.3251ZM35.7925 16.1038H37.087V14.8093H35.7925V16.1038ZM35.7925 19.5712V20.8657H37.087V19.5712H35.7925ZM32.3251 19.5712H31.0306V20.8657H32.3251V19.5712ZM32.3251 12.6364V11.3419H31.0306V12.6364H32.3251ZM35.7925 12.6364H37.087V11.3419H35.7925V12.6364ZM35.7925 16.1038V17.3983H37.087V16.1038H35.7925ZM32.3251 16.1038H31.0306V17.3983H32.3251V16.1038ZM28.8577 12.6364V11.3419H27.5632V12.6364H28.8577ZM32.3251 12.6364H33.6196V11.3419H32.3251V12.6364ZM32.3251 16.1038V17.3983H33.6196V16.1038H32.3251ZM28.8577 16.1038H27.5632V17.3983H28.8577V16.1038ZM28.8577 9.16896V7.87446H27.5632V9.16896H28.8577ZM32.3251 9.16896H33.6196V7.87446H32.3251V9.16896ZM32.3251 12.6364V13.9309H33.6196V12.6364H32.3251ZM28.8577 12.6364H27.5632V13.9309H28.8577V12.6364ZM32.3251 9.16896V7.87446H31.0306V9.16896H32.3251ZM35.7925 9.16896H37.087V7.87446H35.7925V9.16896ZM35.7925 12.6364V13.9309H37.087V12.6364H35.7925ZM32.3251 12.6364H31.0306V13.9309H32.3251V12.6364ZM28.8577 2.23415V0.939653H27.5632V2.23415H28.8577ZM32.3251 2.23415H33.6196V0.939653H32.3251V2.23415ZM32.3251 5.70155V6.99605H33.6196V5.70155H32.3251ZM28.8577 5.70155H27.5632V6.99605H28.8577V5.70155ZM32.3251 2.23415V0.939653H31.0306V2.23415H32.3251ZM35.7925 2.23415H37.087V0.939653H35.7925V2.23415ZM35.7925 5.70155V6.99605H37.087V5.70155H35.7925ZM32.3251 5.70155H31.0306V6.99605H32.3251V5.70155ZM32.3251 5.70155V4.40706H31.0306V5.70155H32.3251ZM35.7925 5.70155H37.087V4.40706H35.7925V5.70155ZM35.7925 9.16896V10.4635H37.087V9.16896H35.7925ZM32.3251 9.16896H31.0306V10.4635H32.3251V9.16896ZM28.8577 5.70155V4.40706H27.5632V5.70155H28.8577ZM32.3251 5.70155H33.6196V4.40706H32.3251V5.70155ZM32.3251 9.16896V10.4635H33.6196V9.16896H32.3251ZM28.8577 9.16896H27.5632V10.4635H28.8577V9.16896ZM53.1295 33.4408V32.1463H51.835V33.4408H53.1295ZM56.5969 33.4408H57.8914V32.1463H56.5969V33.4408ZM56.5969 36.9082V38.2027H57.8914V36.9082H56.5969ZM53.1295 36.9082H51.835V38.2027H53.1295V36.9082ZM53.1295 29.9734V28.6789H51.835V29.9734H53.1295ZM56.5969 29.9734H57.8914V28.6789H56.5969V29.9734ZM56.5969 33.4408V34.7353H57.8914V33.4408H56.5969ZM53.1295 33.4408H51.835V34.7353H53.1295V33.4408ZM53.1295 26.506V25.2115H51.835V26.506H53.1295ZM56.5969 26.506H57.8914V25.2115H56.5969V26.506ZM56.5969 29.9734V31.2679H57.8914V29.9734H56.5969ZM53.1295 29.9734H51.835V31.2679H53.1295V29.9734ZM49.6621 29.9734V28.6789H48.3676V29.9734H49.6621ZM53.1295 29.9734H54.424V28.6789H53.1295V29.9734ZM53.1295 33.4408V34.7353H54.424V33.4408H53.1295ZM49.6621 33.4408H48.3676V34.7353H49.6621V33.4408ZM49.6621 26.506V25.2115H48.3676V26.506H49.6621ZM53.1295 26.506H54.424V25.2115H53.1295V26.506ZM53.1295 29.9734V31.2679H54.424V29.9734H53.1295ZM49.6621 29.9734H48.3676V31.2679H49.6621V29.9734ZM46.1947 26.506V25.2115H44.9002V26.506H46.1947ZM49.6621 26.506H50.9566V25.2115H49.6621V26.506ZM49.6621 29.9734V31.2679H50.9566V29.9734H49.6621ZM46.1947 29.9734H44.9002V31.2679H46.1947V29.9734ZM46.1947 23.0386V21.7441H44.9002V23.0386H46.1947ZM49.6621 23.0386H50.9566V21.7441H49.6621V23.0386ZM49.6621 26.506V27.8005H50.9566V26.506H49.6621ZM46.1947 26.506H44.9002V27.8005H46.1947V26.506ZM56.5969 26.506V25.2115H55.3024V26.506H56.5969ZM60.0643 26.506H61.3588V25.2115H60.0643V26.506ZM60.0643 29.9734V31.2679H61.3588V29.9734H60.0643ZM56.5969 29.9734H55.3024V31.2679H56.5969V29.9734ZM56.5969 29.9734V28.6789H55.3024V29.9734H56.5969ZM60.0643 29.9734H61.3588V28.6789H60.0643V29.9734ZM60.0643 33.4408V34.7353H61.3588V33.4408H60.0643ZM56.5969 33.4408H55.3024V34.7353H56.5969V33.4408ZM56.5969 23.0386V21.7441H55.3024V23.0386H56.5969ZM60.0643 23.0386H61.3588V21.7441H60.0643V23.0386ZM60.0643 26.506V27.8005H61.3588V26.506H60.0643ZM56.5969 26.506H55.3024V27.8005H56.5969V26.506ZM60.0643 26.506V25.2115H58.7698V26.506H60.0643ZM63.5317 26.506H64.8262V25.2115H63.5317V26.506ZM63.5317 29.9734V31.2679H64.8262V29.9734H63.5317ZM60.0643 29.9734H58.7698V31.2679H60.0643V29.9734ZM60.0643 23.0386V21.7441H58.7698V23.0386H60.0643ZM63.5317 23.0386H64.8262V21.7441H63.5317V23.0386ZM63.5317 26.506V27.8005H64.8262V26.506H63.5317ZM60.0643 26.506H58.7698V27.8005H60.0643V26.506ZM42.7273 23.0386V21.7441H41.4328V23.0386H42.7273ZM46.1947 23.0386H47.4892V21.7441H46.1947V23.0386ZM46.1947 26.506V27.8005H47.4892V26.506H46.1947ZM42.7273 26.506H41.4328V27.8005H42.7273V26.506ZM56.5969 2.23415V0.939653H55.3024V2.23415H56.5969ZM60.0643 2.23415H61.3588V0.939653H60.0643V2.23415ZM60.0643 5.70155V6.99605H61.3588V5.70155H60.0643ZM56.5969 5.70155H55.3024V6.99605H56.5969V5.70155ZM60.0643 2.23415V0.939653H58.7698V2.23415H60.0643ZM63.5317 2.23415H64.8262V0.939653H63.5317V2.23415ZM63.5317 5.70155V6.99605H64.8262V5.70155H63.5317ZM60.0643 5.70155H58.7698V6.99605H60.0643V5.70155ZM60.0643 5.70155V4.40706H58.7698V5.70155H60.0643ZM63.5317 5.70155H64.8262V4.40706H63.5317V5.70155ZM63.5317 9.16896V10.4635H64.8262V9.16896H63.5317ZM60.0643 9.16896H58.7698V10.4635H60.0643V9.16896ZM60.0643 9.16896V7.87446H58.7698V9.16896H60.0643ZM63.5317 9.16896H64.8262V7.87446H63.5317V9.16896ZM63.5317 12.6364V13.9309H64.8262V12.6364H63.5317ZM60.0643 12.6364H58.7698V13.9309H60.0643V12.6364ZM60.0643 12.6364V11.3419H58.7698V12.6364H60.0643ZM63.5317 12.6364H64.8262V11.3419H63.5317V12.6364ZM63.5317 16.1038V17.3983H64.8262V16.1038H63.5317ZM60.0643 16.1038H58.7698V17.3983H60.0643V16.1038ZM60.0643 16.1038V14.8093H58.7698V16.1038H60.0643ZM63.5317 16.1038H64.8262V14.8093H63.5317V16.1038ZM63.5317 19.5712V20.8657H64.8262V19.5712H63.5317ZM60.0643 19.5712H58.7698V20.8657H60.0643V19.5712ZM56.5969 16.1038V14.8093H55.3024V16.1038H56.5969ZM60.0643 16.1038H61.3588V14.8093H60.0643V16.1038ZM60.0643 19.5712V20.8657H61.3588V19.5712H60.0643ZM56.5969 19.5712H55.3024V20.8657H56.5969V19.5712ZM56.5969 19.5712V18.2767H55.3024V19.5712H56.5969ZM60.0643 19.5712H61.3588V18.2767H60.0643V19.5712ZM60.0643 23.0386V24.3331H61.3588V23.0386H60.0643ZM56.5969 23.0386H55.3024V24.3331H56.5969V23.0386ZM56.5969 12.6364V11.3419H55.3024V12.6364H56.5969ZM60.0643 12.6364H61.3588V11.3419H60.0643V12.6364ZM60.0643 16.1038V17.3983H61.3588V16.1038H60.0643ZM56.5969 16.1038H55.3024V17.3983H56.5969V16.1038ZM56.5969 9.16896V7.87446H55.3024V9.16896H56.5969ZM60.0643 9.16896H61.3588V7.87446H60.0643V9.16896ZM60.0643 12.6364V13.9309H61.3588V12.6364H60.0643ZM56.5969 12.6364H55.3024V13.9309H56.5969V12.6364ZM56.5969 5.70155V4.40706H55.3024V5.70155H56.5969ZM60.0643 5.70155H61.3588V4.40706H60.0643V5.70155ZM60.0643 9.16896V10.4635H61.3588V9.16896H60.0643ZM56.5969 9.16896H55.3024V10.4635H56.5969V9.16896ZM60.0643 19.5712V18.2767H58.7698V19.5712H60.0643ZM63.5317 19.5712H64.8262V18.2767H63.5317V19.5712ZM63.5317 23.0386V24.3331H64.8262V23.0386H63.5317ZM60.0643 23.0386H58.7698V24.3331H60.0643V23.0386ZM46.1947 19.5712V18.2767H44.9002V19.5712H46.1947ZM49.6621 19.5712H50.9566V18.2767H49.6621V19.5712ZM49.6621 23.0386V24.3331H50.9566V23.0386H49.6621ZM46.1947 23.0386H44.9002V24.3331H46.1947V23.0386ZM42.7273 19.5712V18.2767H41.4328V19.5712H42.7273ZM46.1947 19.5712H47.4892V18.2767H46.1947V19.5712ZM46.1947 23.0386V24.3331H47.4892V23.0386H46.1947ZM42.7273 23.0386H41.4328V24.3331H42.7273V23.0386ZM42.7273 16.1038V14.8093H41.4328V16.1038H42.7273ZM46.1947 16.1038H47.4892V14.8093H46.1947V16.1038ZM46.1947 19.5712V20.8657H47.4892V19.5712H46.1947ZM42.7273 19.5712H41.4328V20.8657H42.7273V19.5712ZM46.1947 16.1038V14.8093H44.9002V16.1038H46.1947ZM49.6621 16.1038H50.9566V14.8093H49.6621V16.1038ZM49.6621 19.5712V20.8657H50.9566V19.5712H49.6621ZM46.1947 19.5712H44.9002V20.8657H46.1947V19.5712ZM46.1947 12.6364V11.3419H44.9002V12.6364H46.1947ZM49.6621 12.6364H50.9566V11.3419H49.6621V12.6364ZM49.6621 16.1038V17.3983H50.9566V16.1038H49.6621ZM46.1947 16.1038H44.9002V17.3983H46.1947V16.1038ZM42.7273 12.6364V11.3419H41.4328V12.6364H42.7273ZM46.1947 12.6364H47.4892V11.3419H46.1947V12.6364ZM46.1947 16.1038V17.3983H47.4892V16.1038H46.1947ZM42.7273 16.1038H41.4328V17.3983H42.7273V16.1038ZM42.7273 9.16896V7.87446H41.4328V9.16896H42.7273ZM46.1947 9.16896H47.4892V7.87446H46.1947V9.16896ZM46.1947 12.6364V13.9309H47.4892V12.6364H46.1947ZM42.7273 12.6364H41.4328V13.9309H42.7273V12.6364ZM46.1947 9.16896V7.87446H44.9002V9.16896H46.1947ZM49.6621 9.16896H50.9566V7.87446H49.6621V9.16896ZM49.6621 12.6364V13.9309H50.9566V12.6364H49.6621ZM46.1947 12.6364H44.9002V13.9309H46.1947V12.6364ZM42.7273 2.23415V0.939653H41.4328V2.23415H42.7273ZM46.1947 2.23415H47.4892V0.939653H46.1947V2.23415ZM46.1947 5.70155V6.99605H47.4892V5.70155H46.1947ZM42.7273 5.70155H41.4328V6.99605H42.7273V5.70155ZM46.1947 2.23415V0.939653H44.9002V2.23415H46.1947ZM49.6621 2.23415H50.9566V0.939653H49.6621V2.23415ZM49.6621 5.70155V6.99605H50.9566V5.70155H49.6621ZM46.1947 5.70155H44.9002V6.99605H46.1947V5.70155ZM46.1947 5.70155V4.40706H44.9002V5.70155H46.1947ZM49.6621 5.70155H50.9566V4.40706H49.6621V5.70155ZM49.6621 9.16896V10.4635H50.9566V9.16896H49.6621ZM46.1947 9.16896H44.9002V10.4635H46.1947V9.16896ZM42.7273 5.70155V4.40706H41.4328V5.70155H42.7273ZM46.1947 5.70155H47.4892V4.40706H46.1947V5.70155ZM46.1947 9.16896V10.4635H47.4892V9.16896H46.1947ZM42.7273 9.16896H41.4328V10.4635H42.7273V9.16896ZM35.7925 34.7353H39.2599V32.1463H35.7925V34.7353ZM37.9654 33.4408V36.9082H40.5544V33.4408H37.9654ZM39.2599 35.6137H35.7925V38.2027H39.2599V35.6137ZM37.087 36.9082V33.4408H34.498V36.9082H37.087ZM35.7925 31.2679H39.2599V28.6789H35.7925V31.2679ZM37.9654 29.9734V33.4408H40.5544V29.9734H37.9654ZM39.2599 32.1463H35.7925V34.7353H39.2599V32.1463ZM37.087 33.4408V29.9734H34.498V33.4408H37.087ZM35.7925 27.8005H39.2599V25.2115H35.7925V27.8005ZM37.9654 26.506V29.9734H40.5544V26.506H37.9654ZM39.2599 28.6789H35.7925V31.2679H39.2599V28.6789ZM37.087 29.9734V26.506H34.498V29.9734H37.087ZM32.3251 31.2679H35.7925V28.6789H32.3251V31.2679ZM34.498 29.9734V33.4408H37.087V29.9734H34.498ZM35.7925 32.1463H32.3251V34.7353H35.7925V32.1463ZM33.6196 33.4408V29.9734H31.0306V33.4408H33.6196ZM32.3251 27.8005H35.7925V25.2115H32.3251V27.8005ZM34.498 26.506V29.9734H37.087V26.506H34.498ZM35.7925 28.6789H32.3251V31.2679H35.7925V28.6789ZM33.6196 29.9734V26.506H31.0306V29.9734H33.6196ZM28.8577 27.8005H32.3251V25.2115H28.8577V27.8005ZM31.0306 26.506V29.9734H33.6196V26.506H31.0306ZM32.3251 28.6789H28.8577V31.2679H32.3251V28.6789ZM30.1522 29.9734V26.506H27.5632V29.9734H30.1522ZM32.3251 24.3331H35.7925V21.7441H32.3251V24.3331ZM34.498 23.0386V26.506H37.087V23.0386H34.498ZM35.7925 25.2115H32.3251V27.8005H35.7925V25.2115ZM33.6196 26.506V23.0386H31.0306V26.506H33.6196ZM39.2599 27.8005H42.7273V25.2115H39.2599V27.8005ZM41.4328 26.506V29.9734H44.0218V26.506H41.4328ZM42.7273 28.6789H39.2599V31.2679H42.7273V28.6789ZM40.5544 29.9734V26.506H37.9654V29.9734H40.5544ZM39.2599 31.2679H42.7273V28.6789H39.2599V31.2679ZM41.4328 29.9734V33.4408H44.0218V29.9734H41.4328ZM42.7273 32.1463H39.2599V34.7353H42.7273V32.1463ZM40.5544 33.4408V29.9734H37.9654V33.4408H40.5544ZM42.7273 27.8005H46.1947V25.2115H42.7273V27.8005ZM44.9002 26.506V29.9734H47.4892V26.506H44.9002ZM46.1947 28.6789H42.7273V31.2679H46.1947V28.6789ZM44.0218 29.9734V26.506H41.4328V29.9734H44.0218ZM28.8577 24.3331H32.3251V21.7441H28.8577V24.3331ZM31.0306 23.0386V26.506H33.6196V23.0386H31.0306ZM32.3251 25.2115H28.8577V27.8005H32.3251V25.2115ZM30.1522 26.506V23.0386H27.5632V26.506H30.1522ZM32.3251 20.8657H35.7925V18.2767H32.3251V20.8657ZM34.498 19.5712V23.0386H37.087V19.5712H34.498ZM35.7925 21.7441H32.3251V24.3331H35.7925V21.7441ZM33.6196 23.0386V19.5712H31.0306V23.0386H33.6196ZM28.8577 20.8657H32.3251V18.2767H28.8577V20.8657ZM31.0306 19.5712V23.0386H33.6196V19.5712H31.0306ZM32.3251 21.7441H28.8577V24.3331H32.3251V21.7441ZM30.1522 23.0386V19.5712H27.5632V23.0386H30.1522ZM28.8577 17.3983H32.3251V14.8093H28.8577V17.3983ZM31.0306 16.1038V19.5712H33.6196V16.1038H31.0306ZM32.3251 18.2767H28.8577V20.8657H32.3251V18.2767ZM30.1522 19.5712V16.1038H27.5632V19.5712H30.1522ZM32.3251 17.3983H35.7925V14.8093H32.3251V17.3983ZM34.498 16.1038V19.5712H37.087V16.1038H34.498ZM35.7925 18.2767H32.3251V20.8657H35.7925V18.2767ZM33.6196 19.5712V16.1038H31.0306V19.5712H33.6196ZM32.3251 13.9309H35.7925V11.3419H32.3251V13.9309ZM34.498 12.6364V16.1038H37.087V12.6364H34.498ZM35.7925 14.8093H32.3251V17.3983H35.7925V14.8093ZM33.6196 16.1038V12.6364H31.0306V16.1038H33.6196ZM28.8577 13.9309H32.3251V11.3419H28.8577V13.9309ZM31.0306 12.6364V16.1038H33.6196V12.6364H31.0306ZM32.3251 14.8093H28.8577V17.3983H32.3251V14.8093ZM30.1522 16.1038V12.6364H27.5632V16.1038H30.1522ZM28.8577 10.4635H32.3251V7.87446H28.8577V10.4635ZM31.0306 9.16896V12.6364H33.6196V9.16896H31.0306ZM32.3251 11.3419H28.8577V13.9309H32.3251V11.3419ZM30.1522 12.6364V9.16896H27.5632V12.6364H30.1522ZM32.3251 10.4635H35.7925V7.87446H32.3251V10.4635ZM34.498 9.16896V12.6364H37.087V9.16896H34.498ZM35.7925 11.3419H32.3251V13.9309H35.7925V11.3419ZM33.6196 12.6364V9.16896H31.0306V12.6364H33.6196ZM28.8577 3.52865H32.3251V0.939653H28.8577V3.52865ZM31.0306 2.23415V5.70155H33.6196V2.23415H31.0306ZM32.3251 4.40706H28.8577V6.99605H32.3251V4.40706ZM30.1522 5.70155V2.23415H27.5632V5.70155H30.1522ZM32.3251 3.52865H35.7925V0.939653H32.3251V3.52865ZM34.498 2.23415V5.70155H37.087V2.23415H34.498ZM35.7925 4.40706H32.3251V6.99605H35.7925V4.40706ZM33.6196 5.70155V2.23415H31.0306V5.70155H33.6196ZM32.3251 6.99605H35.7925V4.40706H32.3251V6.99605ZM34.498 5.70155V9.16896H37.087V5.70155H34.498ZM35.7925 7.87446H32.3251V10.4635H35.7925V7.87446ZM33.6196 9.16896V5.70155H31.0306V9.16896H33.6196ZM28.8577 6.99605H32.3251V4.40706H28.8577V6.99605ZM31.0306 5.70155V9.16896H33.6196V5.70155H31.0306ZM32.3251 7.87446H28.8577V10.4635H32.3251V7.87446ZM30.1522 9.16896V5.70155H27.5632V9.16896H30.1522ZM53.1295 34.7353H56.5969V32.1463H53.1295V34.7353ZM55.3024 33.4408V36.9082H57.8914V33.4408H55.3024ZM56.5969 35.6137H53.1295V38.2027H56.5969V35.6137ZM54.424 36.9082V33.4408H51.835V36.9082H54.424ZM53.1295 31.2679H56.5969V28.6789H53.1295V31.2679ZM55.3024 29.9734V33.4408H57.8914V29.9734H55.3024ZM56.5969 32.1463H53.1295V34.7353H56.5969V32.1463ZM54.424 33.4408V29.9734H51.835V33.4408H54.424ZM53.1295 27.8005H56.5969V25.2115H53.1295V27.8005ZM55.3024 26.506V29.9734H57.8914V26.506H55.3024ZM56.5969 28.6789H53.1295V31.2679H56.5969V28.6789ZM54.424 29.9734V26.506H51.835V29.9734H54.424ZM49.6621 31.2679H53.1295V28.6789H49.6621V31.2679ZM51.835 29.9734V33.4408H54.424V29.9734H51.835ZM53.1295 32.1463H49.6621V34.7353H53.1295V32.1463ZM50.9566 33.4408V29.9734H48.3676V33.4408H50.9566ZM49.6621 27.8005H53.1295V25.2115H49.6621V27.8005ZM51.835 26.506V29.9734H54.424V26.506H51.835ZM53.1295 28.6789H49.6621V31.2679H53.1295V28.6789ZM50.9566 29.9734V26.506H48.3676V29.9734H50.9566ZM46.1947 27.8005H49.6621V25.2115H46.1947V27.8005ZM48.3676 26.506V29.9734H50.9566V26.506H48.3676ZM49.6621 28.6789H46.1947V31.2679H49.6621V28.6789ZM47.4892 29.9734V26.506H44.9002V29.9734H47.4892ZM46.1947 24.3331H49.6621V21.7441H46.1947V24.3331ZM48.3676 23.0386V26.506H50.9566V23.0386H48.3676ZM49.6621 25.2115H46.1947V27.8005H49.6621V25.2115ZM47.4892 26.506V23.0386H44.9002V26.506H47.4892ZM56.5969 27.8005H60.0643V25.2115H56.5969V27.8005ZM58.7698 26.506V29.9734H61.3588V26.506H58.7698ZM60.0643 28.6789H56.5969V31.2679H60.0643V28.6789ZM57.8914 29.9734V26.506H55.3024V29.9734H57.8914ZM56.5969 31.2679H60.0643V28.6789H56.5969V31.2679ZM58.7698 29.9734V33.4408H61.3588V29.9734H58.7698ZM60.0643 32.1463H56.5969V34.7353H60.0643V32.1463ZM57.8914 33.4408V29.9734H55.3024V33.4408H57.8914ZM56.5969 24.3331H60.0643V21.7441H56.5969V24.3331ZM58.7698 23.0386V26.506H61.3588V23.0386H58.7698ZM60.0643 25.2115H56.5969V27.8005H60.0643V25.2115ZM57.8914 26.506V23.0386H55.3024V26.506H57.8914ZM60.0643 27.8005H63.5317V25.2115H60.0643V27.8005ZM62.2372 26.506V29.9734H64.8262V26.506H62.2372ZM63.5317 28.6789H60.0643V31.2679H63.5317V28.6789ZM61.3588 29.9734V26.506H58.7698V29.9734H61.3588ZM60.0643 24.3331H63.5317V21.7441H60.0643V24.3331ZM62.2372 23.0386V26.506H64.8262V23.0386H62.2372ZM63.5317 25.2115H60.0643V27.8005H63.5317V25.2115ZM61.3588 26.506V23.0386H58.7698V26.506H61.3588ZM42.7273 24.3331H46.1947V21.7441H42.7273V24.3331ZM44.9002 23.0386V26.506H47.4892V23.0386H44.9002ZM46.1947 25.2115H42.7273V27.8005H46.1947V25.2115ZM44.0218 26.506V23.0386H41.4328V26.506H44.0218ZM56.5969 3.52865H60.0643V0.939653H56.5969V3.52865ZM58.7698 2.23415V5.70155H61.3588V2.23415H58.7698ZM60.0643 4.40706H56.5969V6.99605H60.0643V4.40706ZM57.8914 5.70155V2.23415H55.3024V5.70155H57.8914ZM60.0643 3.52865H63.5317V0.939653H60.0643V3.52865ZM62.2372 2.23415V5.70155H64.8262V2.23415H62.2372ZM63.5317 4.40706H60.0643V6.99605H63.5317V4.40706ZM61.3588 5.70155V2.23415H58.7698V5.70155H61.3588ZM60.0643 6.99605H63.5317V4.40706H60.0643V6.99605ZM62.2372 5.70155V9.16896H64.8262V5.70155H62.2372ZM63.5317 7.87446H60.0643V10.4635H63.5317V7.87446ZM61.3588 9.16896V5.70155H58.7698V9.16896H61.3588ZM60.0643 10.4635H63.5317V7.87446H60.0643V10.4635ZM62.2372 9.16896V12.6364H64.8262V9.16896H62.2372ZM63.5317 11.3419H60.0643V13.9309H63.5317V11.3419ZM61.3588 12.6364V9.16896H58.7698V12.6364H61.3588ZM60.0643 13.9309H63.5317V11.3419H60.0643V13.9309ZM62.2372 12.6364V16.1038H64.8262V12.6364H62.2372ZM63.5317 14.8093H60.0643V17.3983H63.5317V14.8093ZM61.3588 16.1038V12.6364H58.7698V16.1038H61.3588ZM60.0643 17.3983H63.5317V14.8093H60.0643V17.3983ZM62.2372 16.1038V19.5712H64.8262V16.1038H62.2372ZM63.5317 18.2767H60.0643V20.8657H63.5317V18.2767ZM61.3588 19.5712V16.1038H58.7698V19.5712H61.3588ZM56.5969 17.3983H60.0643V14.8093H56.5969V17.3983ZM58.7698 16.1038V19.5712H61.3588V16.1038H58.7698ZM60.0643 18.2767H56.5969V20.8657H60.0643V18.2767ZM57.8914 19.5712V16.1038H55.3024V19.5712H57.8914ZM56.5969 20.8657H60.0643V18.2767H56.5969V20.8657ZM58.7698 19.5712V23.0386H61.3588V19.5712H58.7698ZM60.0643 21.7441H56.5969V24.3331H60.0643V21.7441ZM57.8914 23.0386V19.5712H55.3024V23.0386H57.8914ZM56.5969 13.9309H60.0643V11.3419H56.5969V13.9309ZM58.7698 12.6364V16.1038H61.3588V12.6364H58.7698ZM60.0643 14.8093H56.5969V17.3983H60.0643V14.8093ZM57.8914 16.1038V12.6364H55.3024V16.1038H57.8914ZM56.5969 10.4635H60.0643V7.87446H56.5969V10.4635ZM58.7698 9.16896V12.6364H61.3588V9.16896H58.7698ZM60.0643 11.3419H56.5969V13.9309H60.0643V11.3419ZM57.8914 12.6364V9.16896H55.3024V12.6364H57.8914ZM56.5969 6.99605H60.0643V4.40706H56.5969V6.99605ZM58.7698 5.70155V9.16896H61.3588V5.70155H58.7698ZM60.0643 7.87446H56.5969V10.4635H60.0643V7.87446ZM57.8914 9.16896V5.70155H55.3024V9.16896H57.8914ZM60.0643 20.8657H63.5317V18.2767H60.0643V20.8657ZM62.2372 19.5712V23.0386H64.8262V19.5712H62.2372ZM63.5317 21.7441H60.0643V24.3331H63.5317V21.7441ZM61.3588 23.0386V19.5712H58.7698V23.0386H61.3588ZM46.1947 20.8657H49.6621V18.2767H46.1947V20.8657ZM48.3676 19.5712V23.0386H50.9566V19.5712H48.3676ZM49.6621 21.7441H46.1947V24.3331H49.6621V21.7441ZM47.4892 23.0386V19.5712H44.9002V23.0386H47.4892ZM42.7273 20.8657H46.1947V18.2767H42.7273V20.8657ZM44.9002 19.5712V23.0386H47.4892V19.5712H44.9002ZM46.1947 21.7441H42.7273V24.3331H46.1947V21.7441ZM44.0218 23.0386V19.5712H41.4328V23.0386H44.0218ZM42.7273 17.3983H46.1947V14.8093H42.7273V17.3983ZM44.9002 16.1038V19.5712H47.4892V16.1038H44.9002ZM46.1947 18.2767H42.7273V20.8657H46.1947V18.2767ZM44.0218 19.5712V16.1038H41.4328V19.5712H44.0218ZM46.1947 17.3983H49.6621V14.8093H46.1947V17.3983ZM48.3676 16.1038V19.5712H50.9566V16.1038H48.3676ZM49.6621 18.2767H46.1947V20.8657H49.6621V18.2767ZM47.4892 19.5712V16.1038H44.9002V19.5712H47.4892ZM46.1947 13.9309H49.6621V11.3419H46.1947V13.9309ZM48.3676 12.6364V16.1038H50.9566V12.6364H48.3676ZM49.6621 14.8093H46.1947V17.3983H49.6621V14.8093ZM47.4892 16.1038V12.6364H44.9002V16.1038H47.4892ZM42.7273 13.9309H46.1947V11.3419H42.7273V13.9309ZM44.9002 12.6364V16.1038H47.4892V12.6364H44.9002ZM46.1947 14.8093H42.7273V17.3983H46.1947V14.8093ZM44.0218 16.1038V12.6364H41.4328V16.1038H44.0218ZM42.7273 10.4635H46.1947V7.87446H42.7273V10.4635ZM44.9002 9.16896V12.6364H47.4892V9.16896H44.9002ZM46.1947 11.3419H42.7273V13.9309H46.1947V11.3419ZM44.0218 12.6364V9.16896H41.4328V12.6364H44.0218ZM46.1947 10.4635H49.6621V7.87446H46.1947V10.4635ZM48.3676 9.16896V12.6364H50.9566V9.16896H48.3676ZM49.6621 11.3419H46.1947V13.9309H49.6621V11.3419ZM47.4892 12.6364V9.16896H44.9002V12.6364H47.4892ZM42.7273 3.52865H46.1947V0.939653H42.7273V3.52865ZM44.9002 2.23415V5.70155H47.4892V2.23415H44.9002ZM46.1947 4.40706H42.7273V6.99605H46.1947V4.40706ZM44.0218 5.70155V2.23415H41.4328V5.70155H44.0218ZM46.1947 3.52865H49.6621V0.939653H46.1947V3.52865ZM48.3676 2.23415V5.70155H50.9566V2.23415H48.3676ZM49.6621 4.40706H46.1947V6.99605H49.6621V4.40706ZM47.4892 5.70155V2.23415H44.9002V5.70155H47.4892ZM46.1947 6.99605H49.6621V4.40706H46.1947V6.99605ZM48.3676 5.70155V9.16896H50.9566V5.70155H48.3676ZM49.6621 7.87446H46.1947V10.4635H49.6621V7.87446ZM47.4892 9.16896V5.70155H44.9002V9.16896H47.4892ZM42.7273 6.99605H46.1947V4.40706H42.7273V6.99605ZM44.9002 5.70155V9.16896H47.4892V5.70155H44.9002ZM46.1947 7.87446H42.7273V10.4635H46.1947V7.87446ZM44.0218 9.16896V5.70155H41.4328V9.16896H44.0218Z" fill="#4C4C4C" mask="url(#path-1-outside-1_148_2314)"/>
</svg>
