<svg width="282" height="8" viewBox="0 0 282 8" fill="none" xmlns="http://www.w3.org/2000/svg">
<path d="M1.87913 0.28162H2.50326V0.905752H1.87913V0.28162ZM1.25499 0.28162H1.87913V0.905752H1.25499V0.28162ZM1.25499 0.905752H1.87913V1.52989H1.25499V0.905752ZM1.87913 0.905752H2.50326V1.52989H1.87913V0.905752ZM2.50326 0.905752H3.12739V1.52989H2.50326V0.905752ZM2.50326 0.28162H3.12739V0.905752H2.50326V0.28162ZM3.12739 0.28162H3.75152V0.905752H3.12739V0.28162ZM3.75152 0.28162H4.37566V0.905752H3.75152V0.28162ZM3.75152 0.905752H4.37566V1.52989H3.75152V0.905752ZM3.12739 0.905752H3.75152V1.52989H3.12739V0.905752ZM3.75152 1.52989H4.37566V2.15402H3.75152V1.52989ZM4.37566 0.905752H4.99979V1.52989H4.37566V0.905752ZM4.37566 1.52989H4.99979V2.15402H4.37566V1.52989ZM4.37566 4.65055H4.99979V5.27468H4.37566V4.65055ZM4.37566 5.27468H4.99979V5.89882H4.37566V5.27468ZM3.75152 5.27468H4.37566V5.89882H3.75152V5.27468ZM3.75152 4.65055H4.37566V5.27468H3.75152V4.65055ZM3.12739 5.27468H3.75152V5.89882H3.12739V5.27468ZM3.75152 5.89882H4.37566V6.52295H3.75152V5.89882ZM3.12739 5.89882H3.75152V6.52295H3.12739V5.89882ZM2.50326 5.89882H3.12739V6.52295H2.50326V5.89882ZM2.50326 5.27468H3.12739V5.89882H2.50326V5.27468ZM1.87913 5.89882H2.50326V6.52295H1.87913V5.89882ZM1.25499 5.89882H1.87913V6.52295H1.25499V5.89882ZM1.25499 5.27468H1.87913V5.89882H1.25499V5.27468ZM1.87913 5.27468H2.50326V5.89882H1.87913V5.27468ZM1.87913 4.65055H2.50326V5.27468H1.87913V4.65055ZM1.25499 4.65055H1.87913V5.27468H1.25499V4.65055ZM0.630859 5.27468H1.25499V5.89882H0.630859V5.27468ZM0.630859 4.65055H1.25499V5.27468H0.630859V4.65055ZM0.630859 4.02642H1.25499V4.65055H0.630859V4.02642ZM0.630859 3.40228H1.25499V4.02642H0.630859V3.40228ZM0.630859 2.77815H1.25499V3.40228H0.630859V2.77815ZM0.630859 2.15402H1.25499V2.77815H0.630859V2.15402ZM0.630859 1.52989H1.25499V2.15402H0.630859V1.52989ZM1.25499 1.52989H1.87913V2.15402H1.25499V1.52989ZM0.630859 0.905752H1.25499V1.52989H0.630859V0.905752ZM1.87913 1.52989H2.50326V2.15402H1.87913V1.52989ZM1.25499 2.15402H1.87913V2.77815H1.25499V2.15402ZM1.25499 2.77815H1.87913V3.40228H1.25499V2.77815ZM1.25499 3.40228H1.87913V4.02642H1.25499V3.40228ZM1.25499 4.02642H1.87913V4.65055H1.25499V4.02642ZM4.37566 4.02642H4.99979V4.65055H4.37566V4.02642ZM3.75152 4.02642H4.37566V4.65055H3.75152V4.02642ZM3.75152 3.40228H4.37566V4.02642H3.75152V3.40228ZM4.37566 3.40228H4.99979V4.02642H4.37566V3.40228ZM4.37566 2.77815H4.99979V3.40228H4.37566V2.77815ZM3.75152 2.77815H4.37566V3.40228H3.75152V2.77815ZM3.12739 2.77815H3.75152V3.40228H3.12739V2.77815ZM2.50326 2.77815H3.12739V3.40228H2.50326V2.77815ZM2.50326 3.40228H3.12739V4.02642H2.50326V3.40228ZM3.12739 3.40228H3.75152V4.02642H3.12739V3.40228ZM8.27187 1.52989H8.89601V2.15402H8.27187V1.52989ZM7.64774 1.52989H8.27187V2.15402H7.64774V1.52989ZM7.64774 2.15402H8.27187V2.77815H7.64774V2.15402ZM8.27187 2.15402H8.89601V2.77815H8.27187V2.15402ZM8.89601 1.52989H9.52014V2.15402H8.89601V1.52989ZM9.52014 1.52989H10.1443V2.15402H9.52014V1.52989ZM10.1443 1.52989H10.7684V2.15402H10.1443V1.52989ZM10.1443 2.15402H10.7684V2.77815H10.1443V2.15402ZM9.52014 2.15402H10.1443V2.77815H9.52014V2.15402ZM10.1443 3.40228H10.7684V4.02642H10.1443V3.40228ZM10.7684 2.15402H11.3925V2.77815H10.7684V2.15402ZM10.7684 2.77815H11.3925V3.40228H10.7684V2.77815ZM10.7684 3.40228H11.3925V4.02642H10.7684V3.40228ZM10.7684 4.02642H11.3925V4.65055H10.7684V4.02642ZM10.7684 4.65055H11.3925V5.27468H10.7684V4.65055ZM10.7684 5.27468H11.3925V5.89882H10.7684V5.27468ZM10.1443 5.27468H10.7684V5.89882H10.1443V5.27468ZM10.1443 4.65055H10.7684V5.27468H10.1443V4.65055ZM10.1443 4.02642H10.7684V4.65055H10.1443V4.02642ZM10.1443 2.77815H10.7684V3.40228H10.1443V2.77815ZM9.52014 5.27468H10.1443V5.89882H9.52014V5.27468ZM10.1443 5.89882H10.7684V6.52295H10.1443V5.89882ZM9.52014 5.89882H10.1443V6.52295H9.52014V5.89882ZM8.89601 5.89882H9.52014V6.52295H8.89601V5.89882ZM8.27187 5.89882H8.89601V6.52295H8.27187V5.89882ZM7.64774 5.89882H8.27187V6.52295H7.64774V5.89882ZM7.64774 5.27468H8.27187V5.89882H7.64774V5.27468ZM8.27187 5.27468H8.89601V5.89882H8.27187V5.27468ZM7.64774 4.65055H8.27187V5.27468H7.64774V4.65055ZM7.02361 5.27468H7.64774V5.89882H7.02361V5.27468ZM7.02361 4.65055H7.64774V5.27468H7.02361V4.65055ZM7.02361 4.02642H7.64774V4.65055H7.02361V4.02642ZM7.02361 3.40228H7.64774V4.02642H7.02361V3.40228ZM7.02361 2.77815H7.64774V3.40228H7.02361V2.77815ZM7.02361 2.15402H7.64774V2.77815H7.02361V2.15402ZM7.64774 2.77815H8.27187V3.40228H7.64774V2.77815ZM7.64774 3.40228H8.27187V4.02642H7.64774V3.40228ZM7.64774 4.02642H8.27187V4.65055H7.64774V4.02642ZM8.89601 5.27468H9.52014V5.89882H8.89601V5.27468ZM8.89601 2.15402H9.52014V2.77815H8.89601V2.15402ZM14.6646 1.52989H15.2888V2.15402H14.6646V1.52989ZM14.0405 1.52989H14.6646V2.15402H14.0405V1.52989ZM14.0405 2.15402H14.6646V2.77815H14.0405V2.15402ZM14.6646 2.15402H15.2888V2.77815H14.6646V2.15402ZM15.2888 1.52989H15.9129V2.15402H15.2888V1.52989ZM15.9129 1.52989H16.537V2.15402H15.9129V1.52989ZM16.537 1.52989H17.1612V2.15402H16.537V1.52989ZM16.537 2.15402H17.1612V2.77815H16.537V2.15402ZM15.9129 2.15402H16.537V2.77815H15.9129V2.15402ZM16.537 3.40228H17.1612V4.02642H16.537V3.40228ZM17.1612 2.15402H17.7853V2.77815H17.1612V2.15402ZM17.1612 2.77815H17.7853V3.40228H17.1612V2.77815ZM17.1612 3.40228H17.7853V4.02642H17.1612V3.40228ZM17.1612 4.02642H17.7853V4.65055H17.1612V4.02642ZM17.1612 4.65055H17.7853V5.27468H17.1612V4.65055ZM17.1612 5.27468H17.7853V5.89882H17.1612V5.27468ZM16.537 5.27468H17.1612V5.89882H16.537V5.27468ZM16.537 4.65055H17.1612V5.27468H16.537V4.65055ZM16.537 4.02642H17.1612V4.65055H16.537V4.02642ZM16.537 2.77815H17.1612V3.40228H16.537V2.77815ZM15.9129 5.27468H16.537V5.89882H15.9129V5.27468ZM16.537 5.89882H17.1612V6.52295H16.537V5.89882ZM15.9129 5.89882H16.537V6.52295H15.9129V5.89882ZM15.2888 5.89882H15.9129V6.52295H15.2888V5.89882ZM14.6646 5.89882H15.2888V6.52295H14.6646V5.89882ZM14.0405 5.89882H14.6646V6.52295H14.0405V5.89882ZM14.0405 5.27468H14.6646V5.89882H14.0405V5.27468ZM14.6646 5.27468H15.2888V5.89882H14.6646V5.27468ZM14.0405 4.65055H14.6646V5.27468H14.0405V4.65055ZM13.4164 5.27468H14.0405V5.89882H13.4164V5.27468ZM13.4164 4.65055H14.0405V5.27468H13.4164V4.65055ZM13.4164 4.02642H14.0405V4.65055H13.4164V4.02642ZM13.4164 3.40228H14.0405V4.02642H13.4164V3.40228ZM13.4164 2.77815H14.0405V3.40228H13.4164V2.77815ZM13.4164 2.15402H14.0405V2.77815H13.4164V2.15402ZM14.0405 2.77815H14.6646V3.40228H14.0405V2.77815ZM14.0405 3.40228H14.6646V4.02642H14.0405V3.40228ZM14.0405 4.02642H14.6646V4.65055H14.0405V4.02642ZM15.2888 5.27468H15.9129V5.89882H15.2888V5.27468ZM15.2888 2.15402H15.9129V2.77815H15.2888V2.15402ZM23.5539 1.52989H24.178V2.15402H23.5539V1.52989ZM22.9298 1.52989H23.5539V2.15402H22.9298V1.52989ZM22.3056 1.52989H22.9298V2.15402H22.3056V1.52989ZM21.6815 1.52989H22.3056V2.15402H21.6815V1.52989ZM21.0574 1.52989H21.6815V2.15402H21.0574V1.52989ZM21.0574 2.15402H21.6815V2.77815H21.0574V2.15402ZM21.6815 2.15402H22.3056V2.77815H21.6815V2.15402ZM22.3056 2.15402H22.9298V2.77815H22.3056V2.15402ZM22.9298 2.15402H23.5539V2.77815H22.9298V2.15402ZM23.5539 2.15402H24.178V2.77815H23.5539V2.15402ZM20.4332 1.52989H21.0574V2.15402H20.4332V1.52989ZM20.4332 2.15402H21.0574V2.77815H20.4332V2.15402ZM20.4332 2.77815H21.0574V3.40228H20.4332V2.77815ZM19.8091 2.77815H20.4332V3.40228H19.8091V2.77815ZM19.8091 2.15402H20.4332V2.77815H19.8091V2.15402ZM19.8091 3.40228H20.4332V4.02642H19.8091V3.40228ZM19.8091 4.02642H20.4332V4.65055H19.8091V4.02642ZM20.4332 4.65055H21.0574V5.27468H20.4332V4.65055ZM20.4332 4.02642H21.0574V4.65055H20.4332V4.02642ZM20.4332 3.40228H21.0574V4.02642H20.4332V3.40228ZM19.8091 4.65055H20.4332V5.27468H19.8091V4.65055ZM20.4332 5.27468H21.0574V5.89882H20.4332V5.27468ZM21.0574 5.27468H21.6815V5.89882H21.0574V5.27468ZM21.6815 5.27468H22.3056V5.89882H21.6815V5.27468ZM22.9298 5.27468H23.5539V5.89882H22.9298V5.27468ZM23.5539 5.27468H24.178V5.89882H23.5539V5.27468ZM23.5539 4.65055H24.178V5.27468H23.5539V4.65055ZM22.9298 4.65055H23.5539V5.27468H22.9298V4.65055ZM22.3056 4.65055H22.9298V5.27468H22.3056V4.65055ZM21.6815 4.65055H22.3056V5.27468H21.6815V4.65055ZM21.0574 4.65055H21.6815V5.27468H21.0574V4.65055ZM22.9298 4.02642H23.5539V4.65055H22.9298V4.02642ZM22.9298 3.40228H23.5539V4.02642H22.9298V3.40228ZM22.9298 2.77815H23.5539V3.40228H22.9298V2.77815ZM23.5539 2.77815H24.178V3.40228H23.5539V2.77815ZM23.5539 3.40228H24.178V4.02642H23.5539V3.40228ZM23.5539 4.02642H24.178V4.65055H23.5539V4.02642ZM22.9298 5.89882H23.5539V6.52295H22.9298V5.89882ZM22.9298 6.52295H23.5539V7.14708H22.9298V6.52295ZM23.5539 6.52295H24.178V7.14708H23.5539V6.52295ZM23.5539 5.89882H24.178V6.52295H23.5539V5.89882ZM19.8091 6.52295H20.4332V7.14708H19.8091V6.52295ZM20.4332 6.52295H21.0574V7.14708H20.4332V6.52295ZM20.4332 7.14708H21.0574V7.77122H20.4332V7.14708ZM21.0574 7.14708H21.6815V7.77122H21.0574V7.14708ZM21.0574 6.52295H21.6815V7.14708H21.0574V6.52295ZM21.6815 6.52295H22.3056V7.14708H21.6815V6.52295ZM22.3056 6.52295H22.9298V7.14708H22.3056V6.52295ZM22.9298 7.14708H23.5539V7.77122H22.9298V7.14708ZM22.3056 7.14708H22.9298V7.77122H22.3056V7.14708ZM21.6815 7.14708H22.3056V7.77122H21.6815V7.14708ZM26.2018 0.28162H26.826V0.905752H26.2018V0.28162ZM26.826 0.28162H27.4501V0.905752H26.826V0.28162ZM26.826 0.905752H27.4501V1.52989H26.826V0.905752ZM26.826 1.52989H27.4501V2.15402H26.826V1.52989ZM26.826 2.15402H27.4501V2.77815H26.826V2.15402ZM26.826 2.77815H27.4501V3.40228H26.826V2.77815ZM26.826 3.40228H27.4501V4.02642H26.826V3.40228ZM26.2018 3.40228H26.826V4.02642H26.2018V3.40228ZM26.2018 4.02642H26.826V4.65055H26.2018V4.02642ZM26.2018 4.65055H26.826V5.27468H26.2018V4.65055ZM26.2018 5.27468H26.826V5.89882H26.2018V5.27468ZM26.2018 5.89882H26.826V6.52295H26.2018V5.89882ZM26.826 5.89882H27.4501V6.52295H26.826V5.89882ZM26.826 5.27468H27.4501V5.89882H26.826V5.27468ZM26.826 4.65055H27.4501V5.27468H26.826V4.65055ZM26.826 4.02642H27.4501V4.65055H26.826V4.02642ZM26.2018 2.77815H26.826V3.40228H26.2018V2.77815ZM26.2018 2.15402H26.826V2.77815H26.2018V2.15402ZM26.2018 1.52989H26.826V2.15402H26.2018V1.52989ZM26.2018 0.905752H26.826V1.52989H26.2018V0.905752ZM30.7254 1.52989H31.3496V2.15402H30.7254V1.52989ZM30.1013 1.52989H30.7254V2.15402H30.1013V1.52989ZM30.1013 2.15402H30.7254V2.77815H30.1013V2.15402ZM30.7254 2.15402H31.3496V2.77815H30.7254V2.15402ZM31.3496 1.52989H31.9737V2.15402H31.3496V1.52989ZM31.9737 1.52989H32.5978V2.15402H31.9737V1.52989ZM32.5978 1.52989H33.222V2.15402H32.5978V1.52989ZM32.5978 2.15402H33.222V2.77815H32.5978V2.15402ZM31.9737 2.15402H32.5978V2.77815H31.9737V2.15402ZM33.222 2.15402H33.8461V2.77815H33.222V2.15402ZM33.222 2.77815H33.8461V3.40228H33.222V2.77815ZM33.222 5.27468H33.8461V5.89882H33.222V5.27468ZM32.5978 5.27468H33.222V5.89882H32.5978V5.27468ZM32.5978 2.77815H33.222V3.40228H32.5978V2.77815ZM31.9737 5.27468H32.5978V5.89882H31.9737V5.27468ZM32.5978 5.89882H33.222V6.52295H32.5978V5.89882ZM31.9737 5.89882H32.5978V6.52295H31.9737V5.89882ZM31.3496 5.89882H31.9737V6.52295H31.3496V5.89882ZM30.7254 5.89882H31.3496V6.52295H30.7254V5.89882ZM30.1013 5.89882H30.7254V6.52295H30.1013V5.89882ZM30.1013 5.27468H30.7254V5.89882H30.1013V5.27468ZM30.7254 5.27468H31.3496V5.89882H30.7254V5.27468ZM30.1013 4.65055H30.7254V5.27468H30.1013V4.65055ZM29.4772 5.27468H30.1013V5.89882H29.4772V5.27468ZM29.4772 4.65055H30.1013V5.27468H29.4772V4.65055ZM29.4772 4.02642H30.1013V4.65055H29.4772V4.02642ZM29.4772 3.40228H30.1013V4.02642H29.4772V3.40228ZM29.4772 2.77815H30.1013V3.40228H29.4772V2.77815ZM29.4772 2.15402H30.1013V2.77815H29.4772V2.15402ZM30.1013 2.77815H30.7254V3.40228H30.1013V2.77815ZM30.1013 3.40228H30.7254V4.02642H30.1013V3.40228ZM30.1013 4.02642H30.7254V4.65055H30.1013V4.02642ZM31.3496 5.27468H31.9737V5.89882H31.3496V5.27468ZM31.3496 2.15402H31.9737V2.77815H31.3496V2.15402ZM32.5978 3.40228H33.222V4.02642H32.5978V3.40228ZM33.222 3.40228H33.8461V4.02642H33.222V3.40228ZM30.7254 4.02642H31.3496V4.65055H30.7254V4.02642ZM31.3496 4.02642H31.9737V4.65055H31.3496V4.02642ZM31.9737 4.02642H32.5978V4.65055H31.9737V4.02642ZM32.5978 4.02642H33.222V4.65055H32.5978V4.02642ZM33.222 4.02642H33.8461V4.65055H33.222V4.02642ZM31.9737 3.40228H32.5978V4.02642H31.9737V3.40228ZM31.3496 3.40228H31.9737V4.02642H31.3496V3.40228ZM30.7254 3.40228H31.3496V4.02642H30.7254V3.40228ZM41.0079 0.28162H41.632V0.905752H41.0079V0.28162ZM40.3838 0.28162H41.0079V0.905752H40.3838V0.28162ZM40.3838 0.905752H41.0079V1.52989H40.3838V0.905752ZM41.0079 0.905752H41.632V1.52989H41.0079V0.905752ZM41.632 0.905752H42.2562V1.52989H41.632V0.905752ZM41.632 0.28162H42.2562V0.905752H41.632V0.28162ZM42.2562 0.28162H42.8803V0.905752H42.2562V0.28162ZM42.8803 0.28162H43.5044V0.905752H42.8803V0.28162ZM42.8803 0.905752H43.5044V1.52989H42.8803V0.905752ZM42.2562 0.905752H42.8803V1.52989H42.2562V0.905752ZM42.2562 1.52989H42.8803V2.15402H42.2562V1.52989ZM42.8803 1.52989H43.5044V2.15402H42.8803V1.52989ZM43.5044 0.905752H44.1286V1.52989H43.5044V0.905752ZM43.5044 1.52989H44.1286V2.15402H43.5044V1.52989ZM43.5044 2.15402H44.1286V2.77815H43.5044V2.15402ZM43.5044 2.77815H44.1286V3.40228H43.5044V2.77815ZM43.5044 3.40228H44.1286V4.02642H43.5044V3.40228ZM43.5044 4.02642H44.1286V4.65055H43.5044V4.02642ZM43.5044 4.65055H44.1286V5.27468H43.5044V4.65055ZM43.5044 5.27468H44.1286V5.89882H43.5044V5.27468ZM42.8803 5.27468H43.5044V5.89882H42.8803V5.27468ZM42.8803 4.65055H43.5044V5.27468H42.8803V4.65055ZM42.8803 4.02642H43.5044V4.65055H42.8803V4.02642ZM42.8803 3.40228H43.5044V4.02642H42.8803V3.40228ZM42.8803 2.77815H43.5044V3.40228H42.8803V2.77815ZM42.8803 2.15402H43.5044V2.77815H42.8803V2.15402ZM42.2562 4.65055H42.8803V5.27468H42.2562V4.65055ZM42.2562 5.27468H42.8803V5.89882H42.2562V5.27468ZM42.8803 5.89882H43.5044V6.52295H42.8803V5.89882ZM42.2562 5.89882H42.8803V6.52295H42.2562V5.89882ZM41.632 5.89882H42.2562V6.52295H41.632V5.89882ZM41.632 5.27468H42.2562V5.89882H41.632V5.27468ZM41.0079 5.89882H41.632V6.52295H41.0079V5.89882ZM40.3838 5.89882H41.0079V6.52295H40.3838V5.89882ZM40.3838 5.27468H41.0079V5.89882H40.3838V5.27468ZM41.0079 5.27468H41.632V5.89882H41.0079V5.27468ZM40.3838 4.65055H41.0079V5.27468H40.3838V4.65055ZM39.7596 5.27468H40.3838V5.89882H39.7596V5.27468ZM39.7596 4.65055H40.3838V5.27468H39.7596V4.65055ZM39.7596 4.02642H40.3838V4.65055H39.7596V4.02642ZM39.7596 3.40228H40.3838V4.02642H39.7596V3.40228ZM39.7596 2.77815H40.3838V3.40228H39.7596V2.77815ZM39.7596 2.15402H40.3838V2.77815H39.7596V2.15402ZM39.7596 1.52989H40.3838V2.15402H39.7596V1.52989ZM40.3838 1.52989H41.0079V2.15402H40.3838V1.52989ZM39.7596 0.905752H40.3838V1.52989H39.7596V0.905752ZM40.3838 2.15402H41.0079V2.77815H40.3838V2.15402ZM40.3838 2.77815H41.0079V3.40228H40.3838V2.77815ZM40.3838 3.40228H41.0079V4.02642H40.3838V3.40228ZM40.3838 4.02642H41.0079V4.65055H40.3838V4.02642ZM39.7596 5.89882H40.3838V6.52295H39.7596V5.89882ZM39.7596 0.28162H40.3838V0.905752H39.7596V0.28162ZM47.4007 1.52989H48.0248V2.15402H47.4007V1.52989ZM46.7765 1.52989H47.4007V2.15402H46.7765V1.52989ZM46.7765 2.15402H47.4007V2.77815H46.7765V2.15402ZM47.4007 2.15402H48.0248V2.77815H47.4007V2.15402ZM48.0248 1.52989H48.6489V2.15402H48.0248V1.52989ZM48.6489 1.52989H49.2731V2.15402H48.6489V1.52989ZM49.2731 1.52989H49.8972V2.15402H49.2731V1.52989ZM49.2731 2.15402H49.8972V2.77815H49.2731V2.15402ZM48.6489 2.15402H49.2731V2.77815H48.6489V2.15402ZM49.8972 2.15402H50.5213V2.77815H49.8972V2.15402ZM49.8972 2.77815H50.5213V3.40228H49.8972V2.77815ZM49.8972 5.27468H50.5213V5.89882H49.8972V5.27468ZM49.2731 5.27468H49.8972V5.89882H49.2731V5.27468ZM49.2731 2.77815H49.8972V3.40228H49.2731V2.77815ZM48.6489 5.27468H49.2731V5.89882H48.6489V5.27468ZM49.2731 5.89882H49.8972V6.52295H49.2731V5.89882ZM48.6489 5.89882H49.2731V6.52295H48.6489V5.89882ZM48.0248 5.89882H48.6489V6.52295H48.0248V5.89882ZM47.4007 5.89882H48.0248V6.52295H47.4007V5.89882ZM46.7765 5.89882H47.4007V6.52295H46.7765V5.89882ZM46.7765 5.27468H47.4007V5.89882H46.7765V5.27468ZM47.4007 5.27468H48.0248V5.89882H47.4007V5.27468ZM46.7765 4.65055H47.4007V5.27468H46.7765V4.65055ZM46.1524 5.27468H46.7765V5.89882H46.1524V5.27468ZM46.1524 4.65055H46.7765V5.27468H46.1524V4.65055ZM46.1524 4.02642H46.7765V4.65055H46.1524V4.02642ZM46.1524 3.40228H46.7765V4.02642H46.1524V3.40228ZM46.1524 2.77815H46.7765V3.40228H46.1524V2.77815ZM46.1524 2.15402H46.7765V2.77815H46.1524V2.15402ZM46.7765 2.77815H47.4007V3.40228H46.7765V2.77815ZM46.7765 3.40228H47.4007V4.02642H46.7765V3.40228ZM46.7765 4.02642H47.4007V4.65055H46.7765V4.02642ZM48.0248 5.27468H48.6489V5.89882H48.0248V5.27468ZM48.0248 2.15402H48.6489V2.77815H48.0248V2.15402ZM49.2731 3.40228H49.8972V4.02642H49.2731V3.40228ZM49.8972 3.40228H50.5213V4.02642H49.8972V3.40228ZM47.4007 4.02642H48.0248V4.65055H47.4007V4.02642ZM48.0248 4.02642H48.6489V4.65055H48.0248V4.02642ZM48.6489 4.02642H49.2731V4.65055H48.6489V4.02642ZM49.2731 4.02642H49.8972V4.65055H49.2731V4.02642ZM49.8972 4.02642H50.5213V4.65055H49.8972V4.02642ZM48.6489 3.40228H49.2731V4.02642H48.6489V3.40228ZM48.0248 3.40228H48.6489V4.02642H48.0248V3.40228ZM47.4007 3.40228H48.0248V4.02642H47.4007V3.40228ZM52.5451 1.52989H53.1693V2.15402H52.5451V1.52989ZM53.1693 1.52989H53.7934V2.15402H53.1693V1.52989ZM53.1693 2.15402H53.7934V2.77815H53.1693V2.15402ZM53.1693 2.77815H53.7934V3.40228H53.1693V2.77815ZM53.1693 3.40228H53.7934V4.02642H53.1693V3.40228ZM53.1693 4.02642H53.7934V4.65055H53.1693V4.02642ZM52.5451 4.02642H53.1693V4.65055H52.5451V4.02642ZM52.5451 3.40228H53.1693V4.02642H52.5451V3.40228ZM52.5451 2.77815H53.1693V3.40228H52.5451V2.77815ZM52.5451 2.15402H53.1693V2.77815H52.5451V2.15402ZM53.1693 4.65055H53.7934V5.27468H53.1693V4.65055ZM53.7934 4.65055H54.4175V5.27468H53.7934V4.65055ZM53.7934 5.27468H54.4175V5.89882H53.7934V5.27468ZM54.4175 5.27468H55.0417V5.89882H54.4175V5.27468ZM54.4175 5.89882H55.0417V6.52295H54.4175V5.89882ZM55.0417 5.27468H55.6658V5.89882H55.0417V5.27468ZM55.0417 4.65055H55.6658V5.27468H55.0417V4.65055ZM55.6658 4.65055H56.2899V5.27468H55.6658V4.65055ZM55.6658 4.02642H56.2899V4.65055H55.6658V4.02642ZM55.6658 3.40228H56.2899V4.02642H55.6658V3.40228ZM55.6658 2.77815H56.2899V3.40228H55.6658V2.77815ZM55.6658 2.15402H56.2899V2.77815H55.6658V2.15402ZM55.6658 1.52989H56.2899V2.15402H55.6658V1.52989ZM56.2899 3.40228H56.9141V4.02642H56.2899V3.40228ZM56.2899 4.02642H56.9141V4.65055H56.2899V4.02642ZM56.2899 2.77815H56.9141V3.40228H56.2899V2.77815ZM56.2899 2.15402H56.9141V2.77815H56.2899V2.15402ZM56.2899 1.52989H56.9141V2.15402H56.2899V1.52989ZM54.4175 4.65055H55.0417V5.27468H54.4175V4.65055ZM53.7934 4.02642H54.4175V4.65055H53.7934V4.02642ZM55.0417 4.02642H55.6658V4.65055H55.0417V4.02642ZM60.1861 1.52989H60.8103V2.15402H60.1861V1.52989ZM59.562 1.52989H60.1861V2.15402H59.562V1.52989ZM59.562 2.15402H60.1861V2.77815H59.562V2.15402ZM60.1861 2.15402H60.8103V2.77815H60.1861V2.15402ZM60.8103 1.52989H61.4344V2.15402H60.8103V1.52989ZM61.4344 1.52989H62.0585V2.15402H61.4344V1.52989ZM62.0585 1.52989H62.6827V2.15402H62.0585V1.52989ZM62.0585 2.15402H62.6827V2.77815H62.0585V2.15402ZM61.4344 2.15402H62.0585V2.77815H61.4344V2.15402ZM62.6827 2.15402H63.3068V2.77815H62.6827V2.15402ZM62.6827 2.77815H63.3068V3.40228H62.6827V2.77815ZM62.6827 5.27468H63.3068V5.89882H62.6827V5.27468ZM62.0585 5.27468H62.6827V5.89882H62.0585V5.27468ZM62.0585 2.77815H62.6827V3.40228H62.0585V2.77815ZM61.4344 5.27468H62.0585V5.89882H61.4344V5.27468ZM62.0585 5.89882H62.6827V6.52295H62.0585V5.89882ZM61.4344 5.89882H62.0585V6.52295H61.4344V5.89882ZM60.8103 5.89882H61.4344V6.52295H60.8103V5.89882ZM60.1861 5.89882H60.8103V6.52295H60.1861V5.89882ZM59.562 5.89882H60.1861V6.52295H59.562V5.89882ZM59.562 5.27468H60.1861V5.89882H59.562V5.27468ZM60.1861 5.27468H60.8103V5.89882H60.1861V5.27468ZM59.562 4.65055H60.1861V5.27468H59.562V4.65055ZM58.9379 5.27468H59.562V5.89882H58.9379V5.27468ZM58.9379 4.65055H59.562V5.27468H58.9379V4.65055ZM58.9379 4.02642H59.562V4.65055H58.9379V4.02642ZM58.9379 3.40228H59.562V4.02642H58.9379V3.40228ZM58.9379 2.77815H59.562V3.40228H58.9379V2.77815ZM58.9379 2.15402H59.562V2.77815H58.9379V2.15402ZM59.562 2.77815H60.1861V3.40228H59.562V2.77815ZM59.562 3.40228H60.1861V4.02642H59.562V3.40228ZM59.562 4.02642H60.1861V4.65055H59.562V4.02642ZM60.8103 5.27468H61.4344V5.89882H60.8103V5.27468ZM60.8103 2.15402H61.4344V2.77815H60.8103V2.15402ZM62.0585 3.40228H62.6827V4.02642H62.0585V3.40228ZM62.6827 3.40228H63.3068V4.02642H62.6827V3.40228ZM60.1861 4.02642H60.8103V4.65055H60.1861V4.02642ZM60.8103 4.02642H61.4344V4.65055H60.8103V4.02642ZM61.4344 4.02642H62.0585V4.65055H61.4344V4.02642ZM62.0585 4.02642H62.6827V4.65055H62.0585V4.02642ZM62.6827 4.02642H63.3068V4.65055H62.6827V4.02642ZM61.4344 3.40228H62.0585V4.02642H61.4344V3.40228ZM60.8103 3.40228H61.4344V4.02642H60.8103V3.40228ZM60.1861 3.40228H60.8103V4.02642H60.1861V3.40228ZM65.3306 0.28162H65.9548V0.905752H65.3306V0.28162ZM65.9548 0.28162H66.5789V0.905752H65.9548V0.28162ZM65.9548 0.905752H66.5789V1.52989H65.9548V0.905752ZM65.9548 1.52989H66.5789V2.15402H65.9548V1.52989ZM65.9548 2.15402H66.5789V2.77815H65.9548V2.15402ZM65.9548 2.77815H66.5789V3.40228H65.9548V2.77815ZM65.9548 3.40228H66.5789V4.02642H65.9548V3.40228ZM65.3306 3.40228H65.9548V4.02642H65.3306V3.40228ZM65.3306 4.02642H65.9548V4.65055H65.3306V4.02642ZM65.3306 4.65055H65.9548V5.27468H65.3306V4.65055ZM65.3306 5.27468H65.9548V5.89882H65.3306V5.27468ZM65.3306 5.89882H65.9548V6.52295H65.3306V5.89882ZM65.9548 5.89882H66.5789V6.52295H65.9548V5.89882ZM65.9548 5.27468H66.5789V5.89882H65.9548V5.27468ZM65.9548 4.65055H66.5789V5.27468H65.9548V4.65055ZM65.9548 4.02642H66.5789V4.65055H65.9548V4.02642ZM65.3306 2.77815H65.9548V3.40228H65.3306V2.77815ZM65.3306 2.15402H65.9548V2.77815H65.3306V2.15402ZM65.3306 1.52989H65.9548V2.15402H65.3306V1.52989ZM65.3306 0.905752H65.9548V1.52989H65.3306V0.905752ZM69.8542 1.52989H70.4784V2.15402H69.8542V1.52989ZM69.2301 1.52989H69.8542V2.15402H69.2301V1.52989ZM69.2301 2.15402H69.8542V2.77815H69.2301V2.15402ZM69.8542 2.15402H70.4784V2.77815H69.8542V2.15402ZM70.4784 1.52989H71.1025V2.15402H70.4784V1.52989ZM71.1025 1.52989H71.7266V2.15402H71.1025V1.52989ZM71.7266 1.52989H72.3508V2.15402H71.7266V1.52989ZM71.7266 2.15402H72.3508V2.77815H71.7266V2.15402ZM71.1025 2.15402H71.7266V2.77815H71.1025V2.15402ZM71.7266 3.40228H72.3508V4.02642H71.7266V3.40228ZM72.3508 2.15402H72.9749V2.77815H72.3508V2.15402ZM72.3508 2.77815H72.9749V3.40228H72.3508V2.77815ZM72.3508 3.40228H72.9749V4.02642H72.3508V3.40228ZM72.3508 4.02642H72.9749V4.65055H72.3508V4.02642ZM72.3508 4.65055H72.9749V5.27468H72.3508V4.65055ZM72.3508 5.27468H72.9749V5.89882H72.3508V5.27468ZM71.7266 5.27468H72.3508V5.89882H71.7266V5.27468ZM71.7266 4.65055H72.3508V5.27468H71.7266V4.65055ZM71.7266 4.02642H72.3508V4.65055H71.7266V4.02642ZM71.7266 2.77815H72.3508V3.40228H71.7266V2.77815ZM71.1025 5.27468H71.7266V5.89882H71.1025V5.27468ZM71.7266 5.89882H72.3508V6.52295H71.7266V5.89882ZM71.1025 5.89882H71.7266V6.52295H71.1025V5.89882ZM70.4784 5.89882H71.1025V6.52295H70.4784V5.89882ZM69.8542 5.89882H70.4784V6.52295H69.8542V5.89882ZM69.2301 5.89882H69.8542V6.52295H69.2301V5.89882ZM69.2301 5.27468H69.8542V5.89882H69.2301V5.27468ZM69.8542 5.27468H70.4784V5.89882H69.8542V5.27468ZM69.2301 4.65055H69.8542V5.27468H69.2301V4.65055ZM68.606 5.27468H69.2301V5.89882H68.606V5.27468ZM68.606 4.65055H69.2301V5.27468H68.606V4.65055ZM68.606 4.02642H69.2301V4.65055H68.606V4.02642ZM68.606 3.40228H69.2301V4.02642H68.606V3.40228ZM68.606 2.77815H69.2301V3.40228H68.606V2.77815ZM68.606 2.15402H69.2301V2.77815H68.606V2.15402ZM69.2301 2.77815H69.8542V3.40228H69.2301V2.77815ZM69.2301 3.40228H69.8542V4.02642H69.2301V3.40228ZM69.2301 4.02642H69.8542V4.65055H69.2301V4.02642ZM70.4784 5.27468H71.1025V5.89882H70.4784V5.27468ZM70.4784 2.15402H71.1025V2.77815H70.4784V2.15402ZM74.9987 2.15402H75.6228V2.77815H74.9987V2.15402ZM74.9987 1.52989H75.6228V2.15402H74.9987V1.52989ZM75.6228 1.52989H76.247V2.15402H75.6228V1.52989ZM75.6228 2.15402H76.247V2.77815H75.6228V2.15402ZM75.6228 2.77815H76.247V3.40228H75.6228V2.77815ZM75.6228 3.40228H76.247V4.02642H75.6228V3.40228ZM75.6228 4.02642H76.247V4.65055H75.6228V4.02642ZM74.9987 4.02642H75.6228V4.65055H74.9987V4.02642ZM74.9987 3.40228H75.6228V4.02642H74.9987V3.40228ZM74.9987 2.77815H75.6228V3.40228H74.9987V2.77815ZM74.9987 4.65055H75.6228V5.27468H74.9987V4.65055ZM75.6228 4.65055H76.247V5.27468H75.6228V4.65055ZM75.6228 5.27468H76.247V5.89882H75.6228V5.27468ZM75.6228 5.89882H76.247V6.52295H75.6228V5.89882ZM74.9987 5.89882H75.6228V6.52295H74.9987V5.89882ZM74.9987 5.27468H75.6228V5.89882H74.9987V5.27468ZM78.1194 5.89882H78.7435V6.52295H78.1194V5.89882ZM78.7435 5.27468H79.3676V5.89882H78.7435V5.27468ZM78.7435 4.65055H79.3676V5.27468H78.7435V4.65055ZM78.7435 4.02642H79.3676V4.65055H78.7435V4.02642ZM78.7435 3.40228H79.3676V4.02642H78.7435V3.40228ZM78.7435 2.77815H79.3676V3.40228H78.7435V2.77815ZM78.7435 2.15402H79.3676V2.77815H78.7435V2.15402ZM78.1194 3.40228H78.7435V4.02642H78.1194V3.40228ZM78.1194 4.02642H78.7435V4.65055H78.1194V4.02642ZM78.1194 4.65055H78.7435V5.27468H78.1194V4.65055ZM78.1194 5.27468H78.7435V5.89882H78.1194V5.27468ZM78.1194 2.77815H78.7435V3.40228H78.1194V2.77815ZM76.247 2.15402H76.8711V2.77815H76.247V2.15402ZM76.8711 2.15402H77.4952V2.77815H76.8711V2.15402ZM77.4952 2.15402H78.1194V2.77815H77.4952V2.15402ZM77.4952 1.52989H78.1194V2.15402H77.4952V1.52989ZM78.1194 1.52989H78.7435V2.15402H78.1194V1.52989ZM78.1194 2.15402H78.7435V2.77815H78.1194V2.15402ZM76.8711 1.52989H77.4952V2.15402H76.8711V1.52989ZM76.247 5.89882H76.8711V6.52295H76.247V5.89882ZM76.8711 5.89882H77.4952V6.52295H76.8711V5.89882ZM77.4952 5.89882H78.1194V6.52295H77.4952V5.89882ZM77.4952 5.27468H78.1194V5.89882H77.4952V5.27468ZM76.8711 5.27468H77.4952V5.89882H76.8711V5.27468ZM76.247 5.27468H76.8711V5.89882H76.247V5.27468ZM74.9987 6.52295H75.6228V7.14708H74.9987V6.52295ZM75.6228 6.52295H76.247V7.14708H75.6228V6.52295ZM75.6228 7.14708H76.247V7.77122H75.6228V7.14708ZM74.9987 7.14708H75.6228V7.77122H74.9987V7.14708ZM82.6397 1.52989H83.2639V2.15402H82.6397V1.52989ZM82.0156 1.52989H82.6397V2.15402H82.0156V1.52989ZM82.0156 2.15402H82.6397V2.77815H82.0156V2.15402ZM82.6397 2.15402H83.2639V2.77815H82.6397V2.15402ZM83.2639 1.52989H83.888V2.15402H83.2639V1.52989ZM83.888 1.52989H84.5121V2.15402H83.888V1.52989ZM84.5121 1.52989H85.1363V2.15402H84.5121V1.52989ZM84.5121 2.15402H85.1363V2.77815H84.5121V2.15402ZM83.888 2.15402H84.5121V2.77815H83.888V2.15402ZM85.1363 2.15402H85.7604V2.77815H85.1363V2.15402ZM85.1363 2.77815H85.7604V3.40228H85.1363V2.77815ZM85.1363 5.27468H85.7604V5.89882H85.1363V5.27468ZM84.5121 5.27468H85.1363V5.89882H84.5121V5.27468ZM84.5121 2.77815H85.1363V3.40228H84.5121V2.77815ZM83.888 5.27468H84.5121V5.89882H83.888V5.27468ZM84.5121 5.89882H85.1363V6.52295H84.5121V5.89882ZM83.888 5.89882H84.5121V6.52295H83.888V5.89882ZM83.2639 5.89882H83.888V6.52295H83.2639V5.89882ZM82.6397 5.89882H83.2639V6.52295H82.6397V5.89882ZM82.0156 5.89882H82.6397V6.52295H82.0156V5.89882ZM82.0156 5.27468H82.6397V5.89882H82.0156V5.27468ZM82.6397 5.27468H83.2639V5.89882H82.6397V5.27468ZM82.0156 4.65055H82.6397V5.27468H82.0156V4.65055ZM81.3915 5.27468H82.0156V5.89882H81.3915V5.27468ZM81.3915 4.65055H82.0156V5.27468H81.3915V4.65055ZM81.3915 4.02642H82.0156V4.65055H81.3915V4.02642ZM81.3915 3.40228H82.0156V4.02642H81.3915V3.40228ZM81.3915 2.77815H82.0156V3.40228H81.3915V2.77815ZM81.3915 2.15402H82.0156V2.77815H81.3915V2.15402ZM82.0156 2.77815H82.6397V3.40228H82.0156V2.77815ZM82.0156 3.40228H82.6397V4.02642H82.0156V3.40228ZM82.0156 4.02642H82.6397V4.65055H82.0156V4.02642ZM83.2639 5.27468H83.888V5.89882H83.2639V5.27468ZM83.2639 2.15402H83.888V2.77815H83.2639V2.15402ZM84.5121 3.40228H85.1363V4.02642H84.5121V3.40228ZM85.1363 3.40228H85.7604V4.02642H85.1363V3.40228ZM82.6397 4.02642H83.2639V4.65055H82.6397V4.02642ZM83.2639 4.02642H83.888V4.65055H83.2639V4.02642ZM83.888 4.02642H84.5121V4.65055H83.888V4.02642ZM84.5121 4.02642H85.1363V4.65055H84.5121V4.02642ZM85.1363 4.02642H85.7604V4.65055H85.1363V4.02642ZM83.888 3.40228H84.5121V4.02642H83.888V3.40228ZM83.2639 3.40228H83.888V4.02642H83.2639V3.40228ZM82.6397 3.40228H83.2639V4.02642H82.6397V3.40228ZM87.7842 2.15402H88.4083V2.77815H87.7842V2.15402ZM87.7842 1.52989H88.4083V2.15402H87.7842V1.52989ZM88.4083 1.52989H89.0325V2.15402H88.4083V1.52989ZM88.4083 2.15402H89.0325V2.77815H88.4083V2.15402ZM88.4083 2.77815H89.0325V3.40228H88.4083V2.77815ZM88.4083 3.40228H89.0325V4.02642H88.4083V3.40228ZM88.4083 4.02642H89.0325V4.65055H88.4083V4.02642ZM87.7842 4.02642H88.4083V4.65055H87.7842V4.02642ZM87.7842 3.40228H88.4083V4.02642H87.7842V3.40228ZM87.7842 2.77815H88.4083V3.40228H87.7842V2.77815ZM87.7842 4.65055H88.4083V5.27468H87.7842V4.65055ZM88.4083 4.65055H89.0325V5.27468H88.4083V4.65055ZM88.4083 5.27468H89.0325V5.89882H88.4083V5.27468ZM88.4083 5.89882H89.0325V6.52295H88.4083V5.89882ZM87.7842 5.89882H88.4083V6.52295H87.7842V5.89882ZM87.7842 5.27468H88.4083V5.89882H87.7842V5.27468ZM89.0325 2.15402H89.6566V2.77815H89.0325V2.15402ZM89.6566 2.15402H90.2807V2.77815H89.6566V2.15402ZM90.2807 2.15402H90.9049V2.77815H90.2807V2.15402ZM90.2807 1.52989H90.9049V2.15402H90.2807V1.52989ZM89.6566 1.52989H90.2807V2.15402H89.6566V1.52989ZM89.0325 2.77815H89.6566V3.40228H89.0325V2.77815ZM90.9049 2.15402H91.529V2.77815H90.9049V2.15402ZM90.2807 2.77815H90.9049V3.40228H90.2807V2.77815ZM98.6892 0.28162H99.3133V0.905752H98.6892V0.28162ZM98.065 0.28162H98.6892V0.905752H98.065V0.28162ZM98.065 0.905752H98.6892V1.52989H98.065V0.905752ZM98.6892 0.905752H99.3133V1.52989H98.6892V0.905752ZM99.3133 0.905752H99.9374V1.52989H99.3133V0.905752ZM99.3133 0.28162H99.9374V0.905752H99.3133V0.28162ZM99.9374 0.28162H100.562V0.905752H99.9374V0.28162ZM100.562 0.28162H101.186V0.905752H100.562V0.28162ZM100.562 0.905752H101.186V1.52989H100.562V0.905752ZM99.9374 0.905752H100.562V1.52989H99.9374V0.905752ZM100.562 1.52989H101.186V2.15402H100.562V1.52989ZM101.186 0.905752H101.81V1.52989H101.186V0.905752ZM101.186 1.52989H101.81V2.15402H101.186V1.52989ZM101.186 4.65055H101.81V5.27468H101.186V4.65055ZM101.186 5.27468H101.81V5.89882H101.186V5.27468ZM100.562 5.27468H101.186V5.89882H100.562V5.27468ZM100.562 4.65055H101.186V5.27468H100.562V4.65055ZM99.9374 5.27468H100.562V5.89882H99.9374V5.27468ZM100.562 5.89882H101.186V6.52295H100.562V5.89882ZM99.9374 5.89882H100.562V6.52295H99.9374V5.89882ZM99.3133 5.89882H99.9374V6.52295H99.3133V5.89882ZM99.3133 5.27468H99.9374V5.89882H99.3133V5.27468ZM98.6892 5.89882H99.3133V6.52295H98.6892V5.89882ZM98.065 5.89882H98.6892V6.52295H98.065V5.89882ZM98.065 5.27468H98.6892V5.89882H98.065V5.27468ZM98.6892 5.27468H99.3133V5.89882H98.6892V5.27468ZM98.6892 4.65055H99.3133V5.27468H98.6892V4.65055ZM98.065 4.65055H98.6892V5.27468H98.065V4.65055ZM97.4409 5.27468H98.065V5.89882H97.4409V5.27468ZM97.4409 4.65055H98.065V5.27468H97.4409V4.65055ZM97.4409 4.02642H98.065V4.65055H97.4409V4.02642ZM97.4409 3.40228H98.065V4.02642H97.4409V3.40228ZM97.4409 2.77815H98.065V3.40228H97.4409V2.77815ZM97.4409 2.15402H98.065V2.77815H97.4409V2.15402ZM97.4409 1.52989H98.065V2.15402H97.4409V1.52989ZM98.065 1.52989H98.6892V2.15402H98.065V1.52989ZM97.4409 0.905752H98.065V1.52989H97.4409V0.905752ZM98.6892 1.52989H99.3133V2.15402H98.6892V1.52989ZM98.065 2.15402H98.6892V2.77815H98.065V2.15402ZM98.065 2.77815H98.6892V3.40228H98.065V2.77815ZM98.065 3.40228H98.6892V4.02642H98.065V3.40228ZM98.065 4.02642H98.6892V4.65055H98.065V4.02642ZM101.186 4.02642H101.81V4.65055H101.186V4.02642ZM100.562 4.02642H101.186V4.65055H100.562V4.02642ZM100.562 3.40228H101.186V4.02642H100.562V3.40228ZM101.186 3.40228H101.81V4.02642H101.186V3.40228ZM101.186 2.77815H101.81V3.40228H101.186V2.77815ZM100.562 2.77815H101.186V3.40228H100.562V2.77815ZM99.9374 2.77815H100.562V3.40228H99.9374V2.77815ZM99.3133 2.77815H99.9374V3.40228H99.3133V2.77815ZM99.3133 3.40228H99.9374V4.02642H99.3133V3.40228ZM99.9374 3.40228H100.562V4.02642H99.9374V3.40228ZM103.834 2.15402H104.458V2.77815H103.834V2.15402ZM103.834 1.52989H104.458V2.15402H103.834V1.52989ZM104.458 1.52989H105.082V2.15402H104.458V1.52989ZM104.458 2.15402H105.082V2.77815H104.458V2.15402ZM104.458 2.77815H105.082V3.40228H104.458V2.77815ZM104.458 3.40228H105.082V4.02642H104.458V3.40228ZM104.458 4.02642H105.082V4.65055H104.458V4.02642ZM103.834 4.02642H104.458V4.65055H103.834V4.02642ZM103.834 3.40228H104.458V4.02642H103.834V3.40228ZM103.834 2.77815H104.458V3.40228H103.834V2.77815ZM103.834 4.65055H104.458V5.27468H103.834V4.65055ZM104.458 4.65055H105.082V5.27468H104.458V4.65055ZM104.458 5.27468H105.082V5.89882H104.458V5.27468ZM104.458 5.89882H105.082V6.52295H104.458V5.89882ZM103.834 5.89882H104.458V6.52295H103.834V5.89882ZM103.834 5.27468H104.458V5.89882H103.834V5.27468ZM105.082 2.15402H105.706V2.77815H105.082V2.15402ZM105.706 2.15402H106.33V2.77815H105.706V2.15402ZM106.33 2.15402H106.954V2.77815H106.33V2.15402ZM106.33 1.52989H106.954V2.15402H106.33V1.52989ZM105.706 1.52989H106.33V2.15402H105.706V1.52989ZM105.082 2.77815H105.706V3.40228H105.082V2.77815ZM106.954 2.15402H107.578V2.77815H106.954V2.15402ZM106.33 2.77815H106.954V3.40228H106.33V2.77815ZM110.849 1.52989H111.473V2.15402H110.849V1.52989ZM110.225 1.52989H110.849V2.15402H110.225V1.52989ZM110.225 2.15402H110.849V2.77815H110.225V2.15402ZM110.849 2.15402H111.473V2.77815H110.849V2.15402ZM111.473 1.52989H112.097V2.15402H111.473V1.52989ZM112.097 1.52989H112.721V2.15402H112.097V1.52989ZM112.721 1.52989H113.345V2.15402H112.721V1.52989ZM112.721 2.15402H113.345V2.77815H112.721V2.15402ZM112.097 2.15402H112.721V2.77815H112.097V2.15402ZM112.721 3.40228H113.345V4.02642H112.721V3.40228ZM113.345 2.15402H113.97V2.77815H113.345V2.15402ZM113.345 2.77815H113.97V3.40228H113.345V2.77815ZM113.345 3.40228H113.97V4.02642H113.345V3.40228ZM113.345 4.02642H113.97V4.65055H113.345V4.02642ZM113.345 4.65055H113.97V5.27468H113.345V4.65055ZM113.345 5.27468H113.97V5.89882H113.345V5.27468ZM112.721 5.27468H113.345V5.89882H112.721V5.27468ZM112.721 4.65055H113.345V5.27468H112.721V4.65055ZM112.721 4.02642H113.345V4.65055H112.721V4.02642ZM112.721 2.77815H113.345V3.40228H112.721V2.77815ZM112.097 5.27468H112.721V5.89882H112.097V5.27468ZM112.721 5.89882H113.345V6.52295H112.721V5.89882ZM112.097 5.89882H112.721V6.52295H112.097V5.89882ZM111.473 5.89882H112.097V6.52295H111.473V5.89882ZM110.849 5.89882H111.473V6.52295H110.849V5.89882ZM110.225 5.89882H110.849V6.52295H110.225V5.89882ZM110.225 5.27468H110.849V5.89882H110.225V5.27468ZM110.849 5.27468H111.473V5.89882H110.849V5.27468ZM110.225 4.65055H110.849V5.27468H110.225V4.65055ZM109.601 5.27468H110.225V5.89882H109.601V5.27468ZM109.601 4.65055H110.225V5.27468H109.601V4.65055ZM109.601 4.02642H110.225V4.65055H109.601V4.02642ZM109.601 3.40228H110.225V4.02642H109.601V3.40228ZM109.601 2.77815H110.225V3.40228H109.601V2.77815ZM109.601 2.15402H110.225V2.77815H109.601V2.15402ZM110.225 2.77815H110.849V3.40228H110.225V2.77815ZM110.225 3.40228H110.849V4.02642H110.225V3.40228ZM110.225 4.02642H110.849V4.65055H110.225V4.02642ZM111.473 5.27468H112.097V5.89882H111.473V5.27468ZM111.473 2.15402H112.097V2.77815H111.473V2.15402ZM120.362 5.89882H119.738V5.27468H120.362V5.89882ZM120.362 6.52295H119.738V5.89882H120.362V6.52295ZM119.738 6.52295H119.114V5.89882H119.738V6.52295ZM119.738 5.89882H119.114V5.27468H119.738V5.89882ZM119.738 5.27468H119.114V4.65055H119.738V5.27468ZM119.738 4.65055H119.114V4.02642H119.738V4.65055ZM119.738 4.02642H119.114V3.40228H119.738V4.02642ZM120.362 4.02642H119.738V3.40228H120.362V4.02642ZM120.362 4.65055H119.738V4.02642H120.362V4.65055ZM120.362 5.27468H119.738V4.65055H120.362V5.27468ZM120.362 3.40228H119.738V2.77815H120.362V3.40228ZM119.738 3.40228H119.114V2.77815H119.738V3.40228ZM119.738 2.77815H119.114V2.15402H119.738V2.77815ZM119.738 2.15402H119.114V1.52989H119.738V2.15402ZM120.362 2.15402H119.738V1.52989H120.362V2.15402ZM120.362 2.77815H119.738V2.15402H120.362V2.77815ZM117.242 2.15402H116.618V1.52989H117.242V2.15402ZM116.618 2.15402H115.993V1.52989H116.618V2.15402ZM116.618 2.77815H115.993V2.15402H116.618V2.77815ZM116.618 3.40228H115.993V2.77815H116.618V3.40228ZM116.618 4.02642H115.993V3.40228H116.618V4.02642ZM116.618 4.65055H115.993V4.02642H116.618V4.65055ZM116.618 5.27468H115.993V4.65055H116.618V5.27468ZM116.618 5.89882H115.993V5.27468H116.618V5.89882ZM117.242 4.65055H116.618V4.02642H117.242V4.65055ZM117.242 4.02642H116.618V3.40228H117.242V4.02642ZM117.242 3.40228H116.618V2.77815H117.242V3.40228ZM117.242 2.77815H116.618V2.15402H117.242V2.77815ZM117.242 5.27468H116.618V4.65055H117.242V5.27468ZM119.114 5.89882H118.49V5.27468H119.114V5.89882ZM118.49 5.89882H117.866V5.27468H118.49V5.89882ZM117.866 5.89882H117.242V5.27468H117.866V5.89882ZM117.866 6.52295H117.242V5.89882H117.866V6.52295ZM117.242 6.52295H116.618V5.89882H117.242V6.52295ZM117.242 5.89882H116.618V5.27468H117.242V5.89882ZM118.49 6.52295H117.866V5.89882H118.49V6.52295ZM122.386 2.15402H123.01V2.77815H122.386V2.15402ZM122.386 1.52989H123.01V2.15402H122.386V1.52989ZM123.01 1.52989H123.634V2.15402H123.01V1.52989ZM123.01 2.15402H123.634V2.77815H123.01V2.15402ZM123.01 2.77815H123.634V3.40228H123.01V2.77815ZM123.01 3.40228H123.634V4.02642H123.01V3.40228ZM123.01 4.02642H123.634V4.65055H123.01V4.02642ZM122.386 4.02642H123.01V4.65055H122.386V4.02642ZM122.386 3.40228H123.01V4.02642H122.386V3.40228ZM122.386 2.77815H123.01V3.40228H122.386V2.77815ZM122.386 4.65055H123.01V5.27468H122.386V4.65055ZM123.01 4.65055H123.634V5.27468H123.01V4.65055ZM123.01 5.27468H123.634V5.89882H123.01V5.27468ZM123.01 5.89882H123.634V6.52295H123.01V5.89882ZM122.386 5.89882H123.01V6.52295H122.386V5.89882ZM122.386 5.27468H123.01V5.89882H122.386V5.27468ZM125.507 5.89882H126.131V6.52295H125.507V5.89882ZM126.131 5.27468H126.755V5.89882H126.131V5.27468ZM126.131 4.65055H126.755V5.27468H126.131V4.65055ZM126.131 4.02642H126.755V4.65055H126.131V4.02642ZM126.131 3.40228H126.755V4.02642H126.131V3.40228ZM126.131 2.77815H126.755V3.40228H126.131V2.77815ZM126.131 2.15402H126.755V2.77815H126.131V2.15402ZM125.507 3.40228H126.131V4.02642H125.507V3.40228ZM125.507 4.02642H126.131V4.65055H125.507V4.02642ZM125.507 4.65055H126.131V5.27468H125.507V4.65055ZM125.507 5.27468H126.131V5.89882H125.507V5.27468ZM125.507 2.77815H126.131V3.40228H125.507V2.77815ZM123.634 2.15402H124.259V2.77815H123.634V2.15402ZM124.259 2.15402H124.883V2.77815H124.259V2.15402ZM124.883 2.15402H125.507V2.77815H124.883V2.15402ZM124.883 1.52989H125.507V2.15402H124.883V1.52989ZM125.507 1.52989H126.131V2.15402H125.507V1.52989ZM125.507 2.15402H126.131V2.77815H125.507V2.15402ZM124.259 1.52989H124.883V2.15402H124.259V1.52989ZM123.634 5.89882H124.259V6.52295H123.634V5.89882ZM124.259 5.89882H124.883V6.52295H124.259V5.89882ZM124.883 5.89882H125.507V6.52295H124.883V5.89882ZM124.883 5.27468H125.507V5.89882H124.883V5.27468ZM124.259 5.27468H124.883V5.89882H124.259V5.27468ZM123.634 5.27468H124.259V5.89882H123.634V5.27468ZM122.386 6.52295H123.01V7.14708H122.386V6.52295ZM123.01 6.52295H123.634V7.14708H123.01V6.52295ZM123.01 7.14708H123.634V7.77122H123.01V7.14708ZM122.386 7.14708H123.01V7.77122H122.386V7.14708ZM128.779 2.15402H129.403V2.77815H128.779V2.15402ZM129.403 2.77815H130.027V3.40228H129.403V2.77815ZM128.779 2.77815H129.403V3.40228H128.779V2.77815ZM128.779 3.40228H129.403V4.02642H128.779V3.40228ZM129.403 3.40228H130.027V4.02642H129.403V3.40228ZM129.403 4.02642H130.027V4.65055H129.403V4.02642ZM130.027 4.02642H130.651V4.65055H130.027V4.02642ZM130.651 4.02642H131.275V4.65055H130.651V4.02642ZM131.275 3.40228H131.9V4.02642H131.275V3.40228ZM130.651 3.40228H131.275V4.02642H130.651V3.40228ZM130.027 3.40228H130.651V4.02642H130.027V3.40228ZM131.275 4.02642H131.9V4.65055H131.275V4.02642ZM131.9 4.02642H132.524V4.65055H131.9V4.02642ZM131.9 4.65055H132.524V5.27468H131.9V4.65055ZM131.275 4.65055H131.9V5.27468H131.275V4.65055ZM131.275 5.27468H131.9V5.89882H131.275V5.27468ZM131.9 5.27468H132.524V5.89882H131.9V5.27468ZM131.275 5.89882H131.9V6.52295H131.275V5.89882ZM130.651 5.27468H131.275V5.89882H130.651V5.27468ZM130.027 5.27468H130.651V5.89882H130.027V5.27468ZM129.403 5.27468H130.027V5.89882H129.403V5.27468ZM128.779 5.27468H129.403V5.89882H128.779V5.27468ZM129.403 5.89882H130.027V6.52295H129.403V5.89882ZM130.027 5.89882H130.651V6.52295H130.027V5.89882ZM130.651 5.89882H131.275V6.52295H130.651V5.89882ZM131.9 2.15402H132.524V2.77815H131.9V2.15402ZM131.275 2.15402H131.9V2.77815H131.275V2.15402ZM131.275 1.52989H131.9V2.15402H131.275V1.52989ZM130.651 1.52989H131.275V2.15402H130.651V1.52989ZM130.027 1.52989H130.651V2.15402H130.027V1.52989ZM129.403 1.52989H130.027V2.15402H129.403V1.52989ZM129.403 2.15402H130.027V2.77815H129.403V2.15402ZM130.027 2.15402H130.651V2.77815H130.027V2.15402ZM130.651 2.15402H131.275V2.77815H130.651V2.15402ZM139.684 1.52989H140.308V2.15402H139.684V1.52989ZM139.06 1.52989H139.684V2.15402H139.06V1.52989ZM139.06 2.15402H139.684V2.77815H139.06V2.15402ZM139.684 2.15402H140.308V2.77815H139.684V2.15402ZM140.308 1.52989H140.932V2.15402H140.308V1.52989ZM140.932 1.52989H141.556V2.15402H140.932V1.52989ZM141.556 1.52989H142.18V2.15402H141.556V1.52989ZM141.556 2.15402H142.18V2.77815H141.556V2.15402ZM140.932 2.15402H141.556V2.77815H140.932V2.15402ZM141.556 3.40228H142.18V4.02642H141.556V3.40228ZM142.18 2.15402H142.805V2.77815H142.18V2.15402ZM142.18 2.77815H142.805V3.40228H142.18V2.77815ZM142.18 3.40228H142.805V4.02642H142.18V3.40228ZM142.18 4.02642H142.805V4.65055H142.18V4.02642ZM142.18 4.65055H142.805V5.27468H142.18V4.65055ZM142.18 5.27468H142.805V5.89882H142.18V5.27468ZM141.556 5.27468H142.18V5.89882H141.556V5.27468ZM141.556 4.65055H142.18V5.27468H141.556V4.65055ZM141.556 4.02642H142.18V4.65055H141.556V4.02642ZM141.556 2.77815H142.18V3.40228H141.556V2.77815ZM140.932 5.27468H141.556V5.89882H140.932V5.27468ZM141.556 5.89882H142.18V6.52295H141.556V5.89882ZM140.932 5.89882H141.556V6.52295H140.932V5.89882ZM140.308 5.89882H140.932V6.52295H140.308V5.89882ZM139.684 5.89882H140.308V6.52295H139.684V5.89882ZM139.06 5.89882H139.684V6.52295H139.06V5.89882ZM139.06 5.27468H139.684V5.89882H139.06V5.27468ZM139.684 5.27468H140.308V5.89882H139.684V5.27468ZM139.06 4.65055H139.684V5.27468H139.06V4.65055ZM138.436 5.27468H139.06V5.89882H138.436V5.27468ZM138.436 4.65055H139.06V5.27468H138.436V4.65055ZM138.436 4.02642H139.06V4.65055H138.436V4.02642ZM138.436 3.40228H139.06V4.02642H138.436V3.40228ZM138.436 2.77815H139.06V3.40228H138.436V2.77815ZM138.436 2.15402H139.06V2.77815H138.436V2.15402ZM139.06 2.77815H139.684V3.40228H139.06V2.77815ZM139.06 3.40228H139.684V4.02642H139.06V3.40228ZM139.06 4.02642H139.684V4.65055H139.06V4.02642ZM140.308 5.27468H140.932V5.89882H140.308V5.27468ZM140.308 2.15402H140.932V2.77815H140.308V2.15402ZM144.828 2.15402H145.452V2.77815H144.828V2.15402ZM144.828 1.52989H145.452V2.15402H144.828V1.52989ZM145.452 1.52989H146.077V2.15402H145.452V1.52989ZM145.452 2.15402H146.077V2.77815H145.452V2.15402ZM145.452 2.77815H146.077V3.40228H145.452V2.77815ZM145.452 3.40228H146.077V4.02642H145.452V3.40228ZM145.452 4.02642H146.077V4.65055H145.452V4.02642ZM144.828 4.02642H145.452V4.65055H144.828V4.02642ZM144.828 3.40228H145.452V4.02642H144.828V3.40228ZM144.828 2.77815H145.452V3.40228H144.828V2.77815ZM144.828 4.65055H145.452V5.27468H144.828V4.65055ZM145.452 4.65055H146.077V5.27468H145.452V4.65055ZM145.452 5.27468H146.077V5.89882H145.452V5.27468ZM145.452 5.89882H146.077V6.52295H145.452V5.89882ZM144.828 5.89882H145.452V6.52295H144.828V5.89882ZM144.828 5.27468H145.452V5.89882H144.828V5.27468ZM147.949 5.89882H148.573V6.52295H147.949V5.89882ZM148.573 5.89882H149.197V6.52295H148.573V5.89882ZM148.573 5.27468H149.197V5.89882H148.573V5.27468ZM148.573 4.65055H149.197V5.27468H148.573V4.65055ZM148.573 4.02642H149.197V4.65055H148.573V4.02642ZM148.573 3.40228H149.197V4.02642H148.573V3.40228ZM148.573 2.77815H149.197V3.40228H148.573V2.77815ZM148.573 2.15402H149.197V2.77815H148.573V2.15402ZM147.949 3.40228H148.573V4.02642H147.949V3.40228ZM147.949 4.02642H148.573V4.65055H147.949V4.02642ZM147.949 4.65055H148.573V5.27468H147.949V4.65055ZM147.949 5.27468H148.573V5.89882H147.949V5.27468ZM147.949 2.77815H148.573V3.40228H147.949V2.77815ZM146.077 2.15402H146.701V2.77815H146.077V2.15402ZM146.701 2.15402H147.325V2.77815H146.701V2.15402ZM147.325 2.15402H147.949V2.77815H147.325V2.15402ZM147.325 1.52989H147.949V2.15402H147.325V1.52989ZM147.949 1.52989H148.573V2.15402H147.949V1.52989ZM147.949 2.15402H148.573V2.77815H147.949V2.15402ZM146.701 1.52989H147.325V2.15402H146.701V1.52989ZM156.359 0.28162H156.983V0.905752H156.359V0.28162ZM155.735 0.28162H156.359V0.905752H155.735V0.28162ZM155.735 0.905752H156.359V1.52989H155.735V0.905752ZM156.359 0.905752H156.983V1.52989H156.359V0.905752ZM156.983 0.905752H157.607V1.52989H156.983V0.905752ZM156.983 0.28162H157.607V0.905752H156.983V0.28162ZM157.607 0.28162H158.231V0.905752H157.607V0.28162ZM158.231 0.28162H158.856V0.905752H158.231V0.28162ZM158.231 0.905752H158.856V1.52989H158.231V0.905752ZM157.607 0.905752H158.231V1.52989H157.607V0.905752ZM158.231 1.52989H158.856V2.15402H158.231V1.52989ZM158.856 0.905752H159.48V1.52989H158.856V0.905752ZM158.856 1.52989H159.48V2.15402H158.856V1.52989ZM158.856 4.65055H159.48V5.27468H158.856V4.65055ZM158.856 5.27468H159.48V5.89882H158.856V5.27468ZM158.231 5.27468H158.856V5.89882H158.231V5.27468ZM158.231 4.65055H158.856V5.27468H158.231V4.65055ZM157.607 5.27468H158.231V5.89882H157.607V5.27468ZM158.231 5.89882H158.856V6.52295H158.231V5.89882ZM157.607 5.89882H158.231V6.52295H157.607V5.89882ZM156.983 5.89882H157.607V6.52295H156.983V5.89882ZM156.983 5.27468H157.607V5.89882H156.983V5.27468ZM156.359 5.89882H156.983V6.52295H156.359V5.89882ZM155.735 5.89882H156.359V6.52295H155.735V5.89882ZM155.735 5.27468H156.359V5.89882H155.735V5.27468ZM156.359 5.27468H156.983V5.89882H156.359V5.27468ZM156.359 4.65055H156.983V5.27468H156.359V4.65055ZM155.735 4.65055H156.359V5.27468H155.735V4.65055ZM155.111 5.27468H155.735V5.89882H155.111V5.27468ZM155.111 4.65055H155.735V5.27468H155.111V4.65055ZM155.111 4.02642H155.735V4.65055H155.111V4.02642ZM155.111 3.40228H155.735V4.02642H155.111V3.40228ZM155.111 2.77815H155.735V3.40228H155.111V2.77815ZM155.111 2.15402H155.735V2.77815H155.111V2.15402ZM155.111 1.52989H155.735V2.15402H155.111V1.52989ZM155.735 1.52989H156.359V2.15402H155.735V1.52989ZM155.111 0.905752H155.735V1.52989H155.111V0.905752ZM156.359 1.52989H156.983V2.15402H156.359V1.52989ZM155.735 2.15402H156.359V2.77815H155.735V2.15402ZM155.735 2.77815H156.359V3.40228H155.735V2.77815ZM155.735 3.40228H156.359V4.02642H155.735V3.40228ZM155.735 4.02642H156.359V4.65055H155.735V4.02642ZM165.248 6.52295H164.624V5.89882H165.248V6.52295ZM165.248 5.89882H164.624V5.27468H165.248V5.89882ZM164.624 5.89882H164V5.27468H164.624V5.89882ZM164 6.52295H163.376V5.89882H164V6.52295ZM163.376 6.52295H162.752V5.89882H163.376V6.52295ZM162.752 6.52295H162.128V5.89882H162.752V6.52295ZM162.752 5.89882H162.128V5.27468H162.752V5.89882ZM163.376 5.89882H162.752V5.27468H163.376V5.89882ZM162.128 5.89882H161.504V5.27468H162.128V5.89882ZM162.128 5.27468H161.504V4.65055H162.128V5.27468ZM162.128 2.77815H161.504V2.15402H162.128V2.77815ZM162.752 2.77815H162.128V2.15402H162.752V2.77815ZM162.752 5.27468H162.128V4.65055H162.752V5.27468ZM163.376 2.77815H162.752V2.15402H163.376V2.77815ZM162.752 2.15402H162.128V1.52989H162.752V2.15402ZM163.376 2.15402H162.752V1.52989H163.376V2.15402ZM164 2.15402H163.376V1.52989H164V2.15402ZM164.624 2.15402H164V1.52989H164.624V2.15402ZM165.248 2.15402H164.624V1.52989H165.248V2.15402ZM165.248 2.77815H164.624V2.15402H165.248V2.77815ZM164.624 2.77815H164V2.15402H164.624V2.77815ZM165.248 3.40228H164.624V2.77815H165.248V3.40228ZM165.872 2.77815H165.248V2.15402H165.872V2.77815ZM165.872 3.40228H165.248V2.77815H165.872V3.40228ZM165.872 4.02642H165.248V3.40228H165.872V4.02642ZM165.872 4.65055H165.248V4.02642H165.872V4.65055ZM165.872 5.27468H165.248V4.65055H165.872V5.27468ZM165.872 5.89882H165.248V5.27468H165.872V5.89882ZM165.248 5.27468H164.624V4.65055H165.248V5.27468ZM165.248 4.65055H164.624V4.02642H165.248V4.65055ZM165.248 4.02642H164.624V3.40228H165.248V4.02642ZM164 2.77815H163.376V2.15402H164V2.77815ZM164 5.89882H163.376V5.27468H164V5.89882ZM165.248 5.89882H165.872V6.52295H165.248V5.89882ZM164 3.40228H164.624V4.02642H164V3.40228ZM163.376 3.40228H164V4.02642H163.376V3.40228ZM162.752 3.40228H163.376V4.02642H162.752V3.40228ZM162.128 3.40228H162.752V4.02642H162.128V3.40228ZM161.504 4.02642H162.128V4.65055H161.504V4.02642ZM162.128 4.02642H162.752V4.65055H162.128V4.02642ZM164 4.02642H164.624V4.65055H164V4.02642ZM163.376 4.02642H164V4.65055H163.376V4.02642ZM162.752 4.02642H163.376V4.65055H162.752V4.02642ZM167.896 2.15402H168.52V2.77815H167.896V2.15402ZM167.896 1.52989H168.52V2.15402H167.896V1.52989ZM168.52 1.52989H169.145V2.15402H168.52V1.52989ZM168.52 2.15402H169.145V2.77815H168.52V2.15402ZM168.52 2.77815H169.145V3.40228H168.52V2.77815ZM168.52 3.40228H169.145V4.02642H168.52V3.40228ZM168.52 4.02642H169.145V4.65055H168.52V4.02642ZM167.896 4.02642H168.52V4.65055H167.896V4.02642ZM167.896 3.40228H168.52V4.02642H167.896V3.40228ZM167.896 2.77815H168.52V3.40228H167.896V2.77815ZM167.896 4.65055H168.52V5.27468H167.896V4.65055ZM168.52 4.65055H169.145V5.27468H168.52V4.65055ZM168.52 5.27468H169.145V5.89882H168.52V5.27468ZM168.52 5.89882H169.145V6.52295H168.52V5.89882ZM167.896 5.89882H168.52V6.52295H167.896V5.89882ZM167.896 5.27468H168.52V5.89882H167.896V5.27468ZM170.393 5.89882H171.017V6.52295H170.393V5.89882ZM171.017 5.89882H171.641V6.52295H171.017V5.89882ZM171.017 5.27468H171.641V5.89882H171.017V5.27468ZM171.017 4.65055H171.641V5.27468H171.017V4.65055ZM171.017 4.02642H171.641V4.65055H171.017V4.02642ZM171.017 3.40228H171.641V4.02642H171.017V3.40228ZM171.017 2.77815H171.641V3.40228H171.017V2.77815ZM171.017 2.15402H171.641V2.77815H171.017V2.15402ZM170.393 3.40228H171.017V4.02642H170.393V3.40228ZM170.393 4.02642H171.017V4.65055H170.393V4.02642ZM170.393 4.65055H171.017V5.27468H170.393V4.65055ZM170.393 5.27468H171.017V5.89882H170.393V5.27468ZM170.393 2.77815H171.017V3.40228H170.393V2.77815ZM169.145 2.15402H169.769V2.77815H169.145V2.15402ZM169.769 2.15402H170.393V2.77815H169.769V2.15402ZM170.393 1.52989H171.017V2.15402H170.393V1.52989ZM170.393 2.15402H171.017V2.77815H170.393V2.15402ZM169.769 1.52989H170.393V2.15402H169.769V1.52989ZM172.889 5.89882H173.513V6.52295H172.889V5.89882ZM173.513 5.89882H174.138V6.52295H173.513V5.89882ZM173.513 5.27468H174.138V5.89882H173.513V5.27468ZM173.513 4.65055H174.138V5.27468H173.513V4.65055ZM173.513 4.02642H174.138V4.65055H173.513V4.02642ZM173.513 3.40228H174.138V4.02642H173.513V3.40228ZM173.513 2.77815H174.138V3.40228H173.513V2.77815ZM173.513 2.15402H174.138V2.77815H173.513V2.15402ZM172.889 3.40228H173.513V4.02642H172.889V3.40228ZM172.889 4.02642H173.513V4.65055H172.889V4.02642ZM172.889 4.65055H173.513V5.27468H172.889V4.65055ZM172.889 5.27468H173.513V5.89882H172.889V5.27468ZM172.889 2.77815H173.513V3.40228H172.889V2.77815ZM171.641 2.15402H172.265V2.77815H171.641V2.15402ZM172.265 2.15402H172.889V2.77815H172.265V2.15402ZM172.889 1.52989H173.513V2.15402H172.889V1.52989ZM172.889 2.15402H173.513V2.77815H172.889V2.15402ZM172.265 1.52989H172.889V2.15402H172.265V1.52989ZM176.155 2.15402H176.779V2.77815H176.155V2.15402ZM176.155 1.52989H176.779V2.15402H176.155V1.52989ZM176.779 1.52989H177.403V2.15402H176.779V1.52989ZM176.779 2.15402H177.403V2.77815H176.779V2.15402ZM176.779 2.77815H177.403V3.40228H176.779V2.77815ZM176.779 3.40228H177.403V4.02642H176.779V3.40228ZM176.779 4.02642H177.403V4.65055H176.779V4.02642ZM176.155 4.02642H176.779V4.65055H176.155V4.02642ZM176.155 3.40228H176.779V4.02642H176.155V3.40228ZM176.155 2.77815H176.779V3.40228H176.155V2.77815ZM176.155 4.65055H176.779V5.27468H176.155V4.65055ZM176.779 4.65055H177.403V5.27468H176.779V4.65055ZM176.779 5.27468H177.403V5.89882H176.779V5.27468ZM176.779 5.89882H177.403V6.52295H176.779V5.89882ZM176.155 5.89882H176.779V6.52295H176.155V5.89882ZM176.155 5.27468H176.779V5.89882H176.155V5.27468ZM179.276 5.89882H179.9V6.52295H179.276V5.89882ZM179.9 5.27468H180.524V5.89882H179.9V5.27468ZM179.9 4.65055H180.524V5.27468H179.9V4.65055ZM179.9 4.02642H180.524V4.65055H179.9V4.02642ZM179.9 3.40228H180.524V4.02642H179.9V3.40228ZM179.9 2.77815H180.524V3.40228H179.9V2.77815ZM179.9 2.15402H180.524V2.77815H179.9V2.15402ZM179.276 3.40228H179.9V4.02642H179.276V3.40228ZM179.276 4.02642H179.9V4.65055H179.276V4.02642ZM179.276 4.65055H179.9V5.27468H179.276V4.65055ZM179.276 5.27468H179.9V5.89882H179.276V5.27468ZM179.276 2.77815H179.9V3.40228H179.276V2.77815ZM177.403 2.15402H178.027V2.77815H177.403V2.15402ZM178.027 2.15402H178.651V2.77815H178.027V2.15402ZM178.651 2.15402H179.276V2.77815H178.651V2.15402ZM178.651 1.52989H179.276V2.15402H178.651V1.52989ZM179.276 1.52989H179.9V2.15402H179.276V1.52989ZM179.276 2.15402H179.9V2.77815H179.276V2.15402ZM178.027 1.52989H178.651V2.15402H178.027V1.52989ZM177.403 5.89882H178.027V6.52295H177.403V5.89882ZM178.027 5.89882H178.651V6.52295H178.027V5.89882ZM178.651 5.89882H179.276V6.52295H178.651V5.89882ZM178.651 5.27468H179.276V5.89882H178.651V5.27468ZM178.027 5.27468H178.651V5.89882H178.027V5.27468ZM177.403 5.27468H178.027V5.89882H177.403V5.27468ZM176.155 6.52295H176.779V7.14708H176.155V6.52295ZM176.779 6.52295H177.403V7.14708H176.779V6.52295ZM176.779 7.14708H177.403V7.77122H176.779V7.14708ZM176.155 7.14708H176.779V7.77122H176.155V7.14708ZM186.917 5.89882H186.292V5.27468H186.917V5.89882ZM186.917 6.52295H186.292V5.89882H186.917V6.52295ZM186.292 6.52295H185.668V5.89882H186.292V6.52295ZM186.292 5.89882H185.668V5.27468H186.292V5.89882ZM186.292 5.27468H185.668V4.65055H186.292V5.27468ZM186.292 4.65055H185.668V4.02642H186.292V4.65055ZM186.292 4.02642H185.668V3.40228H186.292V4.02642ZM186.917 4.02642H186.292V3.40228H186.917V4.02642ZM186.917 4.65055H186.292V4.02642H186.917V4.65055ZM186.917 5.27468H186.292V4.65055H186.917V5.27468ZM186.917 3.40228H186.292V2.77815H186.917V3.40228ZM186.292 3.40228H185.668V2.77815H186.292V3.40228ZM186.292 2.77815H185.668V2.15402H186.292V2.77815ZM186.292 2.15402H185.668V1.52989H186.292V2.15402ZM186.917 2.15402H186.292V1.52989H186.917V2.15402ZM186.917 2.77815H186.292V2.15402H186.917V2.77815ZM183.796 2.15402H183.172V1.52989H183.796V2.15402ZM183.172 2.15402H182.548V1.52989H183.172V2.15402ZM183.172 2.77815H182.548V2.15402H183.172V2.77815ZM183.172 3.40228H182.548V2.77815H183.172V3.40228ZM183.172 4.02642H182.548V3.40228H183.172V4.02642ZM183.172 4.65055H182.548V4.02642H183.172V4.65055ZM183.172 5.27468H182.548V4.65055H183.172V5.27468ZM183.172 5.89882H182.548V5.27468H183.172V5.89882ZM183.796 4.65055H183.172V4.02642H183.796V4.65055ZM183.796 4.02642H183.172V3.40228H183.796V4.02642ZM183.796 3.40228H183.172V2.77815H183.796V3.40228ZM183.796 2.77815H183.172V2.15402H183.796V2.77815ZM183.796 5.27468H183.172V4.65055H183.796V5.27468ZM185.668 5.89882H185.044V5.27468H185.668V5.89882ZM185.044 5.89882H184.42V5.27468H185.044V5.89882ZM184.42 5.89882H183.796V5.27468H184.42V5.89882ZM184.42 6.52295H183.796V5.89882H184.42V6.52295ZM183.796 6.52295H183.172V5.89882H183.796V6.52295ZM183.796 5.89882H183.172V5.27468H183.796V5.89882ZM185.044 6.52295H184.42V5.89882H185.044V6.52295ZM188.94 2.15402H189.565V2.77815H188.94V2.15402ZM189.565 2.77815H190.189V3.40228H189.565V2.77815ZM188.94 2.77815H189.565V3.40228H188.94V2.77815ZM188.94 3.40228H189.565V4.02642H188.94V3.40228ZM189.565 3.40228H190.189V4.02642H189.565V3.40228ZM189.565 4.02642H190.189V4.65055H189.565V4.02642ZM190.189 4.02642H190.813V4.65055H190.189V4.02642ZM190.813 4.02642H191.437V4.65055H190.813V4.02642ZM191.437 3.40228H192.061V4.02642H191.437V3.40228ZM190.813 3.40228H191.437V4.02642H190.813V3.40228ZM190.189 3.40228H190.813V4.02642H190.189V3.40228ZM191.437 4.02642H192.061V4.65055H191.437V4.02642ZM192.061 4.02642H192.685V4.65055H192.061V4.02642ZM192.061 4.65055H192.685V5.27468H192.061V4.65055ZM191.437 4.65055H192.061V5.27468H191.437V4.65055ZM191.437 5.27468H192.061V5.89882H191.437V5.27468ZM192.061 5.27468H192.685V5.89882H192.061V5.27468ZM191.437 5.89882H192.061V6.52295H191.437V5.89882ZM190.813 5.27468H191.437V5.89882H190.813V5.27468ZM190.189 5.27468H190.813V5.89882H190.189V5.27468ZM189.565 5.27468H190.189V5.89882H189.565V5.27468ZM188.94 5.27468H189.565V5.89882H188.94V5.27468ZM189.565 5.89882H190.189V6.52295H189.565V5.89882ZM190.189 5.89882H190.813V6.52295H190.189V5.89882ZM190.813 5.89882H191.437V6.52295H190.813V5.89882ZM192.061 2.15402H192.685V2.77815H192.061V2.15402ZM191.437 2.15402H192.061V2.77815H191.437V2.15402ZM191.437 1.52989H192.061V2.15402H191.437V1.52989ZM190.813 1.52989H191.437V2.15402H190.813V1.52989ZM190.189 1.52989H190.813V2.15402H190.189V1.52989ZM189.565 1.52989H190.189V2.15402H189.565V1.52989ZM189.565 2.15402H190.189V2.77815H189.565V2.15402ZM190.189 2.15402H190.813V2.77815H190.189V2.15402ZM190.813 2.15402H191.437V2.77815H190.813V2.15402ZM198.597 2.77815H199.221V3.40228H198.597V2.77815ZM198.597 3.40228H199.221V4.02642H198.597V3.40228ZM199.221 3.40228H199.845V4.02642H199.221V3.40228ZM199.845 3.40228H200.47V4.02642H199.845V3.40228ZM199.845 2.77815H200.47V3.40228H199.845V2.77815ZM199.221 2.77815H199.845V3.40228H199.221V2.77815ZM198.597 2.15402H199.221V2.77815H198.597V2.15402ZM199.221 2.15402H199.845V2.77815H199.221V2.15402ZM199.845 2.15402H200.47V2.77815H199.845V2.15402ZM206.377 0.905752H207.001V1.52989H206.377V0.905752ZM206.377 1.52989H207.001V2.15402H206.377V1.52989ZM207.001 1.52989H207.625V2.15402H207.001V1.52989ZM207.001 0.905752H207.625V1.52989H207.001V0.905752ZM207.001 0.28162H207.625V0.905752H207.001V0.28162ZM207.625 0.28162H208.249V0.905752H207.625V0.28162ZM208.249 0.28162H208.873V0.905752H208.249V0.28162ZM208.873 0.28162H209.497V0.905752H208.873V0.28162ZM209.497 0.28162H210.121V0.905752H209.497V0.28162ZM209.497 0.905752H210.121V1.52989H209.497V0.905752ZM208.873 0.905752H209.497V1.52989H208.873V0.905752ZM208.249 0.905752H208.873V1.52989H208.249V0.905752ZM207.625 0.905752H208.249V1.52989H207.625V0.905752ZM209.497 1.52989H210.121V2.15402H209.497V1.52989ZM210.121 1.52989H210.745V2.15402H210.121V1.52989ZM210.121 0.905752H210.745V1.52989H210.121V0.905752ZM210.121 2.15402H210.745V2.77815H210.121V2.15402ZM209.497 2.15402H210.121V2.77815H209.497V2.15402ZM208.873 2.15402H209.497V2.77815H208.873V2.15402ZM208.873 2.77815H209.497V3.40228H208.873V2.77815ZM209.497 2.77815H210.121V3.40228H209.497V2.77815ZM208.249 2.77815H208.873V3.40228H208.249V2.77815ZM208.249 3.40228H208.873V4.02642H208.249V3.40228ZM208.873 3.40228H209.497V4.02642H208.873V3.40228ZM207.625 3.40228H208.249V4.02642H207.625V3.40228ZM207.625 4.02642H208.249V4.65055H207.625V4.02642ZM208.249 4.02642H208.873V4.65055H208.249V4.02642ZM207.001 4.02642H207.625V4.65055H207.001V4.02642ZM207.001 4.65055H207.625V5.27468H207.001V4.65055ZM207.625 4.65055H208.249V5.27468H207.625V4.65055ZM206.377 4.65055H207.001V5.27468H206.377V4.65055ZM206.377 5.27468H207.001V5.89882H206.377V5.27468ZM206.377 5.89882H207.001V6.52295H206.377V5.89882ZM207.001 5.89882H207.625V6.52295H207.001V5.89882ZM207.001 5.27468H207.625V5.89882H207.001V5.27468ZM207.625 5.27468H208.249V5.89882H207.625V5.27468ZM208.249 5.27468H208.873V5.89882H208.249V5.27468ZM208.249 5.89882H208.873V6.52295H208.249V5.89882ZM208.873 5.89882H209.497V6.52295H208.873V5.89882ZM209.497 5.89882H210.121V6.52295H209.497V5.89882ZM210.121 5.89882H210.745V6.52295H210.121V5.89882ZM210.121 5.27468H210.745V5.89882H210.121V5.27468ZM209.497 5.27468H210.121V5.89882H209.497V5.27468ZM208.873 5.27468H209.497V5.89882H208.873V5.27468ZM207.625 5.89882H208.249V6.52295H207.625V5.89882ZM214.018 0.28162H214.642V0.905752H214.018V0.28162ZM213.393 0.28162H214.018V0.905752H213.393V0.28162ZM213.393 0.905752H214.018V1.52989H213.393V0.905752ZM214.018 0.905752H214.642V1.52989H214.018V0.905752ZM214.642 0.905752H215.266V1.52989H214.642V0.905752ZM214.642 0.28162H215.266V0.905752H214.642V0.28162ZM215.266 0.28162H215.89V0.905752H215.266V0.28162ZM215.89 0.905752H216.514V1.52989H215.89V0.905752ZM215.266 0.905752H215.89V1.52989H215.266V0.905752ZM215.89 1.52989H216.514V2.15402H215.89V1.52989ZM215.89 5.27468H216.514V5.89882H215.89V5.27468ZM215.89 4.65055H216.514V5.27468H215.89V4.65055ZM215.89 4.02642H216.514V4.65055H215.89V4.02642ZM215.89 3.40228H216.514V4.02642H215.89V3.40228ZM215.89 2.77815H216.514V3.40228H215.89V2.77815ZM215.89 2.15402H216.514V2.77815H215.89V2.15402ZM215.266 5.27468H215.89V5.89882H215.266V5.27468ZM215.266 5.89882H215.89V6.52295H215.266V5.89882ZM214.642 5.89882H215.266V6.52295H214.642V5.89882ZM214.642 5.27468H215.266V5.89882H214.642V5.27468ZM214.018 5.89882H214.642V6.52295H214.018V5.89882ZM213.393 5.89882H214.018V6.52295H213.393V5.89882ZM213.393 5.27468H214.018V5.89882H213.393V5.27468ZM214.018 5.27468H214.642V5.89882H214.018V5.27468ZM213.393 4.65055H214.018V5.27468H213.393V4.65055ZM212.769 5.27468H213.393V5.89882H212.769V5.27468ZM212.769 4.65055H213.393V5.27468H212.769V4.65055ZM212.769 4.02642H213.393V4.65055H212.769V4.02642ZM212.769 3.40228H213.393V4.02642H212.769V3.40228ZM212.769 2.77815H213.393V3.40228H212.769V2.77815ZM212.769 2.15402H213.393V2.77815H212.769V2.15402ZM212.769 1.52989H213.393V2.15402H212.769V1.52989ZM213.393 1.52989H214.018V2.15402H213.393V1.52989ZM212.769 0.905752H213.393V1.52989H212.769V0.905752ZM213.393 2.15402H214.018V2.77815H213.393V2.15402ZM213.393 2.77815H214.018V3.40228H213.393V2.77815ZM213.393 3.40228H214.018V4.02642H213.393V3.40228ZM213.393 4.02642H214.018V4.65055H213.393V4.02642ZM215.266 1.52989H215.89V2.15402H215.266V1.52989ZM215.266 2.15402H215.89V2.77815H215.266V2.15402ZM215.266 2.77815H215.89V3.40228H215.266V2.77815ZM215.266 3.40228H215.89V4.02642H215.266V3.40228ZM215.266 4.02642H215.89V4.65055H215.266V4.02642ZM215.266 4.65055H215.89V5.27468H215.266V4.65055ZM218.536 0.905752H219.16V1.52989H218.536V0.905752ZM218.536 1.52989H219.16V2.15402H218.536V1.52989ZM219.16 1.52989H219.785V2.15402H219.16V1.52989ZM219.16 0.905752H219.785V1.52989H219.16V0.905752ZM219.16 0.28162H219.785V0.905752H219.16V0.28162ZM219.785 0.28162H220.409V0.905752H219.785V0.28162ZM220.409 0.28162H221.033V0.905752H220.409V0.28162ZM221.033 0.28162H221.657V0.905752H221.033V0.28162ZM221.657 0.28162H222.281V0.905752H221.657V0.28162ZM221.657 0.905752H222.281V1.52989H221.657V0.905752ZM221.033 0.905752H221.657V1.52989H221.033V0.905752ZM220.409 0.905752H221.033V1.52989H220.409V0.905752ZM219.785 0.905752H220.409V1.52989H219.785V0.905752ZM221.657 1.52989H222.281V2.15402H221.657V1.52989ZM222.281 1.52989H222.905V2.15402H222.281V1.52989ZM222.281 0.905752H222.905V1.52989H222.281V0.905752ZM222.281 2.15402H222.905V2.77815H222.281V2.15402ZM221.657 2.15402H222.281V2.77815H221.657V2.15402ZM221.033 2.15402H221.657V2.77815H221.033V2.15402ZM221.033 2.77815H221.657V3.40228H221.033V2.77815ZM221.657 2.77815H222.281V3.40228H221.657V2.77815ZM220.409 2.77815H221.033V3.40228H220.409V2.77815ZM220.409 3.40228H221.033V4.02642H220.409V3.40228ZM221.033 3.40228H221.657V4.02642H221.033V3.40228ZM219.785 3.40228H220.409V4.02642H219.785V3.40228ZM219.785 4.02642H220.409V4.65055H219.785V4.02642ZM220.409 4.02642H221.033V4.65055H220.409V4.02642ZM219.16 4.02642H219.785V4.65055H219.16V4.02642ZM219.16 4.65055H219.785V5.27468H219.16V4.65055ZM219.785 4.65055H220.409V5.27468H219.785V4.65055ZM218.536 4.65055H219.16V5.27468H218.536V4.65055ZM218.536 5.27468H219.16V5.89882H218.536V5.27468ZM218.536 5.89882H219.16V6.52295H218.536V5.89882ZM219.16 5.89882H219.785V6.52295H219.16V5.89882ZM219.16 5.27468H219.785V5.89882H219.16V5.27468ZM219.785 5.27468H220.409V5.89882H219.785V5.27468ZM220.409 5.27468H221.033V5.89882H220.409V5.27468ZM220.409 5.89882H221.033V6.52295H220.409V5.89882ZM221.033 5.89882H221.657V6.52295H221.033V5.89882ZM221.657 5.89882H222.281V6.52295H221.657V5.89882ZM222.281 5.89882H222.905V6.52295H222.281V5.89882ZM222.281 5.27468H222.905V5.89882H222.281V5.27468ZM221.657 5.27468H222.281V5.89882H221.657V5.27468ZM221.033 5.27468H221.657V5.89882H221.033V5.27468ZM219.785 5.89882H220.409V6.52295H219.785V5.89882ZM228.05 0.28162H228.674V0.905752H228.05V0.28162ZM227.426 0.28162H228.05V0.905752H227.426V0.28162ZM227.426 0.905752H228.05V1.52989H227.426V0.905752ZM226.801 0.905752H227.426V1.52989H226.801V0.905752ZM226.177 0.905752H226.801V1.52989H226.177V0.905752ZM226.177 0.28162H226.801V0.905752H226.177V0.28162ZM225.553 0.28162H226.177V0.905752H225.553V0.28162ZM224.929 0.28162H225.553V0.905752H224.929V0.28162ZM226.801 0.28162H227.426V0.905752H226.801V0.28162ZM228.05 0.905752H228.674V1.52989H228.05V0.905752ZM225.553 0.905752H226.177V1.52989H225.553V0.905752ZM224.929 0.905752H225.553V1.52989H224.929V0.905752ZM224.929 1.52989H225.553V2.15402H224.929V1.52989ZM224.929 2.15402H225.553V2.77815H224.929V2.15402ZM225.553 2.15402H226.177V2.77815H225.553V2.15402ZM225.553 1.52989H226.177V2.15402H225.553V1.52989ZM225.553 2.77815H226.177V3.40228H225.553V2.77815ZM224.929 2.77815H225.553V3.40228H224.929V2.77815ZM225.553 3.40228H226.177V4.02642H225.553V3.40228ZM226.177 3.40228H226.801V4.02642H226.177V3.40228ZM226.801 3.40228H227.426V4.02642H226.801V3.40228ZM227.426 3.40228H228.05V4.02642H227.426V3.40228ZM227.426 2.77815H228.05V3.40228H227.426V2.77815ZM226.801 2.77815H227.426V3.40228H226.801V2.77815ZM226.177 2.77815H226.801V3.40228H226.177V2.77815ZM228.05 3.40228H228.674V4.02642H228.05V3.40228ZM228.05 4.02642H228.674V4.65055H228.05V4.02642ZM228.05 4.65055H228.674V5.27468H228.05V4.65055ZM228.05 5.27468H228.674V5.89882H228.05V5.27468ZM227.426 4.65055H228.05V5.27468H227.426V4.65055ZM227.426 4.02642H228.05V4.65055H227.426V4.02642ZM227.426 5.27468H228.05V5.89882H227.426V5.27468ZM227.426 5.89882H228.05V6.52295H227.426V5.89882ZM226.801 5.89882H227.426V6.52295H226.801V5.89882ZM226.177 5.89882H226.801V6.52295H226.177V5.89882ZM226.177 5.27468H226.801V5.89882H226.177V5.27468ZM225.553 5.27468H226.177V5.89882H225.553V5.27468ZM225.553 5.89882H226.177V6.52295H225.553V5.89882ZM226.801 5.27468H227.426V5.89882H226.801V5.27468ZM224.929 5.27468H225.553V5.89882H224.929V5.27468ZM224.929 4.65055H225.553V5.27468H224.929V4.65055ZM225.553 4.65055H226.177V5.27468H225.553V4.65055ZM234.586 0.28162H235.21V0.905752H234.586V0.28162ZM235.21 0.28162H235.834V0.905752H235.21V0.28162ZM235.21 0.905752H235.834V1.52989H235.21V0.905752ZM235.21 1.52989H235.834V2.15402H235.21V1.52989ZM235.21 2.15402H235.834V2.77815H235.21V2.15402ZM234.586 1.52989H235.21V2.15402H234.586V1.52989ZM234.586 0.905752H235.21V1.52989H234.586V0.905752ZM234.586 2.15402H235.21V2.77815H234.586V2.15402ZM234.586 2.77815H235.21V3.40228H234.586V2.77815ZM234.586 4.02642H235.21V4.65055H234.586V4.02642ZM234.586 3.40228H235.21V4.02642H234.586V3.40228ZM235.21 2.77815H235.834V3.40228H235.21V2.77815ZM235.21 3.40228H235.834V4.02642H235.21V3.40228ZM235.21 4.02642H235.834V4.65055H235.21V4.02642ZM235.21 4.65055H235.834V5.27468H235.21V4.65055ZM234.586 4.65055H235.21V5.27468H234.586V4.65055ZM234.586 5.89882H235.21V6.52295H234.586V5.89882ZM235.21 5.89882H235.834V6.52295H235.21V5.89882ZM235.21 5.27468H235.834V5.89882H235.21V5.27468ZM234.586 5.27468H235.21V5.89882H234.586V5.27468ZM238.331 5.89882H238.955V6.52295H238.331V5.89882ZM238.331 5.27468H238.955V5.89882H238.331V5.27468ZM238.331 4.65055H238.955V5.27468H238.331V4.65055ZM238.331 4.02642H238.955V4.65055H238.331V4.02642ZM238.331 3.40228H238.955V4.02642H238.331V3.40228ZM238.331 2.77815H238.955V3.40228H238.331V2.77815ZM238.331 0.28162H238.955V0.905752H238.331V0.28162ZM237.706 0.28162H238.331V0.905752H237.706V0.28162ZM237.706 0.905752H238.331V1.52989H237.706V0.905752ZM237.706 1.52989H238.331V2.15402H237.706V1.52989ZM237.706 2.15402H238.331V2.77815H237.706V2.15402ZM238.331 2.15402H238.955V2.77815H238.331V2.15402ZM238.331 1.52989H238.955V2.15402H238.331V1.52989ZM238.331 0.905752H238.955V1.52989H238.331V0.905752ZM237.706 2.77815H238.331V3.40228H237.706V2.77815ZM237.706 5.27468H238.331V5.89882H237.706V5.27468ZM237.706 4.65055H238.331V5.27468H237.706V4.65055ZM237.706 4.02642H238.331V4.65055H237.706V4.02642ZM237.706 3.40228H238.331V4.02642H237.706V3.40228ZM237.706 5.89882H238.331V6.52295H237.706V5.89882ZM237.082 2.77815H237.706V3.40228H237.082V2.77815ZM236.458 2.77815H237.082V3.40228H236.458V2.77815ZM235.834 2.77815H236.458V3.40228H235.834V2.77815ZM235.834 3.40228H236.458V4.02642H235.834V3.40228ZM236.458 3.40228H237.082V4.02642H236.458V3.40228ZM237.082 3.40228H237.706V4.02642H237.082V3.40228ZM244.723 6.52295H244.099V5.89882H244.723V6.52295ZM244.723 5.89882H244.099V5.27468H244.723V5.89882ZM244.099 5.89882H243.475V5.27468H244.099V5.89882ZM243.475 6.52295H242.851V5.89882H243.475V6.52295ZM242.851 6.52295H242.227V5.89882H242.851V6.52295ZM242.227 6.52295H241.603V5.89882H242.227V6.52295ZM242.227 5.89882H241.603V5.27468H242.227V5.89882ZM242.851 5.89882H242.227V5.27468H242.851V5.89882ZM241.603 5.89882H240.978V5.27468H241.603V5.89882ZM241.603 5.27468H240.978V4.65055H241.603V5.27468ZM241.603 2.77815H240.978V2.15402H241.603V2.77815ZM242.227 2.77815H241.603V2.15402H242.227V2.77815ZM242.227 5.27468H241.603V4.65055H242.227V5.27468ZM242.851 2.77815H242.227V2.15402H242.851V2.77815ZM242.227 2.15402H241.603V1.52989H242.227V2.15402ZM242.851 2.15402H242.227V1.52989H242.851V2.15402ZM243.475 2.15402H242.851V1.52989H243.475V2.15402ZM244.099 2.15402H243.475V1.52989H244.099V2.15402ZM244.723 2.15402H244.099V1.52989H244.723V2.15402ZM244.723 2.77815H244.099V2.15402H244.723V2.77815ZM244.099 2.77815H243.475V2.15402H244.099V2.77815ZM244.723 3.40228H244.099V2.77815H244.723V3.40228ZM245.347 2.77815H244.723V2.15402H245.347V2.77815ZM245.347 3.40228H244.723V2.77815H245.347V3.40228ZM245.347 4.02642H244.723V3.40228H245.347V4.02642ZM245.347 4.65055H244.723V4.02642H245.347V4.65055ZM245.347 5.27468H244.723V4.65055H245.347V5.27468ZM245.347 5.89882H244.723V5.27468H245.347V5.89882ZM244.723 5.27468H244.099V4.65055H244.723V5.27468ZM244.723 4.65055H244.099V4.02642H244.723V4.65055ZM244.723 4.02642H244.099V3.40228H244.723V4.02642ZM243.475 2.77815H242.851V2.15402H243.475V2.77815ZM243.475 5.89882H242.851V5.27468H243.475V5.89882ZM244.723 5.89882H245.347V6.52295H244.723V5.89882ZM243.475 3.40228H244.099V4.02642H243.475V3.40228ZM242.851 3.40228H243.475V4.02642H242.851V3.40228ZM242.227 3.40228H242.851V4.02642H242.227V3.40228ZM241.603 3.40228H242.227V4.02642H241.603V3.40228ZM240.978 4.02642H241.603V4.65055H240.978V4.02642ZM241.603 4.02642H242.227V4.65055H241.603V4.02642ZM243.475 4.02642H244.099V4.65055H243.475V4.02642ZM242.851 4.02642H243.475V4.65055H242.851V4.02642ZM242.227 4.02642H242.851V4.65055H242.227V4.02642ZM248.619 1.52989H249.244V2.15402H248.619V1.52989ZM247.995 1.52989H248.619V2.15402H247.995V1.52989ZM247.995 2.15402H248.619V2.77815H247.995V2.15402ZM248.619 2.15402H249.244V2.77815H248.619V2.15402ZM249.244 1.52989H249.868V2.15402H249.244V1.52989ZM249.868 1.52989H250.492V2.15402H249.868V1.52989ZM250.492 1.52989H251.116V2.15402H250.492V1.52989ZM250.492 2.15402H251.116V2.77815H250.492V2.15402ZM249.868 2.15402H250.492V2.77815H249.868V2.15402ZM251.116 2.15402H251.74V2.77815H251.116V2.15402ZM251.116 2.77815H251.74V3.40228H251.116V2.77815ZM251.116 4.65055H251.74V5.27468H251.116V4.65055ZM251.116 5.27468H251.74V5.89882H251.116V5.27468ZM250.492 5.27468H251.116V5.89882H250.492V5.27468ZM250.492 4.65055H251.116V5.27468H250.492V4.65055ZM250.492 2.77815H251.116V3.40228H250.492V2.77815ZM249.868 5.27468H250.492V5.89882H249.868V5.27468ZM250.492 5.89882H251.116V6.52295H250.492V5.89882ZM249.868 5.89882H250.492V6.52295H249.868V5.89882ZM249.244 5.89882H249.868V6.52295H249.244V5.89882ZM248.619 5.89882H249.244V6.52295H248.619V5.89882ZM247.995 5.89882H248.619V6.52295H247.995V5.89882ZM247.995 5.27468H248.619V5.89882H247.995V5.27468ZM248.619 5.27468H249.244V5.89882H248.619V5.27468ZM247.995 4.65055H248.619V5.27468H247.995V4.65055ZM247.371 5.27468H247.995V5.89882H247.371V5.27468ZM247.371 4.65055H247.995V5.27468H247.371V4.65055ZM247.371 4.02642H247.995V4.65055H247.371V4.02642ZM247.371 3.40228H247.995V4.02642H247.371V3.40228ZM247.371 2.77815H247.995V3.40228H247.371V2.77815ZM247.371 2.15402H247.995V2.77815H247.371V2.15402ZM247.995 2.77815H248.619V3.40228H247.995V2.77815ZM247.995 3.40228H248.619V4.02642H247.995V3.40228ZM247.995 4.02642H248.619V4.65055H247.995V4.02642ZM249.244 5.27468H249.868V5.89882H249.244V5.27468ZM249.244 2.15402H249.868V2.77815H249.244V2.15402ZM253.764 0.28162H254.388V0.905752H253.764V0.28162ZM254.388 0.28162H255.012V0.905752H254.388V0.28162ZM254.388 0.905752H255.012V1.52989H254.388V0.905752ZM254.388 1.52989H255.012V2.15402H254.388V1.52989ZM254.388 2.15402H255.012V2.77815H254.388V2.15402ZM253.764 2.15402H254.388V2.77815H253.764V2.15402ZM253.764 1.52989H254.388V2.15402H253.764V1.52989ZM253.764 0.905752H254.388V1.52989H253.764V0.905752ZM253.764 2.77815H254.388V3.40228H253.764V2.77815ZM253.764 3.40228H254.388V4.02642H253.764V3.40228ZM253.764 4.02642H254.388V4.65055H253.764V4.02642ZM253.764 4.65055H254.388V5.27468H253.764V4.65055ZM253.764 5.27468H254.388V5.89882H253.764V5.27468ZM253.764 5.89882H254.388V6.52295H253.764V5.89882ZM254.388 5.89882H255.012V6.52295H254.388V5.89882ZM254.388 5.27468H255.012V5.89882H254.388V5.27468ZM254.388 4.65055H255.012V5.27468H254.388V4.65055ZM254.388 4.02642H255.012V4.65055H254.388V4.02642ZM254.388 3.40228H255.012V4.02642H254.388V3.40228ZM254.388 2.77815H255.012V3.40228H254.388V2.77815ZM255.012 3.40228H255.636V4.02642H255.012V3.40228ZM255.636 3.40228H256.261V4.02642H255.636V3.40228ZM255.636 2.77815H256.261V3.40228H255.636V2.77815ZM256.261 2.77815H256.885V3.40228H256.261V2.77815ZM256.261 2.15402H256.885V2.77815H256.261V2.15402ZM256.261 1.52989H256.885V2.15402H256.261V1.52989ZM256.885 1.52989H257.509V2.15402H256.885V1.52989ZM256.885 2.15402H257.509V2.77815H256.885V2.15402ZM255.636 4.02642H256.261V4.65055H255.636V4.02642ZM256.261 4.02642H256.885V4.65055H256.261V4.02642ZM256.885 4.65055H257.509V5.27468H256.885V4.65055ZM256.261 4.65055H256.885V5.27468H256.261V4.65055ZM256.261 5.27468H256.885V5.89882H256.261V5.27468ZM256.885 5.27468H257.509V5.89882H256.885V5.27468ZM256.885 5.89882H257.509V6.52295H256.885V5.89882ZM256.261 5.89882H256.885V6.52295H256.261V5.89882ZM262.028 5.27468H262.652V5.89882H262.028V5.27468ZM262.028 5.89882H262.652V6.52295H262.028V5.89882ZM261.403 5.89882H262.028V6.52295H261.403V5.89882ZM261.403 5.27468H262.028V5.89882H261.403V5.27468ZM260.779 5.89882H261.403V6.52295H260.779V5.89882ZM260.779 5.27468H261.403V5.89882H260.779V5.27468ZM260.155 5.27468H260.779V5.89882H260.155V5.27468ZM260.155 4.65055H260.779V5.27468H260.155V4.65055ZM260.155 4.02642H260.779V4.65055H260.155V4.02642ZM260.155 3.40228H260.779V4.02642H260.155V3.40228ZM260.155 2.77815H260.779V3.40228H260.155V2.77815ZM260.155 2.15402H260.779V2.77815H260.155V2.15402ZM260.779 4.02642H261.403V4.65055H260.779V4.02642ZM260.779 4.65055H261.403V5.27468H260.779V4.65055ZM260.779 3.40228H261.403V4.02642H260.779V3.40228ZM260.779 2.77815H261.403V3.40228H260.779V2.77815ZM260.779 0.28162H261.403V0.905752H260.779V0.28162ZM260.779 0.905752H261.403V1.52989H260.779V0.905752ZM260.779 1.52989H261.403V2.15402H260.779V1.52989ZM260.779 2.15402H261.403V2.77815H260.779V2.15402ZM260.155 1.52989H260.779V2.15402H260.155V1.52989ZM259.531 2.15402H260.155V2.77815H259.531V2.15402ZM261.403 2.15402H262.028V2.77815H261.403V2.15402ZM262.028 2.15402H262.652V2.77815H262.028V2.15402ZM260.155 0.905752H260.779V1.52989H260.155V0.905752ZM259.531 2.77815H260.155V3.40228H259.531V2.77815ZM261.403 2.77815H262.028V3.40228H261.403V2.77815ZM262.028 2.77815H262.652V3.40228H262.028V2.77815ZM264.672 2.15402H265.296V2.77815H264.672V2.15402ZM264.672 1.52989H265.296V2.15402H264.672V1.52989ZM265.296 1.52989H265.92V2.15402H265.296V1.52989ZM265.296 2.15402H265.92V2.77815H265.296V2.15402ZM265.296 2.77815H265.92V3.40228H265.296V2.77815ZM265.296 3.40228H265.92V4.02642H265.296V3.40228ZM265.296 4.02642H265.92V4.65055H265.296V4.02642ZM264.672 4.02642H265.296V4.65055H264.672V4.02642ZM264.672 3.40228H265.296V4.02642H264.672V3.40228ZM264.672 2.77815H265.296V3.40228H264.672V2.77815ZM264.672 4.65055H265.296V5.27468H264.672V4.65055ZM265.296 4.65055H265.92V5.27468H265.296V4.65055ZM265.296 5.27468H265.92V5.89882H265.296V5.27468ZM265.296 5.89882H265.92V6.52295H265.296V5.89882ZM264.672 5.89882H265.296V6.52295H264.672V5.89882ZM264.672 5.27468H265.296V5.89882H264.672V5.27468ZM267.793 5.89882H268.417V6.52295H267.793V5.89882ZM268.417 5.89882H269.041V6.52295H268.417V5.89882ZM268.417 5.27468H269.041V5.89882H268.417V5.27468ZM268.417 4.65055H269.041V5.27468H268.417V4.65055ZM268.417 4.02642H269.041V4.65055H268.417V4.02642ZM268.417 3.40228H269.041V4.02642H268.417V3.40228ZM268.417 2.77815H269.041V3.40228H268.417V2.77815ZM268.417 2.15402H269.041V2.77815H268.417V2.15402ZM267.793 3.40228H268.417V4.02642H267.793V3.40228ZM267.793 4.02642H268.417V4.65055H267.793V4.02642ZM267.793 4.65055H268.417V5.27468H267.793V4.65055ZM267.793 5.27468H268.417V5.89882H267.793V5.27468ZM267.793 2.77815H268.417V3.40228H267.793V2.77815ZM265.92 2.15402H266.545V2.77815H265.92V2.15402ZM266.545 2.15402H267.169V2.77815H266.545V2.15402ZM267.169 2.15402H267.793V2.77815H267.169V2.15402ZM267.169 1.52989H267.793V2.15402H267.169V1.52989ZM267.793 1.52989H268.417V2.15402H267.793V1.52989ZM267.793 2.15402H268.417V2.77815H267.793V2.15402ZM266.545 1.52989H267.169V2.15402H266.545V1.52989ZM264.672 0.28162H265.296V0.905752H264.672V0.28162ZM265.296 0.28162H265.92V0.905752H265.296V0.28162ZM265.296 0.905752H265.92V1.52989H265.296V0.905752ZM264.672 0.905752H265.296V1.52989H264.672V0.905752ZM272.313 1.52989H272.937V2.15402H272.313V1.52989ZM271.689 1.52989H272.313V2.15402H271.689V1.52989ZM271.689 2.15402H272.313V2.77815H271.689V2.15402ZM272.313 2.15402H272.937V2.77815H272.313V2.15402ZM272.937 1.52989H273.561V2.15402H272.937V1.52989ZM273.561 1.52989H274.186V2.15402H273.561V1.52989ZM274.186 1.52989H274.81V2.15402H274.186V1.52989ZM274.186 2.15402H274.81V2.77815H274.186V2.15402ZM273.561 2.15402H274.186V2.77815H273.561V2.15402ZM274.186 3.40228H274.81V4.02642H274.186V3.40228ZM274.81 2.15402H275.434V2.77815H274.81V2.15402ZM274.81 2.77815H275.434V3.40228H274.81V2.77815ZM274.81 3.40228H275.434V4.02642H274.81V3.40228ZM274.81 4.02642H275.434V4.65055H274.81V4.02642ZM274.81 4.65055H275.434V5.27468H274.81V4.65055ZM274.81 5.27468H275.434V5.89882H274.81V5.27468ZM274.186 5.27468H274.81V5.89882H274.186V5.27468ZM274.186 4.65055H274.81V5.27468H274.186V4.65055ZM274.186 4.02642H274.81V4.65055H274.186V4.02642ZM274.186 2.77815H274.81V3.40228H274.186V2.77815ZM273.561 5.27468H274.186V5.89882H273.561V5.27468ZM274.186 5.89882H274.81V6.52295H274.186V5.89882ZM273.561 5.89882H274.186V6.52295H273.561V5.89882ZM272.937 5.89882H273.561V6.52295H272.937V5.89882ZM272.313 5.89882H272.937V6.52295H272.313V5.89882ZM271.689 5.89882H272.313V6.52295H271.689V5.89882ZM271.689 5.27468H272.313V5.89882H271.689V5.27468ZM272.313 5.27468H272.937V5.89882H272.313V5.27468ZM271.689 4.65055H272.313V5.27468H271.689V4.65055ZM271.065 5.27468H271.689V5.89882H271.065V5.27468ZM271.065 4.65055H271.689V5.27468H271.065V4.65055ZM271.065 4.02642H271.689V4.65055H271.065V4.02642ZM271.065 3.40228H271.689V4.02642H271.065V3.40228ZM271.065 2.77815H271.689V3.40228H271.065V2.77815ZM271.065 2.15402H271.689V2.77815H271.065V2.15402ZM271.689 2.77815H272.313V3.40228H271.689V2.77815ZM271.689 3.40228H272.313V4.02642H271.689V3.40228ZM271.689 4.02642H272.313V4.65055H271.689V4.02642ZM272.937 5.27468H273.561V5.89882H272.937V5.27468ZM272.937 2.15402H273.561V2.77815H272.937V2.15402ZM277.458 2.15402H278.082V2.77815H277.458V2.15402ZM277.458 1.52989H278.082V2.15402H277.458V1.52989ZM278.082 1.52989H278.706V2.15402H278.082V1.52989ZM278.082 2.15402H278.706V2.77815H278.082V2.15402ZM278.082 2.77815H278.706V3.40228H278.082V2.77815ZM278.082 3.40228H278.706V4.02642H278.082V3.40228ZM278.082 4.02642H278.706V4.65055H278.082V4.02642ZM277.458 4.02642H278.082V4.65055H277.458V4.02642ZM277.458 3.40228H278.082V4.02642H277.458V3.40228ZM277.458 2.77815H278.082V3.40228H277.458V2.77815ZM277.458 4.65055H278.082V5.27468H277.458V4.65055ZM278.082 4.65055H278.706V5.27468H278.082V4.65055ZM278.082 5.27468H278.706V5.89882H278.082V5.27468ZM278.082 5.89882H278.706V6.52295H278.082V5.89882ZM277.458 5.89882H278.082V6.52295H277.458V5.89882ZM277.458 5.27468H278.082V5.89882H277.458V5.27468ZM280.578 5.89882H281.202V6.52295H280.578V5.89882ZM281.202 5.89882H281.827V6.52295H281.202V5.89882ZM281.202 5.27468H281.827V5.89882H281.202V5.27468ZM281.202 4.65055H281.827V5.27468H281.202V4.65055ZM281.202 4.02642H281.827V4.65055H281.202V4.02642ZM281.202 3.40228H281.827V4.02642H281.202V3.40228ZM281.202 2.77815H281.827V3.40228H281.202V2.77815ZM281.202 2.15402H281.827V2.77815H281.202V2.15402ZM280.578 3.40228H281.202V4.02642H280.578V3.40228ZM280.578 4.02642H281.202V4.65055H280.578V4.02642ZM280.578 4.65055H281.202V5.27468H280.578V4.65055ZM280.578 5.27468H281.202V5.89882H280.578V5.27468ZM280.578 2.77815H281.202V3.40228H280.578V2.77815ZM278.706 2.15402H279.33V2.77815H278.706V2.15402ZM279.33 2.15402H279.954V2.77815H279.33V2.15402ZM279.954 2.15402H280.578V2.77815H279.954V2.15402ZM279.954 1.52989H280.578V2.15402H279.954V1.52989ZM280.578 1.52989H281.202V2.15402H280.578V1.52989ZM280.578 2.15402H281.202V2.77815H280.578V2.15402ZM279.33 1.52989H279.954V2.15402H279.33V1.52989Z" fill="#4C4C4C"/>
</svg>
