<svg width="22" height="22" viewBox="0 0 22 22" fill="none" xmlns="http://www.w3.org/2000/svg">
<mask id="mask0_148_2345" style="mask-type:alpha" maskUnits="userSpaceOnUse" x="0" y="0" width="22" height="22">
<rect y="0.302734" width="21.1872" height="21.1872" fill="#D9D9D9"/>
</mask>
<g mask="url(#mask0_148_2345)">
<path d="M2.08089 19.2199C1.50864 19.2199 1.01877 19.0161 0.611261 18.6086C0.203754 18.2011 0 17.7112 0 17.139V4.65364C0 4.0814 0.203754 3.59152 0.611261 3.18402C1.01877 2.77651 1.50864 2.57275 2.08089 2.57275H18.728C19.3002 2.57275 19.7901 2.77651 20.1976 3.18402C20.6051 3.59152 20.8089 4.0814 20.8089 4.65364V17.139C20.8089 17.7112 20.6051 18.2011 20.1976 18.6086C19.7901 19.0161 19.3002 19.2199 18.728 19.2199H2.08089ZM10.4044 11.7547C10.4912 11.7547 10.5822 11.7417 10.6776 11.7157C10.7729 11.6897 10.864 11.6506 10.9507 11.5986L18.3118 6.99464C18.4506 6.90794 18.5546 6.79956 18.624 6.66951C18.6933 6.53945 18.728 6.39639 18.728 6.24032C18.728 5.89351 18.5806 5.6334 18.2858 5.45999C17.991 5.28658 17.6876 5.29525 17.3754 5.486L10.4044 9.85587L3.43347 5.486C3.12133 5.29525 2.81787 5.29092 2.52308 5.47299C2.22829 5.65507 2.08089 5.91085 2.08089 6.24032C2.08089 6.41373 2.11557 6.56546 2.18493 6.69552C2.2543 6.82557 2.35834 6.92528 2.49707 6.99464L9.85821 11.5986C9.94492 11.6506 10.036 11.6897 10.1313 11.7157C10.2267 11.7417 10.3177 11.7547 10.4044 11.7547Z" fill="#4C4C4C"/>
</g>
</svg>
