<svg width="23" height="23" viewBox="0 0 23 23" fill="none" xmlns="http://www.w3.org/2000/svg">
<path d="M16.538 1.02979H6.18636C3.32653 1.02979 1 3.45966 1 6.44651V16.3374C1 19.3242 3.32653 21.7541 6.18636 21.7541H16.538C19.3978 21.7541 21.7243 19.3242 21.7243 16.3374V6.44651C21.7243 3.45966 19.3978 1.02979 16.538 1.02979ZM2.82958 6.44651C2.82958 4.51363 4.33568 2.94063 6.18636 2.94063H16.538C18.3886 2.94063 19.8947 4.51363 19.8947 6.44651V16.3374C19.8947 18.2703 18.3886 19.8433 16.538 19.8433H6.18636C4.33568 19.8433 2.82958 18.2703 2.82958 16.3374V6.44651Z" fill="#4C4C4C" stroke="#F2F1EF" stroke-width="0.575676"/>
<path d="M11.3623 16.429C14.0217 16.429 16.1865 14.1693 16.1865 11.3905C16.1865 8.61177 14.0229 6.35205 11.3623 6.35205C8.70171 6.35205 6.53809 8.61177 6.53809 11.3905C6.53809 14.1693 8.70171 16.429 11.3623 16.429ZM11.3623 8.26412C13.0137 8.26412 14.3569 9.66696 14.3569 11.3917C14.3569 13.1165 13.0137 14.5194 11.3623 14.5194C9.71085 14.5194 8.36767 13.1165 8.36767 11.3917C8.36767 9.66696 9.71085 8.26412 11.3623 8.26412Z" fill="#4C4C4C" stroke="#F2F1EF" stroke-width="0.575676"/>
<path d="M16.6328 7.16627C17.3489 7.16627 17.9326 6.55788 17.9326 5.80872C17.9326 5.05956 17.3501 4.45117 16.6328 4.45117C15.9155 4.45117 15.333 5.05956 15.333 5.80872C15.333 6.55788 15.9155 7.16627 16.6328 7.16627Z" fill="#4C4C4C" stroke="#F2F1EF" stroke-width="0.575676"/>
</svg>
